G04 (created by PCBNEW (2013-07-07 BZR 4022)-stable) date 01/02/2015 03:27:20*
%MOIN*%
G04 Gerber Fmt 3.4, Leading zero omitted, Abs format*
%FSLAX34Y34*%
G01*
G70*
G90*
G04 APERTURE LIST*
%ADD10C,0.00590551*%
%ADD11R,0.017X0.055*%
%ADD12R,0.025X0.045*%
%ADD13R,0.045X0.025*%
%ADD14O,0.156X0.078*%
%ADD15R,0.1X0.05*%
%ADD16R,0.055X0.035*%
%ADD17O,0.078X0.156*%
%ADD18R,0.06X0.06*%
%ADD19C,0.06*%
%ADD20C,0.024*%
%ADD21C,0.02*%
%ADD22C,0.006*%
%ADD23C,0.00787402*%
%ADD24C,0.011811*%
G04 APERTURE END LIST*
G54D10*
G54D11*
X63760Y-40100D03*
X63510Y-40100D03*
X63250Y-40100D03*
X63000Y-40100D03*
X62740Y-40100D03*
X62485Y-40100D03*
X62230Y-40100D03*
X62230Y-37900D03*
X62485Y-37900D03*
X62740Y-37900D03*
X63000Y-37900D03*
X63255Y-37900D03*
X63510Y-37900D03*
X63765Y-37900D03*
G54D12*
X64266Y-37598D03*
X64866Y-37598D03*
G54D13*
X61614Y-40063D03*
X61614Y-39463D03*
G54D12*
X64266Y-38188D03*
X64866Y-38188D03*
G54D14*
X43110Y-46923D03*
X43110Y-48893D03*
G54D12*
X73755Y-42244D03*
X74355Y-42244D03*
X74355Y-41653D03*
X73755Y-41653D03*
X49975Y-43228D03*
X50575Y-43228D03*
X50575Y-42637D03*
X49975Y-42637D03*
X62701Y-42125D03*
X62101Y-42125D03*
X62101Y-41535D03*
X62701Y-41535D03*
G54D13*
X71240Y-39414D03*
X71240Y-38814D03*
G54D15*
X46062Y-48513D03*
X46062Y-47313D03*
X44803Y-48513D03*
X44803Y-47313D03*
G54D16*
X71968Y-36711D03*
X71968Y-37461D03*
X71771Y-35335D03*
X71771Y-34585D03*
G54D13*
X48050Y-38400D03*
X48050Y-39000D03*
G54D12*
X48951Y-34921D03*
X49551Y-34921D03*
X47967Y-34921D03*
X48567Y-34921D03*
X60100Y-37000D03*
X60700Y-37000D03*
X66845Y-38385D03*
X67445Y-38385D03*
X66845Y-39173D03*
X67445Y-39173D03*
G54D13*
X59842Y-39759D03*
X59842Y-40359D03*
X59251Y-39759D03*
X59251Y-40359D03*
G54D12*
X60772Y-42047D03*
X60172Y-42047D03*
X61323Y-36318D03*
X60723Y-36318D03*
G54D13*
X63484Y-42318D03*
X63484Y-42918D03*
G54D12*
X67622Y-35728D03*
X67022Y-35728D03*
X64168Y-36712D03*
X64768Y-36712D03*
X64168Y-36122D03*
X64768Y-36122D03*
X67022Y-36417D03*
X67622Y-36417D03*
G54D13*
X60905Y-39109D03*
X60905Y-39709D03*
G54D12*
X61284Y-41377D03*
X60684Y-41377D03*
X62987Y-36220D03*
X63587Y-36220D03*
G54D17*
X47510Y-50400D03*
X49480Y-50400D03*
X51500Y-50400D03*
X53500Y-50400D03*
X59110Y-50400D03*
X61080Y-50400D03*
X63100Y-50400D03*
X65100Y-50400D03*
X70710Y-50400D03*
X72680Y-50400D03*
X74700Y-50400D03*
X76700Y-50400D03*
G54D13*
X53350Y-46100D03*
X53350Y-45500D03*
G54D12*
X64350Y-45350D03*
X64950Y-45350D03*
X76150Y-45150D03*
X76750Y-45150D03*
G54D18*
X51972Y-35618D03*
G54D19*
X51972Y-34618D03*
X52972Y-35618D03*
X52972Y-34618D03*
X53972Y-35618D03*
X53972Y-34618D03*
X54972Y-35618D03*
X54972Y-34618D03*
X55972Y-35618D03*
X55972Y-34618D03*
X56972Y-35618D03*
X56972Y-34618D03*
X57972Y-35618D03*
X57972Y-34618D03*
X58972Y-35618D03*
X58972Y-34618D03*
G54D18*
X43972Y-35618D03*
G54D19*
X42972Y-35618D03*
X43972Y-34618D03*
X42972Y-34618D03*
G54D18*
X47342Y-42204D03*
G54D19*
X46342Y-42204D03*
X45342Y-42204D03*
X44342Y-42204D03*
X43342Y-42204D03*
X42342Y-42204D03*
G54D18*
X66515Y-41929D03*
G54D19*
X66515Y-42929D03*
X66515Y-43929D03*
X66515Y-44929D03*
X66515Y-45929D03*
X66515Y-46929D03*
G54D18*
X53972Y-44618D03*
G54D19*
X53972Y-43618D03*
X54972Y-44618D03*
X54972Y-43618D03*
X55972Y-44618D03*
X55972Y-43618D03*
X56972Y-44618D03*
X56972Y-43618D03*
X57972Y-44618D03*
X57972Y-43618D03*
X58972Y-44618D03*
X58972Y-43618D03*
G54D18*
X67972Y-42618D03*
G54D19*
X67972Y-41618D03*
X68972Y-42618D03*
X68972Y-41618D03*
X69972Y-42618D03*
X69972Y-41618D03*
X70972Y-42618D03*
X70972Y-41618D03*
G54D20*
X62100Y-44400D03*
X62600Y-44400D03*
X63100Y-44400D03*
X62600Y-44000D03*
X62100Y-44000D03*
X62100Y-44800D03*
X62600Y-44800D03*
X63100Y-44800D03*
X63100Y-44000D03*
X61600Y-44000D03*
X61600Y-44400D03*
X61600Y-44800D03*
X61100Y-44000D03*
X61100Y-44400D03*
X61100Y-44800D03*
X50500Y-44400D03*
X51000Y-44400D03*
X51500Y-44400D03*
X51500Y-44000D03*
X51000Y-44000D03*
X50500Y-44000D03*
X50000Y-44000D03*
X49500Y-44000D03*
X49500Y-44400D03*
X50000Y-44400D03*
X50500Y-44800D03*
X50000Y-44800D03*
X49500Y-44800D03*
X51000Y-44800D03*
X51500Y-44800D03*
X73700Y-44400D03*
X74200Y-44400D03*
X74700Y-44400D03*
X74700Y-44800D03*
X74200Y-44800D03*
X73700Y-44800D03*
X73200Y-44800D03*
X72700Y-44800D03*
X72700Y-44400D03*
X73200Y-44400D03*
X73700Y-44000D03*
X74200Y-44000D03*
X74700Y-44000D03*
X73200Y-44000D03*
X72700Y-44000D03*
X75925Y-38976D03*
X76417Y-38976D03*
X76417Y-38582D03*
X75925Y-38582D03*
X76417Y-39370D03*
X75925Y-39370D03*
X75433Y-39370D03*
X75433Y-38976D03*
X75433Y-38582D03*
X79724Y-47244D03*
X79724Y-46259D03*
X79724Y-45275D03*
X79724Y-44291D03*
X79724Y-43307D03*
X79724Y-42322D03*
X79724Y-41338D03*
X79724Y-40354D03*
X79724Y-39370D03*
X79724Y-38385D03*
X79724Y-37401D03*
X79724Y-36417D03*
X79724Y-35433D03*
X79724Y-34448D03*
X78740Y-34448D03*
X77755Y-34448D03*
X76771Y-34448D03*
X75787Y-34448D03*
X74803Y-34448D03*
X73818Y-34448D03*
X70866Y-34448D03*
X67913Y-34448D03*
X66929Y-34448D03*
X69881Y-36417D03*
X70866Y-36417D03*
X67913Y-47244D03*
X67913Y-46259D03*
X67913Y-45275D03*
X67913Y-44291D03*
X68897Y-47244D03*
X68897Y-46259D03*
X69881Y-46259D03*
X69881Y-47244D03*
X70866Y-47244D03*
X71850Y-42322D03*
X71850Y-41338D03*
X75787Y-42322D03*
X76771Y-42322D03*
X64960Y-46259D03*
X64960Y-47244D03*
X59055Y-47244D03*
X58070Y-47244D03*
X57086Y-47244D03*
X56102Y-47244D03*
X55118Y-47244D03*
X54133Y-47244D03*
X53149Y-47244D03*
X58070Y-42322D03*
X59055Y-42322D03*
X46259Y-46259D03*
X45275Y-46259D03*
X47244Y-46259D03*
X47244Y-47244D03*
X48228Y-47244D03*
X47244Y-44291D03*
X48228Y-44291D03*
X46259Y-43307D03*
X45275Y-43307D03*
X56102Y-39370D03*
X57086Y-39370D03*
X58070Y-39370D03*
X57086Y-40354D03*
X45275Y-37401D03*
X45275Y-40354D03*
X72834Y-38385D03*
X71850Y-38385D03*
X73818Y-38385D03*
X72834Y-39370D03*
X77755Y-35433D03*
X76771Y-35433D03*
X78740Y-35433D03*
X78740Y-36417D03*
X77755Y-36417D03*
X78740Y-37401D03*
X78740Y-38385D03*
X78740Y-39370D03*
X78740Y-40354D03*
X78740Y-41338D03*
X78740Y-42322D03*
X78740Y-43307D03*
X78740Y-44291D03*
X78740Y-45275D03*
X78740Y-47244D03*
X78740Y-46259D03*
X76771Y-46259D03*
X76771Y-47244D03*
X76771Y-44291D03*
X70866Y-44291D03*
X48031Y-39763D03*
X48425Y-39370D03*
X46062Y-40944D03*
X47244Y-40944D03*
X50393Y-37007D03*
X48031Y-36614D03*
X48425Y-36614D03*
X48425Y-37007D03*
X45669Y-37007D03*
X45669Y-37795D03*
X46062Y-37795D03*
X45669Y-39763D03*
X45275Y-39763D03*
X44881Y-34645D03*
X56692Y-38582D03*
X55118Y-39763D03*
X55511Y-40944D03*
X58661Y-38976D03*
X58267Y-41732D03*
X64173Y-40551D03*
X63385Y-37007D03*
X67322Y-37401D03*
X68110Y-37401D03*
X53937Y-46456D03*
X54724Y-46456D03*
X55511Y-46456D03*
X56299Y-46456D03*
X57086Y-46456D03*
X57874Y-46456D03*
X58661Y-46456D03*
X50433Y-34763D03*
X61496Y-40984D03*
X60393Y-38858D03*
X65354Y-37559D03*
X62893Y-35826D03*
X61600Y-49200D03*
X62400Y-49200D03*
X63400Y-49200D03*
X64000Y-49200D03*
X64600Y-49200D03*
X57600Y-49200D03*
X58200Y-49200D03*
X58800Y-49200D03*
X52000Y-49200D03*
X52600Y-49200D03*
X53200Y-49200D03*
X46000Y-49200D03*
X46600Y-49200D03*
X47200Y-49200D03*
X48000Y-49200D03*
X48600Y-49200D03*
X49200Y-49200D03*
X51200Y-49200D03*
X50600Y-49200D03*
X50000Y-49200D03*
X55200Y-49200D03*
X54600Y-49200D03*
X54000Y-49200D03*
X60800Y-49200D03*
X60200Y-49200D03*
X59600Y-49200D03*
X67000Y-49200D03*
X66200Y-49200D03*
X65400Y-49200D03*
X72200Y-49200D03*
X71600Y-49200D03*
X71000Y-49200D03*
X77600Y-49200D03*
X77000Y-49200D03*
X76400Y-49200D03*
X75800Y-49200D03*
X75200Y-49200D03*
X73000Y-49200D03*
X73600Y-49200D03*
X74200Y-49200D03*
X69600Y-49200D03*
X70200Y-49200D03*
X76181Y-37401D03*
X77559Y-40944D03*
X75629Y-43031D03*
X52440Y-43070D03*
X50118Y-35039D03*
X49566Y-42716D03*
X66456Y-38818D03*
X72834Y-42755D03*
X47480Y-39665D03*
X51003Y-41712D03*
X64960Y-43307D03*
X47637Y-35314D03*
X61181Y-42716D03*
X52283Y-37125D03*
X59350Y-36811D03*
X64251Y-37165D03*
X61515Y-35826D03*
X64665Y-42716D03*
X63484Y-41929D03*
X61712Y-42618D03*
X61220Y-41929D03*
X61614Y-40354D03*
X60433Y-39271D03*
X65748Y-35629D03*
X68011Y-35728D03*
X66535Y-36712D03*
X73917Y-38976D03*
X71653Y-39271D03*
X70669Y-39271D03*
X72440Y-36220D03*
X72440Y-35826D03*
X72047Y-35826D03*
X72047Y-36220D03*
X71653Y-36220D03*
X71653Y-35826D03*
X51141Y-42755D03*
X62755Y-42716D03*
X74370Y-42755D03*
X50826Y-37992D03*
X61653Y-37322D03*
X50905Y-37598D03*
X61338Y-37598D03*
X57972Y-37204D03*
X50078Y-37992D03*
X50748Y-38307D03*
X62480Y-37165D03*
X59763Y-35787D03*
X49763Y-36377D03*
X60350Y-36450D03*
X56900Y-36950D03*
X65255Y-40196D03*
X65492Y-40570D03*
X64783Y-39527D03*
X65019Y-39842D03*
X64527Y-34645D03*
X64842Y-34645D03*
X64212Y-34645D03*
X63425Y-34685D03*
X62696Y-34724D03*
X63090Y-34625D03*
X60374Y-34960D03*
X60275Y-35334D03*
X49724Y-46417D03*
X61299Y-46417D03*
X72913Y-46417D03*
X50275Y-46456D03*
X61889Y-46456D03*
X73503Y-46456D03*
X51259Y-46417D03*
X62913Y-46417D03*
X74527Y-46417D03*
X50708Y-46456D03*
X62322Y-46456D03*
X73937Y-46456D03*
X58976Y-38503D03*
X48582Y-35314D03*
X59350Y-41338D03*
X55787Y-41338D03*
X61023Y-34881D03*
X51062Y-36023D03*
X60629Y-40354D03*
X56535Y-41062D03*
X49133Y-37322D03*
X48818Y-37322D03*
X51102Y-39291D03*
X51102Y-38976D03*
X49842Y-37322D03*
X49488Y-37322D03*
X47650Y-38000D03*
X51929Y-46062D03*
X63543Y-46062D03*
X75118Y-46023D03*
X47550Y-39100D03*
X49055Y-41535D03*
X64055Y-42874D03*
X59980Y-43110D03*
X65944Y-41141D03*
X73228Y-47795D03*
X73700Y-47795D03*
X74212Y-47795D03*
X62598Y-47795D03*
X62086Y-47795D03*
X61614Y-47795D03*
X50000Y-47795D03*
X50472Y-47795D03*
X50984Y-47795D03*
X51023Y-36653D03*
X51259Y-35078D03*
X70118Y-38818D03*
X65255Y-36515D03*
X65255Y-36122D03*
X66535Y-35925D03*
G54D21*
X61496Y-40984D02*
X61456Y-40984D01*
X61284Y-41156D02*
X61284Y-41377D01*
X61456Y-40984D02*
X61284Y-41156D01*
X60905Y-39109D02*
X60802Y-39109D01*
X60551Y-38858D02*
X60393Y-38858D01*
X60802Y-39109D02*
X60551Y-38858D01*
G54D22*
X62987Y-35920D02*
X62987Y-36220D01*
X62893Y-35826D02*
X62987Y-35920D01*
G54D21*
X61600Y-49200D02*
X62400Y-49200D01*
X63400Y-49200D02*
X64000Y-49200D01*
X57600Y-49200D02*
X58200Y-49200D01*
X52000Y-49200D02*
X52600Y-49200D01*
X46062Y-49137D02*
X46000Y-49200D01*
X46600Y-49200D02*
X47200Y-49200D01*
X48000Y-49200D02*
X48600Y-49200D01*
X46062Y-48513D02*
X46062Y-49137D01*
X50000Y-49200D02*
X50600Y-49200D01*
X54000Y-49200D02*
X54600Y-49200D01*
X59600Y-49200D02*
X60200Y-49200D01*
X65400Y-49200D02*
X66200Y-49200D01*
X72200Y-49200D02*
X71600Y-49200D01*
X77600Y-49200D02*
X77000Y-49200D01*
X76400Y-49200D02*
X75800Y-49200D01*
X74200Y-49200D02*
X73600Y-49200D01*
X70200Y-49200D02*
X69600Y-49200D01*
X77559Y-40944D02*
X77559Y-37795D01*
X77165Y-37401D02*
X76181Y-37401D01*
X77559Y-37795D02*
X77165Y-37401D01*
G54D23*
X64266Y-38188D02*
X64266Y-37598D01*
X49975Y-42637D02*
X49645Y-42637D01*
X49645Y-42637D02*
X49566Y-42716D01*
X66845Y-39173D02*
X66811Y-39173D01*
X66811Y-39173D02*
X66456Y-38818D01*
X66845Y-38385D02*
X66845Y-38429D01*
X66845Y-38429D02*
X66456Y-38818D01*
X73755Y-41653D02*
X73307Y-41653D01*
X72834Y-42125D02*
X72834Y-42755D01*
X73307Y-41653D02*
X72834Y-42125D01*
X47637Y-35314D02*
X47637Y-35251D01*
X47637Y-35251D02*
X47967Y-34921D01*
X59350Y-36811D02*
X59911Y-36811D01*
X59911Y-36811D02*
X60100Y-37000D01*
X64266Y-37204D02*
X64266Y-37180D01*
X64266Y-37180D02*
X64251Y-37165D01*
X61323Y-36318D02*
X61323Y-36018D01*
X61323Y-36018D02*
X61515Y-35826D01*
X63484Y-41929D02*
X63484Y-42318D01*
X62101Y-42125D02*
X62101Y-42229D01*
X62101Y-42229D02*
X61712Y-42618D01*
X61102Y-42047D02*
X60772Y-42047D01*
X61220Y-41929D02*
X61102Y-42047D01*
X61614Y-40063D02*
X61614Y-40354D01*
X59842Y-39759D02*
X60339Y-39759D01*
X60433Y-39665D02*
X60433Y-39271D01*
X60339Y-39759D02*
X60433Y-39665D01*
X59251Y-39759D02*
X59842Y-39759D01*
X62230Y-40100D02*
X61650Y-40100D01*
X61650Y-40100D02*
X61614Y-40063D01*
X63765Y-37900D02*
X63977Y-37900D01*
X63977Y-37900D02*
X64266Y-38188D01*
X63510Y-37900D02*
X63765Y-37900D01*
X64168Y-36122D02*
X64168Y-36712D01*
X64168Y-36712D02*
X64266Y-36811D01*
X64266Y-36811D02*
X64266Y-37204D01*
X64266Y-37204D02*
X64266Y-38188D01*
X67622Y-35728D02*
X68011Y-35728D01*
X71240Y-39414D02*
X70811Y-39414D01*
X70811Y-39414D02*
X70669Y-39271D01*
X71771Y-35335D02*
X71771Y-35708D01*
X72047Y-35826D02*
X72440Y-35826D01*
X71653Y-36220D02*
X72047Y-36220D01*
X71771Y-35708D02*
X71653Y-35826D01*
G54D22*
X50575Y-42637D02*
X51023Y-42637D01*
X51023Y-42637D02*
X51141Y-42755D01*
X50575Y-43228D02*
X50575Y-42637D01*
X62701Y-41535D02*
X62701Y-42125D01*
X62701Y-42125D02*
X62755Y-42180D01*
X62755Y-42180D02*
X62755Y-42716D01*
X74355Y-42244D02*
X74355Y-42740D01*
X74355Y-42740D02*
X74370Y-42755D01*
X74355Y-41653D02*
X74355Y-42244D01*
X61653Y-37322D02*
X61653Y-37696D01*
X61358Y-37992D02*
X50826Y-37992D01*
X61653Y-37696D02*
X61358Y-37992D01*
X55972Y-43618D02*
X55972Y-43492D01*
X50551Y-37992D02*
X50393Y-38149D01*
X50393Y-38149D02*
X50393Y-40078D01*
X50393Y-40078D02*
X50708Y-40393D01*
X50708Y-40393D02*
X52834Y-40393D01*
X50826Y-37992D02*
X50551Y-37992D01*
X55972Y-43492D02*
X52874Y-40393D01*
X52874Y-40393D02*
X52834Y-40393D01*
X62740Y-36991D02*
X62740Y-37900D01*
X62480Y-36732D02*
X62740Y-36991D01*
X62244Y-36732D02*
X62480Y-36732D01*
X61653Y-37322D02*
X62244Y-36732D01*
X50905Y-37598D02*
X51023Y-37598D01*
X50984Y-37598D02*
X51023Y-37598D01*
X51023Y-37598D02*
X61338Y-37598D01*
X63000Y-36818D02*
X63000Y-37900D01*
X62677Y-36496D02*
X63000Y-36818D01*
X61850Y-36496D02*
X62677Y-36496D01*
X61377Y-36968D02*
X61850Y-36496D01*
X61377Y-37559D02*
X61377Y-36968D01*
X61338Y-37598D02*
X61377Y-37559D01*
X50078Y-37992D02*
X50078Y-37716D01*
X57814Y-37362D02*
X57972Y-37204D01*
X51181Y-37362D02*
X57814Y-37362D01*
X51181Y-37362D02*
X50826Y-37362D01*
X50433Y-37362D02*
X50826Y-37362D01*
X50078Y-37716D02*
X50433Y-37362D01*
X50078Y-37992D02*
X50078Y-40157D01*
X55972Y-44555D02*
X55972Y-44618D01*
X55472Y-44055D02*
X55972Y-44555D01*
X55472Y-43543D02*
X55472Y-44055D01*
X52480Y-40551D02*
X55472Y-43543D01*
X50472Y-40551D02*
X52480Y-40551D01*
X50078Y-40157D02*
X50472Y-40551D01*
X50748Y-38307D02*
X50748Y-40000D01*
X56972Y-44570D02*
X56972Y-44618D01*
X56456Y-44055D02*
X56972Y-44570D01*
X56456Y-43464D02*
X56456Y-44055D01*
X53228Y-40236D02*
X56456Y-43464D01*
X50984Y-40236D02*
X53228Y-40236D01*
X50748Y-40000D02*
X50984Y-40236D01*
X62244Y-37165D02*
X62480Y-37165D01*
X61909Y-37500D02*
X62244Y-37165D01*
X61909Y-37795D02*
X61909Y-37500D01*
X61417Y-38287D02*
X61909Y-37795D01*
X50925Y-38287D02*
X61417Y-38287D01*
X50767Y-38287D02*
X50925Y-38287D01*
X50748Y-38307D02*
X50767Y-38287D01*
X62485Y-37170D02*
X62485Y-37900D01*
X62480Y-37165D02*
X62485Y-37170D01*
X59724Y-35787D02*
X59763Y-35787D01*
X59094Y-36417D02*
X59724Y-35787D01*
X49803Y-36417D02*
X59094Y-36417D01*
X49763Y-36377D02*
X49803Y-36417D01*
X59361Y-36450D02*
X60350Y-36450D01*
X58911Y-36900D02*
X59361Y-36450D01*
X56950Y-36900D02*
X58911Y-36900D01*
X56900Y-36950D02*
X56950Y-36900D01*
X69476Y-41122D02*
X69972Y-41618D01*
X66909Y-41122D02*
X69476Y-41122D01*
X66122Y-40334D02*
X66909Y-41122D01*
X65393Y-40334D02*
X66122Y-40334D01*
X65255Y-40196D02*
X65393Y-40334D01*
X68460Y-42106D02*
X68972Y-42618D01*
X67657Y-42106D02*
X68460Y-42106D01*
X66377Y-40826D02*
X67657Y-42106D01*
X65748Y-40826D02*
X66377Y-40826D01*
X65492Y-40570D02*
X65748Y-40826D01*
X70972Y-41149D02*
X70972Y-41618D01*
X70354Y-40531D02*
X70972Y-41149D01*
X66850Y-40531D02*
X70354Y-40531D01*
X65944Y-39625D02*
X66850Y-40531D01*
X64881Y-39625D02*
X65944Y-39625D01*
X64783Y-39527D02*
X64881Y-39625D01*
X70472Y-42118D02*
X69972Y-42618D01*
X70472Y-41181D02*
X70472Y-42118D01*
X70177Y-40885D02*
X70472Y-41181D01*
X66948Y-40885D02*
X70177Y-40885D01*
X66259Y-40196D02*
X66948Y-40885D01*
X66259Y-40196D02*
X66259Y-40196D01*
X66023Y-39960D02*
X66259Y-40196D01*
X65137Y-39960D02*
X66023Y-39960D01*
X65019Y-39842D02*
X65137Y-39960D01*
X55972Y-34539D02*
X56377Y-34133D01*
X56377Y-34133D02*
X64094Y-34133D01*
X55972Y-34539D02*
X55972Y-34618D01*
X64330Y-34133D02*
X64094Y-34133D01*
X64842Y-34645D02*
X64330Y-34133D01*
X54972Y-35618D02*
X54972Y-35362D01*
X60314Y-35019D02*
X60374Y-34960D01*
X55314Y-35019D02*
X60314Y-35019D01*
X54972Y-35362D02*
X55314Y-35019D01*
X55972Y-35618D02*
X55972Y-35503D01*
X60157Y-35216D02*
X60275Y-35334D01*
X56259Y-35216D02*
X60157Y-35216D01*
X55972Y-35503D02*
X56259Y-35216D01*
G54D24*
X47557Y-48702D02*
X47557Y-50393D01*
X48405Y-47854D02*
X47557Y-48702D01*
X48405Y-47854D02*
X48405Y-47854D01*
X49724Y-46535D02*
X48405Y-47854D01*
X49724Y-46417D02*
X49724Y-46535D01*
X59121Y-48594D02*
X59121Y-50343D01*
X61299Y-46417D02*
X59121Y-48594D01*
X72913Y-46417D02*
X70686Y-48644D01*
X70686Y-48644D02*
X70686Y-50393D01*
X49497Y-47667D02*
X49497Y-50493D01*
X50275Y-46456D02*
X50275Y-46889D01*
X50275Y-46889D02*
X49497Y-47667D01*
X61111Y-47667D02*
X61111Y-50443D01*
X61889Y-46889D02*
X61111Y-47667D01*
X61889Y-46811D02*
X61889Y-46889D01*
X61889Y-46456D02*
X61889Y-46811D01*
X73503Y-46456D02*
X73503Y-46811D01*
X73503Y-46811D02*
X73503Y-46889D01*
X73503Y-46889D02*
X72676Y-47717D01*
X72676Y-47717D02*
X72676Y-50393D01*
X53476Y-48752D02*
X53476Y-50443D01*
X51259Y-46535D02*
X53476Y-48752D01*
X51259Y-46417D02*
X51259Y-46535D01*
X65090Y-48594D02*
X65090Y-50393D01*
X62913Y-46417D02*
X65090Y-48594D01*
X74527Y-46417D02*
X76704Y-48594D01*
X76704Y-48594D02*
X76704Y-50393D01*
X51556Y-47737D02*
X51556Y-50393D01*
X50708Y-46889D02*
X51556Y-47737D01*
X50708Y-46456D02*
X50708Y-46889D01*
X63070Y-47637D02*
X63070Y-50393D01*
X62322Y-46889D02*
X63070Y-47637D01*
X62322Y-46456D02*
X62322Y-46889D01*
X73937Y-46456D02*
X73937Y-46889D01*
X73937Y-46889D02*
X74684Y-47637D01*
X74684Y-47637D02*
X74684Y-50393D01*
G54D22*
X63000Y-38750D02*
X63255Y-38495D01*
X63255Y-38495D02*
X63255Y-37900D01*
X59822Y-38500D02*
X60750Y-38500D01*
X60750Y-38500D02*
X61000Y-38750D01*
X61000Y-38750D02*
X63000Y-38750D01*
X58980Y-38500D02*
X59822Y-38500D01*
X58976Y-38503D02*
X58980Y-38500D01*
X48567Y-34921D02*
X48567Y-35300D01*
X48567Y-35300D02*
X48582Y-35314D01*
X48951Y-34921D02*
X48567Y-34921D01*
X55787Y-41338D02*
X59350Y-41338D01*
X61023Y-34881D02*
X60629Y-35275D01*
X60629Y-35275D02*
X60629Y-35314D01*
X60629Y-35314D02*
X60374Y-35570D01*
X60374Y-35570D02*
X59586Y-35570D01*
X59586Y-35570D02*
X59133Y-36023D01*
X59133Y-36023D02*
X51062Y-36023D01*
X56732Y-40866D02*
X60118Y-40866D01*
X60118Y-40866D02*
X60629Y-40354D01*
X56535Y-41062D02*
X56732Y-40866D01*
X53972Y-43421D02*
X53972Y-43618D01*
X52007Y-41456D02*
X53972Y-43421D01*
X50472Y-41456D02*
X52007Y-41456D01*
X49133Y-40118D02*
X50472Y-41456D01*
X49133Y-37952D02*
X49133Y-40118D01*
X49133Y-37952D02*
X49133Y-37952D01*
X49133Y-37322D02*
X49133Y-37952D01*
X53397Y-44618D02*
X53972Y-44618D01*
X52913Y-44133D02*
X53397Y-44618D01*
X52913Y-42716D02*
X52913Y-44133D01*
X52578Y-42381D02*
X52913Y-42716D01*
X51122Y-42381D02*
X52578Y-42381D01*
X48779Y-40039D02*
X51122Y-42381D01*
X48779Y-37362D02*
X48779Y-40039D01*
X48818Y-37322D02*
X48779Y-37362D01*
X56972Y-43618D02*
X56972Y-43547D01*
X51102Y-39291D02*
X50984Y-39409D01*
X50984Y-39409D02*
X50984Y-39881D01*
X50984Y-39881D02*
X51181Y-40078D01*
X51181Y-40078D02*
X53503Y-40078D01*
X53503Y-40078D02*
X54291Y-40866D01*
X54291Y-40866D02*
X54291Y-40866D01*
X56972Y-43547D02*
X54291Y-40866D01*
X57460Y-44106D02*
X57972Y-44618D01*
X57460Y-43208D02*
X57460Y-44106D01*
X57165Y-42913D02*
X57460Y-43208D01*
X56870Y-42913D02*
X57165Y-42913D01*
X52539Y-38582D02*
X56870Y-42913D01*
X51279Y-38582D02*
X52539Y-38582D01*
X51082Y-38779D02*
X51279Y-38582D01*
X51082Y-38956D02*
X51082Y-38779D01*
X51102Y-38976D02*
X51082Y-38956D01*
X54972Y-43437D02*
X54972Y-43618D01*
X52283Y-40748D02*
X54972Y-43437D01*
X50354Y-40748D02*
X52283Y-40748D01*
X49842Y-40236D02*
X50354Y-40748D01*
X49842Y-38188D02*
X49842Y-40236D01*
X49842Y-37322D02*
X49842Y-38188D01*
X54488Y-44133D02*
X54972Y-44618D01*
X54488Y-43464D02*
X54488Y-44133D01*
X52047Y-41023D02*
X54488Y-43464D01*
X50354Y-41023D02*
X52047Y-41023D01*
X49488Y-40157D02*
X50354Y-41023D01*
X49488Y-37322D02*
X49488Y-40157D01*
X47650Y-38000D02*
X48050Y-38400D01*
X53350Y-46100D02*
X58742Y-46100D01*
X62740Y-40448D02*
X62740Y-40100D01*
X62401Y-40787D02*
X62740Y-40448D01*
X62165Y-40787D02*
X62401Y-40787D01*
X61653Y-41299D02*
X62165Y-40787D01*
X61653Y-42047D02*
X61653Y-41299D01*
X61259Y-42440D02*
X61653Y-42047D01*
X60000Y-42440D02*
X61259Y-42440D01*
X59606Y-42834D02*
X60000Y-42440D01*
X59606Y-45236D02*
X59606Y-42834D01*
X58742Y-46100D02*
X59606Y-45236D01*
X51966Y-46100D02*
X53350Y-46100D01*
X51929Y-46062D02*
X51966Y-46100D01*
X64350Y-45350D02*
X64350Y-45768D01*
X64055Y-46062D02*
X63543Y-46062D01*
X64350Y-45768D02*
X64055Y-46062D01*
X64330Y-42204D02*
X64330Y-45330D01*
X63250Y-40100D02*
X63250Y-41124D01*
X63250Y-41124D02*
X64330Y-42204D01*
X64330Y-45330D02*
X64350Y-45350D01*
X75866Y-46102D02*
X76150Y-45818D01*
X75118Y-46023D02*
X75196Y-46102D01*
X75196Y-46102D02*
X75866Y-46102D01*
X76150Y-45150D02*
X76150Y-45818D01*
X63510Y-40100D02*
X63510Y-39482D01*
X76150Y-42212D02*
X76150Y-45150D01*
X73877Y-39940D02*
X76150Y-42212D01*
X66653Y-39940D02*
X73877Y-39940D01*
X65629Y-38917D02*
X66653Y-39940D01*
X64074Y-38917D02*
X65629Y-38917D01*
X63510Y-39482D02*
X64074Y-38917D01*
X48050Y-39000D02*
X47650Y-39000D01*
X47650Y-39000D02*
X47550Y-39100D01*
X46342Y-42204D02*
X46342Y-42082D01*
X48937Y-41653D02*
X49055Y-41535D01*
X46771Y-41653D02*
X48937Y-41653D01*
X46342Y-42082D02*
X46771Y-41653D01*
X64055Y-42992D02*
X64055Y-42874D01*
X63779Y-43267D02*
X64055Y-42992D01*
X60137Y-43267D02*
X63779Y-43267D01*
X59980Y-43110D02*
X60137Y-43267D01*
X65925Y-45338D02*
X66515Y-45929D01*
X65925Y-41161D02*
X65925Y-45338D01*
X65944Y-41141D02*
X65925Y-41161D01*
X73228Y-47795D02*
X73700Y-47795D01*
X61614Y-47795D02*
X62086Y-47795D01*
X50472Y-47795D02*
X50000Y-47795D01*
X50551Y-34370D02*
X51259Y-35078D01*
X47559Y-34370D02*
X50551Y-34370D01*
X47401Y-34527D02*
X47559Y-34370D01*
X47401Y-35787D02*
X47401Y-34527D01*
X46811Y-36377D02*
X47401Y-35787D01*
X45236Y-36377D02*
X46811Y-36377D01*
X44685Y-35826D02*
X45236Y-36377D01*
X44685Y-35039D02*
X44685Y-35826D01*
X44263Y-34618D02*
X44685Y-35039D01*
X43972Y-34618D02*
X44263Y-34618D01*
X70122Y-38814D02*
X71240Y-38814D01*
X70118Y-38818D02*
X70122Y-38814D01*
X67022Y-36417D02*
X65354Y-36417D01*
X65354Y-36417D02*
X65255Y-36515D01*
X64768Y-36712D02*
X65059Y-36712D01*
X65059Y-36712D02*
X65255Y-36515D01*
X64768Y-36122D02*
X65255Y-36122D01*
X67022Y-35728D02*
X66732Y-35728D01*
X66732Y-35728D02*
X66535Y-35925D01*
M02*
