G04 (created by PCBNEW (2013-07-07 BZR 4022)-stable) date 01/02/2015 03:27:21*
%MOIN*%
G04 Gerber Fmt 3.4, Leading zero omitted, Abs format*
%FSLAX34Y34*%
G01*
G70*
G90*
G04 APERTURE LIST*
%ADD10C,0.00590551*%
%ADD11C,0.00625*%
%ADD12C,0.00688976*%
%ADD13C,0.008*%
%ADD14C,0.015*%
%ADD15C,0.0039*%
%ADD16C,0.005*%
%ADD17C,0.0094*%
%ADD18C,0.0026*%
%ADD19C,0.004*%
%ADD20C,0.002*%
%ADD21C,0.00393701*%
%ADD22C,0.00984252*%
%ADD23C,0.015748*%
%ADD24C,0.012*%
%ADD25C,0.00598425*%
%ADD26C,0.0043*%
%ADD27C,0.0035*%
%ADD28C,0.0045*%
%ADD29C,0.006*%
G04 APERTURE END LIST*
G54D10*
G54D11*
X46050Y-42922D02*
X46193Y-42922D01*
X46122Y-43172D02*
X46122Y-42922D01*
X46276Y-43172D02*
X46276Y-42922D01*
X46336Y-42922D01*
X46372Y-42933D01*
X46395Y-42957D01*
X46407Y-42981D01*
X46419Y-43029D01*
X46419Y-43064D01*
X46407Y-43112D01*
X46395Y-43136D01*
X46372Y-43160D01*
X46336Y-43172D01*
X46276Y-43172D01*
X46574Y-42922D02*
X46622Y-42922D01*
X46645Y-42933D01*
X46669Y-42957D01*
X46681Y-43005D01*
X46681Y-43088D01*
X46669Y-43136D01*
X46645Y-43160D01*
X46622Y-43172D01*
X46574Y-43172D01*
X46550Y-43160D01*
X46526Y-43136D01*
X46514Y-43088D01*
X46514Y-43005D01*
X46526Y-42957D01*
X46550Y-42933D01*
X46574Y-42922D01*
X45098Y-42922D02*
X45241Y-42922D01*
X45169Y-43172D02*
X45169Y-42922D01*
X45324Y-43172D02*
X45324Y-42922D01*
X45384Y-42922D01*
X45419Y-42933D01*
X45443Y-42957D01*
X45455Y-42981D01*
X45467Y-43029D01*
X45467Y-43064D01*
X45455Y-43112D01*
X45443Y-43136D01*
X45419Y-43160D01*
X45384Y-43172D01*
X45324Y-43172D01*
X45574Y-43172D02*
X45574Y-42922D01*
X44009Y-42922D02*
X44152Y-42922D01*
X44080Y-43172D02*
X44080Y-42922D01*
X44378Y-43148D02*
X44366Y-43160D01*
X44330Y-43172D01*
X44306Y-43172D01*
X44271Y-43160D01*
X44247Y-43136D01*
X44235Y-43112D01*
X44223Y-43064D01*
X44223Y-43029D01*
X44235Y-42981D01*
X44247Y-42957D01*
X44271Y-42933D01*
X44306Y-42922D01*
X44330Y-42922D01*
X44366Y-42933D01*
X44378Y-42945D01*
X44485Y-43172D02*
X44485Y-42922D01*
X44628Y-43172D02*
X44521Y-43029D01*
X44628Y-42922D02*
X44485Y-43064D01*
X43013Y-42922D02*
X43155Y-42922D01*
X43084Y-43172D02*
X43084Y-42922D01*
X43239Y-43172D02*
X43239Y-42922D01*
X43322Y-43100D01*
X43405Y-42922D01*
X43405Y-43172D01*
X43513Y-43160D02*
X43548Y-43172D01*
X43608Y-43172D01*
X43632Y-43160D01*
X43644Y-43148D01*
X43655Y-43124D01*
X43655Y-43100D01*
X43644Y-43076D01*
X43632Y-43064D01*
X43608Y-43053D01*
X43560Y-43041D01*
X43536Y-43029D01*
X43525Y-43017D01*
X43513Y-42993D01*
X43513Y-42969D01*
X43525Y-42945D01*
X43536Y-42933D01*
X43560Y-42922D01*
X43620Y-42922D01*
X43655Y-42933D01*
G54D12*
X67506Y-45741D02*
X67664Y-45741D01*
X67585Y-46017D02*
X67585Y-45741D01*
X67755Y-46017D02*
X67755Y-45741D01*
X67847Y-45938D01*
X67939Y-45741D01*
X67939Y-46017D01*
X68057Y-46003D02*
X68097Y-46017D01*
X68162Y-46017D01*
X68188Y-46003D01*
X68202Y-45990D01*
X68215Y-45964D01*
X68215Y-45938D01*
X68202Y-45912D01*
X68188Y-45898D01*
X68162Y-45885D01*
X68110Y-45872D01*
X68083Y-45859D01*
X68070Y-45846D01*
X68057Y-45820D01*
X68057Y-45793D01*
X68070Y-45767D01*
X68083Y-45754D01*
X68110Y-45741D01*
X68175Y-45741D01*
X68215Y-45754D01*
X67519Y-44757D02*
X67677Y-44757D01*
X67598Y-45032D02*
X67598Y-44757D01*
X67926Y-45006D02*
X67913Y-45019D01*
X67874Y-45032D01*
X67847Y-45032D01*
X67808Y-45019D01*
X67782Y-44993D01*
X67769Y-44967D01*
X67755Y-44914D01*
X67755Y-44875D01*
X67769Y-44822D01*
X67782Y-44796D01*
X67808Y-44770D01*
X67847Y-44757D01*
X67874Y-44757D01*
X67913Y-44770D01*
X67926Y-44783D01*
X68044Y-45032D02*
X68044Y-44757D01*
X68202Y-45032D02*
X68083Y-44875D01*
X68202Y-44757D02*
X68044Y-44914D01*
X67513Y-43772D02*
X67670Y-43772D01*
X67591Y-44048D02*
X67591Y-43772D01*
X67762Y-44048D02*
X67762Y-43772D01*
X67828Y-43772D01*
X67867Y-43786D01*
X67893Y-43812D01*
X67906Y-43838D01*
X67919Y-43891D01*
X67919Y-43930D01*
X67906Y-43982D01*
X67893Y-44009D01*
X67867Y-44035D01*
X67828Y-44048D01*
X67762Y-44048D01*
X68038Y-44048D02*
X68038Y-43772D01*
X64973Y-42729D02*
X65131Y-42729D01*
X65052Y-43005D02*
X65052Y-42729D01*
X65223Y-43005D02*
X65223Y-42729D01*
X65288Y-42729D01*
X65328Y-42742D01*
X65354Y-42769D01*
X65367Y-42795D01*
X65380Y-42847D01*
X65380Y-42887D01*
X65367Y-42939D01*
X65354Y-42965D01*
X65328Y-42992D01*
X65288Y-43005D01*
X65223Y-43005D01*
X65551Y-42729D02*
X65603Y-42729D01*
X65629Y-42742D01*
X65656Y-42769D01*
X65669Y-42821D01*
X65669Y-42913D01*
X65656Y-42965D01*
X65629Y-42992D01*
X65603Y-43005D01*
X65551Y-43005D01*
X65524Y-42992D01*
X65498Y-42965D01*
X65485Y-42913D01*
X65485Y-42821D01*
X65498Y-42769D01*
X65524Y-42742D01*
X65551Y-42729D01*
G54D11*
X44669Y-36150D02*
X44812Y-36150D01*
X44741Y-36400D02*
X44741Y-36150D01*
X44872Y-36400D02*
X45003Y-36233D01*
X44872Y-36233D02*
X45003Y-36400D01*
X44858Y-34313D02*
X44774Y-34194D01*
X44715Y-34313D02*
X44715Y-34063D01*
X44810Y-34063D01*
X44834Y-34075D01*
X44846Y-34087D01*
X44858Y-34111D01*
X44858Y-34147D01*
X44846Y-34170D01*
X44834Y-34182D01*
X44810Y-34194D01*
X44715Y-34194D01*
X44941Y-34313D02*
X45072Y-34147D01*
X44941Y-34147D02*
X45072Y-34313D01*
G54D13*
X65643Y-40785D02*
G75*
G03X65643Y-40785I-199J0D01*
G74*
G01*
X65393Y-41135D02*
X65643Y-40885D01*
X65543Y-35635D02*
X65643Y-35735D01*
X60243Y-35635D02*
X60143Y-35735D01*
X60143Y-41035D02*
X60243Y-41135D01*
X65643Y-40885D02*
X65643Y-35735D01*
X65543Y-35635D02*
X60243Y-35635D01*
X60143Y-35735D02*
X60143Y-41035D01*
X60243Y-41135D02*
X65393Y-41135D01*
X51029Y-39756D02*
G75*
G03X51029Y-39756I-150J0D01*
G74*
G01*
X47279Y-36156D02*
X47279Y-40156D01*
X47279Y-40156D02*
X51029Y-40156D01*
X51029Y-40156D02*
X51279Y-39906D01*
X51279Y-39906D02*
X51279Y-36156D01*
X51279Y-36156D02*
X47279Y-36156D01*
G54D14*
X48563Y-43503D02*
X48563Y-45275D01*
X48563Y-45275D02*
X52421Y-45275D01*
X52421Y-45275D02*
X52421Y-43503D01*
X52421Y-43503D02*
X48563Y-43503D01*
X60177Y-43503D02*
X60177Y-45275D01*
X60177Y-45275D02*
X64035Y-45275D01*
X64035Y-45275D02*
X64035Y-43503D01*
X64035Y-43503D02*
X60177Y-43503D01*
X71791Y-43503D02*
X71791Y-45275D01*
X71791Y-45275D02*
X75649Y-45275D01*
X75649Y-45275D02*
X75649Y-43503D01*
X75649Y-43503D02*
X71791Y-43503D01*
G54D15*
X63258Y-47859D02*
G75*
G03X63258Y-47859I-50J0D01*
G74*
G01*
X63658Y-47859D02*
X63258Y-47859D01*
X63258Y-47859D02*
X63258Y-47259D01*
X63258Y-47259D02*
X63658Y-47259D01*
X64058Y-47259D02*
X64458Y-47259D01*
X64458Y-47259D02*
X64458Y-47859D01*
X64458Y-47859D02*
X64058Y-47859D01*
X51644Y-47111D02*
G75*
G03X51644Y-47111I-50J0D01*
G74*
G01*
X52044Y-47111D02*
X51644Y-47111D01*
X51644Y-47111D02*
X51644Y-46511D01*
X51644Y-46511D02*
X52044Y-46511D01*
X52444Y-46511D02*
X52844Y-46511D01*
X52844Y-46511D02*
X52844Y-47111D01*
X52844Y-47111D02*
X52444Y-47111D01*
X51644Y-47859D02*
G75*
G03X51644Y-47859I-50J0D01*
G74*
G01*
X52044Y-47859D02*
X51644Y-47859D01*
X51644Y-47859D02*
X51644Y-47259D01*
X51644Y-47259D02*
X52044Y-47259D01*
X52444Y-47259D02*
X52844Y-47259D01*
X52844Y-47259D02*
X52844Y-47859D01*
X52844Y-47859D02*
X52444Y-47859D01*
X49440Y-48046D02*
G75*
G03X49440Y-48046I-50J0D01*
G74*
G01*
X48940Y-48046D02*
X49340Y-48046D01*
X49340Y-48046D02*
X49340Y-48646D01*
X49340Y-48646D02*
X48940Y-48646D01*
X48540Y-48646D02*
X48140Y-48646D01*
X48140Y-48646D02*
X48140Y-48046D01*
X48140Y-48046D02*
X48540Y-48046D01*
X74911Y-47111D02*
G75*
G03X74911Y-47111I-50J0D01*
G74*
G01*
X75311Y-47111D02*
X74911Y-47111D01*
X74911Y-47111D02*
X74911Y-46511D01*
X74911Y-46511D02*
X75311Y-46511D01*
X75711Y-46511D02*
X76111Y-46511D01*
X76111Y-46511D02*
X76111Y-47111D01*
X76111Y-47111D02*
X75711Y-47111D01*
X74911Y-47859D02*
G75*
G03X74911Y-47859I-50J0D01*
G74*
G01*
X75311Y-47859D02*
X74911Y-47859D01*
X74911Y-47859D02*
X74911Y-47259D01*
X74911Y-47259D02*
X75311Y-47259D01*
X75711Y-47259D02*
X76111Y-47259D01*
X76111Y-47259D02*
X76111Y-47859D01*
X76111Y-47859D02*
X75711Y-47859D01*
X72668Y-48085D02*
G75*
G03X72668Y-48085I-50J0D01*
G74*
G01*
X72168Y-48085D02*
X72568Y-48085D01*
X72568Y-48085D02*
X72568Y-48685D01*
X72568Y-48685D02*
X72168Y-48685D01*
X71768Y-48685D02*
X71368Y-48685D01*
X71368Y-48685D02*
X71368Y-48085D01*
X71368Y-48085D02*
X71768Y-48085D01*
X63258Y-47111D02*
G75*
G03X63258Y-47111I-50J0D01*
G74*
G01*
X63658Y-47111D02*
X63258Y-47111D01*
X63258Y-47111D02*
X63258Y-46511D01*
X63258Y-46511D02*
X63658Y-46511D01*
X64058Y-46511D02*
X64458Y-46511D01*
X64458Y-46511D02*
X64458Y-47111D01*
X64458Y-47111D02*
X64058Y-47111D01*
X61054Y-48085D02*
G75*
G03X61054Y-48085I-50J0D01*
G74*
G01*
X60554Y-48085D02*
X60954Y-48085D01*
X60954Y-48085D02*
X60954Y-48685D01*
X60954Y-48685D02*
X60554Y-48685D01*
X60154Y-48685D02*
X59754Y-48685D01*
X59754Y-48685D02*
X59754Y-48085D01*
X59754Y-48085D02*
X60154Y-48085D01*
G54D16*
X40747Y-37401D02*
X44094Y-37401D01*
X44094Y-37401D02*
X44094Y-40551D01*
X44094Y-40551D02*
X40747Y-40551D01*
X40747Y-40551D02*
X40747Y-37401D01*
G54D14*
X41310Y-50613D02*
X40410Y-50613D01*
X41310Y-45213D02*
X40410Y-45213D01*
X40210Y-45313D02*
X40210Y-50513D01*
G54D17*
X44410Y-45513D02*
X44410Y-50213D01*
X44410Y-50213D02*
X44410Y-50313D01*
X44410Y-50313D02*
X41810Y-50313D01*
X41810Y-50313D02*
X41810Y-45513D01*
X41810Y-45513D02*
X44410Y-45513D01*
G54D14*
X44710Y-45213D02*
X41510Y-45213D01*
X44710Y-50613D02*
X41510Y-50613D01*
X44710Y-47913D02*
X44710Y-50613D01*
X41510Y-50613D02*
X41510Y-45213D01*
X44710Y-45213D02*
X44710Y-47913D01*
G54D18*
X42363Y-44488D02*
X42363Y-44360D01*
X42363Y-44360D02*
X42166Y-44360D01*
X42166Y-44488D02*
X42166Y-44360D01*
X42363Y-44488D02*
X42166Y-44488D01*
X42363Y-44733D02*
X42363Y-44674D01*
X42363Y-44674D02*
X42264Y-44674D01*
X42264Y-44733D02*
X42264Y-44674D01*
X42363Y-44733D02*
X42264Y-44733D01*
X42363Y-44538D02*
X42363Y-44479D01*
X42363Y-44479D02*
X42264Y-44479D01*
X42264Y-44538D02*
X42264Y-44479D01*
X42363Y-44538D02*
X42264Y-44538D01*
X42363Y-44684D02*
X42363Y-44528D01*
X42363Y-44528D02*
X42294Y-44528D01*
X42294Y-44684D02*
X42294Y-44528D01*
X42363Y-44684D02*
X42294Y-44684D01*
X42952Y-44488D02*
X42952Y-44360D01*
X42952Y-44360D02*
X42755Y-44360D01*
X42755Y-44488D02*
X42755Y-44360D01*
X42952Y-44488D02*
X42755Y-44488D01*
X42952Y-44852D02*
X42952Y-44724D01*
X42952Y-44724D02*
X42755Y-44724D01*
X42755Y-44852D02*
X42755Y-44724D01*
X42952Y-44852D02*
X42755Y-44852D01*
X42854Y-44538D02*
X42854Y-44479D01*
X42854Y-44479D02*
X42755Y-44479D01*
X42755Y-44538D02*
X42755Y-44479D01*
X42854Y-44538D02*
X42755Y-44538D01*
X42854Y-44733D02*
X42854Y-44674D01*
X42854Y-44674D02*
X42755Y-44674D01*
X42755Y-44733D02*
X42755Y-44674D01*
X42854Y-44733D02*
X42755Y-44733D01*
X42824Y-44684D02*
X42824Y-44528D01*
X42824Y-44528D02*
X42755Y-44528D01*
X42755Y-44684D02*
X42755Y-44528D01*
X42824Y-44684D02*
X42755Y-44684D01*
X42559Y-44645D02*
X42559Y-44567D01*
X42559Y-44567D02*
X42481Y-44567D01*
X42481Y-44645D02*
X42481Y-44567D01*
X42559Y-44645D02*
X42481Y-44645D01*
X42363Y-44842D02*
X42363Y-44724D01*
X42363Y-44724D02*
X42245Y-44724D01*
X42245Y-44842D02*
X42245Y-44724D01*
X42363Y-44842D02*
X42245Y-44842D01*
X42195Y-44852D02*
X42195Y-44763D01*
X42195Y-44763D02*
X42166Y-44763D01*
X42166Y-44852D02*
X42166Y-44763D01*
X42195Y-44852D02*
X42166Y-44852D01*
G54D19*
X42353Y-44380D02*
X42765Y-44380D01*
X42755Y-44832D02*
X42195Y-44832D01*
G54D20*
X42253Y-44783D02*
G75*
G03X42253Y-44783I-28J0D01*
G74*
G01*
G54D19*
X42166Y-44743D02*
G75*
G03X42166Y-44469I0J137D01*
G74*
G01*
X42952Y-44469D02*
G75*
G03X42952Y-44743I0J-137D01*
G74*
G01*
G54D18*
X42363Y-43504D02*
X42363Y-43376D01*
X42363Y-43376D02*
X42166Y-43376D01*
X42166Y-43504D02*
X42166Y-43376D01*
X42363Y-43504D02*
X42166Y-43504D01*
X42363Y-43749D02*
X42363Y-43690D01*
X42363Y-43690D02*
X42264Y-43690D01*
X42264Y-43749D02*
X42264Y-43690D01*
X42363Y-43749D02*
X42264Y-43749D01*
X42363Y-43554D02*
X42363Y-43495D01*
X42363Y-43495D02*
X42264Y-43495D01*
X42264Y-43554D02*
X42264Y-43495D01*
X42363Y-43554D02*
X42264Y-43554D01*
X42363Y-43700D02*
X42363Y-43544D01*
X42363Y-43544D02*
X42294Y-43544D01*
X42294Y-43700D02*
X42294Y-43544D01*
X42363Y-43700D02*
X42294Y-43700D01*
X42952Y-43504D02*
X42952Y-43376D01*
X42952Y-43376D02*
X42755Y-43376D01*
X42755Y-43504D02*
X42755Y-43376D01*
X42952Y-43504D02*
X42755Y-43504D01*
X42952Y-43868D02*
X42952Y-43740D01*
X42952Y-43740D02*
X42755Y-43740D01*
X42755Y-43868D02*
X42755Y-43740D01*
X42952Y-43868D02*
X42755Y-43868D01*
X42854Y-43554D02*
X42854Y-43495D01*
X42854Y-43495D02*
X42755Y-43495D01*
X42755Y-43554D02*
X42755Y-43495D01*
X42854Y-43554D02*
X42755Y-43554D01*
X42854Y-43749D02*
X42854Y-43690D01*
X42854Y-43690D02*
X42755Y-43690D01*
X42755Y-43749D02*
X42755Y-43690D01*
X42854Y-43749D02*
X42755Y-43749D01*
X42824Y-43700D02*
X42824Y-43544D01*
X42824Y-43544D02*
X42755Y-43544D01*
X42755Y-43700D02*
X42755Y-43544D01*
X42824Y-43700D02*
X42755Y-43700D01*
X42559Y-43661D02*
X42559Y-43583D01*
X42559Y-43583D02*
X42481Y-43583D01*
X42481Y-43661D02*
X42481Y-43583D01*
X42559Y-43661D02*
X42481Y-43661D01*
X42363Y-43858D02*
X42363Y-43740D01*
X42363Y-43740D02*
X42245Y-43740D01*
X42245Y-43858D02*
X42245Y-43740D01*
X42363Y-43858D02*
X42245Y-43858D01*
X42195Y-43868D02*
X42195Y-43779D01*
X42195Y-43779D02*
X42166Y-43779D01*
X42166Y-43868D02*
X42166Y-43779D01*
X42195Y-43868D02*
X42166Y-43868D01*
G54D19*
X42353Y-43396D02*
X42765Y-43396D01*
X42755Y-43848D02*
X42195Y-43848D01*
G54D20*
X42253Y-43799D02*
G75*
G03X42253Y-43799I-28J0D01*
G74*
G01*
G54D19*
X42166Y-43759D02*
G75*
G03X42166Y-43485I0J137D01*
G74*
G01*
X42952Y-43485D02*
G75*
G03X42952Y-43759I0J-137D01*
G74*
G01*
G54D16*
X45922Y-38832D02*
X45022Y-38832D01*
X45022Y-38832D02*
X45022Y-38332D01*
X45022Y-38332D02*
X45922Y-38332D01*
X45922Y-38332D02*
X45922Y-38832D01*
X45022Y-38923D02*
X45922Y-38923D01*
X45922Y-38923D02*
X45922Y-39423D01*
X45922Y-39423D02*
X45022Y-39423D01*
X45022Y-39423D02*
X45022Y-38923D01*
X51434Y-46677D02*
X50534Y-46677D01*
X50534Y-46677D02*
X50534Y-47327D01*
X51434Y-48027D02*
X51434Y-48677D01*
X51434Y-48677D02*
X50534Y-48677D01*
X50534Y-48677D02*
X50534Y-48027D01*
X51434Y-47327D02*
X51434Y-46677D01*
X50450Y-46677D02*
X49550Y-46677D01*
X49550Y-46677D02*
X49550Y-47327D01*
X50450Y-48027D02*
X50450Y-48677D01*
X50450Y-48677D02*
X49550Y-48677D01*
X49550Y-48677D02*
X49550Y-48027D01*
X50450Y-47327D02*
X50450Y-46677D01*
X63048Y-46677D02*
X62148Y-46677D01*
X62148Y-46677D02*
X62148Y-47327D01*
X63048Y-48027D02*
X63048Y-48677D01*
X63048Y-48677D02*
X62148Y-48677D01*
X62148Y-48677D02*
X62148Y-48027D01*
X63048Y-47327D02*
X63048Y-46677D01*
X62064Y-46677D02*
X61164Y-46677D01*
X61164Y-46677D02*
X61164Y-47327D01*
X62064Y-48027D02*
X62064Y-48677D01*
X62064Y-48677D02*
X61164Y-48677D01*
X61164Y-48677D02*
X61164Y-48027D01*
X62064Y-47327D02*
X62064Y-46677D01*
X74662Y-46677D02*
X73762Y-46677D01*
X73762Y-46677D02*
X73762Y-47327D01*
X74662Y-48027D02*
X74662Y-48677D01*
X74662Y-48677D02*
X73762Y-48677D01*
X73762Y-48677D02*
X73762Y-48027D01*
X74662Y-47327D02*
X74662Y-46677D01*
X73678Y-46677D02*
X72778Y-46677D01*
X72778Y-46677D02*
X72778Y-47327D01*
X73678Y-48027D02*
X73678Y-48677D01*
X73678Y-48677D02*
X72778Y-48677D01*
X72778Y-48677D02*
X72778Y-48027D01*
X73678Y-47327D02*
X73678Y-46677D01*
X43740Y-44331D02*
X43462Y-44331D01*
X43462Y-44331D02*
X43462Y-44881D01*
X43462Y-44881D02*
X43740Y-44881D01*
X44412Y-44331D02*
X44134Y-44331D01*
X44412Y-44331D02*
X44412Y-44881D01*
X44412Y-44881D02*
X44134Y-44881D01*
X43740Y-43347D02*
X43462Y-43347D01*
X43462Y-43347D02*
X43462Y-43897D01*
X43462Y-43897D02*
X43740Y-43897D01*
X44412Y-43347D02*
X44134Y-43347D01*
X44412Y-43347D02*
X44412Y-43897D01*
X44412Y-43897D02*
X44134Y-43897D01*
G54D14*
X75787Y-37303D02*
X73031Y-37303D01*
X73031Y-37303D02*
X73031Y-34547D01*
X73031Y-34547D02*
X75787Y-34547D01*
X75787Y-34547D02*
X75787Y-37303D01*
G54D16*
X74305Y-40753D02*
X74305Y-39853D01*
X74305Y-39853D02*
X74805Y-39853D01*
X74805Y-39853D02*
X74805Y-40753D01*
X74805Y-40753D02*
X74305Y-40753D01*
X73714Y-40162D02*
X73714Y-39262D01*
X73714Y-39262D02*
X74214Y-39262D01*
X74214Y-39262D02*
X74214Y-40162D01*
X74214Y-40162D02*
X73714Y-40162D01*
X47699Y-45931D02*
X48599Y-45931D01*
X48599Y-45931D02*
X48599Y-46431D01*
X48599Y-46431D02*
X47699Y-46431D01*
X47699Y-46431D02*
X47699Y-45931D01*
X59313Y-45931D02*
X60213Y-45931D01*
X60213Y-45931D02*
X60213Y-46431D01*
X60213Y-46431D02*
X59313Y-46431D01*
X59313Y-46431D02*
X59313Y-45931D01*
X70927Y-45931D02*
X71827Y-45931D01*
X71827Y-45931D02*
X71827Y-46431D01*
X71827Y-46431D02*
X70927Y-46431D01*
X70927Y-46431D02*
X70927Y-45931D01*
X68041Y-39899D02*
X69241Y-39899D01*
X69241Y-38449D02*
X69241Y-37699D01*
X69241Y-37699D02*
X68041Y-37699D01*
X68041Y-37699D02*
X68041Y-38449D01*
X68041Y-39099D02*
X68041Y-39899D01*
X68041Y-39820D02*
X69241Y-39820D01*
X69241Y-39899D02*
X69241Y-39099D01*
G54D15*
X71688Y-39823D02*
G75*
G03X71688Y-39823I-50J0D01*
G74*
G01*
X71638Y-39373D02*
X71638Y-39773D01*
X71638Y-39773D02*
X71038Y-39773D01*
X71038Y-39773D02*
X71038Y-39373D01*
X71038Y-38973D02*
X71038Y-38573D01*
X71038Y-38573D02*
X71638Y-38573D01*
X71638Y-38573D02*
X71638Y-38973D01*
X69360Y-37701D02*
G75*
G03X69360Y-37701I-50J0D01*
G74*
G01*
X69760Y-37701D02*
X69360Y-37701D01*
X69360Y-37701D02*
X69360Y-37101D01*
X69360Y-37101D02*
X69760Y-37101D01*
X70160Y-37101D02*
X70560Y-37101D01*
X70560Y-37101D02*
X70560Y-37701D01*
X70560Y-37701D02*
X70160Y-37701D01*
X67309Y-38011D02*
G75*
G03X67309Y-38011I-50J0D01*
G74*
G01*
X67259Y-38461D02*
X67259Y-38061D01*
X67259Y-38061D02*
X67859Y-38061D01*
X67859Y-38061D02*
X67859Y-38461D01*
X67859Y-38861D02*
X67859Y-39261D01*
X67859Y-39261D02*
X67259Y-39261D01*
X67259Y-39261D02*
X67259Y-38861D01*
G54D16*
X69372Y-37840D02*
X70272Y-37840D01*
X70272Y-37840D02*
X70272Y-38340D01*
X70272Y-38340D02*
X69372Y-38340D01*
X69372Y-38340D02*
X69372Y-37840D01*
X70357Y-37840D02*
X71257Y-37840D01*
X71257Y-37840D02*
X71257Y-38340D01*
X71257Y-38340D02*
X70357Y-38340D01*
X70357Y-38340D02*
X70357Y-37840D01*
X70527Y-39792D02*
X69827Y-39792D01*
X69827Y-39792D02*
X69827Y-38592D01*
X69827Y-38592D02*
X70527Y-38592D01*
X70527Y-38592D02*
X70527Y-39792D01*
X78308Y-48666D02*
G75*
G03X78308Y-48666I-70J0D01*
G74*
G01*
X77087Y-48016D02*
X77087Y-48616D01*
X77087Y-48616D02*
X78187Y-48616D01*
X78187Y-48616D02*
X78187Y-48016D01*
X78187Y-47416D02*
X78187Y-46816D01*
X78187Y-46816D02*
X77087Y-46816D01*
X77087Y-46816D02*
X77087Y-47416D01*
X77147Y-41175D02*
G75*
G03X77147Y-41175I-70J0D01*
G74*
G01*
X78227Y-41825D02*
X78227Y-41225D01*
X78227Y-41225D02*
X77127Y-41225D01*
X77127Y-41225D02*
X77127Y-41825D01*
X77127Y-42425D02*
X77127Y-43025D01*
X77127Y-43025D02*
X78227Y-43025D01*
X78227Y-43025D02*
X78227Y-42425D01*
X75946Y-40483D02*
X75946Y-41383D01*
X75946Y-41383D02*
X75446Y-41383D01*
X75446Y-41383D02*
X75446Y-40483D01*
X75446Y-40483D02*
X75946Y-40483D01*
X75320Y-41498D02*
X74420Y-41498D01*
X74420Y-41498D02*
X74420Y-40998D01*
X74420Y-40998D02*
X75320Y-40998D01*
X75320Y-40998D02*
X75320Y-41498D01*
G54D15*
X72092Y-36456D02*
G75*
G03X72092Y-36456I-50J0D01*
G74*
G01*
X72042Y-36906D02*
X72042Y-36506D01*
X72042Y-36506D02*
X72642Y-36506D01*
X72642Y-36506D02*
X72642Y-36906D01*
X72642Y-37306D02*
X72642Y-37706D01*
X72642Y-37706D02*
X72042Y-37706D01*
X72042Y-37706D02*
X72042Y-37306D01*
X72672Y-35610D02*
G75*
G03X72672Y-35610I-50J0D01*
G74*
G01*
X72622Y-35160D02*
X72622Y-35560D01*
X72622Y-35560D02*
X72022Y-35560D01*
X72022Y-35560D02*
X72022Y-35160D01*
X72022Y-34760D02*
X72022Y-34360D01*
X72022Y-34360D02*
X72622Y-34360D01*
X72622Y-34360D02*
X72622Y-34760D01*
X71364Y-36436D02*
G75*
G03X71364Y-36436I-50J0D01*
G74*
G01*
X71314Y-36886D02*
X71314Y-36486D01*
X71314Y-36486D02*
X71914Y-36486D01*
X71914Y-36486D02*
X71914Y-36886D01*
X71914Y-37286D02*
X71914Y-37686D01*
X71914Y-37686D02*
X71314Y-37686D01*
X71314Y-37686D02*
X71314Y-37286D01*
G54D16*
X76112Y-41116D02*
X77012Y-41116D01*
X77012Y-41116D02*
X77012Y-41616D01*
X77012Y-41616D02*
X76112Y-41616D01*
X76112Y-41616D02*
X76112Y-41116D01*
X77012Y-41025D02*
X76112Y-41025D01*
X76112Y-41025D02*
X76112Y-40525D01*
X76112Y-40525D02*
X77012Y-40525D01*
X77012Y-40525D02*
X77012Y-41025D01*
X76979Y-39777D02*
X77879Y-39777D01*
X77879Y-39777D02*
X77879Y-40277D01*
X77879Y-40277D02*
X76979Y-40277D01*
X76979Y-40277D02*
X76979Y-39777D01*
X76442Y-37497D02*
X76442Y-36597D01*
X76442Y-36597D02*
X76942Y-36597D01*
X76942Y-36597D02*
X76942Y-37497D01*
X76942Y-37497D02*
X76442Y-37497D01*
X49347Y-47375D02*
X48447Y-47375D01*
X48447Y-47375D02*
X48447Y-46875D01*
X48447Y-46875D02*
X49347Y-46875D01*
X49347Y-46875D02*
X49347Y-47375D01*
X48447Y-47466D02*
X49347Y-47466D01*
X49347Y-47466D02*
X49347Y-47966D01*
X49347Y-47966D02*
X48447Y-47966D01*
X48447Y-47966D02*
X48447Y-47466D01*
X53124Y-43132D02*
X53124Y-44032D01*
X53124Y-44032D02*
X52624Y-44032D01*
X52624Y-44032D02*
X52624Y-43132D01*
X52624Y-43132D02*
X53124Y-43132D01*
X60961Y-47375D02*
X60061Y-47375D01*
X60061Y-47375D02*
X60061Y-46875D01*
X60061Y-46875D02*
X60961Y-46875D01*
X60961Y-46875D02*
X60961Y-47375D01*
X60061Y-47466D02*
X60961Y-47466D01*
X60961Y-47466D02*
X60961Y-47966D01*
X60961Y-47966D02*
X60061Y-47966D01*
X60061Y-47966D02*
X60061Y-47466D01*
X71675Y-47466D02*
X72575Y-47466D01*
X72575Y-47466D02*
X72575Y-47966D01*
X72575Y-47966D02*
X71675Y-47966D01*
X71675Y-47966D02*
X71675Y-47466D01*
X64738Y-43172D02*
X64738Y-44072D01*
X64738Y-44072D02*
X64238Y-44072D01*
X64238Y-44072D02*
X64238Y-43172D01*
X64238Y-43172D02*
X64738Y-43172D01*
X75809Y-43017D02*
X76709Y-43017D01*
X76709Y-43017D02*
X76709Y-43517D01*
X76709Y-43517D02*
X75809Y-43517D01*
X75809Y-43517D02*
X75809Y-43017D01*
X72575Y-47375D02*
X71675Y-47375D01*
X71675Y-47375D02*
X71675Y-46875D01*
X71675Y-46875D02*
X72575Y-46875D01*
X72575Y-46875D02*
X72575Y-47375D01*
G54D21*
X52460Y-38051D02*
X52460Y-39311D01*
X52460Y-39311D02*
X54429Y-39311D01*
X54429Y-39311D02*
X54429Y-38051D01*
X54429Y-38051D02*
X52460Y-38051D01*
G54D16*
X52660Y-39513D02*
X53560Y-39513D01*
X53560Y-39513D02*
X53560Y-40013D01*
X53560Y-40013D02*
X52660Y-40013D01*
X52660Y-40013D02*
X52660Y-39513D01*
X54746Y-37978D02*
X55646Y-37978D01*
X55646Y-37978D02*
X55646Y-38478D01*
X55646Y-38478D02*
X54746Y-38478D01*
X54746Y-38478D02*
X54746Y-37978D01*
X74870Y-38314D02*
X76976Y-38314D01*
X76976Y-39614D02*
X74870Y-39614D01*
X74870Y-39614D02*
X74870Y-38314D01*
X76976Y-39614D02*
X76976Y-38314D01*
X76983Y-39164D02*
X76783Y-39164D01*
X76783Y-39164D02*
X76783Y-38764D01*
X76783Y-38764D02*
X76983Y-38764D01*
X50407Y-41715D02*
X50407Y-42615D01*
X50407Y-42615D02*
X49907Y-42615D01*
X49907Y-42615D02*
X49907Y-41715D01*
X49907Y-41715D02*
X50407Y-41715D01*
X49316Y-42497D02*
X49316Y-41597D01*
X49316Y-41597D02*
X49816Y-41597D01*
X49816Y-41597D02*
X49816Y-42497D01*
X49816Y-42497D02*
X49316Y-42497D01*
X47050Y-39950D02*
X47050Y-40850D01*
X47050Y-40850D02*
X46550Y-40850D01*
X46550Y-40850D02*
X46550Y-39950D01*
X46550Y-39950D02*
X47050Y-39950D01*
X47700Y-34550D02*
X48600Y-34550D01*
X48600Y-34550D02*
X48600Y-35050D01*
X48600Y-35050D02*
X47700Y-35050D01*
X47700Y-35050D02*
X47700Y-34550D01*
X49741Y-35053D02*
X48841Y-35053D01*
X48841Y-35053D02*
X48841Y-34553D01*
X48841Y-34553D02*
X49741Y-34553D01*
X49741Y-34553D02*
X49741Y-35053D01*
X52650Y-37050D02*
X53550Y-37050D01*
X53550Y-37050D02*
X53550Y-37550D01*
X53550Y-37550D02*
X52650Y-37550D01*
X52650Y-37550D02*
X52650Y-37050D01*
X65650Y-34350D02*
X66550Y-34350D01*
X66550Y-34350D02*
X66550Y-34850D01*
X66550Y-34850D02*
X65650Y-34850D01*
X65650Y-34850D02*
X65650Y-34350D01*
X50700Y-40950D02*
X51600Y-40950D01*
X51600Y-40950D02*
X51600Y-41450D01*
X51600Y-41450D02*
X50700Y-41450D01*
X50700Y-41450D02*
X50700Y-40950D01*
X64313Y-41994D02*
X65213Y-41994D01*
X65213Y-41994D02*
X65213Y-42494D01*
X65213Y-42494D02*
X64313Y-42494D01*
X64313Y-42494D02*
X64313Y-41994D01*
X65652Y-34986D02*
X66552Y-34986D01*
X66552Y-34986D02*
X66552Y-35486D01*
X66552Y-35486D02*
X65652Y-35486D01*
X65652Y-35486D02*
X65652Y-34986D01*
X59111Y-37061D02*
X58211Y-37061D01*
X58211Y-37061D02*
X58211Y-36561D01*
X58211Y-36561D02*
X59111Y-36561D01*
X59111Y-36561D02*
X59111Y-37061D01*
X66872Y-36462D02*
X67772Y-36462D01*
X67772Y-36462D02*
X67772Y-36962D01*
X67772Y-36962D02*
X66872Y-36962D01*
X66872Y-36962D02*
X66872Y-36462D01*
X68647Y-37359D02*
X68647Y-36459D01*
X68647Y-36459D02*
X69147Y-36459D01*
X69147Y-36459D02*
X69147Y-37359D01*
X69147Y-37359D02*
X68647Y-37359D01*
G54D22*
X50900Y-51700D02*
X54900Y-51700D01*
X50900Y-49100D02*
X54900Y-49100D01*
G54D23*
X51200Y-48800D02*
X55200Y-48800D01*
X51100Y-53300D02*
X55200Y-53300D01*
X51200Y-52000D02*
X55200Y-52000D01*
G54D14*
X55200Y-52200D02*
X55200Y-53100D01*
X45800Y-52200D02*
X45800Y-53100D01*
X45900Y-53300D02*
X51100Y-53300D01*
G54D17*
X46100Y-49100D02*
X50800Y-49100D01*
X50800Y-49100D02*
X50900Y-49100D01*
X54900Y-49100D02*
X54900Y-51700D01*
X50900Y-51700D02*
X46100Y-51700D01*
X46100Y-51700D02*
X46100Y-49100D01*
G54D14*
X45800Y-48800D02*
X45800Y-52000D01*
X55200Y-48800D02*
X55200Y-52000D01*
X48500Y-48800D02*
X51200Y-48800D01*
X51200Y-52000D02*
X45800Y-52000D01*
X45800Y-48800D02*
X48500Y-48800D01*
G54D22*
X62500Y-51700D02*
X66500Y-51700D01*
X62500Y-49100D02*
X66500Y-49100D01*
G54D23*
X62800Y-48800D02*
X66800Y-48800D01*
X62700Y-53300D02*
X66800Y-53300D01*
X62800Y-52000D02*
X66800Y-52000D01*
G54D14*
X66800Y-52200D02*
X66800Y-53100D01*
X57400Y-52200D02*
X57400Y-53100D01*
X57500Y-53300D02*
X62700Y-53300D01*
G54D17*
X57700Y-49100D02*
X62400Y-49100D01*
X62400Y-49100D02*
X62500Y-49100D01*
X66500Y-49100D02*
X66500Y-51700D01*
X62500Y-51700D02*
X57700Y-51700D01*
X57700Y-51700D02*
X57700Y-49100D01*
G54D14*
X57400Y-48800D02*
X57400Y-52000D01*
X66800Y-48800D02*
X66800Y-52000D01*
X60100Y-48800D02*
X62800Y-48800D01*
X62800Y-52000D02*
X57400Y-52000D01*
X57400Y-48800D02*
X60100Y-48800D01*
G54D22*
X74100Y-51700D02*
X78100Y-51700D01*
X74100Y-49100D02*
X78100Y-49100D01*
G54D23*
X74400Y-48800D02*
X78400Y-48800D01*
X74300Y-53300D02*
X78400Y-53300D01*
X74400Y-52000D02*
X78400Y-52000D01*
G54D14*
X78400Y-52200D02*
X78400Y-53100D01*
X69000Y-52200D02*
X69000Y-53100D01*
X69100Y-53300D02*
X74300Y-53300D01*
G54D17*
X69300Y-49100D02*
X74000Y-49100D01*
X74000Y-49100D02*
X74100Y-49100D01*
X78100Y-49100D02*
X78100Y-51700D01*
X74100Y-51700D02*
X69300Y-51700D01*
X69300Y-51700D02*
X69300Y-49100D01*
G54D14*
X69000Y-48800D02*
X69000Y-52000D01*
X78400Y-48800D02*
X78400Y-52000D01*
X71700Y-48800D02*
X74400Y-48800D01*
X74400Y-52000D02*
X69000Y-52000D01*
X69000Y-48800D02*
X71700Y-48800D01*
G54D24*
X51572Y-36018D02*
X51572Y-34218D01*
X51572Y-34218D02*
X59372Y-34218D01*
X59372Y-34218D02*
X59372Y-36018D01*
X59372Y-36018D02*
X51572Y-36018D01*
X42472Y-36118D02*
X42472Y-34118D01*
X42472Y-34118D02*
X44472Y-34118D01*
X44472Y-34118D02*
X44472Y-36118D01*
X44472Y-36118D02*
X42472Y-36118D01*
X47842Y-41704D02*
X47842Y-42704D01*
X47842Y-42704D02*
X41842Y-42704D01*
X41842Y-42704D02*
X41842Y-41704D01*
X41842Y-41704D02*
X47842Y-41704D01*
X46842Y-41704D02*
X46842Y-42704D01*
X66015Y-41429D02*
X67015Y-41429D01*
X67015Y-41429D02*
X67015Y-47429D01*
X67015Y-47429D02*
X66015Y-47429D01*
X66015Y-47429D02*
X66015Y-41429D01*
X66015Y-42429D02*
X67015Y-42429D01*
X53472Y-43118D02*
X59472Y-43118D01*
X59472Y-43118D02*
X59472Y-45118D01*
X59472Y-45118D02*
X53472Y-45118D01*
X53472Y-45118D02*
X53472Y-43118D01*
X67472Y-41118D02*
X71472Y-41118D01*
X71472Y-41118D02*
X71472Y-43118D01*
X71472Y-43118D02*
X67472Y-43118D01*
X67472Y-43118D02*
X67472Y-41118D01*
G54D25*
X61377Y-34481D02*
X61377Y-34704D01*
X61391Y-34730D01*
X61404Y-34744D01*
X61430Y-34757D01*
X61482Y-34757D01*
X61509Y-34744D01*
X61522Y-34730D01*
X61535Y-34704D01*
X61535Y-34481D01*
X61784Y-34573D02*
X61784Y-34757D01*
X61719Y-34468D02*
X61653Y-34665D01*
X61824Y-34665D01*
X61981Y-34481D02*
X62007Y-34481D01*
X62034Y-34494D01*
X62047Y-34507D01*
X62060Y-34534D01*
X62073Y-34586D01*
X62073Y-34652D01*
X62060Y-34704D01*
X62047Y-34730D01*
X62034Y-34744D01*
X62007Y-34757D01*
X61981Y-34757D01*
X61955Y-34744D01*
X61942Y-34730D01*
X61929Y-34704D01*
X61916Y-34652D01*
X61916Y-34586D01*
X61929Y-34534D01*
X61942Y-34507D01*
X61955Y-34494D01*
X61981Y-34481D01*
X62335Y-34757D02*
X62178Y-34757D01*
X62257Y-34757D02*
X62257Y-34481D01*
X62230Y-34520D01*
X62204Y-34547D01*
X62178Y-34560D01*
G54D13*
X61536Y-39842D02*
X62136Y-39576D01*
X61536Y-39576D02*
X62136Y-39842D01*
X62079Y-39195D02*
X62107Y-39214D01*
X62136Y-39271D01*
X62136Y-39309D01*
X62107Y-39366D01*
X62050Y-39404D01*
X61993Y-39423D01*
X61879Y-39442D01*
X61793Y-39442D01*
X61679Y-39423D01*
X61622Y-39404D01*
X61565Y-39366D01*
X61536Y-39309D01*
X61536Y-39271D01*
X61565Y-39214D01*
X61593Y-39195D01*
X61536Y-39062D02*
X61536Y-38814D01*
X61765Y-38947D01*
X61765Y-38890D01*
X61793Y-38852D01*
X61822Y-38833D01*
X61879Y-38814D01*
X62022Y-38814D01*
X62079Y-38833D01*
X62107Y-38852D01*
X62136Y-38890D01*
X62136Y-39004D01*
X62107Y-39042D01*
X62079Y-39062D01*
X62107Y-38662D02*
X62136Y-38604D01*
X62136Y-38509D01*
X62107Y-38471D01*
X62079Y-38452D01*
X62022Y-38433D01*
X61965Y-38433D01*
X61907Y-38452D01*
X61879Y-38471D01*
X61850Y-38509D01*
X61822Y-38585D01*
X61793Y-38623D01*
X61765Y-38642D01*
X61707Y-38662D01*
X61650Y-38662D01*
X61593Y-38642D01*
X61565Y-38623D01*
X61536Y-38585D01*
X61536Y-38490D01*
X61565Y-38433D01*
X61593Y-38281D02*
X61565Y-38262D01*
X61536Y-38223D01*
X61536Y-38128D01*
X61565Y-38090D01*
X61593Y-38071D01*
X61650Y-38052D01*
X61707Y-38052D01*
X61793Y-38071D01*
X62136Y-38300D01*
X62136Y-38052D01*
X61536Y-37804D02*
X61536Y-37766D01*
X61565Y-37728D01*
X61593Y-37709D01*
X61650Y-37690D01*
X61765Y-37671D01*
X61907Y-37671D01*
X62022Y-37690D01*
X62079Y-37709D01*
X62107Y-37728D01*
X62136Y-37766D01*
X62136Y-37804D01*
X62107Y-37842D01*
X62079Y-37862D01*
X62022Y-37881D01*
X61907Y-37900D01*
X61765Y-37900D01*
X61650Y-37881D01*
X61593Y-37862D01*
X61565Y-37842D01*
X61536Y-37804D01*
X61536Y-37423D02*
X61536Y-37385D01*
X61565Y-37347D01*
X61593Y-37328D01*
X61650Y-37309D01*
X61765Y-37290D01*
X61907Y-37290D01*
X62022Y-37309D01*
X62079Y-37328D01*
X62107Y-37347D01*
X62136Y-37385D01*
X62136Y-37423D01*
X62107Y-37462D01*
X62079Y-37481D01*
X62022Y-37500D01*
X61907Y-37519D01*
X61765Y-37519D01*
X61650Y-37500D01*
X61593Y-37481D01*
X61565Y-37462D01*
X61536Y-37423D01*
X61965Y-37138D02*
X61965Y-36947D01*
X62136Y-37176D02*
X61536Y-37042D01*
X62136Y-36909D01*
G54D25*
X51377Y-40269D02*
X51377Y-40492D01*
X51391Y-40518D01*
X51404Y-40531D01*
X51430Y-40544D01*
X51482Y-40544D01*
X51509Y-40531D01*
X51522Y-40518D01*
X51535Y-40492D01*
X51535Y-40269D01*
X51653Y-40295D02*
X51666Y-40282D01*
X51692Y-40269D01*
X51758Y-40269D01*
X51784Y-40282D01*
X51797Y-40295D01*
X51811Y-40321D01*
X51811Y-40347D01*
X51797Y-40387D01*
X51640Y-40544D01*
X51811Y-40544D01*
X51981Y-40269D02*
X52007Y-40269D01*
X52034Y-40282D01*
X52047Y-40295D01*
X52060Y-40321D01*
X52073Y-40374D01*
X52073Y-40439D01*
X52060Y-40492D01*
X52047Y-40518D01*
X52034Y-40531D01*
X52007Y-40544D01*
X51981Y-40544D01*
X51955Y-40531D01*
X51942Y-40518D01*
X51929Y-40492D01*
X51916Y-40439D01*
X51916Y-40374D01*
X51929Y-40321D01*
X51942Y-40295D01*
X51955Y-40282D01*
X51981Y-40269D01*
X52335Y-40544D02*
X52178Y-40544D01*
X52257Y-40544D02*
X52257Y-40269D01*
X52230Y-40308D01*
X52204Y-40334D01*
X52178Y-40347D01*
X52709Y-45433D02*
X52933Y-45433D01*
X52959Y-45419D01*
X52972Y-45406D01*
X52985Y-45380D01*
X52985Y-45328D01*
X52972Y-45301D01*
X52959Y-45288D01*
X52933Y-45275D01*
X52709Y-45275D01*
X52985Y-45000D02*
X52985Y-45157D01*
X52985Y-45078D02*
X52709Y-45078D01*
X52749Y-45104D01*
X52775Y-45131D01*
X52788Y-45157D01*
X52709Y-44829D02*
X52709Y-44803D01*
X52723Y-44776D01*
X52736Y-44763D01*
X52762Y-44750D01*
X52814Y-44737D01*
X52880Y-44737D01*
X52933Y-44750D01*
X52959Y-44763D01*
X52972Y-44776D01*
X52985Y-44803D01*
X52985Y-44829D01*
X52972Y-44855D01*
X52959Y-44868D01*
X52933Y-44881D01*
X52880Y-44895D01*
X52814Y-44895D01*
X52762Y-44881D01*
X52736Y-44868D01*
X52723Y-44855D01*
X52709Y-44829D01*
X52709Y-44645D02*
X52709Y-44475D01*
X52814Y-44566D01*
X52814Y-44527D01*
X52828Y-44501D01*
X52841Y-44488D01*
X52867Y-44475D01*
X52933Y-44475D01*
X52959Y-44488D01*
X52972Y-44501D01*
X52985Y-44527D01*
X52985Y-44606D01*
X52972Y-44632D01*
X52959Y-44645D01*
G54D24*
X48634Y-48569D02*
X48634Y-47969D01*
X48777Y-47969D01*
X48863Y-47998D01*
X48920Y-48055D01*
X48949Y-48112D01*
X48977Y-48226D01*
X48977Y-48312D01*
X48949Y-48426D01*
X48920Y-48483D01*
X48863Y-48541D01*
X48777Y-48569D01*
X48634Y-48569D01*
X49577Y-48569D02*
X49377Y-48283D01*
X49234Y-48569D02*
X49234Y-47969D01*
X49463Y-47969D01*
X49520Y-47998D01*
X49549Y-48026D01*
X49577Y-48083D01*
X49577Y-48169D01*
X49549Y-48226D01*
X49520Y-48255D01*
X49463Y-48283D01*
X49234Y-48283D01*
X49749Y-47969D02*
X49949Y-48569D01*
X50149Y-47969D01*
X50434Y-48226D02*
X50377Y-48198D01*
X50349Y-48169D01*
X50320Y-48112D01*
X50320Y-48083D01*
X50349Y-48026D01*
X50377Y-47998D01*
X50434Y-47969D01*
X50549Y-47969D01*
X50606Y-47998D01*
X50634Y-48026D01*
X50663Y-48083D01*
X50663Y-48112D01*
X50634Y-48169D01*
X50606Y-48198D01*
X50549Y-48226D01*
X50434Y-48226D01*
X50377Y-48255D01*
X50349Y-48283D01*
X50320Y-48341D01*
X50320Y-48455D01*
X50349Y-48512D01*
X50377Y-48541D01*
X50434Y-48569D01*
X50549Y-48569D01*
X50606Y-48541D01*
X50634Y-48512D01*
X50663Y-48455D01*
X50663Y-48341D01*
X50634Y-48283D01*
X50606Y-48255D01*
X50549Y-48226D01*
X51006Y-48226D02*
X50949Y-48198D01*
X50920Y-48169D01*
X50892Y-48112D01*
X50892Y-48083D01*
X50920Y-48026D01*
X50949Y-47998D01*
X51006Y-47969D01*
X51120Y-47969D01*
X51177Y-47998D01*
X51206Y-48026D01*
X51234Y-48083D01*
X51234Y-48112D01*
X51206Y-48169D01*
X51177Y-48198D01*
X51120Y-48226D01*
X51006Y-48226D01*
X50949Y-48255D01*
X50920Y-48283D01*
X50892Y-48341D01*
X50892Y-48455D01*
X50920Y-48512D01*
X50949Y-48541D01*
X51006Y-48569D01*
X51120Y-48569D01*
X51177Y-48541D01*
X51206Y-48512D01*
X51234Y-48455D01*
X51234Y-48341D01*
X51206Y-48283D01*
X51177Y-48255D01*
X51120Y-48226D01*
X51463Y-48026D02*
X51492Y-47998D01*
X51549Y-47969D01*
X51692Y-47969D01*
X51749Y-47998D01*
X51777Y-48026D01*
X51806Y-48083D01*
X51806Y-48141D01*
X51777Y-48226D01*
X51434Y-48569D01*
X51806Y-48569D01*
X52349Y-47969D02*
X52063Y-47969D01*
X52034Y-48255D01*
X52063Y-48226D01*
X52120Y-48198D01*
X52263Y-48198D01*
X52320Y-48226D01*
X52349Y-48255D01*
X52377Y-48312D01*
X52377Y-48455D01*
X52349Y-48512D01*
X52320Y-48541D01*
X52263Y-48569D01*
X52120Y-48569D01*
X52063Y-48541D01*
X52034Y-48512D01*
G54D25*
X64363Y-45433D02*
X64586Y-45433D01*
X64612Y-45419D01*
X64625Y-45406D01*
X64639Y-45380D01*
X64639Y-45328D01*
X64625Y-45301D01*
X64612Y-45288D01*
X64586Y-45275D01*
X64363Y-45275D01*
X64639Y-45000D02*
X64639Y-45157D01*
X64639Y-45078D02*
X64363Y-45078D01*
X64402Y-45104D01*
X64429Y-45131D01*
X64442Y-45157D01*
X64363Y-44829D02*
X64363Y-44803D01*
X64376Y-44776D01*
X64389Y-44763D01*
X64416Y-44750D01*
X64468Y-44737D01*
X64534Y-44737D01*
X64586Y-44750D01*
X64612Y-44763D01*
X64625Y-44776D01*
X64639Y-44803D01*
X64639Y-44829D01*
X64625Y-44855D01*
X64612Y-44868D01*
X64586Y-44881D01*
X64534Y-44895D01*
X64468Y-44895D01*
X64416Y-44881D01*
X64389Y-44868D01*
X64376Y-44855D01*
X64363Y-44829D01*
X64389Y-44632D02*
X64376Y-44619D01*
X64363Y-44593D01*
X64363Y-44527D01*
X64376Y-44501D01*
X64389Y-44488D01*
X64416Y-44475D01*
X64442Y-44475D01*
X64481Y-44488D01*
X64639Y-44645D01*
X64639Y-44475D01*
X71213Y-44881D02*
X71437Y-44881D01*
X71463Y-44868D01*
X71476Y-44855D01*
X71489Y-44829D01*
X71489Y-44776D01*
X71476Y-44750D01*
X71463Y-44737D01*
X71437Y-44724D01*
X71213Y-44724D01*
X71489Y-44448D02*
X71489Y-44606D01*
X71489Y-44527D02*
X71213Y-44527D01*
X71253Y-44553D01*
X71279Y-44580D01*
X71292Y-44606D01*
X71213Y-44278D02*
X71213Y-44251D01*
X71227Y-44225D01*
X71240Y-44212D01*
X71266Y-44199D01*
X71318Y-44186D01*
X71384Y-44186D01*
X71437Y-44199D01*
X71463Y-44212D01*
X71476Y-44225D01*
X71489Y-44251D01*
X71489Y-44278D01*
X71476Y-44304D01*
X71463Y-44317D01*
X71437Y-44330D01*
X71384Y-44343D01*
X71318Y-44343D01*
X71266Y-44330D01*
X71240Y-44317D01*
X71227Y-44304D01*
X71213Y-44278D01*
X71489Y-43923D02*
X71489Y-44081D01*
X71489Y-44002D02*
X71213Y-44002D01*
X71253Y-44028D01*
X71279Y-44055D01*
X71292Y-44081D01*
X64849Y-47644D02*
X64835Y-47657D01*
X64796Y-47670D01*
X64770Y-47670D01*
X64730Y-47657D01*
X64704Y-47631D01*
X64691Y-47604D01*
X64678Y-47552D01*
X64678Y-47513D01*
X64691Y-47460D01*
X64704Y-47434D01*
X64730Y-47408D01*
X64770Y-47395D01*
X64796Y-47395D01*
X64835Y-47408D01*
X64849Y-47421D01*
X65111Y-47670D02*
X64954Y-47670D01*
X65032Y-47670D02*
X65032Y-47395D01*
X65006Y-47434D01*
X64980Y-47460D01*
X64954Y-47473D01*
X65374Y-47670D02*
X65216Y-47670D01*
X65295Y-47670D02*
X65295Y-47395D01*
X65269Y-47434D01*
X65242Y-47460D01*
X65216Y-47473D01*
X65610Y-47395D02*
X65557Y-47395D01*
X65531Y-47408D01*
X65518Y-47421D01*
X65492Y-47460D01*
X65479Y-47513D01*
X65479Y-47618D01*
X65492Y-47644D01*
X65505Y-47657D01*
X65531Y-47670D01*
X65583Y-47670D01*
X65610Y-47657D01*
X65623Y-47644D01*
X65636Y-47618D01*
X65636Y-47552D01*
X65623Y-47526D01*
X65610Y-47513D01*
X65583Y-47500D01*
X65531Y-47500D01*
X65505Y-47513D01*
X65492Y-47526D01*
X65479Y-47552D01*
G54D26*
X63665Y-47657D02*
X63665Y-47788D01*
X63619Y-47582D02*
X63572Y-47723D01*
X63694Y-47723D01*
X63769Y-47770D02*
X63778Y-47779D01*
X63769Y-47788D01*
X63759Y-47779D01*
X63769Y-47770D01*
X63769Y-47788D01*
X63844Y-47591D02*
X63975Y-47591D01*
X63891Y-47788D01*
X64135Y-47657D02*
X64135Y-47788D01*
X64050Y-47657D02*
X64050Y-47760D01*
X64059Y-47779D01*
X64078Y-47788D01*
X64106Y-47788D01*
X64125Y-47779D01*
X64135Y-47770D01*
G54D25*
X53274Y-46896D02*
X53261Y-46909D01*
X53221Y-46922D01*
X53195Y-46922D01*
X53156Y-46909D01*
X53129Y-46883D01*
X53116Y-46856D01*
X53103Y-46804D01*
X53103Y-46765D01*
X53116Y-46712D01*
X53129Y-46686D01*
X53156Y-46660D01*
X53195Y-46646D01*
X53221Y-46646D01*
X53261Y-46660D01*
X53274Y-46673D01*
X53536Y-46922D02*
X53379Y-46922D01*
X53458Y-46922D02*
X53458Y-46646D01*
X53431Y-46686D01*
X53405Y-46712D01*
X53379Y-46725D01*
X53799Y-46922D02*
X53641Y-46922D01*
X53720Y-46922D02*
X53720Y-46646D01*
X53694Y-46686D01*
X53667Y-46712D01*
X53641Y-46725D01*
X54061Y-46922D02*
X53904Y-46922D01*
X53982Y-46922D02*
X53982Y-46646D01*
X53956Y-46686D01*
X53930Y-46712D01*
X53904Y-46725D01*
G54D26*
X52051Y-46909D02*
X52051Y-47040D01*
X52004Y-46834D02*
X51957Y-46975D01*
X52079Y-46975D01*
X52154Y-47022D02*
X52164Y-47031D01*
X52154Y-47040D01*
X52145Y-47031D01*
X52154Y-47022D01*
X52154Y-47040D01*
X52230Y-46843D02*
X52361Y-46843D01*
X52276Y-47040D01*
X52520Y-46909D02*
X52520Y-47040D01*
X52436Y-46909D02*
X52436Y-47012D01*
X52445Y-47031D01*
X52464Y-47040D01*
X52492Y-47040D01*
X52511Y-47031D01*
X52520Y-47022D01*
G54D25*
X53313Y-47644D02*
X53300Y-47657D01*
X53261Y-47670D01*
X53234Y-47670D01*
X53195Y-47657D01*
X53169Y-47631D01*
X53156Y-47604D01*
X53143Y-47552D01*
X53143Y-47513D01*
X53156Y-47460D01*
X53169Y-47434D01*
X53195Y-47408D01*
X53234Y-47395D01*
X53261Y-47395D01*
X53300Y-47408D01*
X53313Y-47421D01*
X53576Y-47670D02*
X53418Y-47670D01*
X53497Y-47670D02*
X53497Y-47395D01*
X53471Y-47434D01*
X53444Y-47460D01*
X53418Y-47473D01*
X53838Y-47670D02*
X53681Y-47670D01*
X53759Y-47670D02*
X53759Y-47395D01*
X53733Y-47434D01*
X53707Y-47460D01*
X53681Y-47473D01*
X54074Y-47486D02*
X54074Y-47670D01*
X54009Y-47381D02*
X53943Y-47578D01*
X54114Y-47578D01*
G54D26*
X52051Y-47657D02*
X52051Y-47788D01*
X52004Y-47582D02*
X51957Y-47723D01*
X52079Y-47723D01*
X52154Y-47770D02*
X52164Y-47779D01*
X52154Y-47788D01*
X52145Y-47779D01*
X52154Y-47770D01*
X52154Y-47788D01*
X52230Y-47591D02*
X52361Y-47591D01*
X52276Y-47788D01*
X52520Y-47657D02*
X52520Y-47788D01*
X52436Y-47657D02*
X52436Y-47760D01*
X52445Y-47779D01*
X52464Y-47788D01*
X52492Y-47788D01*
X52511Y-47779D01*
X52520Y-47770D01*
G54D25*
X47132Y-48471D02*
X47119Y-48484D01*
X47080Y-48497D01*
X47053Y-48497D01*
X47014Y-48484D01*
X46988Y-48458D01*
X46975Y-48431D01*
X46961Y-48379D01*
X46961Y-48339D01*
X46975Y-48287D01*
X46988Y-48261D01*
X47014Y-48234D01*
X47053Y-48221D01*
X47080Y-48221D01*
X47119Y-48234D01*
X47132Y-48248D01*
X47395Y-48497D02*
X47237Y-48497D01*
X47316Y-48497D02*
X47316Y-48221D01*
X47290Y-48261D01*
X47263Y-48287D01*
X47237Y-48300D01*
X47657Y-48497D02*
X47500Y-48497D01*
X47578Y-48497D02*
X47578Y-48221D01*
X47552Y-48261D01*
X47526Y-48287D01*
X47500Y-48300D01*
X47749Y-48221D02*
X47933Y-48221D01*
X47814Y-48497D01*
G54D26*
X48547Y-48144D02*
X48547Y-48276D01*
X48500Y-48069D02*
X48454Y-48210D01*
X48575Y-48210D01*
X48651Y-48257D02*
X48660Y-48266D01*
X48651Y-48276D01*
X48641Y-48266D01*
X48651Y-48257D01*
X48651Y-48276D01*
X48726Y-48079D02*
X48857Y-48079D01*
X48772Y-48276D01*
X49016Y-48144D02*
X49016Y-48276D01*
X48932Y-48144D02*
X48932Y-48248D01*
X48941Y-48266D01*
X48960Y-48276D01*
X48988Y-48276D01*
X49007Y-48266D01*
X49016Y-48257D01*
G54D25*
X75912Y-45793D02*
X75898Y-45807D01*
X75859Y-45820D01*
X75833Y-45820D01*
X75793Y-45807D01*
X75767Y-45780D01*
X75754Y-45754D01*
X75741Y-45702D01*
X75741Y-45662D01*
X75754Y-45610D01*
X75767Y-45583D01*
X75793Y-45557D01*
X75833Y-45544D01*
X75859Y-45544D01*
X75898Y-45557D01*
X75912Y-45570D01*
X76174Y-45820D02*
X76017Y-45820D01*
X76095Y-45820D02*
X76095Y-45544D01*
X76069Y-45583D01*
X76043Y-45610D01*
X76017Y-45623D01*
X76437Y-45820D02*
X76279Y-45820D01*
X76358Y-45820D02*
X76358Y-45544D01*
X76332Y-45583D01*
X76305Y-45610D01*
X76279Y-45623D01*
X76594Y-45662D02*
X76568Y-45649D01*
X76555Y-45636D01*
X76541Y-45610D01*
X76541Y-45597D01*
X76555Y-45570D01*
X76568Y-45557D01*
X76594Y-45544D01*
X76646Y-45544D01*
X76673Y-45557D01*
X76686Y-45570D01*
X76699Y-45597D01*
X76699Y-45610D01*
X76686Y-45636D01*
X76673Y-45649D01*
X76646Y-45662D01*
X76594Y-45662D01*
X76568Y-45675D01*
X76555Y-45688D01*
X76541Y-45715D01*
X76541Y-45767D01*
X76555Y-45793D01*
X76568Y-45807D01*
X76594Y-45820D01*
X76646Y-45820D01*
X76673Y-45807D01*
X76686Y-45793D01*
X76699Y-45767D01*
X76699Y-45715D01*
X76686Y-45688D01*
X76673Y-45675D01*
X76646Y-45662D01*
X75912Y-46266D02*
X75898Y-46279D01*
X75859Y-46292D01*
X75833Y-46292D01*
X75793Y-46279D01*
X75767Y-46253D01*
X75754Y-46227D01*
X75741Y-46174D01*
X75741Y-46135D01*
X75754Y-46082D01*
X75767Y-46056D01*
X75793Y-46030D01*
X75833Y-46017D01*
X75859Y-46017D01*
X75898Y-46030D01*
X75912Y-46043D01*
X76174Y-46292D02*
X76017Y-46292D01*
X76095Y-46292D02*
X76095Y-46017D01*
X76069Y-46056D01*
X76043Y-46082D01*
X76017Y-46095D01*
X76437Y-46292D02*
X76279Y-46292D01*
X76358Y-46292D02*
X76358Y-46017D01*
X76332Y-46056D01*
X76305Y-46082D01*
X76279Y-46095D01*
X76686Y-46017D02*
X76555Y-46017D01*
X76541Y-46148D01*
X76555Y-46135D01*
X76581Y-46122D01*
X76646Y-46122D01*
X76673Y-46135D01*
X76686Y-46148D01*
X76699Y-46174D01*
X76699Y-46240D01*
X76686Y-46266D01*
X76673Y-46279D01*
X76646Y-46292D01*
X76581Y-46292D01*
X76555Y-46279D01*
X76541Y-46266D01*
X70439Y-48471D02*
X70426Y-48484D01*
X70387Y-48497D01*
X70360Y-48497D01*
X70321Y-48484D01*
X70295Y-48458D01*
X70282Y-48431D01*
X70269Y-48379D01*
X70269Y-48339D01*
X70282Y-48287D01*
X70295Y-48261D01*
X70321Y-48234D01*
X70360Y-48221D01*
X70387Y-48221D01*
X70426Y-48234D01*
X70439Y-48248D01*
X70702Y-48497D02*
X70544Y-48497D01*
X70623Y-48497D02*
X70623Y-48221D01*
X70597Y-48261D01*
X70570Y-48287D01*
X70544Y-48300D01*
X70964Y-48497D02*
X70807Y-48497D01*
X70885Y-48497D02*
X70885Y-48221D01*
X70859Y-48261D01*
X70833Y-48287D01*
X70807Y-48300D01*
X71069Y-48248D02*
X71082Y-48234D01*
X71108Y-48221D01*
X71174Y-48221D01*
X71200Y-48234D01*
X71213Y-48248D01*
X71227Y-48274D01*
X71227Y-48300D01*
X71213Y-48339D01*
X71056Y-48497D01*
X71227Y-48497D01*
X64849Y-46896D02*
X64835Y-46909D01*
X64796Y-46922D01*
X64770Y-46922D01*
X64730Y-46909D01*
X64704Y-46883D01*
X64691Y-46856D01*
X64678Y-46804D01*
X64678Y-46765D01*
X64691Y-46712D01*
X64704Y-46686D01*
X64730Y-46660D01*
X64770Y-46646D01*
X64796Y-46646D01*
X64835Y-46660D01*
X64849Y-46673D01*
X65111Y-46922D02*
X64954Y-46922D01*
X65032Y-46922D02*
X65032Y-46646D01*
X65006Y-46686D01*
X64980Y-46712D01*
X64954Y-46725D01*
X65374Y-46922D02*
X65216Y-46922D01*
X65295Y-46922D02*
X65295Y-46646D01*
X65269Y-46686D01*
X65242Y-46712D01*
X65216Y-46725D01*
X65465Y-46646D02*
X65636Y-46646D01*
X65544Y-46751D01*
X65583Y-46751D01*
X65610Y-46765D01*
X65623Y-46778D01*
X65636Y-46804D01*
X65636Y-46870D01*
X65623Y-46896D01*
X65610Y-46909D01*
X65583Y-46922D01*
X65505Y-46922D01*
X65479Y-46909D01*
X65465Y-46896D01*
G54D26*
X63665Y-46909D02*
X63665Y-47040D01*
X63619Y-46834D02*
X63572Y-46975D01*
X63694Y-46975D01*
X63769Y-47022D02*
X63778Y-47031D01*
X63769Y-47040D01*
X63759Y-47031D01*
X63769Y-47022D01*
X63769Y-47040D01*
X63844Y-46843D02*
X63975Y-46843D01*
X63891Y-47040D01*
X64135Y-46909D02*
X64135Y-47040D01*
X64050Y-46909D02*
X64050Y-47012D01*
X64059Y-47031D01*
X64078Y-47040D01*
X64106Y-47040D01*
X64125Y-47031D01*
X64135Y-47022D01*
G54D25*
X58746Y-48471D02*
X58733Y-48484D01*
X58694Y-48497D01*
X58667Y-48497D01*
X58628Y-48484D01*
X58602Y-48458D01*
X58589Y-48431D01*
X58576Y-48379D01*
X58576Y-48339D01*
X58589Y-48287D01*
X58602Y-48261D01*
X58628Y-48234D01*
X58667Y-48221D01*
X58694Y-48221D01*
X58733Y-48234D01*
X58746Y-48248D01*
X59009Y-48497D02*
X58851Y-48497D01*
X58930Y-48497D02*
X58930Y-48221D01*
X58904Y-48261D01*
X58877Y-48287D01*
X58851Y-48300D01*
X59271Y-48497D02*
X59114Y-48497D01*
X59192Y-48497D02*
X59192Y-48221D01*
X59166Y-48261D01*
X59140Y-48287D01*
X59114Y-48300D01*
X59442Y-48221D02*
X59468Y-48221D01*
X59494Y-48234D01*
X59507Y-48248D01*
X59520Y-48274D01*
X59534Y-48326D01*
X59534Y-48392D01*
X59520Y-48444D01*
X59507Y-48471D01*
X59494Y-48484D01*
X59468Y-48497D01*
X59442Y-48497D01*
X59416Y-48484D01*
X59402Y-48471D01*
X59389Y-48444D01*
X59376Y-48392D01*
X59376Y-48326D01*
X59389Y-48274D01*
X59402Y-48248D01*
X59416Y-48234D01*
X59442Y-48221D01*
G54D26*
X60162Y-48184D02*
X60162Y-48315D01*
X60115Y-48109D02*
X60068Y-48249D01*
X60190Y-48249D01*
X60265Y-48296D02*
X60274Y-48306D01*
X60265Y-48315D01*
X60255Y-48306D01*
X60265Y-48296D01*
X60265Y-48315D01*
X60340Y-48118D02*
X60471Y-48118D01*
X60387Y-48315D01*
X60631Y-48184D02*
X60631Y-48315D01*
X60546Y-48184D02*
X60546Y-48287D01*
X60556Y-48306D01*
X60574Y-48315D01*
X60602Y-48315D01*
X60621Y-48306D01*
X60631Y-48296D01*
G54D25*
X45118Y-36922D02*
X45118Y-37119D01*
X45104Y-37158D01*
X45078Y-37185D01*
X45039Y-37198D01*
X45013Y-37198D01*
X45236Y-36948D02*
X45249Y-36935D01*
X45275Y-36922D01*
X45341Y-36922D01*
X45367Y-36935D01*
X45380Y-36948D01*
X45393Y-36975D01*
X45393Y-37001D01*
X45380Y-37040D01*
X45223Y-37198D01*
X45393Y-37198D01*
X45564Y-36922D02*
X45590Y-36922D01*
X45616Y-36935D01*
X45629Y-36948D01*
X45643Y-36975D01*
X45656Y-37027D01*
X45656Y-37093D01*
X45643Y-37145D01*
X45629Y-37171D01*
X45616Y-37185D01*
X45590Y-37198D01*
X45564Y-37198D01*
X45538Y-37185D01*
X45524Y-37171D01*
X45511Y-37145D01*
X45498Y-37093D01*
X45498Y-37027D01*
X45511Y-36975D01*
X45524Y-36948D01*
X45538Y-36935D01*
X45564Y-36922D01*
X45918Y-37198D02*
X45761Y-37198D01*
X45839Y-37198D02*
X45839Y-36922D01*
X45813Y-36961D01*
X45787Y-36988D01*
X45761Y-37001D01*
G54D24*
X35967Y-37044D02*
X35967Y-37529D01*
X35995Y-37587D01*
X36024Y-37615D01*
X36081Y-37644D01*
X36195Y-37644D01*
X36252Y-37615D01*
X36281Y-37587D01*
X36309Y-37529D01*
X36309Y-37044D01*
X36567Y-37615D02*
X36652Y-37644D01*
X36795Y-37644D01*
X36852Y-37615D01*
X36881Y-37587D01*
X36909Y-37529D01*
X36909Y-37472D01*
X36881Y-37415D01*
X36852Y-37387D01*
X36795Y-37358D01*
X36681Y-37329D01*
X36624Y-37301D01*
X36595Y-37272D01*
X36567Y-37215D01*
X36567Y-37158D01*
X36595Y-37101D01*
X36624Y-37072D01*
X36681Y-37044D01*
X36824Y-37044D01*
X36909Y-37072D01*
X37367Y-37329D02*
X37452Y-37358D01*
X37481Y-37387D01*
X37509Y-37444D01*
X37509Y-37529D01*
X37481Y-37587D01*
X37452Y-37615D01*
X37395Y-37644D01*
X37167Y-37644D01*
X37167Y-37044D01*
X37367Y-37044D01*
X37424Y-37072D01*
X37452Y-37101D01*
X37481Y-37158D01*
X37481Y-37215D01*
X37452Y-37272D01*
X37424Y-37301D01*
X37367Y-37329D01*
X37167Y-37329D01*
X37624Y-37701D02*
X38081Y-37701D01*
X38338Y-37044D02*
X38452Y-37044D01*
X38509Y-37072D01*
X38567Y-37129D01*
X38595Y-37244D01*
X38595Y-37444D01*
X38567Y-37558D01*
X38509Y-37615D01*
X38452Y-37644D01*
X38338Y-37644D01*
X38281Y-37615D01*
X38224Y-37558D01*
X38195Y-37444D01*
X38195Y-37244D01*
X38224Y-37129D01*
X38281Y-37072D01*
X38338Y-37044D01*
X38767Y-37044D02*
X39109Y-37044D01*
X38938Y-37644D02*
X38938Y-37044D01*
X39624Y-37072D02*
X39567Y-37044D01*
X39481Y-37044D01*
X39395Y-37072D01*
X39338Y-37129D01*
X39309Y-37187D01*
X39281Y-37301D01*
X39281Y-37387D01*
X39309Y-37501D01*
X39338Y-37558D01*
X39395Y-37615D01*
X39481Y-37644D01*
X39538Y-37644D01*
X39624Y-37615D01*
X39652Y-37587D01*
X39652Y-37387D01*
X39538Y-37387D01*
G54D25*
X42644Y-51253D02*
X42644Y-50977D01*
X42749Y-50977D01*
X42775Y-50990D01*
X42788Y-51003D01*
X42801Y-51030D01*
X42801Y-51069D01*
X42788Y-51095D01*
X42775Y-51108D01*
X42749Y-51122D01*
X42644Y-51122D01*
X42893Y-50977D02*
X43064Y-50977D01*
X42972Y-51082D01*
X43011Y-51082D01*
X43038Y-51095D01*
X43051Y-51108D01*
X43064Y-51135D01*
X43064Y-51200D01*
X43051Y-51227D01*
X43038Y-51240D01*
X43011Y-51253D01*
X42933Y-51253D01*
X42906Y-51240D01*
X42893Y-51227D01*
X43234Y-50977D02*
X43261Y-50977D01*
X43287Y-50990D01*
X43300Y-51003D01*
X43313Y-51030D01*
X43326Y-51082D01*
X43326Y-51148D01*
X43313Y-51200D01*
X43300Y-51227D01*
X43287Y-51240D01*
X43261Y-51253D01*
X43234Y-51253D01*
X43208Y-51240D01*
X43195Y-51227D01*
X43182Y-51200D01*
X43169Y-51148D01*
X43169Y-51082D01*
X43182Y-51030D01*
X43195Y-51003D01*
X43208Y-50990D01*
X43234Y-50977D01*
X43589Y-51253D02*
X43431Y-51253D01*
X43510Y-51253D02*
X43510Y-50977D01*
X43484Y-51017D01*
X43458Y-51043D01*
X43431Y-51056D01*
G54D27*
X40993Y-49913D02*
X40993Y-50313D01*
X40993Y-50113D02*
X40293Y-50113D01*
X40393Y-50180D01*
X40460Y-50246D01*
X40493Y-50313D01*
X40360Y-49646D02*
X40326Y-49613D01*
X40293Y-49546D01*
X40293Y-49380D01*
X40326Y-49313D01*
X40360Y-49280D01*
X40426Y-49246D01*
X40493Y-49246D01*
X40593Y-49280D01*
X40993Y-49680D01*
X40993Y-49246D01*
X40293Y-49046D02*
X40993Y-48813D01*
X40293Y-48580D01*
X41060Y-48513D02*
X41060Y-47980D01*
X40926Y-47413D02*
X40960Y-47446D01*
X40993Y-47546D01*
X40993Y-47613D01*
X40960Y-47713D01*
X40893Y-47780D01*
X40826Y-47813D01*
X40693Y-47846D01*
X40593Y-47846D01*
X40460Y-47813D01*
X40393Y-47780D01*
X40326Y-47713D01*
X40293Y-47613D01*
X40293Y-47546D01*
X40326Y-47446D01*
X40360Y-47413D01*
X40993Y-47013D02*
X40960Y-47080D01*
X40926Y-47113D01*
X40860Y-47146D01*
X40660Y-47146D01*
X40593Y-47113D01*
X40560Y-47080D01*
X40526Y-47013D01*
X40526Y-46913D01*
X40560Y-46846D01*
X40593Y-46813D01*
X40660Y-46780D01*
X40860Y-46780D01*
X40926Y-46813D01*
X40960Y-46846D01*
X40993Y-46913D01*
X40993Y-47013D01*
X40526Y-46480D02*
X40993Y-46480D01*
X40593Y-46480D02*
X40560Y-46446D01*
X40526Y-46380D01*
X40526Y-46280D01*
X40560Y-46213D01*
X40626Y-46180D01*
X40993Y-46180D01*
X40526Y-45846D02*
X40993Y-45846D01*
X40593Y-45846D02*
X40560Y-45813D01*
X40526Y-45746D01*
X40526Y-45646D01*
X40560Y-45580D01*
X40626Y-45546D01*
X40993Y-45546D01*
G54D25*
X41738Y-44284D02*
X41738Y-44009D01*
X41804Y-44009D01*
X41843Y-44022D01*
X41870Y-44048D01*
X41883Y-44074D01*
X41896Y-44127D01*
X41896Y-44166D01*
X41883Y-44219D01*
X41870Y-44245D01*
X41843Y-44271D01*
X41804Y-44284D01*
X41738Y-44284D01*
X42001Y-44035D02*
X42014Y-44022D01*
X42040Y-44009D01*
X42106Y-44009D01*
X42132Y-44022D01*
X42145Y-44035D01*
X42158Y-44061D01*
X42158Y-44087D01*
X42145Y-44127D01*
X41988Y-44284D01*
X42158Y-44284D01*
X42329Y-44009D02*
X42355Y-44009D01*
X42381Y-44022D01*
X42395Y-44035D01*
X42408Y-44061D01*
X42421Y-44114D01*
X42421Y-44179D01*
X42408Y-44232D01*
X42395Y-44258D01*
X42381Y-44271D01*
X42355Y-44284D01*
X42329Y-44284D01*
X42303Y-44271D01*
X42290Y-44258D01*
X42276Y-44232D01*
X42263Y-44179D01*
X42263Y-44114D01*
X42276Y-44061D01*
X42290Y-44035D01*
X42303Y-44022D01*
X42329Y-44009D01*
X42513Y-44009D02*
X42683Y-44009D01*
X42591Y-44114D01*
X42631Y-44114D01*
X42657Y-44127D01*
X42670Y-44140D01*
X42683Y-44166D01*
X42683Y-44232D01*
X42670Y-44258D01*
X42657Y-44271D01*
X42631Y-44284D01*
X42552Y-44284D01*
X42526Y-44271D01*
X42513Y-44258D01*
X41738Y-43182D02*
X41738Y-42906D01*
X41804Y-42906D01*
X41843Y-42919D01*
X41870Y-42946D01*
X41883Y-42972D01*
X41896Y-43024D01*
X41896Y-43064D01*
X41883Y-43116D01*
X41870Y-43143D01*
X41843Y-43169D01*
X41804Y-43182D01*
X41738Y-43182D01*
X42001Y-42933D02*
X42014Y-42919D01*
X42040Y-42906D01*
X42106Y-42906D01*
X42132Y-42919D01*
X42145Y-42933D01*
X42158Y-42959D01*
X42158Y-42985D01*
X42145Y-43024D01*
X41988Y-43182D01*
X42158Y-43182D01*
X42329Y-42906D02*
X42355Y-42906D01*
X42381Y-42919D01*
X42395Y-42933D01*
X42408Y-42959D01*
X42421Y-43011D01*
X42421Y-43077D01*
X42408Y-43129D01*
X42395Y-43156D01*
X42381Y-43169D01*
X42355Y-43182D01*
X42329Y-43182D01*
X42303Y-43169D01*
X42290Y-43156D01*
X42276Y-43129D01*
X42263Y-43077D01*
X42263Y-43011D01*
X42276Y-42959D01*
X42290Y-42933D01*
X42303Y-42919D01*
X42329Y-42906D01*
X42526Y-42933D02*
X42539Y-42919D01*
X42565Y-42906D01*
X42631Y-42906D01*
X42657Y-42919D01*
X42670Y-42933D01*
X42683Y-42959D01*
X42683Y-42985D01*
X42670Y-43024D01*
X42513Y-43182D01*
X42683Y-43182D01*
X45164Y-38143D02*
X45072Y-38011D01*
X45006Y-38143D02*
X45006Y-37867D01*
X45111Y-37867D01*
X45137Y-37880D01*
X45150Y-37893D01*
X45164Y-37919D01*
X45164Y-37959D01*
X45150Y-37985D01*
X45137Y-37998D01*
X45111Y-38011D01*
X45006Y-38011D01*
X45269Y-37893D02*
X45282Y-37880D01*
X45308Y-37867D01*
X45374Y-37867D01*
X45400Y-37880D01*
X45413Y-37893D01*
X45426Y-37919D01*
X45426Y-37946D01*
X45413Y-37985D01*
X45255Y-38143D01*
X45426Y-38143D01*
X45597Y-37867D02*
X45623Y-37867D01*
X45649Y-37880D01*
X45662Y-37893D01*
X45675Y-37919D01*
X45688Y-37972D01*
X45688Y-38038D01*
X45675Y-38090D01*
X45662Y-38116D01*
X45649Y-38129D01*
X45623Y-38143D01*
X45597Y-38143D01*
X45570Y-38129D01*
X45557Y-38116D01*
X45544Y-38090D01*
X45531Y-38038D01*
X45531Y-37972D01*
X45544Y-37919D01*
X45557Y-37893D01*
X45570Y-37880D01*
X45597Y-37867D01*
X45846Y-37985D02*
X45820Y-37972D01*
X45807Y-37959D01*
X45793Y-37933D01*
X45793Y-37919D01*
X45807Y-37893D01*
X45820Y-37880D01*
X45846Y-37867D01*
X45898Y-37867D01*
X45925Y-37880D01*
X45938Y-37893D01*
X45951Y-37919D01*
X45951Y-37933D01*
X45938Y-37959D01*
X45925Y-37972D01*
X45898Y-37985D01*
X45846Y-37985D01*
X45820Y-37998D01*
X45807Y-38011D01*
X45793Y-38038D01*
X45793Y-38090D01*
X45807Y-38116D01*
X45820Y-38129D01*
X45846Y-38143D01*
X45898Y-38143D01*
X45925Y-38129D01*
X45938Y-38116D01*
X45951Y-38090D01*
X45951Y-38038D01*
X45938Y-38011D01*
X45925Y-37998D01*
X45898Y-37985D01*
X45164Y-39914D02*
X45072Y-39783D01*
X45006Y-39914D02*
X45006Y-39639D01*
X45111Y-39639D01*
X45137Y-39652D01*
X45150Y-39665D01*
X45164Y-39691D01*
X45164Y-39730D01*
X45150Y-39757D01*
X45137Y-39770D01*
X45111Y-39783D01*
X45006Y-39783D01*
X45269Y-39665D02*
X45282Y-39652D01*
X45308Y-39639D01*
X45374Y-39639D01*
X45400Y-39652D01*
X45413Y-39665D01*
X45426Y-39691D01*
X45426Y-39717D01*
X45413Y-39757D01*
X45255Y-39914D01*
X45426Y-39914D01*
X45597Y-39639D02*
X45623Y-39639D01*
X45649Y-39652D01*
X45662Y-39665D01*
X45675Y-39691D01*
X45688Y-39744D01*
X45688Y-39809D01*
X45675Y-39862D01*
X45662Y-39888D01*
X45649Y-39901D01*
X45623Y-39914D01*
X45597Y-39914D01*
X45570Y-39901D01*
X45557Y-39888D01*
X45544Y-39862D01*
X45531Y-39809D01*
X45531Y-39744D01*
X45544Y-39691D01*
X45557Y-39665D01*
X45570Y-39652D01*
X45597Y-39639D01*
X45780Y-39639D02*
X45964Y-39639D01*
X45846Y-39914D01*
X51935Y-48221D02*
X51843Y-48090D01*
X51778Y-48221D02*
X51778Y-47946D01*
X51883Y-47946D01*
X51909Y-47959D01*
X51922Y-47972D01*
X51935Y-47998D01*
X51935Y-48038D01*
X51922Y-48064D01*
X51909Y-48077D01*
X51883Y-48090D01*
X51778Y-48090D01*
X52198Y-48221D02*
X52040Y-48221D01*
X52119Y-48221D02*
X52119Y-47946D01*
X52093Y-47985D01*
X52066Y-48011D01*
X52040Y-48024D01*
X52460Y-48221D02*
X52303Y-48221D01*
X52381Y-48221D02*
X52381Y-47946D01*
X52355Y-47985D01*
X52329Y-48011D01*
X52303Y-48024D01*
X52709Y-47946D02*
X52578Y-47946D01*
X52565Y-48077D01*
X52578Y-48064D01*
X52604Y-48051D01*
X52670Y-48051D01*
X52696Y-48064D01*
X52709Y-48077D01*
X52723Y-48103D01*
X52723Y-48169D01*
X52709Y-48195D01*
X52696Y-48208D01*
X52670Y-48221D01*
X52604Y-48221D01*
X52578Y-48208D01*
X52565Y-48195D01*
X51935Y-48615D02*
X51843Y-48484D01*
X51778Y-48615D02*
X51778Y-48339D01*
X51883Y-48339D01*
X51909Y-48353D01*
X51922Y-48366D01*
X51935Y-48392D01*
X51935Y-48431D01*
X51922Y-48458D01*
X51909Y-48471D01*
X51883Y-48484D01*
X51778Y-48484D01*
X52198Y-48615D02*
X52040Y-48615D01*
X52119Y-48615D02*
X52119Y-48339D01*
X52093Y-48379D01*
X52066Y-48405D01*
X52040Y-48418D01*
X52460Y-48615D02*
X52303Y-48615D01*
X52381Y-48615D02*
X52381Y-48339D01*
X52355Y-48379D01*
X52329Y-48405D01*
X52303Y-48418D01*
X52618Y-48458D02*
X52591Y-48444D01*
X52578Y-48431D01*
X52565Y-48405D01*
X52565Y-48392D01*
X52578Y-48366D01*
X52591Y-48353D01*
X52618Y-48339D01*
X52670Y-48339D01*
X52696Y-48353D01*
X52709Y-48366D01*
X52723Y-48392D01*
X52723Y-48405D01*
X52709Y-48431D01*
X52696Y-48444D01*
X52670Y-48458D01*
X52618Y-48458D01*
X52591Y-48471D01*
X52578Y-48484D01*
X52565Y-48510D01*
X52565Y-48562D01*
X52578Y-48589D01*
X52591Y-48602D01*
X52618Y-48615D01*
X52670Y-48615D01*
X52696Y-48602D01*
X52709Y-48589D01*
X52723Y-48562D01*
X52723Y-48510D01*
X52709Y-48484D01*
X52696Y-48471D01*
X52670Y-48458D01*
X63549Y-48221D02*
X63458Y-48090D01*
X63392Y-48221D02*
X63392Y-47946D01*
X63497Y-47946D01*
X63523Y-47959D01*
X63536Y-47972D01*
X63549Y-47998D01*
X63549Y-48038D01*
X63536Y-48064D01*
X63523Y-48077D01*
X63497Y-48090D01*
X63392Y-48090D01*
X63812Y-48221D02*
X63654Y-48221D01*
X63733Y-48221D02*
X63733Y-47946D01*
X63707Y-47985D01*
X63681Y-48011D01*
X63654Y-48024D01*
X64074Y-48221D02*
X63917Y-48221D01*
X63996Y-48221D02*
X63996Y-47946D01*
X63969Y-47985D01*
X63943Y-48011D01*
X63917Y-48024D01*
X64311Y-48038D02*
X64311Y-48221D01*
X64245Y-47933D02*
X64179Y-48129D01*
X64350Y-48129D01*
X63549Y-48615D02*
X63458Y-48484D01*
X63392Y-48615D02*
X63392Y-48339D01*
X63497Y-48339D01*
X63523Y-48353D01*
X63536Y-48366D01*
X63549Y-48392D01*
X63549Y-48431D01*
X63536Y-48458D01*
X63523Y-48471D01*
X63497Y-48484D01*
X63392Y-48484D01*
X63812Y-48615D02*
X63654Y-48615D01*
X63733Y-48615D02*
X63733Y-48339D01*
X63707Y-48379D01*
X63681Y-48405D01*
X63654Y-48418D01*
X64074Y-48615D02*
X63917Y-48615D01*
X63996Y-48615D02*
X63996Y-48339D01*
X63969Y-48379D01*
X63943Y-48405D01*
X63917Y-48418D01*
X64166Y-48339D02*
X64350Y-48339D01*
X64232Y-48615D01*
X75321Y-48261D02*
X75229Y-48129D01*
X75164Y-48261D02*
X75164Y-47985D01*
X75269Y-47985D01*
X75295Y-47998D01*
X75308Y-48011D01*
X75321Y-48038D01*
X75321Y-48077D01*
X75308Y-48103D01*
X75295Y-48116D01*
X75269Y-48129D01*
X75164Y-48129D01*
X75583Y-48261D02*
X75426Y-48261D01*
X75505Y-48261D02*
X75505Y-47985D01*
X75479Y-48024D01*
X75452Y-48051D01*
X75426Y-48064D01*
X75846Y-48261D02*
X75688Y-48261D01*
X75767Y-48261D02*
X75767Y-47985D01*
X75741Y-48024D01*
X75715Y-48051D01*
X75688Y-48064D01*
X75938Y-47985D02*
X76108Y-47985D01*
X76017Y-48090D01*
X76056Y-48090D01*
X76082Y-48103D01*
X76095Y-48116D01*
X76108Y-48143D01*
X76108Y-48208D01*
X76095Y-48234D01*
X76082Y-48248D01*
X76056Y-48261D01*
X75977Y-48261D01*
X75951Y-48248D01*
X75938Y-48234D01*
X75321Y-48654D02*
X75229Y-48523D01*
X75164Y-48654D02*
X75164Y-48379D01*
X75269Y-48379D01*
X75295Y-48392D01*
X75308Y-48405D01*
X75321Y-48431D01*
X75321Y-48471D01*
X75308Y-48497D01*
X75295Y-48510D01*
X75269Y-48523D01*
X75164Y-48523D01*
X75583Y-48654D02*
X75426Y-48654D01*
X75505Y-48654D02*
X75505Y-48379D01*
X75479Y-48418D01*
X75452Y-48444D01*
X75426Y-48458D01*
X75846Y-48654D02*
X75688Y-48654D01*
X75767Y-48654D02*
X75767Y-48379D01*
X75741Y-48418D01*
X75715Y-48444D01*
X75688Y-48458D01*
X76082Y-48379D02*
X76030Y-48379D01*
X76003Y-48392D01*
X75990Y-48405D01*
X75964Y-48444D01*
X75951Y-48497D01*
X75951Y-48602D01*
X75964Y-48628D01*
X75977Y-48641D01*
X76003Y-48654D01*
X76056Y-48654D01*
X76082Y-48641D01*
X76095Y-48628D01*
X76108Y-48602D01*
X76108Y-48536D01*
X76095Y-48510D01*
X76082Y-48497D01*
X76056Y-48484D01*
X76003Y-48484D01*
X75977Y-48497D01*
X75964Y-48510D01*
X75951Y-48536D01*
X45032Y-44914D02*
X44901Y-45006D01*
X45032Y-45072D02*
X44757Y-45072D01*
X44757Y-44967D01*
X44770Y-44940D01*
X44783Y-44927D01*
X44809Y-44914D01*
X44849Y-44914D01*
X44875Y-44927D01*
X44888Y-44940D01*
X44901Y-44967D01*
X44901Y-45072D01*
X44783Y-44809D02*
X44770Y-44796D01*
X44757Y-44770D01*
X44757Y-44704D01*
X44770Y-44678D01*
X44783Y-44665D01*
X44809Y-44652D01*
X44835Y-44652D01*
X44875Y-44665D01*
X45032Y-44822D01*
X45032Y-44652D01*
X44757Y-44481D02*
X44757Y-44455D01*
X44770Y-44429D01*
X44783Y-44416D01*
X44809Y-44402D01*
X44862Y-44389D01*
X44927Y-44389D01*
X44980Y-44402D01*
X45006Y-44416D01*
X45019Y-44429D01*
X45032Y-44455D01*
X45032Y-44481D01*
X45019Y-44507D01*
X45006Y-44520D01*
X44980Y-44534D01*
X44927Y-44547D01*
X44862Y-44547D01*
X44809Y-44534D01*
X44783Y-44520D01*
X44770Y-44507D01*
X44757Y-44481D01*
X44757Y-44140D02*
X44757Y-44271D01*
X44888Y-44284D01*
X44875Y-44271D01*
X44862Y-44245D01*
X44862Y-44179D01*
X44875Y-44153D01*
X44888Y-44140D01*
X44914Y-44127D01*
X44980Y-44127D01*
X45006Y-44140D01*
X45019Y-44153D01*
X45032Y-44179D01*
X45032Y-44245D01*
X45019Y-44271D01*
X45006Y-44284D01*
G54D28*
X43329Y-44614D02*
X43339Y-44606D01*
X43348Y-44614D01*
X43339Y-44623D01*
X43329Y-44614D01*
X43348Y-44614D01*
X43158Y-44649D02*
X43148Y-44632D01*
X43148Y-44589D01*
X43158Y-44572D01*
X43177Y-44563D01*
X43196Y-44563D01*
X43215Y-44572D01*
X43225Y-44580D01*
X43234Y-44597D01*
X43244Y-44606D01*
X43263Y-44614D01*
X43272Y-44614D01*
G54D25*
X44770Y-43733D02*
X44678Y-43602D01*
X44612Y-43733D02*
X44612Y-43458D01*
X44717Y-43458D01*
X44744Y-43471D01*
X44757Y-43484D01*
X44770Y-43510D01*
X44770Y-43549D01*
X44757Y-43576D01*
X44744Y-43589D01*
X44717Y-43602D01*
X44612Y-43602D01*
X44875Y-43484D02*
X44888Y-43471D01*
X44914Y-43458D01*
X44980Y-43458D01*
X45006Y-43471D01*
X45019Y-43484D01*
X45032Y-43510D01*
X45032Y-43536D01*
X45019Y-43576D01*
X44862Y-43733D01*
X45032Y-43733D01*
X45203Y-43458D02*
X45229Y-43458D01*
X45255Y-43471D01*
X45269Y-43484D01*
X45282Y-43510D01*
X45295Y-43562D01*
X45295Y-43628D01*
X45282Y-43681D01*
X45269Y-43707D01*
X45255Y-43720D01*
X45229Y-43733D01*
X45203Y-43733D01*
X45177Y-43720D01*
X45164Y-43707D01*
X45150Y-43681D01*
X45137Y-43628D01*
X45137Y-43562D01*
X45150Y-43510D01*
X45164Y-43484D01*
X45177Y-43471D01*
X45203Y-43458D01*
X45531Y-43549D02*
X45531Y-43733D01*
X45465Y-43444D02*
X45400Y-43641D01*
X45570Y-43641D01*
G54D28*
X43329Y-43630D02*
X43339Y-43622D01*
X43348Y-43630D01*
X43339Y-43639D01*
X43329Y-43630D01*
X43348Y-43630D01*
X43158Y-43664D02*
X43148Y-43647D01*
X43148Y-43604D01*
X43158Y-43587D01*
X43177Y-43579D01*
X43196Y-43579D01*
X43215Y-43587D01*
X43225Y-43596D01*
X43234Y-43613D01*
X43244Y-43622D01*
X43263Y-43630D01*
X43272Y-43630D01*
G54D25*
X76489Y-35150D02*
X76489Y-35282D01*
X76213Y-35282D01*
X76213Y-35085D02*
X76213Y-34914D01*
X76318Y-35006D01*
X76318Y-34967D01*
X76332Y-34940D01*
X76345Y-34927D01*
X76371Y-34914D01*
X76437Y-34914D01*
X76463Y-34927D01*
X76476Y-34940D01*
X76489Y-34967D01*
X76489Y-35045D01*
X76476Y-35072D01*
X76463Y-35085D01*
X76213Y-34744D02*
X76213Y-34717D01*
X76227Y-34691D01*
X76240Y-34678D01*
X76266Y-34665D01*
X76318Y-34652D01*
X76384Y-34652D01*
X76437Y-34665D01*
X76463Y-34678D01*
X76476Y-34691D01*
X76489Y-34717D01*
X76489Y-34744D01*
X76476Y-34770D01*
X76463Y-34783D01*
X76437Y-34796D01*
X76384Y-34809D01*
X76318Y-34809D01*
X76266Y-34796D01*
X76240Y-34783D01*
X76227Y-34770D01*
X76213Y-34744D01*
X76240Y-34547D02*
X76227Y-34534D01*
X76213Y-34507D01*
X76213Y-34442D01*
X76227Y-34416D01*
X76240Y-34402D01*
X76266Y-34389D01*
X76292Y-34389D01*
X76332Y-34402D01*
X76489Y-34560D01*
X76489Y-34389D01*
G54D24*
X73709Y-34002D02*
X73366Y-34002D01*
X73538Y-34002D02*
X73538Y-33402D01*
X73480Y-33488D01*
X73423Y-33545D01*
X73366Y-33574D01*
X74080Y-33402D02*
X74138Y-33402D01*
X74195Y-33431D01*
X74223Y-33459D01*
X74252Y-33516D01*
X74280Y-33631D01*
X74280Y-33774D01*
X74252Y-33888D01*
X74223Y-33945D01*
X74195Y-33974D01*
X74138Y-34002D01*
X74080Y-34002D01*
X74023Y-33974D01*
X73995Y-33945D01*
X73966Y-33888D01*
X73938Y-33774D01*
X73938Y-33631D01*
X73966Y-33516D01*
X73995Y-33459D01*
X74023Y-33431D01*
X74080Y-33402D01*
X74795Y-33602D02*
X74795Y-34002D01*
X74538Y-33602D02*
X74538Y-33916D01*
X74566Y-33974D01*
X74623Y-34002D01*
X74709Y-34002D01*
X74766Y-33974D01*
X74795Y-33945D01*
X75080Y-34002D02*
X75080Y-33402D01*
X75080Y-33688D02*
X75423Y-33688D01*
X75423Y-34002D02*
X75423Y-33402D01*
G54D25*
X74678Y-39520D02*
X74547Y-39612D01*
X74678Y-39678D02*
X74402Y-39678D01*
X74402Y-39573D01*
X74416Y-39547D01*
X74429Y-39534D01*
X74455Y-39520D01*
X74494Y-39520D01*
X74520Y-39534D01*
X74534Y-39547D01*
X74547Y-39573D01*
X74547Y-39678D01*
X74402Y-39429D02*
X74402Y-39258D01*
X74507Y-39350D01*
X74507Y-39311D01*
X74520Y-39284D01*
X74534Y-39271D01*
X74560Y-39258D01*
X74625Y-39258D01*
X74652Y-39271D01*
X74665Y-39284D01*
X74678Y-39311D01*
X74678Y-39389D01*
X74665Y-39416D01*
X74652Y-39429D01*
X74402Y-39087D02*
X74402Y-39061D01*
X74416Y-39035D01*
X74429Y-39022D01*
X74455Y-39009D01*
X74507Y-38996D01*
X74573Y-38996D01*
X74625Y-39009D01*
X74652Y-39022D01*
X74665Y-39035D01*
X74678Y-39061D01*
X74678Y-39087D01*
X74665Y-39114D01*
X74652Y-39127D01*
X74625Y-39140D01*
X74573Y-39153D01*
X74507Y-39153D01*
X74455Y-39140D01*
X74429Y-39127D01*
X74416Y-39114D01*
X74402Y-39087D01*
X74402Y-38904D02*
X74402Y-38720D01*
X74678Y-38838D01*
X74087Y-38812D02*
X73956Y-38904D01*
X74087Y-38969D02*
X73812Y-38969D01*
X73812Y-38864D01*
X73825Y-38838D01*
X73838Y-38825D01*
X73864Y-38812D01*
X73904Y-38812D01*
X73930Y-38825D01*
X73943Y-38838D01*
X73956Y-38864D01*
X73956Y-38969D01*
X73812Y-38720D02*
X73812Y-38549D01*
X73917Y-38641D01*
X73917Y-38602D01*
X73930Y-38576D01*
X73943Y-38562D01*
X73969Y-38549D01*
X74035Y-38549D01*
X74061Y-38562D01*
X74074Y-38576D01*
X74087Y-38602D01*
X74087Y-38681D01*
X74074Y-38707D01*
X74061Y-38720D01*
X73812Y-38379D02*
X73812Y-38353D01*
X73825Y-38326D01*
X73838Y-38313D01*
X73864Y-38300D01*
X73917Y-38287D01*
X73982Y-38287D01*
X74035Y-38300D01*
X74061Y-38313D01*
X74074Y-38326D01*
X74087Y-38353D01*
X74087Y-38379D01*
X74074Y-38405D01*
X74061Y-38418D01*
X74035Y-38431D01*
X73982Y-38444D01*
X73917Y-38444D01*
X73864Y-38431D01*
X73838Y-38418D01*
X73825Y-38405D01*
X73812Y-38379D01*
X73930Y-38129D02*
X73917Y-38156D01*
X73904Y-38169D01*
X73877Y-38182D01*
X73864Y-38182D01*
X73838Y-38169D01*
X73825Y-38156D01*
X73812Y-38129D01*
X73812Y-38077D01*
X73825Y-38051D01*
X73838Y-38038D01*
X73864Y-38024D01*
X73877Y-38024D01*
X73904Y-38038D01*
X73917Y-38051D01*
X73930Y-38077D01*
X73930Y-38129D01*
X73943Y-38156D01*
X73956Y-38169D01*
X73982Y-38182D01*
X74035Y-38182D01*
X74061Y-38169D01*
X74074Y-38156D01*
X74087Y-38129D01*
X74087Y-38077D01*
X74074Y-38051D01*
X74061Y-38038D01*
X74035Y-38024D01*
X73982Y-38024D01*
X73956Y-38038D01*
X73943Y-38051D01*
X73930Y-38077D01*
X46738Y-46266D02*
X46725Y-46279D01*
X46686Y-46292D01*
X46660Y-46292D01*
X46620Y-46279D01*
X46594Y-46253D01*
X46581Y-46227D01*
X46568Y-46174D01*
X46568Y-46135D01*
X46581Y-46082D01*
X46594Y-46056D01*
X46620Y-46030D01*
X46660Y-46017D01*
X46686Y-46017D01*
X46725Y-46030D01*
X46738Y-46043D01*
X47001Y-46292D02*
X46843Y-46292D01*
X46922Y-46292D02*
X46922Y-46017D01*
X46896Y-46056D01*
X46870Y-46082D01*
X46843Y-46095D01*
X47171Y-46017D02*
X47198Y-46017D01*
X47224Y-46030D01*
X47237Y-46043D01*
X47250Y-46069D01*
X47263Y-46122D01*
X47263Y-46187D01*
X47250Y-46240D01*
X47237Y-46266D01*
X47224Y-46279D01*
X47198Y-46292D01*
X47171Y-46292D01*
X47145Y-46279D01*
X47132Y-46266D01*
X47119Y-46240D01*
X47106Y-46187D01*
X47106Y-46122D01*
X47119Y-46069D01*
X47132Y-46043D01*
X47145Y-46030D01*
X47171Y-46017D01*
X47395Y-46292D02*
X47447Y-46292D01*
X47473Y-46279D01*
X47486Y-46266D01*
X47513Y-46227D01*
X47526Y-46174D01*
X47526Y-46069D01*
X47513Y-46043D01*
X47500Y-46030D01*
X47473Y-46017D01*
X47421Y-46017D01*
X47395Y-46030D01*
X47381Y-46043D01*
X47368Y-46069D01*
X47368Y-46135D01*
X47381Y-46161D01*
X47395Y-46174D01*
X47421Y-46187D01*
X47473Y-46187D01*
X47500Y-46174D01*
X47513Y-46161D01*
X47526Y-46135D01*
X58234Y-46266D02*
X58221Y-46279D01*
X58182Y-46292D01*
X58156Y-46292D01*
X58116Y-46279D01*
X58090Y-46253D01*
X58077Y-46227D01*
X58064Y-46174D01*
X58064Y-46135D01*
X58077Y-46082D01*
X58090Y-46056D01*
X58116Y-46030D01*
X58156Y-46017D01*
X58182Y-46017D01*
X58221Y-46030D01*
X58234Y-46043D01*
X58497Y-46292D02*
X58339Y-46292D01*
X58418Y-46292D02*
X58418Y-46017D01*
X58392Y-46056D01*
X58366Y-46082D01*
X58339Y-46095D01*
X58667Y-46017D02*
X58694Y-46017D01*
X58720Y-46030D01*
X58733Y-46043D01*
X58746Y-46069D01*
X58759Y-46122D01*
X58759Y-46187D01*
X58746Y-46240D01*
X58733Y-46266D01*
X58720Y-46279D01*
X58694Y-46292D01*
X58667Y-46292D01*
X58641Y-46279D01*
X58628Y-46266D01*
X58615Y-46240D01*
X58602Y-46187D01*
X58602Y-46122D01*
X58615Y-46069D01*
X58628Y-46043D01*
X58641Y-46030D01*
X58667Y-46017D01*
X58917Y-46135D02*
X58891Y-46122D01*
X58877Y-46108D01*
X58864Y-46082D01*
X58864Y-46069D01*
X58877Y-46043D01*
X58891Y-46030D01*
X58917Y-46017D01*
X58969Y-46017D01*
X58996Y-46030D01*
X59009Y-46043D01*
X59022Y-46069D01*
X59022Y-46082D01*
X59009Y-46108D01*
X58996Y-46122D01*
X58969Y-46135D01*
X58917Y-46135D01*
X58891Y-46148D01*
X58877Y-46161D01*
X58864Y-46187D01*
X58864Y-46240D01*
X58877Y-46266D01*
X58891Y-46279D01*
X58917Y-46292D01*
X58969Y-46292D01*
X58996Y-46279D01*
X59009Y-46266D01*
X59022Y-46240D01*
X59022Y-46187D01*
X59009Y-46161D01*
X58996Y-46148D01*
X58969Y-46135D01*
X69927Y-46266D02*
X69914Y-46279D01*
X69875Y-46292D01*
X69849Y-46292D01*
X69809Y-46279D01*
X69783Y-46253D01*
X69770Y-46227D01*
X69757Y-46174D01*
X69757Y-46135D01*
X69770Y-46082D01*
X69783Y-46056D01*
X69809Y-46030D01*
X69849Y-46017D01*
X69875Y-46017D01*
X69914Y-46030D01*
X69927Y-46043D01*
X70190Y-46292D02*
X70032Y-46292D01*
X70111Y-46292D02*
X70111Y-46017D01*
X70085Y-46056D01*
X70059Y-46082D01*
X70032Y-46095D01*
X70360Y-46017D02*
X70387Y-46017D01*
X70413Y-46030D01*
X70426Y-46043D01*
X70439Y-46069D01*
X70452Y-46122D01*
X70452Y-46187D01*
X70439Y-46240D01*
X70426Y-46266D01*
X70413Y-46279D01*
X70387Y-46292D01*
X70360Y-46292D01*
X70334Y-46279D01*
X70321Y-46266D01*
X70308Y-46240D01*
X70295Y-46187D01*
X70295Y-46122D01*
X70308Y-46069D01*
X70321Y-46043D01*
X70334Y-46030D01*
X70360Y-46017D01*
X70544Y-46017D02*
X70728Y-46017D01*
X70610Y-46292D01*
X68353Y-40387D02*
X68221Y-40387D01*
X68221Y-40111D01*
X68418Y-40111D02*
X68589Y-40111D01*
X68497Y-40216D01*
X68536Y-40216D01*
X68562Y-40229D01*
X68576Y-40242D01*
X68589Y-40269D01*
X68589Y-40334D01*
X68576Y-40360D01*
X68562Y-40374D01*
X68536Y-40387D01*
X68458Y-40387D01*
X68431Y-40374D01*
X68418Y-40360D01*
X68759Y-40111D02*
X68786Y-40111D01*
X68812Y-40124D01*
X68825Y-40137D01*
X68838Y-40164D01*
X68851Y-40216D01*
X68851Y-40282D01*
X68838Y-40334D01*
X68825Y-40360D01*
X68812Y-40374D01*
X68786Y-40387D01*
X68759Y-40387D01*
X68733Y-40374D01*
X68720Y-40360D01*
X68707Y-40334D01*
X68694Y-40282D01*
X68694Y-40216D01*
X68707Y-40164D01*
X68720Y-40137D01*
X68733Y-40124D01*
X68759Y-40111D01*
X69114Y-40387D02*
X68956Y-40387D01*
X69035Y-40387D02*
X69035Y-40111D01*
X69009Y-40150D01*
X68982Y-40177D01*
X68956Y-40190D01*
G54D16*
X69053Y-38845D02*
X69053Y-39002D01*
X69053Y-38923D02*
X68777Y-38923D01*
X68817Y-38950D01*
X68843Y-38976D01*
X68856Y-39002D01*
X68869Y-38608D02*
X69053Y-38608D01*
X68869Y-38727D02*
X69013Y-38727D01*
X69040Y-38713D01*
X69053Y-38687D01*
X69053Y-38648D01*
X69040Y-38622D01*
X69027Y-38608D01*
G54D25*
X72171Y-39993D02*
X72185Y-40006D01*
X72198Y-40045D01*
X72198Y-40072D01*
X72185Y-40111D01*
X72158Y-40137D01*
X72132Y-40150D01*
X72080Y-40164D01*
X72040Y-40164D01*
X71988Y-40150D01*
X71961Y-40137D01*
X71935Y-40111D01*
X71922Y-40072D01*
X71922Y-40045D01*
X71935Y-40006D01*
X71948Y-39993D01*
X71922Y-39901D02*
X71922Y-39730D01*
X72027Y-39822D01*
X72027Y-39783D01*
X72040Y-39757D01*
X72053Y-39744D01*
X72080Y-39730D01*
X72145Y-39730D01*
X72171Y-39744D01*
X72185Y-39757D01*
X72198Y-39783D01*
X72198Y-39862D01*
X72185Y-39888D01*
X72171Y-39901D01*
X71922Y-39560D02*
X71922Y-39534D01*
X71935Y-39507D01*
X71948Y-39494D01*
X71975Y-39481D01*
X72027Y-39468D01*
X72093Y-39468D01*
X72145Y-39481D01*
X72171Y-39494D01*
X72185Y-39507D01*
X72198Y-39534D01*
X72198Y-39560D01*
X72185Y-39586D01*
X72171Y-39599D01*
X72145Y-39612D01*
X72093Y-39625D01*
X72027Y-39625D01*
X71975Y-39612D01*
X71948Y-39599D01*
X71935Y-39586D01*
X71922Y-39560D01*
X72198Y-39206D02*
X72198Y-39363D01*
X72198Y-39284D02*
X71922Y-39284D01*
X71961Y-39311D01*
X71988Y-39337D01*
X72001Y-39363D01*
G54D26*
X71436Y-39365D02*
X71568Y-39365D01*
X71361Y-39412D02*
X71502Y-39459D01*
X71502Y-39337D01*
X71549Y-39262D02*
X71558Y-39252D01*
X71568Y-39262D01*
X71558Y-39271D01*
X71549Y-39262D01*
X71568Y-39262D01*
X71371Y-39187D02*
X71371Y-39055D01*
X71568Y-39140D01*
X71436Y-38896D02*
X71568Y-38896D01*
X71436Y-38980D02*
X71540Y-38980D01*
X71558Y-38971D01*
X71568Y-38952D01*
X71568Y-38924D01*
X71558Y-38905D01*
X71549Y-38896D01*
G54D25*
X69652Y-36541D02*
X69639Y-36555D01*
X69599Y-36568D01*
X69573Y-36568D01*
X69534Y-36555D01*
X69507Y-36528D01*
X69494Y-36502D01*
X69481Y-36450D01*
X69481Y-36410D01*
X69494Y-36358D01*
X69507Y-36332D01*
X69534Y-36305D01*
X69573Y-36292D01*
X69599Y-36292D01*
X69639Y-36305D01*
X69652Y-36318D01*
X69744Y-36292D02*
X69914Y-36292D01*
X69822Y-36397D01*
X69862Y-36397D01*
X69888Y-36410D01*
X69901Y-36423D01*
X69914Y-36450D01*
X69914Y-36515D01*
X69901Y-36541D01*
X69888Y-36555D01*
X69862Y-36568D01*
X69783Y-36568D01*
X69757Y-36555D01*
X69744Y-36541D01*
X70085Y-36292D02*
X70111Y-36292D01*
X70137Y-36305D01*
X70150Y-36318D01*
X70164Y-36345D01*
X70177Y-36397D01*
X70177Y-36463D01*
X70164Y-36515D01*
X70150Y-36541D01*
X70137Y-36555D01*
X70111Y-36568D01*
X70085Y-36568D01*
X70059Y-36555D01*
X70045Y-36541D01*
X70032Y-36515D01*
X70019Y-36463D01*
X70019Y-36397D01*
X70032Y-36345D01*
X70045Y-36318D01*
X70059Y-36305D01*
X70085Y-36292D01*
X70282Y-36318D02*
X70295Y-36305D01*
X70321Y-36292D01*
X70387Y-36292D01*
X70413Y-36305D01*
X70426Y-36318D01*
X70439Y-36345D01*
X70439Y-36371D01*
X70426Y-36410D01*
X70269Y-36568D01*
X70439Y-36568D01*
G54D26*
X69768Y-37499D02*
X69768Y-37631D01*
X69721Y-37424D02*
X69674Y-37565D01*
X69796Y-37565D01*
X69871Y-37612D02*
X69880Y-37621D01*
X69871Y-37631D01*
X69862Y-37621D01*
X69871Y-37612D01*
X69871Y-37631D01*
X69946Y-37434D02*
X70077Y-37434D01*
X69993Y-37631D01*
X70237Y-37499D02*
X70237Y-37631D01*
X70152Y-37499D02*
X70152Y-37603D01*
X70162Y-37621D01*
X70181Y-37631D01*
X70209Y-37631D01*
X70227Y-37621D01*
X70237Y-37612D01*
G54D25*
X67644Y-40269D02*
X67657Y-40282D01*
X67670Y-40321D01*
X67670Y-40347D01*
X67657Y-40387D01*
X67631Y-40413D01*
X67604Y-40426D01*
X67552Y-40439D01*
X67513Y-40439D01*
X67460Y-40426D01*
X67434Y-40413D01*
X67408Y-40387D01*
X67395Y-40347D01*
X67395Y-40321D01*
X67408Y-40282D01*
X67421Y-40269D01*
X67395Y-40177D02*
X67395Y-40006D01*
X67500Y-40098D01*
X67500Y-40059D01*
X67513Y-40032D01*
X67526Y-40019D01*
X67552Y-40006D01*
X67618Y-40006D01*
X67644Y-40019D01*
X67657Y-40032D01*
X67670Y-40059D01*
X67670Y-40137D01*
X67657Y-40164D01*
X67644Y-40177D01*
X67395Y-39835D02*
X67395Y-39809D01*
X67408Y-39783D01*
X67421Y-39770D01*
X67447Y-39757D01*
X67500Y-39744D01*
X67565Y-39744D01*
X67618Y-39757D01*
X67644Y-39770D01*
X67657Y-39783D01*
X67670Y-39809D01*
X67670Y-39835D01*
X67657Y-39862D01*
X67644Y-39875D01*
X67618Y-39888D01*
X67565Y-39901D01*
X67500Y-39901D01*
X67447Y-39888D01*
X67421Y-39875D01*
X67408Y-39862D01*
X67395Y-39835D01*
X67395Y-39652D02*
X67395Y-39481D01*
X67500Y-39573D01*
X67500Y-39534D01*
X67513Y-39507D01*
X67526Y-39494D01*
X67552Y-39481D01*
X67618Y-39481D01*
X67644Y-39494D01*
X67657Y-39507D01*
X67670Y-39534D01*
X67670Y-39612D01*
X67657Y-39639D01*
X67644Y-39652D01*
G54D26*
X67357Y-38853D02*
X67488Y-38853D01*
X67282Y-38900D02*
X67423Y-38947D01*
X67423Y-38825D01*
X67470Y-38750D02*
X67479Y-38741D01*
X67488Y-38750D01*
X67479Y-38759D01*
X67470Y-38750D01*
X67488Y-38750D01*
X67291Y-38675D02*
X67291Y-38544D01*
X67488Y-38628D01*
X67357Y-38384D02*
X67488Y-38384D01*
X67357Y-38469D02*
X67460Y-38469D01*
X67479Y-38459D01*
X67488Y-38440D01*
X67488Y-38412D01*
X67479Y-38394D01*
X67470Y-38384D01*
G54D25*
X69534Y-36961D02*
X69442Y-36830D01*
X69376Y-36961D02*
X69376Y-36686D01*
X69481Y-36686D01*
X69507Y-36699D01*
X69520Y-36712D01*
X69534Y-36738D01*
X69534Y-36778D01*
X69520Y-36804D01*
X69507Y-36817D01*
X69481Y-36830D01*
X69376Y-36830D01*
X69625Y-36686D02*
X69796Y-36686D01*
X69704Y-36791D01*
X69744Y-36791D01*
X69770Y-36804D01*
X69783Y-36817D01*
X69796Y-36843D01*
X69796Y-36909D01*
X69783Y-36935D01*
X69770Y-36948D01*
X69744Y-36961D01*
X69665Y-36961D01*
X69639Y-36948D01*
X69625Y-36935D01*
X69967Y-36686D02*
X69993Y-36686D01*
X70019Y-36699D01*
X70032Y-36712D01*
X70045Y-36738D01*
X70059Y-36791D01*
X70059Y-36856D01*
X70045Y-36909D01*
X70032Y-36935D01*
X70019Y-36948D01*
X69993Y-36961D01*
X69967Y-36961D01*
X69940Y-36948D01*
X69927Y-36935D01*
X69914Y-36909D01*
X69901Y-36856D01*
X69901Y-36791D01*
X69914Y-36738D01*
X69927Y-36712D01*
X69940Y-36699D01*
X69967Y-36686D01*
X70164Y-36712D02*
X70177Y-36699D01*
X70203Y-36686D01*
X70269Y-36686D01*
X70295Y-36699D01*
X70308Y-36712D01*
X70321Y-36738D01*
X70321Y-36765D01*
X70308Y-36804D01*
X70150Y-36961D01*
X70321Y-36961D01*
X71620Y-38221D02*
X71528Y-38090D01*
X71463Y-38221D02*
X71463Y-37946D01*
X71568Y-37946D01*
X71594Y-37959D01*
X71607Y-37972D01*
X71620Y-37998D01*
X71620Y-38038D01*
X71607Y-38064D01*
X71594Y-38077D01*
X71568Y-38090D01*
X71463Y-38090D01*
X71712Y-37946D02*
X71883Y-37946D01*
X71791Y-38051D01*
X71830Y-38051D01*
X71856Y-38064D01*
X71870Y-38077D01*
X71883Y-38103D01*
X71883Y-38169D01*
X71870Y-38195D01*
X71856Y-38208D01*
X71830Y-38221D01*
X71751Y-38221D01*
X71725Y-38208D01*
X71712Y-38195D01*
X72053Y-37946D02*
X72080Y-37946D01*
X72106Y-37959D01*
X72119Y-37972D01*
X72132Y-37998D01*
X72145Y-38051D01*
X72145Y-38116D01*
X72132Y-38169D01*
X72119Y-38195D01*
X72106Y-38208D01*
X72080Y-38221D01*
X72053Y-38221D01*
X72027Y-38208D01*
X72014Y-38195D01*
X72001Y-38169D01*
X71988Y-38116D01*
X71988Y-38051D01*
X72001Y-37998D01*
X72014Y-37972D01*
X72027Y-37959D01*
X72053Y-37946D01*
X72237Y-37946D02*
X72408Y-37946D01*
X72316Y-38051D01*
X72355Y-38051D01*
X72381Y-38064D01*
X72395Y-38077D01*
X72408Y-38103D01*
X72408Y-38169D01*
X72395Y-38195D01*
X72381Y-38208D01*
X72355Y-38221D01*
X72276Y-38221D01*
X72250Y-38208D01*
X72237Y-38195D01*
X69685Y-39954D02*
X69685Y-40177D01*
X69698Y-40203D01*
X69711Y-40216D01*
X69737Y-40229D01*
X69790Y-40229D01*
X69816Y-40216D01*
X69829Y-40203D01*
X69842Y-40177D01*
X69842Y-39954D01*
X69947Y-39954D02*
X70118Y-39954D01*
X70026Y-40059D01*
X70065Y-40059D01*
X70091Y-40072D01*
X70104Y-40085D01*
X70118Y-40111D01*
X70118Y-40177D01*
X70104Y-40203D01*
X70091Y-40216D01*
X70065Y-40229D01*
X69986Y-40229D01*
X69960Y-40216D01*
X69947Y-40203D01*
X70288Y-39954D02*
X70314Y-39954D01*
X70341Y-39967D01*
X70354Y-39980D01*
X70367Y-40006D01*
X70380Y-40059D01*
X70380Y-40124D01*
X70367Y-40177D01*
X70354Y-40203D01*
X70341Y-40216D01*
X70314Y-40229D01*
X70288Y-40229D01*
X70262Y-40216D01*
X70249Y-40203D01*
X70236Y-40177D01*
X70223Y-40124D01*
X70223Y-40059D01*
X70236Y-40006D01*
X70249Y-39980D01*
X70262Y-39967D01*
X70288Y-39954D01*
X70643Y-40229D02*
X70485Y-40229D01*
X70564Y-40229D02*
X70564Y-39954D01*
X70538Y-39993D01*
X70511Y-40019D01*
X70485Y-40032D01*
G54D16*
X70278Y-40615D02*
X70028Y-40615D01*
X70206Y-40532D01*
X70028Y-40448D01*
X70278Y-40448D01*
X70278Y-40329D02*
X70028Y-40329D01*
X70028Y-40234D01*
X70040Y-40210D01*
X70052Y-40198D01*
X70075Y-40186D01*
X70111Y-40186D01*
X70135Y-40198D01*
X70147Y-40210D01*
X70159Y-40234D01*
X70159Y-40329D01*
X70052Y-40091D02*
X70040Y-40079D01*
X70028Y-40056D01*
X70028Y-39996D01*
X70040Y-39972D01*
X70052Y-39960D01*
X70075Y-39948D01*
X70099Y-39948D01*
X70135Y-39960D01*
X70278Y-40103D01*
X70278Y-39948D01*
X70278Y-39710D02*
X70278Y-39853D01*
X70278Y-39782D02*
X70028Y-39782D01*
X70064Y-39806D01*
X70087Y-39829D01*
X70099Y-39853D01*
X70052Y-39615D02*
X70040Y-39603D01*
X70028Y-39579D01*
X70028Y-39520D01*
X70040Y-39496D01*
X70052Y-39484D01*
X70075Y-39472D01*
X70099Y-39472D01*
X70135Y-39484D01*
X70278Y-39627D01*
X70278Y-39472D01*
X70135Y-39329D02*
X70123Y-39353D01*
X70111Y-39365D01*
X70087Y-39377D01*
X70075Y-39377D01*
X70052Y-39365D01*
X70040Y-39353D01*
X70028Y-39329D01*
X70028Y-39282D01*
X70040Y-39258D01*
X70052Y-39246D01*
X70075Y-39234D01*
X70087Y-39234D01*
X70111Y-39246D01*
X70123Y-39258D01*
X70135Y-39282D01*
X70135Y-39329D01*
X70147Y-39353D01*
X70159Y-39365D01*
X70183Y-39377D01*
X70230Y-39377D01*
X70254Y-39365D01*
X70266Y-39353D01*
X70278Y-39329D01*
X70278Y-39282D01*
X70266Y-39258D01*
X70254Y-39246D01*
X70230Y-39234D01*
X70183Y-39234D01*
X70159Y-39246D01*
X70147Y-39258D01*
X70135Y-39282D01*
X70183Y-39127D02*
X70183Y-38936D01*
X70266Y-38829D02*
X70278Y-38794D01*
X70278Y-38734D01*
X70266Y-38710D01*
X70254Y-38698D01*
X70230Y-38686D01*
X70206Y-38686D01*
X70183Y-38698D01*
X70171Y-38710D01*
X70159Y-38734D01*
X70147Y-38782D01*
X70135Y-38806D01*
X70123Y-38817D01*
X70099Y-38829D01*
X70075Y-38829D01*
X70052Y-38817D01*
X70040Y-38806D01*
X70028Y-38782D01*
X70028Y-38722D01*
X70040Y-38686D01*
X70028Y-38532D02*
X70028Y-38484D01*
X70040Y-38460D01*
X70064Y-38436D01*
X70111Y-38425D01*
X70195Y-38425D01*
X70242Y-38436D01*
X70266Y-38460D01*
X70278Y-38484D01*
X70278Y-38532D01*
X70266Y-38556D01*
X70242Y-38579D01*
X70195Y-38591D01*
X70111Y-38591D01*
X70064Y-38579D01*
X70040Y-38556D01*
X70028Y-38532D01*
X70028Y-38353D02*
X70028Y-38210D01*
X70278Y-38282D02*
X70028Y-38282D01*
X70052Y-38139D02*
X70040Y-38127D01*
X70028Y-38103D01*
X70028Y-38044D01*
X70040Y-38020D01*
X70052Y-38008D01*
X70075Y-37996D01*
X70099Y-37996D01*
X70135Y-38008D01*
X70278Y-38151D01*
X70278Y-37996D01*
X70028Y-37913D02*
X70028Y-37758D01*
X70123Y-37841D01*
X70123Y-37806D01*
X70135Y-37782D01*
X70147Y-37770D01*
X70171Y-37758D01*
X70230Y-37758D01*
X70254Y-37770D01*
X70266Y-37782D01*
X70278Y-37806D01*
X70278Y-37877D01*
X70266Y-37901D01*
X70254Y-37913D01*
G54D25*
X77329Y-46620D02*
X77316Y-46633D01*
X77276Y-46646D01*
X77250Y-46646D01*
X77211Y-46633D01*
X77185Y-46607D01*
X77171Y-46581D01*
X77158Y-46528D01*
X77158Y-46489D01*
X77171Y-46437D01*
X77185Y-46410D01*
X77211Y-46384D01*
X77250Y-46371D01*
X77276Y-46371D01*
X77316Y-46384D01*
X77329Y-46397D01*
X77421Y-46371D02*
X77591Y-46371D01*
X77500Y-46476D01*
X77539Y-46476D01*
X77565Y-46489D01*
X77578Y-46502D01*
X77591Y-46528D01*
X77591Y-46594D01*
X77578Y-46620D01*
X77565Y-46633D01*
X77539Y-46646D01*
X77460Y-46646D01*
X77434Y-46633D01*
X77421Y-46620D01*
X77762Y-46371D02*
X77788Y-46371D01*
X77814Y-46384D01*
X77828Y-46397D01*
X77841Y-46423D01*
X77854Y-46476D01*
X77854Y-46541D01*
X77841Y-46594D01*
X77828Y-46620D01*
X77814Y-46633D01*
X77788Y-46646D01*
X77762Y-46646D01*
X77736Y-46633D01*
X77723Y-46620D01*
X77709Y-46594D01*
X77696Y-46541D01*
X77696Y-46476D01*
X77709Y-46423D01*
X77723Y-46397D01*
X77736Y-46384D01*
X77762Y-46371D01*
X78103Y-46371D02*
X77972Y-46371D01*
X77959Y-46502D01*
X77972Y-46489D01*
X77998Y-46476D01*
X78064Y-46476D01*
X78090Y-46489D01*
X78103Y-46502D01*
X78116Y-46528D01*
X78116Y-46594D01*
X78103Y-46620D01*
X78090Y-46633D01*
X78064Y-46646D01*
X77998Y-46646D01*
X77972Y-46633D01*
X77959Y-46620D01*
X77368Y-43471D02*
X77355Y-43484D01*
X77316Y-43497D01*
X77290Y-43497D01*
X77250Y-43484D01*
X77224Y-43458D01*
X77211Y-43431D01*
X77198Y-43379D01*
X77198Y-43339D01*
X77211Y-43287D01*
X77224Y-43261D01*
X77250Y-43234D01*
X77290Y-43221D01*
X77316Y-43221D01*
X77355Y-43234D01*
X77368Y-43248D01*
X77460Y-43221D02*
X77631Y-43221D01*
X77539Y-43326D01*
X77578Y-43326D01*
X77604Y-43339D01*
X77618Y-43353D01*
X77631Y-43379D01*
X77631Y-43444D01*
X77618Y-43471D01*
X77604Y-43484D01*
X77578Y-43497D01*
X77500Y-43497D01*
X77473Y-43484D01*
X77460Y-43471D01*
X77801Y-43221D02*
X77828Y-43221D01*
X77854Y-43234D01*
X77867Y-43248D01*
X77880Y-43274D01*
X77893Y-43326D01*
X77893Y-43392D01*
X77880Y-43444D01*
X77867Y-43471D01*
X77854Y-43484D01*
X77828Y-43497D01*
X77801Y-43497D01*
X77775Y-43484D01*
X77762Y-43471D01*
X77749Y-43444D01*
X77736Y-43392D01*
X77736Y-43326D01*
X77749Y-43274D01*
X77762Y-43248D01*
X77775Y-43234D01*
X77801Y-43221D01*
X78129Y-43313D02*
X78129Y-43497D01*
X78064Y-43208D02*
X77998Y-43405D01*
X78169Y-43405D01*
X75793Y-42434D02*
X75807Y-42447D01*
X75820Y-42486D01*
X75820Y-42513D01*
X75807Y-42552D01*
X75780Y-42578D01*
X75754Y-42591D01*
X75702Y-42604D01*
X75662Y-42604D01*
X75610Y-42591D01*
X75583Y-42578D01*
X75557Y-42552D01*
X75544Y-42513D01*
X75544Y-42486D01*
X75557Y-42447D01*
X75570Y-42434D01*
X75544Y-42342D02*
X75544Y-42171D01*
X75649Y-42263D01*
X75649Y-42224D01*
X75662Y-42198D01*
X75675Y-42185D01*
X75702Y-42171D01*
X75767Y-42171D01*
X75793Y-42185D01*
X75807Y-42198D01*
X75820Y-42224D01*
X75820Y-42303D01*
X75807Y-42329D01*
X75793Y-42342D01*
X75544Y-42001D02*
X75544Y-41975D01*
X75557Y-41948D01*
X75570Y-41935D01*
X75597Y-41922D01*
X75649Y-41909D01*
X75715Y-41909D01*
X75767Y-41922D01*
X75793Y-41935D01*
X75807Y-41948D01*
X75820Y-41975D01*
X75820Y-42001D01*
X75807Y-42027D01*
X75793Y-42040D01*
X75767Y-42053D01*
X75715Y-42066D01*
X75649Y-42066D01*
X75597Y-42053D01*
X75570Y-42040D01*
X75557Y-42027D01*
X75544Y-42001D01*
X75544Y-41673D02*
X75544Y-41725D01*
X75557Y-41751D01*
X75570Y-41765D01*
X75610Y-41791D01*
X75662Y-41804D01*
X75767Y-41804D01*
X75793Y-41791D01*
X75807Y-41778D01*
X75820Y-41751D01*
X75820Y-41699D01*
X75807Y-41673D01*
X75793Y-41660D01*
X75767Y-41646D01*
X75702Y-41646D01*
X75675Y-41660D01*
X75662Y-41673D01*
X75649Y-41699D01*
X75649Y-41751D01*
X75662Y-41778D01*
X75675Y-41791D01*
X75702Y-41804D01*
X73431Y-41607D02*
X73339Y-41476D01*
X73274Y-41607D02*
X73274Y-41332D01*
X73379Y-41332D01*
X73405Y-41345D01*
X73418Y-41358D01*
X73431Y-41384D01*
X73431Y-41423D01*
X73418Y-41450D01*
X73405Y-41463D01*
X73379Y-41476D01*
X73274Y-41476D01*
X73523Y-41332D02*
X73694Y-41332D01*
X73602Y-41437D01*
X73641Y-41437D01*
X73667Y-41450D01*
X73681Y-41463D01*
X73694Y-41489D01*
X73694Y-41555D01*
X73681Y-41581D01*
X73667Y-41594D01*
X73641Y-41607D01*
X73562Y-41607D01*
X73536Y-41594D01*
X73523Y-41581D01*
X73864Y-41332D02*
X73891Y-41332D01*
X73917Y-41345D01*
X73930Y-41358D01*
X73943Y-41384D01*
X73956Y-41437D01*
X73956Y-41502D01*
X73943Y-41555D01*
X73930Y-41581D01*
X73917Y-41594D01*
X73891Y-41607D01*
X73864Y-41607D01*
X73838Y-41594D01*
X73825Y-41581D01*
X73812Y-41555D01*
X73799Y-41502D01*
X73799Y-41437D01*
X73812Y-41384D01*
X73825Y-41358D01*
X73838Y-41345D01*
X73864Y-41332D01*
X74206Y-41332D02*
X74074Y-41332D01*
X74061Y-41463D01*
X74074Y-41450D01*
X74101Y-41437D01*
X74166Y-41437D01*
X74192Y-41450D01*
X74206Y-41463D01*
X74219Y-41489D01*
X74219Y-41555D01*
X74206Y-41581D01*
X74192Y-41594D01*
X74166Y-41607D01*
X74101Y-41607D01*
X74074Y-41594D01*
X74061Y-41581D01*
X73431Y-38379D02*
X73444Y-38392D01*
X73458Y-38431D01*
X73458Y-38458D01*
X73444Y-38497D01*
X73418Y-38523D01*
X73392Y-38536D01*
X73339Y-38549D01*
X73300Y-38549D01*
X73248Y-38536D01*
X73221Y-38523D01*
X73195Y-38497D01*
X73182Y-38458D01*
X73182Y-38431D01*
X73195Y-38392D01*
X73208Y-38379D01*
X73182Y-38287D02*
X73182Y-38116D01*
X73287Y-38208D01*
X73287Y-38169D01*
X73300Y-38143D01*
X73313Y-38129D01*
X73339Y-38116D01*
X73405Y-38116D01*
X73431Y-38129D01*
X73444Y-38143D01*
X73458Y-38169D01*
X73458Y-38248D01*
X73444Y-38274D01*
X73431Y-38287D01*
X73458Y-37854D02*
X73458Y-38011D01*
X73458Y-37933D02*
X73182Y-37933D01*
X73221Y-37959D01*
X73248Y-37985D01*
X73261Y-38011D01*
X73458Y-37591D02*
X73458Y-37749D01*
X73458Y-37670D02*
X73182Y-37670D01*
X73221Y-37696D01*
X73248Y-37723D01*
X73261Y-37749D01*
G54D26*
X72272Y-37317D02*
X72272Y-37429D01*
X72272Y-37373D02*
X72075Y-37373D01*
X72103Y-37392D01*
X72122Y-37411D01*
X72131Y-37429D01*
X72075Y-37195D02*
X72075Y-37176D01*
X72084Y-37157D01*
X72094Y-37148D01*
X72112Y-37139D01*
X72150Y-37129D01*
X72197Y-37129D01*
X72234Y-37139D01*
X72253Y-37148D01*
X72262Y-37157D01*
X72272Y-37176D01*
X72272Y-37195D01*
X72262Y-37214D01*
X72253Y-37223D01*
X72234Y-37232D01*
X72197Y-37242D01*
X72150Y-37242D01*
X72112Y-37232D01*
X72094Y-37223D01*
X72084Y-37214D01*
X72075Y-37195D01*
X72140Y-36960D02*
X72272Y-36960D01*
X72140Y-37045D02*
X72244Y-37045D01*
X72262Y-37035D01*
X72272Y-37017D01*
X72272Y-36989D01*
X72262Y-36970D01*
X72253Y-36960D01*
X72169Y-36801D02*
X72169Y-36867D01*
X72272Y-36867D02*
X72075Y-36867D01*
X72075Y-36773D01*
G54D25*
X71778Y-35269D02*
X71791Y-35282D01*
X71804Y-35321D01*
X71804Y-35347D01*
X71791Y-35387D01*
X71765Y-35413D01*
X71738Y-35426D01*
X71686Y-35439D01*
X71646Y-35439D01*
X71594Y-35426D01*
X71568Y-35413D01*
X71541Y-35387D01*
X71528Y-35347D01*
X71528Y-35321D01*
X71541Y-35282D01*
X71555Y-35269D01*
X71528Y-35177D02*
X71528Y-35006D01*
X71633Y-35098D01*
X71633Y-35059D01*
X71646Y-35032D01*
X71660Y-35019D01*
X71686Y-35006D01*
X71751Y-35006D01*
X71778Y-35019D01*
X71791Y-35032D01*
X71804Y-35059D01*
X71804Y-35137D01*
X71791Y-35164D01*
X71778Y-35177D01*
X71804Y-34744D02*
X71804Y-34901D01*
X71804Y-34822D02*
X71528Y-34822D01*
X71568Y-34849D01*
X71594Y-34875D01*
X71607Y-34901D01*
X71555Y-34639D02*
X71541Y-34625D01*
X71528Y-34599D01*
X71528Y-34534D01*
X71541Y-34507D01*
X71555Y-34494D01*
X71581Y-34481D01*
X71607Y-34481D01*
X71646Y-34494D01*
X71804Y-34652D01*
X71804Y-34481D01*
G54D26*
X72552Y-35077D02*
X72552Y-35190D01*
X72552Y-35134D02*
X72355Y-35134D01*
X72383Y-35152D01*
X72402Y-35171D01*
X72411Y-35190D01*
X72421Y-34909D02*
X72552Y-34909D01*
X72421Y-34993D02*
X72524Y-34993D01*
X72543Y-34984D01*
X72552Y-34965D01*
X72552Y-34937D01*
X72543Y-34918D01*
X72533Y-34909D01*
X72449Y-34749D02*
X72449Y-34815D01*
X72552Y-34815D02*
X72355Y-34815D01*
X72355Y-34721D01*
G54D25*
X73038Y-38418D02*
X73051Y-38431D01*
X73064Y-38471D01*
X73064Y-38497D01*
X73051Y-38536D01*
X73024Y-38562D01*
X72998Y-38576D01*
X72946Y-38589D01*
X72906Y-38589D01*
X72854Y-38576D01*
X72828Y-38562D01*
X72801Y-38536D01*
X72788Y-38497D01*
X72788Y-38471D01*
X72801Y-38431D01*
X72814Y-38418D01*
X72788Y-38326D02*
X72788Y-38156D01*
X72893Y-38248D01*
X72893Y-38208D01*
X72906Y-38182D01*
X72919Y-38169D01*
X72946Y-38156D01*
X73011Y-38156D01*
X73038Y-38169D01*
X73051Y-38182D01*
X73064Y-38208D01*
X73064Y-38287D01*
X73051Y-38313D01*
X73038Y-38326D01*
X73064Y-37893D02*
X73064Y-38051D01*
X73064Y-37972D02*
X72788Y-37972D01*
X72828Y-37998D01*
X72854Y-38024D01*
X72867Y-38051D01*
X72788Y-37801D02*
X72788Y-37631D01*
X72893Y-37723D01*
X72893Y-37683D01*
X72906Y-37657D01*
X72919Y-37644D01*
X72946Y-37631D01*
X73011Y-37631D01*
X73038Y-37644D01*
X73051Y-37657D01*
X73064Y-37683D01*
X73064Y-37762D01*
X73051Y-37788D01*
X73038Y-37801D01*
G54D26*
X71543Y-37297D02*
X71543Y-37410D01*
X71543Y-37353D02*
X71346Y-37353D01*
X71375Y-37372D01*
X71393Y-37391D01*
X71403Y-37410D01*
X71346Y-37175D02*
X71346Y-37156D01*
X71356Y-37138D01*
X71365Y-37128D01*
X71384Y-37119D01*
X71421Y-37110D01*
X71468Y-37110D01*
X71506Y-37119D01*
X71525Y-37128D01*
X71534Y-37138D01*
X71543Y-37156D01*
X71543Y-37175D01*
X71534Y-37194D01*
X71525Y-37203D01*
X71506Y-37213D01*
X71468Y-37222D01*
X71421Y-37222D01*
X71384Y-37213D01*
X71365Y-37203D01*
X71356Y-37194D01*
X71346Y-37175D01*
X71412Y-36941D02*
X71543Y-36941D01*
X71412Y-37025D02*
X71515Y-37025D01*
X71534Y-37016D01*
X71543Y-36997D01*
X71543Y-36969D01*
X71534Y-36950D01*
X71525Y-36941D01*
X71440Y-36781D02*
X71440Y-36847D01*
X71543Y-36847D02*
X71346Y-36847D01*
X71346Y-36753D01*
G54D25*
X76227Y-42040D02*
X76135Y-41909D01*
X76069Y-42040D02*
X76069Y-41765D01*
X76174Y-41765D01*
X76200Y-41778D01*
X76213Y-41791D01*
X76227Y-41817D01*
X76227Y-41856D01*
X76213Y-41883D01*
X76200Y-41896D01*
X76174Y-41909D01*
X76069Y-41909D01*
X76318Y-41765D02*
X76489Y-41765D01*
X76397Y-41870D01*
X76437Y-41870D01*
X76463Y-41883D01*
X76476Y-41896D01*
X76489Y-41922D01*
X76489Y-41988D01*
X76476Y-42014D01*
X76463Y-42027D01*
X76437Y-42040D01*
X76358Y-42040D01*
X76332Y-42027D01*
X76318Y-42014D01*
X76660Y-41765D02*
X76686Y-41765D01*
X76712Y-41778D01*
X76725Y-41791D01*
X76738Y-41817D01*
X76751Y-41870D01*
X76751Y-41935D01*
X76738Y-41988D01*
X76725Y-42014D01*
X76712Y-42027D01*
X76686Y-42040D01*
X76660Y-42040D01*
X76633Y-42027D01*
X76620Y-42014D01*
X76607Y-41988D01*
X76594Y-41935D01*
X76594Y-41870D01*
X76607Y-41817D01*
X76620Y-41791D01*
X76633Y-41778D01*
X76660Y-41765D01*
X76988Y-41765D02*
X76935Y-41765D01*
X76909Y-41778D01*
X76896Y-41791D01*
X76870Y-41830D01*
X76856Y-41883D01*
X76856Y-41988D01*
X76870Y-42014D01*
X76883Y-42027D01*
X76909Y-42040D01*
X76961Y-42040D01*
X76988Y-42027D01*
X77001Y-42014D01*
X77014Y-41988D01*
X77014Y-41922D01*
X77001Y-41896D01*
X76988Y-41883D01*
X76961Y-41870D01*
X76909Y-41870D01*
X76883Y-41883D01*
X76870Y-41896D01*
X76856Y-41922D01*
X77408Y-40859D02*
X77316Y-40728D01*
X77250Y-40859D02*
X77250Y-40583D01*
X77355Y-40583D01*
X77381Y-40597D01*
X77395Y-40610D01*
X77408Y-40636D01*
X77408Y-40675D01*
X77395Y-40702D01*
X77381Y-40715D01*
X77355Y-40728D01*
X77250Y-40728D01*
X77500Y-40583D02*
X77670Y-40583D01*
X77578Y-40688D01*
X77618Y-40688D01*
X77644Y-40702D01*
X77657Y-40715D01*
X77670Y-40741D01*
X77670Y-40807D01*
X77657Y-40833D01*
X77644Y-40846D01*
X77618Y-40859D01*
X77539Y-40859D01*
X77513Y-40846D01*
X77500Y-40833D01*
X77841Y-40583D02*
X77867Y-40583D01*
X77893Y-40597D01*
X77906Y-40610D01*
X77919Y-40636D01*
X77933Y-40688D01*
X77933Y-40754D01*
X77919Y-40807D01*
X77906Y-40833D01*
X77893Y-40846D01*
X77867Y-40859D01*
X77841Y-40859D01*
X77814Y-40846D01*
X77801Y-40833D01*
X77788Y-40807D01*
X77775Y-40754D01*
X77775Y-40688D01*
X77788Y-40636D01*
X77801Y-40610D01*
X77814Y-40597D01*
X77841Y-40583D01*
X78169Y-40675D02*
X78169Y-40859D01*
X78103Y-40570D02*
X78038Y-40767D01*
X78208Y-40767D01*
X78313Y-40045D02*
X78300Y-40059D01*
X78261Y-40072D01*
X78234Y-40072D01*
X78195Y-40059D01*
X78169Y-40032D01*
X78156Y-40006D01*
X78143Y-39954D01*
X78143Y-39914D01*
X78156Y-39862D01*
X78169Y-39835D01*
X78195Y-39809D01*
X78234Y-39796D01*
X78261Y-39796D01*
X78300Y-39809D01*
X78313Y-39822D01*
X78405Y-39796D02*
X78576Y-39796D01*
X78484Y-39901D01*
X78523Y-39901D01*
X78549Y-39914D01*
X78562Y-39927D01*
X78576Y-39954D01*
X78576Y-40019D01*
X78562Y-40045D01*
X78549Y-40059D01*
X78523Y-40072D01*
X78444Y-40072D01*
X78418Y-40059D01*
X78405Y-40045D01*
X78746Y-39796D02*
X78772Y-39796D01*
X78799Y-39809D01*
X78812Y-39822D01*
X78825Y-39849D01*
X78838Y-39901D01*
X78838Y-39967D01*
X78825Y-40019D01*
X78812Y-40045D01*
X78799Y-40059D01*
X78772Y-40072D01*
X78746Y-40072D01*
X78720Y-40059D01*
X78707Y-40045D01*
X78694Y-40019D01*
X78681Y-39967D01*
X78681Y-39901D01*
X78694Y-39849D01*
X78707Y-39822D01*
X78720Y-39809D01*
X78746Y-39796D01*
X78930Y-39796D02*
X79114Y-39796D01*
X78996Y-40072D01*
X77447Y-37355D02*
X77460Y-37368D01*
X77473Y-37408D01*
X77473Y-37434D01*
X77460Y-37473D01*
X77434Y-37500D01*
X77408Y-37513D01*
X77355Y-37526D01*
X77316Y-37526D01*
X77263Y-37513D01*
X77237Y-37500D01*
X77211Y-37473D01*
X77198Y-37434D01*
X77198Y-37408D01*
X77211Y-37368D01*
X77224Y-37355D01*
X77198Y-37263D02*
X77198Y-37093D01*
X77303Y-37185D01*
X77303Y-37145D01*
X77316Y-37119D01*
X77329Y-37106D01*
X77355Y-37093D01*
X77421Y-37093D01*
X77447Y-37106D01*
X77460Y-37119D01*
X77473Y-37145D01*
X77473Y-37224D01*
X77460Y-37250D01*
X77447Y-37263D01*
X77198Y-36922D02*
X77198Y-36896D01*
X77211Y-36870D01*
X77224Y-36856D01*
X77250Y-36843D01*
X77303Y-36830D01*
X77368Y-36830D01*
X77421Y-36843D01*
X77447Y-36856D01*
X77460Y-36870D01*
X77473Y-36896D01*
X77473Y-36922D01*
X77460Y-36948D01*
X77447Y-36961D01*
X77421Y-36975D01*
X77368Y-36988D01*
X77303Y-36988D01*
X77250Y-36975D01*
X77224Y-36961D01*
X77211Y-36948D01*
X77198Y-36922D01*
X77316Y-36673D02*
X77303Y-36699D01*
X77290Y-36712D01*
X77263Y-36725D01*
X77250Y-36725D01*
X77224Y-36712D01*
X77211Y-36699D01*
X77198Y-36673D01*
X77198Y-36620D01*
X77211Y-36594D01*
X77224Y-36581D01*
X77250Y-36568D01*
X77263Y-36568D01*
X77290Y-36581D01*
X77303Y-36594D01*
X77316Y-36620D01*
X77316Y-36673D01*
X77329Y-36699D01*
X77342Y-36712D01*
X77368Y-36725D01*
X77421Y-36725D01*
X77447Y-36712D01*
X77460Y-36699D01*
X77473Y-36673D01*
X77473Y-36620D01*
X77460Y-36594D01*
X77447Y-36581D01*
X77421Y-36568D01*
X77368Y-36568D01*
X77342Y-36581D01*
X77329Y-36594D01*
X77316Y-36620D01*
X47329Y-47211D02*
X47316Y-47224D01*
X47276Y-47237D01*
X47250Y-47237D01*
X47211Y-47224D01*
X47185Y-47198D01*
X47171Y-47171D01*
X47158Y-47119D01*
X47158Y-47080D01*
X47171Y-47027D01*
X47185Y-47001D01*
X47211Y-46975D01*
X47250Y-46961D01*
X47276Y-46961D01*
X47316Y-46975D01*
X47329Y-46988D01*
X47591Y-47237D02*
X47434Y-47237D01*
X47513Y-47237D02*
X47513Y-46961D01*
X47486Y-47001D01*
X47460Y-47027D01*
X47434Y-47040D01*
X47762Y-46961D02*
X47788Y-46961D01*
X47814Y-46975D01*
X47828Y-46988D01*
X47841Y-47014D01*
X47854Y-47066D01*
X47854Y-47132D01*
X47841Y-47185D01*
X47828Y-47211D01*
X47814Y-47224D01*
X47788Y-47237D01*
X47762Y-47237D01*
X47736Y-47224D01*
X47723Y-47211D01*
X47709Y-47185D01*
X47696Y-47132D01*
X47696Y-47066D01*
X47709Y-47014D01*
X47723Y-46988D01*
X47736Y-46975D01*
X47762Y-46961D01*
X48090Y-46961D02*
X48038Y-46961D01*
X48011Y-46975D01*
X47998Y-46988D01*
X47972Y-47027D01*
X47959Y-47080D01*
X47959Y-47185D01*
X47972Y-47211D01*
X47985Y-47224D01*
X48011Y-47237D01*
X48064Y-47237D01*
X48090Y-47224D01*
X48103Y-47211D01*
X48116Y-47185D01*
X48116Y-47119D01*
X48103Y-47093D01*
X48090Y-47080D01*
X48064Y-47066D01*
X48011Y-47066D01*
X47985Y-47080D01*
X47972Y-47093D01*
X47959Y-47119D01*
X47329Y-47828D02*
X47237Y-47696D01*
X47171Y-47828D02*
X47171Y-47552D01*
X47276Y-47552D01*
X47303Y-47565D01*
X47316Y-47578D01*
X47329Y-47604D01*
X47329Y-47644D01*
X47316Y-47670D01*
X47303Y-47683D01*
X47276Y-47696D01*
X47171Y-47696D01*
X47591Y-47828D02*
X47434Y-47828D01*
X47513Y-47828D02*
X47513Y-47552D01*
X47486Y-47591D01*
X47460Y-47618D01*
X47434Y-47631D01*
X47762Y-47552D02*
X47788Y-47552D01*
X47814Y-47565D01*
X47828Y-47578D01*
X47841Y-47604D01*
X47854Y-47657D01*
X47854Y-47723D01*
X47841Y-47775D01*
X47828Y-47801D01*
X47814Y-47814D01*
X47788Y-47828D01*
X47762Y-47828D01*
X47736Y-47814D01*
X47723Y-47801D01*
X47709Y-47775D01*
X47696Y-47723D01*
X47696Y-47657D01*
X47709Y-47604D01*
X47723Y-47578D01*
X47736Y-47565D01*
X47762Y-47552D01*
X47946Y-47552D02*
X48129Y-47552D01*
X48011Y-47828D01*
X52959Y-42670D02*
X52972Y-42683D01*
X52985Y-42723D01*
X52985Y-42749D01*
X52972Y-42788D01*
X52946Y-42814D01*
X52919Y-42828D01*
X52867Y-42841D01*
X52828Y-42841D01*
X52775Y-42828D01*
X52749Y-42814D01*
X52723Y-42788D01*
X52709Y-42749D01*
X52709Y-42723D01*
X52723Y-42683D01*
X52736Y-42670D01*
X52985Y-42408D02*
X52985Y-42565D01*
X52985Y-42486D02*
X52709Y-42486D01*
X52749Y-42513D01*
X52775Y-42539D01*
X52788Y-42565D01*
X52709Y-42237D02*
X52709Y-42211D01*
X52723Y-42185D01*
X52736Y-42171D01*
X52762Y-42158D01*
X52814Y-42145D01*
X52880Y-42145D01*
X52933Y-42158D01*
X52959Y-42171D01*
X52972Y-42185D01*
X52985Y-42211D01*
X52985Y-42237D01*
X52972Y-42263D01*
X52959Y-42276D01*
X52933Y-42290D01*
X52880Y-42303D01*
X52814Y-42303D01*
X52762Y-42290D01*
X52736Y-42276D01*
X52723Y-42263D01*
X52709Y-42237D01*
X52709Y-42053D02*
X52709Y-41883D01*
X52814Y-41975D01*
X52814Y-41935D01*
X52828Y-41909D01*
X52841Y-41896D01*
X52867Y-41883D01*
X52933Y-41883D01*
X52959Y-41896D01*
X52972Y-41909D01*
X52985Y-41935D01*
X52985Y-42014D01*
X52972Y-42040D01*
X52959Y-42053D01*
X58864Y-47211D02*
X58851Y-47224D01*
X58812Y-47237D01*
X58786Y-47237D01*
X58746Y-47224D01*
X58720Y-47198D01*
X58707Y-47171D01*
X58694Y-47119D01*
X58694Y-47080D01*
X58707Y-47027D01*
X58720Y-47001D01*
X58746Y-46975D01*
X58786Y-46961D01*
X58812Y-46961D01*
X58851Y-46975D01*
X58864Y-46988D01*
X59127Y-47237D02*
X58969Y-47237D01*
X59048Y-47237D02*
X59048Y-46961D01*
X59022Y-47001D01*
X58996Y-47027D01*
X58969Y-47040D01*
X59297Y-46961D02*
X59324Y-46961D01*
X59350Y-46975D01*
X59363Y-46988D01*
X59376Y-47014D01*
X59389Y-47066D01*
X59389Y-47132D01*
X59376Y-47185D01*
X59363Y-47211D01*
X59350Y-47224D01*
X59324Y-47237D01*
X59297Y-47237D01*
X59271Y-47224D01*
X59258Y-47211D01*
X59245Y-47185D01*
X59232Y-47132D01*
X59232Y-47066D01*
X59245Y-47014D01*
X59258Y-46988D01*
X59271Y-46975D01*
X59297Y-46961D01*
X59639Y-46961D02*
X59507Y-46961D01*
X59494Y-47093D01*
X59507Y-47080D01*
X59534Y-47066D01*
X59599Y-47066D01*
X59625Y-47080D01*
X59639Y-47093D01*
X59652Y-47119D01*
X59652Y-47185D01*
X59639Y-47211D01*
X59625Y-47224D01*
X59599Y-47237D01*
X59534Y-47237D01*
X59507Y-47224D01*
X59494Y-47211D01*
X58825Y-47828D02*
X58733Y-47696D01*
X58667Y-47828D02*
X58667Y-47552D01*
X58772Y-47552D01*
X58799Y-47565D01*
X58812Y-47578D01*
X58825Y-47604D01*
X58825Y-47644D01*
X58812Y-47670D01*
X58799Y-47683D01*
X58772Y-47696D01*
X58667Y-47696D01*
X59087Y-47828D02*
X58930Y-47828D01*
X59009Y-47828D02*
X59009Y-47552D01*
X58982Y-47591D01*
X58956Y-47618D01*
X58930Y-47631D01*
X59258Y-47552D02*
X59284Y-47552D01*
X59311Y-47565D01*
X59324Y-47578D01*
X59337Y-47604D01*
X59350Y-47657D01*
X59350Y-47723D01*
X59337Y-47775D01*
X59324Y-47801D01*
X59311Y-47814D01*
X59284Y-47828D01*
X59258Y-47828D01*
X59232Y-47814D01*
X59219Y-47801D01*
X59206Y-47775D01*
X59192Y-47723D01*
X59192Y-47657D01*
X59206Y-47604D01*
X59219Y-47578D01*
X59232Y-47565D01*
X59258Y-47552D01*
X59507Y-47670D02*
X59481Y-47657D01*
X59468Y-47644D01*
X59455Y-47618D01*
X59455Y-47604D01*
X59468Y-47578D01*
X59481Y-47565D01*
X59507Y-47552D01*
X59560Y-47552D01*
X59586Y-47565D01*
X59599Y-47578D01*
X59612Y-47604D01*
X59612Y-47618D01*
X59599Y-47644D01*
X59586Y-47657D01*
X59560Y-47670D01*
X59507Y-47670D01*
X59481Y-47683D01*
X59468Y-47696D01*
X59455Y-47723D01*
X59455Y-47775D01*
X59468Y-47801D01*
X59481Y-47814D01*
X59507Y-47828D01*
X59560Y-47828D01*
X59586Y-47814D01*
X59599Y-47801D01*
X59612Y-47775D01*
X59612Y-47723D01*
X59599Y-47696D01*
X59586Y-47683D01*
X59560Y-47670D01*
X70597Y-47828D02*
X70505Y-47696D01*
X70439Y-47828D02*
X70439Y-47552D01*
X70544Y-47552D01*
X70570Y-47565D01*
X70583Y-47578D01*
X70597Y-47604D01*
X70597Y-47644D01*
X70583Y-47670D01*
X70570Y-47683D01*
X70544Y-47696D01*
X70439Y-47696D01*
X70859Y-47828D02*
X70702Y-47828D01*
X70780Y-47828D02*
X70780Y-47552D01*
X70754Y-47591D01*
X70728Y-47618D01*
X70702Y-47631D01*
X71030Y-47552D02*
X71056Y-47552D01*
X71082Y-47565D01*
X71095Y-47578D01*
X71108Y-47604D01*
X71122Y-47657D01*
X71122Y-47723D01*
X71108Y-47775D01*
X71095Y-47801D01*
X71082Y-47814D01*
X71056Y-47828D01*
X71030Y-47828D01*
X71003Y-47814D01*
X70990Y-47801D01*
X70977Y-47775D01*
X70964Y-47723D01*
X70964Y-47657D01*
X70977Y-47604D01*
X70990Y-47578D01*
X71003Y-47565D01*
X71030Y-47552D01*
X71253Y-47828D02*
X71305Y-47828D01*
X71332Y-47814D01*
X71345Y-47801D01*
X71371Y-47762D01*
X71384Y-47709D01*
X71384Y-47604D01*
X71371Y-47578D01*
X71358Y-47565D01*
X71332Y-47552D01*
X71279Y-47552D01*
X71253Y-47565D01*
X71240Y-47578D01*
X71227Y-47604D01*
X71227Y-47670D01*
X71240Y-47696D01*
X71253Y-47709D01*
X71279Y-47723D01*
X71332Y-47723D01*
X71358Y-47709D01*
X71371Y-47696D01*
X71384Y-47670D01*
X65203Y-43930D02*
X65216Y-43943D01*
X65229Y-43982D01*
X65229Y-44009D01*
X65216Y-44048D01*
X65190Y-44074D01*
X65164Y-44087D01*
X65111Y-44101D01*
X65072Y-44101D01*
X65019Y-44087D01*
X64993Y-44074D01*
X64967Y-44048D01*
X64954Y-44009D01*
X64954Y-43982D01*
X64967Y-43943D01*
X64980Y-43930D01*
X65229Y-43667D02*
X65229Y-43825D01*
X65229Y-43746D02*
X64954Y-43746D01*
X64993Y-43772D01*
X65019Y-43799D01*
X65032Y-43825D01*
X64954Y-43497D02*
X64954Y-43471D01*
X64967Y-43444D01*
X64980Y-43431D01*
X65006Y-43418D01*
X65059Y-43405D01*
X65124Y-43405D01*
X65177Y-43418D01*
X65203Y-43431D01*
X65216Y-43444D01*
X65229Y-43471D01*
X65229Y-43497D01*
X65216Y-43523D01*
X65203Y-43536D01*
X65177Y-43549D01*
X65124Y-43562D01*
X65059Y-43562D01*
X65006Y-43549D01*
X64980Y-43536D01*
X64967Y-43523D01*
X64954Y-43497D01*
X64980Y-43300D02*
X64967Y-43287D01*
X64954Y-43261D01*
X64954Y-43195D01*
X64967Y-43169D01*
X64980Y-43156D01*
X65006Y-43143D01*
X65032Y-43143D01*
X65072Y-43156D01*
X65229Y-43313D01*
X65229Y-43143D01*
X76069Y-43943D02*
X76056Y-43956D01*
X76017Y-43969D01*
X75990Y-43969D01*
X75951Y-43956D01*
X75925Y-43930D01*
X75912Y-43904D01*
X75898Y-43851D01*
X75898Y-43812D01*
X75912Y-43759D01*
X75925Y-43733D01*
X75951Y-43707D01*
X75990Y-43694D01*
X76017Y-43694D01*
X76056Y-43707D01*
X76069Y-43720D01*
X76332Y-43969D02*
X76174Y-43969D01*
X76253Y-43969D02*
X76253Y-43694D01*
X76227Y-43733D01*
X76200Y-43759D01*
X76174Y-43772D01*
X76502Y-43694D02*
X76528Y-43694D01*
X76555Y-43707D01*
X76568Y-43720D01*
X76581Y-43746D01*
X76594Y-43799D01*
X76594Y-43864D01*
X76581Y-43917D01*
X76568Y-43943D01*
X76555Y-43956D01*
X76528Y-43969D01*
X76502Y-43969D01*
X76476Y-43956D01*
X76463Y-43943D01*
X76450Y-43917D01*
X76437Y-43864D01*
X76437Y-43799D01*
X76450Y-43746D01*
X76463Y-43720D01*
X76476Y-43707D01*
X76502Y-43694D01*
X76856Y-43969D02*
X76699Y-43969D01*
X76778Y-43969D02*
X76778Y-43694D01*
X76751Y-43733D01*
X76725Y-43759D01*
X76699Y-43772D01*
X70557Y-47211D02*
X70544Y-47224D01*
X70505Y-47237D01*
X70479Y-47237D01*
X70439Y-47224D01*
X70413Y-47198D01*
X70400Y-47171D01*
X70387Y-47119D01*
X70387Y-47080D01*
X70400Y-47027D01*
X70413Y-47001D01*
X70439Y-46975D01*
X70479Y-46961D01*
X70505Y-46961D01*
X70544Y-46975D01*
X70557Y-46988D01*
X70820Y-47237D02*
X70662Y-47237D01*
X70741Y-47237D02*
X70741Y-46961D01*
X70715Y-47001D01*
X70688Y-47027D01*
X70662Y-47040D01*
X70990Y-46961D02*
X71017Y-46961D01*
X71043Y-46975D01*
X71056Y-46988D01*
X71069Y-47014D01*
X71082Y-47066D01*
X71082Y-47132D01*
X71069Y-47185D01*
X71056Y-47211D01*
X71043Y-47224D01*
X71017Y-47237D01*
X70990Y-47237D01*
X70964Y-47224D01*
X70951Y-47211D01*
X70938Y-47185D01*
X70925Y-47132D01*
X70925Y-47066D01*
X70938Y-47014D01*
X70951Y-46988D01*
X70964Y-46975D01*
X70990Y-46961D01*
X71318Y-47053D02*
X71318Y-47237D01*
X71253Y-46948D02*
X71187Y-47145D01*
X71358Y-47145D01*
X53766Y-37513D02*
X53950Y-37788D01*
X53950Y-37513D02*
X53766Y-37788D01*
X54041Y-37539D02*
X54055Y-37526D01*
X54081Y-37513D01*
X54146Y-37513D01*
X54173Y-37526D01*
X54186Y-37539D01*
X54199Y-37565D01*
X54199Y-37591D01*
X54186Y-37631D01*
X54028Y-37788D01*
X54199Y-37788D01*
X54370Y-37513D02*
X54396Y-37513D01*
X54422Y-37526D01*
X54435Y-37539D01*
X54448Y-37565D01*
X54461Y-37618D01*
X54461Y-37683D01*
X54448Y-37736D01*
X54435Y-37762D01*
X54422Y-37775D01*
X54396Y-37788D01*
X54370Y-37788D01*
X54343Y-37775D01*
X54330Y-37762D01*
X54317Y-37736D01*
X54304Y-37683D01*
X54304Y-37618D01*
X54317Y-37565D01*
X54330Y-37539D01*
X54343Y-37526D01*
X54370Y-37513D01*
X54724Y-37788D02*
X54566Y-37788D01*
X54645Y-37788D02*
X54645Y-37513D01*
X54619Y-37552D01*
X54593Y-37578D01*
X54566Y-37591D01*
X53904Y-39927D02*
X53891Y-39940D01*
X53851Y-39954D01*
X53825Y-39954D01*
X53786Y-39940D01*
X53759Y-39914D01*
X53746Y-39888D01*
X53733Y-39835D01*
X53733Y-39796D01*
X53746Y-39744D01*
X53759Y-39717D01*
X53786Y-39691D01*
X53825Y-39678D01*
X53851Y-39678D01*
X53891Y-39691D01*
X53904Y-39704D01*
X54009Y-39704D02*
X54022Y-39691D01*
X54048Y-39678D01*
X54114Y-39678D01*
X54140Y-39691D01*
X54153Y-39704D01*
X54166Y-39730D01*
X54166Y-39757D01*
X54153Y-39796D01*
X53996Y-39954D01*
X54166Y-39954D01*
X54337Y-39678D02*
X54363Y-39678D01*
X54389Y-39691D01*
X54402Y-39704D01*
X54416Y-39730D01*
X54429Y-39783D01*
X54429Y-39849D01*
X54416Y-39901D01*
X54402Y-39927D01*
X54389Y-39940D01*
X54363Y-39954D01*
X54337Y-39954D01*
X54311Y-39940D01*
X54297Y-39927D01*
X54284Y-39901D01*
X54271Y-39849D01*
X54271Y-39783D01*
X54284Y-39730D01*
X54297Y-39704D01*
X54311Y-39691D01*
X54337Y-39678D01*
X54586Y-39796D02*
X54560Y-39783D01*
X54547Y-39770D01*
X54534Y-39744D01*
X54534Y-39730D01*
X54547Y-39704D01*
X54560Y-39691D01*
X54586Y-39678D01*
X54639Y-39678D01*
X54665Y-39691D01*
X54678Y-39704D01*
X54691Y-39730D01*
X54691Y-39744D01*
X54678Y-39770D01*
X54665Y-39783D01*
X54639Y-39796D01*
X54586Y-39796D01*
X54560Y-39809D01*
X54547Y-39822D01*
X54534Y-39849D01*
X54534Y-39901D01*
X54547Y-39927D01*
X54560Y-39940D01*
X54586Y-39954D01*
X54639Y-39954D01*
X54665Y-39940D01*
X54678Y-39927D01*
X54691Y-39901D01*
X54691Y-39849D01*
X54678Y-39822D01*
X54665Y-39809D01*
X54639Y-39796D01*
X55045Y-38904D02*
X55032Y-38917D01*
X54993Y-38930D01*
X54967Y-38930D01*
X54927Y-38917D01*
X54901Y-38891D01*
X54888Y-38864D01*
X54875Y-38812D01*
X54875Y-38772D01*
X54888Y-38720D01*
X54901Y-38694D01*
X54927Y-38667D01*
X54967Y-38654D01*
X54993Y-38654D01*
X55032Y-38667D01*
X55045Y-38681D01*
X55150Y-38681D02*
X55164Y-38667D01*
X55190Y-38654D01*
X55255Y-38654D01*
X55282Y-38667D01*
X55295Y-38681D01*
X55308Y-38707D01*
X55308Y-38733D01*
X55295Y-38772D01*
X55137Y-38930D01*
X55308Y-38930D01*
X55479Y-38654D02*
X55505Y-38654D01*
X55531Y-38667D01*
X55544Y-38681D01*
X55557Y-38707D01*
X55570Y-38759D01*
X55570Y-38825D01*
X55557Y-38877D01*
X55544Y-38904D01*
X55531Y-38917D01*
X55505Y-38930D01*
X55479Y-38930D01*
X55452Y-38917D01*
X55439Y-38904D01*
X55426Y-38877D01*
X55413Y-38825D01*
X55413Y-38759D01*
X55426Y-38707D01*
X55439Y-38681D01*
X55452Y-38667D01*
X55479Y-38654D01*
X55702Y-38930D02*
X55754Y-38930D01*
X55780Y-38917D01*
X55793Y-38904D01*
X55820Y-38864D01*
X55833Y-38812D01*
X55833Y-38707D01*
X55820Y-38681D01*
X55807Y-38667D01*
X55780Y-38654D01*
X55728Y-38654D01*
X55702Y-38667D01*
X55688Y-38681D01*
X55675Y-38707D01*
X55675Y-38772D01*
X55688Y-38799D01*
X55702Y-38812D01*
X55728Y-38825D01*
X55780Y-38825D01*
X55807Y-38812D01*
X55820Y-38799D01*
X55833Y-38772D01*
G54D29*
X77316Y-39448D02*
X77539Y-39448D01*
X77565Y-39435D01*
X77578Y-39422D01*
X77591Y-39396D01*
X77591Y-39343D01*
X77578Y-39317D01*
X77565Y-39304D01*
X77539Y-39291D01*
X77316Y-39291D01*
X77316Y-39186D02*
X77316Y-39015D01*
X77421Y-39107D01*
X77421Y-39068D01*
X77434Y-39041D01*
X77447Y-39028D01*
X77473Y-39015D01*
X77539Y-39015D01*
X77565Y-39028D01*
X77578Y-39041D01*
X77591Y-39068D01*
X77591Y-39146D01*
X77578Y-39173D01*
X77565Y-39186D01*
X77316Y-38845D02*
X77316Y-38818D01*
X77329Y-38792D01*
X77342Y-38779D01*
X77368Y-38766D01*
X77421Y-38753D01*
X77486Y-38753D01*
X77539Y-38766D01*
X77565Y-38779D01*
X77578Y-38792D01*
X77591Y-38818D01*
X77591Y-38845D01*
X77578Y-38871D01*
X77565Y-38884D01*
X77539Y-38897D01*
X77486Y-38910D01*
X77421Y-38910D01*
X77368Y-38897D01*
X77342Y-38884D01*
X77329Y-38871D01*
X77316Y-38845D01*
X77342Y-38648D02*
X77329Y-38635D01*
X77316Y-38608D01*
X77316Y-38543D01*
X77329Y-38517D01*
X77342Y-38503D01*
X77368Y-38490D01*
X77395Y-38490D01*
X77434Y-38503D01*
X77591Y-38661D01*
X77591Y-38490D01*
G54D25*
X50898Y-42473D02*
X50767Y-42565D01*
X50898Y-42631D02*
X50623Y-42631D01*
X50623Y-42526D01*
X50636Y-42500D01*
X50649Y-42486D01*
X50675Y-42473D01*
X50715Y-42473D01*
X50741Y-42486D01*
X50754Y-42500D01*
X50767Y-42526D01*
X50767Y-42631D01*
X50649Y-42368D02*
X50636Y-42355D01*
X50623Y-42329D01*
X50623Y-42263D01*
X50636Y-42237D01*
X50649Y-42224D01*
X50675Y-42211D01*
X50702Y-42211D01*
X50741Y-42224D01*
X50898Y-42381D01*
X50898Y-42211D01*
X50623Y-42040D02*
X50623Y-42014D01*
X50636Y-41988D01*
X50649Y-41975D01*
X50675Y-41961D01*
X50728Y-41948D01*
X50793Y-41948D01*
X50846Y-41961D01*
X50872Y-41975D01*
X50885Y-41988D01*
X50898Y-42014D01*
X50898Y-42040D01*
X50885Y-42066D01*
X50872Y-42080D01*
X50846Y-42093D01*
X50793Y-42106D01*
X50728Y-42106D01*
X50675Y-42093D01*
X50649Y-42080D01*
X50636Y-42066D01*
X50623Y-42040D01*
X50649Y-41843D02*
X50636Y-41830D01*
X50623Y-41804D01*
X50623Y-41738D01*
X50636Y-41712D01*
X50649Y-41699D01*
X50675Y-41686D01*
X50702Y-41686D01*
X50741Y-41699D01*
X50898Y-41856D01*
X50898Y-41686D01*
X49127Y-42473D02*
X48996Y-42565D01*
X49127Y-42631D02*
X48851Y-42631D01*
X48851Y-42526D01*
X48864Y-42500D01*
X48877Y-42486D01*
X48904Y-42473D01*
X48943Y-42473D01*
X48969Y-42486D01*
X48982Y-42500D01*
X48996Y-42526D01*
X48996Y-42631D01*
X48877Y-42368D02*
X48864Y-42355D01*
X48851Y-42329D01*
X48851Y-42263D01*
X48864Y-42237D01*
X48877Y-42224D01*
X48904Y-42211D01*
X48930Y-42211D01*
X48969Y-42224D01*
X49127Y-42381D01*
X49127Y-42211D01*
X48851Y-42040D02*
X48851Y-42014D01*
X48864Y-41988D01*
X48877Y-41975D01*
X48904Y-41961D01*
X48956Y-41948D01*
X49022Y-41948D01*
X49074Y-41961D01*
X49101Y-41975D01*
X49114Y-41988D01*
X49127Y-42014D01*
X49127Y-42040D01*
X49114Y-42066D01*
X49101Y-42080D01*
X49074Y-42093D01*
X49022Y-42106D01*
X48956Y-42106D01*
X48904Y-42093D01*
X48877Y-42080D01*
X48864Y-42066D01*
X48851Y-42040D01*
X49127Y-41686D02*
X49127Y-41843D01*
X49127Y-41765D02*
X48851Y-41765D01*
X48891Y-41791D01*
X48917Y-41817D01*
X48930Y-41843D01*
X46305Y-40702D02*
X46318Y-40715D01*
X46332Y-40754D01*
X46332Y-40780D01*
X46318Y-40820D01*
X46292Y-40846D01*
X46266Y-40859D01*
X46213Y-40872D01*
X46174Y-40872D01*
X46122Y-40859D01*
X46095Y-40846D01*
X46069Y-40820D01*
X46056Y-40780D01*
X46056Y-40754D01*
X46069Y-40715D01*
X46082Y-40702D01*
X46082Y-40597D02*
X46069Y-40583D01*
X46056Y-40557D01*
X46056Y-40492D01*
X46069Y-40465D01*
X46082Y-40452D01*
X46108Y-40439D01*
X46135Y-40439D01*
X46174Y-40452D01*
X46332Y-40610D01*
X46332Y-40439D01*
X46056Y-40269D02*
X46056Y-40242D01*
X46069Y-40216D01*
X46082Y-40203D01*
X46108Y-40190D01*
X46161Y-40177D01*
X46227Y-40177D01*
X46279Y-40190D01*
X46305Y-40203D01*
X46318Y-40216D01*
X46332Y-40242D01*
X46332Y-40269D01*
X46318Y-40295D01*
X46305Y-40308D01*
X46279Y-40321D01*
X46227Y-40334D01*
X46161Y-40334D01*
X46108Y-40321D01*
X46082Y-40308D01*
X46069Y-40295D01*
X46056Y-40269D01*
X46082Y-40072D02*
X46069Y-40059D01*
X46056Y-40032D01*
X46056Y-39967D01*
X46069Y-39940D01*
X46082Y-39927D01*
X46108Y-39914D01*
X46135Y-39914D01*
X46174Y-39927D01*
X46332Y-40085D01*
X46332Y-39914D01*
X47841Y-34376D02*
X47828Y-34389D01*
X47788Y-34402D01*
X47762Y-34402D01*
X47723Y-34389D01*
X47696Y-34363D01*
X47683Y-34337D01*
X47670Y-34284D01*
X47670Y-34245D01*
X47683Y-34192D01*
X47696Y-34166D01*
X47723Y-34140D01*
X47762Y-34127D01*
X47788Y-34127D01*
X47828Y-34140D01*
X47841Y-34153D01*
X47946Y-34153D02*
X47959Y-34140D01*
X47985Y-34127D01*
X48051Y-34127D01*
X48077Y-34140D01*
X48090Y-34153D01*
X48103Y-34179D01*
X48103Y-34206D01*
X48090Y-34245D01*
X47933Y-34402D01*
X48103Y-34402D01*
X48274Y-34127D02*
X48300Y-34127D01*
X48326Y-34140D01*
X48339Y-34153D01*
X48353Y-34179D01*
X48366Y-34232D01*
X48366Y-34297D01*
X48353Y-34350D01*
X48339Y-34376D01*
X48326Y-34389D01*
X48300Y-34402D01*
X48274Y-34402D01*
X48248Y-34389D01*
X48234Y-34376D01*
X48221Y-34350D01*
X48208Y-34297D01*
X48208Y-34232D01*
X48221Y-34179D01*
X48234Y-34153D01*
X48248Y-34140D01*
X48274Y-34127D01*
X48458Y-34127D02*
X48628Y-34127D01*
X48536Y-34232D01*
X48576Y-34232D01*
X48602Y-34245D01*
X48615Y-34258D01*
X48628Y-34284D01*
X48628Y-34350D01*
X48615Y-34376D01*
X48602Y-34389D01*
X48576Y-34402D01*
X48497Y-34402D01*
X48471Y-34389D01*
X48458Y-34376D01*
X49140Y-34376D02*
X49127Y-34389D01*
X49087Y-34402D01*
X49061Y-34402D01*
X49022Y-34389D01*
X48996Y-34363D01*
X48982Y-34337D01*
X48969Y-34284D01*
X48969Y-34245D01*
X48982Y-34192D01*
X48996Y-34166D01*
X49022Y-34140D01*
X49061Y-34127D01*
X49087Y-34127D01*
X49127Y-34140D01*
X49140Y-34153D01*
X49245Y-34153D02*
X49258Y-34140D01*
X49284Y-34127D01*
X49350Y-34127D01*
X49376Y-34140D01*
X49389Y-34153D01*
X49402Y-34179D01*
X49402Y-34206D01*
X49389Y-34245D01*
X49232Y-34402D01*
X49402Y-34402D01*
X49573Y-34127D02*
X49599Y-34127D01*
X49625Y-34140D01*
X49639Y-34153D01*
X49652Y-34179D01*
X49665Y-34232D01*
X49665Y-34297D01*
X49652Y-34350D01*
X49639Y-34376D01*
X49625Y-34389D01*
X49599Y-34402D01*
X49573Y-34402D01*
X49547Y-34389D01*
X49534Y-34376D01*
X49520Y-34350D01*
X49507Y-34297D01*
X49507Y-34232D01*
X49520Y-34179D01*
X49534Y-34153D01*
X49547Y-34140D01*
X49573Y-34127D01*
X49901Y-34219D02*
X49901Y-34402D01*
X49835Y-34114D02*
X49770Y-34311D01*
X49940Y-34311D01*
X52801Y-36778D02*
X52788Y-36791D01*
X52749Y-36804D01*
X52723Y-36804D01*
X52683Y-36791D01*
X52657Y-36765D01*
X52644Y-36738D01*
X52631Y-36686D01*
X52631Y-36646D01*
X52644Y-36594D01*
X52657Y-36568D01*
X52683Y-36541D01*
X52723Y-36528D01*
X52749Y-36528D01*
X52788Y-36541D01*
X52801Y-36555D01*
X52906Y-36555D02*
X52919Y-36541D01*
X52946Y-36528D01*
X53011Y-36528D01*
X53038Y-36541D01*
X53051Y-36555D01*
X53064Y-36581D01*
X53064Y-36607D01*
X53051Y-36646D01*
X52893Y-36804D01*
X53064Y-36804D01*
X53234Y-36528D02*
X53261Y-36528D01*
X53287Y-36541D01*
X53300Y-36555D01*
X53313Y-36581D01*
X53326Y-36633D01*
X53326Y-36699D01*
X53313Y-36751D01*
X53300Y-36778D01*
X53287Y-36791D01*
X53261Y-36804D01*
X53234Y-36804D01*
X53208Y-36791D01*
X53195Y-36778D01*
X53182Y-36751D01*
X53169Y-36699D01*
X53169Y-36633D01*
X53182Y-36581D01*
X53195Y-36555D01*
X53208Y-36541D01*
X53234Y-36528D01*
X53576Y-36528D02*
X53444Y-36528D01*
X53431Y-36660D01*
X53444Y-36646D01*
X53471Y-36633D01*
X53536Y-36633D01*
X53562Y-36646D01*
X53576Y-36660D01*
X53589Y-36686D01*
X53589Y-36751D01*
X53576Y-36778D01*
X53562Y-36791D01*
X53536Y-36804D01*
X53471Y-36804D01*
X53444Y-36791D01*
X53431Y-36778D01*
X66935Y-34691D02*
X66922Y-34704D01*
X66883Y-34717D01*
X66856Y-34717D01*
X66817Y-34704D01*
X66791Y-34678D01*
X66778Y-34652D01*
X66765Y-34599D01*
X66765Y-34560D01*
X66778Y-34507D01*
X66791Y-34481D01*
X66817Y-34455D01*
X66856Y-34442D01*
X66883Y-34442D01*
X66922Y-34455D01*
X66935Y-34468D01*
X67040Y-34468D02*
X67053Y-34455D01*
X67080Y-34442D01*
X67145Y-34442D01*
X67171Y-34455D01*
X67185Y-34468D01*
X67198Y-34494D01*
X67198Y-34520D01*
X67185Y-34560D01*
X67027Y-34717D01*
X67198Y-34717D01*
X67368Y-34442D02*
X67395Y-34442D01*
X67421Y-34455D01*
X67434Y-34468D01*
X67447Y-34494D01*
X67460Y-34547D01*
X67460Y-34612D01*
X67447Y-34665D01*
X67434Y-34691D01*
X67421Y-34704D01*
X67395Y-34717D01*
X67368Y-34717D01*
X67342Y-34704D01*
X67329Y-34691D01*
X67316Y-34665D01*
X67303Y-34612D01*
X67303Y-34547D01*
X67316Y-34494D01*
X67329Y-34468D01*
X67342Y-34455D01*
X67368Y-34442D01*
X67696Y-34442D02*
X67644Y-34442D01*
X67618Y-34455D01*
X67604Y-34468D01*
X67578Y-34507D01*
X67565Y-34560D01*
X67565Y-34665D01*
X67578Y-34691D01*
X67591Y-34704D01*
X67618Y-34717D01*
X67670Y-34717D01*
X67696Y-34704D01*
X67709Y-34691D01*
X67723Y-34665D01*
X67723Y-34599D01*
X67709Y-34573D01*
X67696Y-34560D01*
X67670Y-34547D01*
X67618Y-34547D01*
X67591Y-34560D01*
X67578Y-34573D01*
X67565Y-34599D01*
X51975Y-41266D02*
X51961Y-41279D01*
X51922Y-41292D01*
X51896Y-41292D01*
X51856Y-41279D01*
X51830Y-41253D01*
X51817Y-41227D01*
X51804Y-41174D01*
X51804Y-41135D01*
X51817Y-41082D01*
X51830Y-41056D01*
X51856Y-41030D01*
X51896Y-41017D01*
X51922Y-41017D01*
X51961Y-41030D01*
X51975Y-41043D01*
X52080Y-41043D02*
X52093Y-41030D01*
X52119Y-41017D01*
X52185Y-41017D01*
X52211Y-41030D01*
X52224Y-41043D01*
X52237Y-41069D01*
X52237Y-41095D01*
X52224Y-41135D01*
X52066Y-41292D01*
X52237Y-41292D01*
X52408Y-41017D02*
X52434Y-41017D01*
X52460Y-41030D01*
X52473Y-41043D01*
X52486Y-41069D01*
X52500Y-41122D01*
X52500Y-41187D01*
X52486Y-41240D01*
X52473Y-41266D01*
X52460Y-41279D01*
X52434Y-41292D01*
X52408Y-41292D01*
X52381Y-41279D01*
X52368Y-41266D01*
X52355Y-41240D01*
X52342Y-41187D01*
X52342Y-41122D01*
X52355Y-41069D01*
X52368Y-41043D01*
X52381Y-41030D01*
X52408Y-41017D01*
X52762Y-41292D02*
X52604Y-41292D01*
X52683Y-41292D02*
X52683Y-41017D01*
X52657Y-41056D01*
X52631Y-41082D01*
X52604Y-41095D01*
X63313Y-42329D02*
X63300Y-42342D01*
X63261Y-42355D01*
X63234Y-42355D01*
X63195Y-42342D01*
X63169Y-42316D01*
X63156Y-42290D01*
X63143Y-42237D01*
X63143Y-42198D01*
X63156Y-42145D01*
X63169Y-42119D01*
X63195Y-42093D01*
X63234Y-42080D01*
X63261Y-42080D01*
X63300Y-42093D01*
X63313Y-42106D01*
X63549Y-42171D02*
X63549Y-42355D01*
X63484Y-42066D02*
X63418Y-42263D01*
X63589Y-42263D01*
X63838Y-42355D02*
X63681Y-42355D01*
X63759Y-42355D02*
X63759Y-42080D01*
X63733Y-42119D01*
X63707Y-42145D01*
X63681Y-42158D01*
X63930Y-42080D02*
X64101Y-42080D01*
X64009Y-42185D01*
X64048Y-42185D01*
X64074Y-42198D01*
X64087Y-42211D01*
X64101Y-42237D01*
X64101Y-42303D01*
X64087Y-42329D01*
X64074Y-42342D01*
X64048Y-42355D01*
X63969Y-42355D01*
X63943Y-42342D01*
X63930Y-42329D01*
X66935Y-35321D02*
X66922Y-35334D01*
X66883Y-35347D01*
X66856Y-35347D01*
X66817Y-35334D01*
X66791Y-35308D01*
X66778Y-35282D01*
X66765Y-35229D01*
X66765Y-35190D01*
X66778Y-35137D01*
X66791Y-35111D01*
X66817Y-35085D01*
X66856Y-35072D01*
X66883Y-35072D01*
X66922Y-35085D01*
X66935Y-35098D01*
X67171Y-35164D02*
X67171Y-35347D01*
X67106Y-35059D02*
X67040Y-35255D01*
X67211Y-35255D01*
X67368Y-35072D02*
X67395Y-35072D01*
X67421Y-35085D01*
X67434Y-35098D01*
X67447Y-35124D01*
X67460Y-35177D01*
X67460Y-35242D01*
X67447Y-35295D01*
X67434Y-35321D01*
X67421Y-35334D01*
X67395Y-35347D01*
X67368Y-35347D01*
X67342Y-35334D01*
X67329Y-35321D01*
X67316Y-35295D01*
X67303Y-35242D01*
X67303Y-35177D01*
X67316Y-35124D01*
X67329Y-35098D01*
X67342Y-35085D01*
X67368Y-35072D01*
X67591Y-35347D02*
X67644Y-35347D01*
X67670Y-35334D01*
X67683Y-35321D01*
X67709Y-35282D01*
X67723Y-35229D01*
X67723Y-35124D01*
X67709Y-35098D01*
X67696Y-35085D01*
X67670Y-35072D01*
X67618Y-35072D01*
X67591Y-35085D01*
X67578Y-35098D01*
X67565Y-35124D01*
X67565Y-35190D01*
X67578Y-35216D01*
X67591Y-35229D01*
X67618Y-35242D01*
X67670Y-35242D01*
X67696Y-35229D01*
X67709Y-35216D01*
X67723Y-35190D01*
X57171Y-36896D02*
X57158Y-36909D01*
X57119Y-36922D01*
X57093Y-36922D01*
X57053Y-36909D01*
X57027Y-36883D01*
X57014Y-36856D01*
X57001Y-36804D01*
X57001Y-36765D01*
X57014Y-36712D01*
X57027Y-36686D01*
X57053Y-36660D01*
X57093Y-36646D01*
X57119Y-36646D01*
X57158Y-36660D01*
X57171Y-36673D01*
X57408Y-36738D02*
X57408Y-36922D01*
X57342Y-36633D02*
X57276Y-36830D01*
X57447Y-36830D01*
X57604Y-36646D02*
X57631Y-36646D01*
X57657Y-36660D01*
X57670Y-36673D01*
X57683Y-36699D01*
X57696Y-36751D01*
X57696Y-36817D01*
X57683Y-36870D01*
X57670Y-36896D01*
X57657Y-36909D01*
X57631Y-36922D01*
X57604Y-36922D01*
X57578Y-36909D01*
X57565Y-36896D01*
X57552Y-36870D01*
X57539Y-36817D01*
X57539Y-36751D01*
X57552Y-36699D01*
X57565Y-36673D01*
X57578Y-36660D01*
X57604Y-36646D01*
X57933Y-36738D02*
X57933Y-36922D01*
X57867Y-36633D02*
X57801Y-36830D01*
X57972Y-36830D01*
X67014Y-36227D02*
X67001Y-36240D01*
X66961Y-36253D01*
X66935Y-36253D01*
X66896Y-36240D01*
X66870Y-36213D01*
X66856Y-36187D01*
X66843Y-36135D01*
X66843Y-36095D01*
X66856Y-36043D01*
X66870Y-36017D01*
X66896Y-35990D01*
X66935Y-35977D01*
X66961Y-35977D01*
X67001Y-35990D01*
X67014Y-36003D01*
X67250Y-36069D02*
X67250Y-36253D01*
X67185Y-35964D02*
X67119Y-36161D01*
X67290Y-36161D01*
X67447Y-35977D02*
X67473Y-35977D01*
X67500Y-35990D01*
X67513Y-36003D01*
X67526Y-36030D01*
X67539Y-36082D01*
X67539Y-36148D01*
X67526Y-36200D01*
X67513Y-36227D01*
X67500Y-36240D01*
X67473Y-36253D01*
X67447Y-36253D01*
X67421Y-36240D01*
X67408Y-36227D01*
X67395Y-36200D01*
X67381Y-36148D01*
X67381Y-36082D01*
X67395Y-36030D01*
X67408Y-36003D01*
X67421Y-35990D01*
X67447Y-35977D01*
X67644Y-36003D02*
X67657Y-35990D01*
X67683Y-35977D01*
X67749Y-35977D01*
X67775Y-35990D01*
X67788Y-36003D01*
X67801Y-36030D01*
X67801Y-36056D01*
X67788Y-36095D01*
X67631Y-36253D01*
X67801Y-36253D01*
X68431Y-36883D02*
X68444Y-36896D01*
X68458Y-36935D01*
X68458Y-36961D01*
X68444Y-37001D01*
X68418Y-37027D01*
X68392Y-37040D01*
X68339Y-37053D01*
X68300Y-37053D01*
X68248Y-37040D01*
X68221Y-37027D01*
X68195Y-37001D01*
X68182Y-36961D01*
X68182Y-36935D01*
X68195Y-36896D01*
X68208Y-36883D01*
X68274Y-36646D02*
X68458Y-36646D01*
X68169Y-36712D02*
X68366Y-36778D01*
X68366Y-36607D01*
X68182Y-36450D02*
X68182Y-36423D01*
X68195Y-36397D01*
X68208Y-36384D01*
X68234Y-36371D01*
X68287Y-36358D01*
X68353Y-36358D01*
X68405Y-36371D01*
X68431Y-36384D01*
X68444Y-36397D01*
X68458Y-36423D01*
X68458Y-36450D01*
X68444Y-36476D01*
X68431Y-36489D01*
X68405Y-36502D01*
X68353Y-36515D01*
X68287Y-36515D01*
X68234Y-36502D01*
X68208Y-36489D01*
X68195Y-36476D01*
X68182Y-36450D01*
X68182Y-36266D02*
X68182Y-36082D01*
X68458Y-36200D01*
X45321Y-48418D02*
X45321Y-48143D01*
X45426Y-48143D01*
X45452Y-48156D01*
X45465Y-48169D01*
X45479Y-48195D01*
X45479Y-48234D01*
X45465Y-48261D01*
X45452Y-48274D01*
X45426Y-48287D01*
X45321Y-48287D01*
X45741Y-48418D02*
X45583Y-48418D01*
X45662Y-48418D02*
X45662Y-48143D01*
X45636Y-48182D01*
X45610Y-48208D01*
X45583Y-48221D01*
X45912Y-48143D02*
X45938Y-48143D01*
X45964Y-48156D01*
X45977Y-48169D01*
X45990Y-48195D01*
X46003Y-48248D01*
X46003Y-48313D01*
X45990Y-48366D01*
X45977Y-48392D01*
X45964Y-48405D01*
X45938Y-48418D01*
X45912Y-48418D01*
X45885Y-48405D01*
X45872Y-48392D01*
X45859Y-48366D01*
X45846Y-48313D01*
X45846Y-48248D01*
X45859Y-48195D01*
X45872Y-48169D01*
X45885Y-48156D01*
X45912Y-48143D01*
X46095Y-48143D02*
X46279Y-48143D01*
X46161Y-48418D01*
G54D27*
X49016Y-52866D02*
X48983Y-52900D01*
X48883Y-52933D01*
X48816Y-52933D01*
X48716Y-52900D01*
X48650Y-52833D01*
X48616Y-52766D01*
X48583Y-52633D01*
X48583Y-52533D01*
X48616Y-52400D01*
X48650Y-52333D01*
X48716Y-52266D01*
X48816Y-52233D01*
X48883Y-52233D01*
X48983Y-52266D01*
X49016Y-52300D01*
X49450Y-52233D02*
X49583Y-52233D01*
X49650Y-52266D01*
X49716Y-52333D01*
X49750Y-52466D01*
X49750Y-52700D01*
X49716Y-52833D01*
X49650Y-52900D01*
X49583Y-52933D01*
X49450Y-52933D01*
X49383Y-52900D01*
X49316Y-52833D01*
X49283Y-52700D01*
X49283Y-52466D01*
X49316Y-52333D01*
X49383Y-52266D01*
X49450Y-52233D01*
X50050Y-52933D02*
X50050Y-52233D01*
X50450Y-52933D01*
X50450Y-52233D01*
X50783Y-52933D02*
X50783Y-52233D01*
X51183Y-52933D01*
X51183Y-52233D01*
X51350Y-53000D02*
X51883Y-53000D01*
X52350Y-52466D02*
X52350Y-52933D01*
X52183Y-52200D02*
X52016Y-52700D01*
X52450Y-52700D01*
G54D25*
X56935Y-48458D02*
X56935Y-48182D01*
X57040Y-48182D01*
X57066Y-48195D01*
X57080Y-48208D01*
X57093Y-48234D01*
X57093Y-48274D01*
X57080Y-48300D01*
X57066Y-48313D01*
X57040Y-48326D01*
X56935Y-48326D01*
X57355Y-48458D02*
X57198Y-48458D01*
X57276Y-48458D02*
X57276Y-48182D01*
X57250Y-48221D01*
X57224Y-48248D01*
X57198Y-48261D01*
X57526Y-48182D02*
X57552Y-48182D01*
X57578Y-48195D01*
X57591Y-48208D01*
X57604Y-48234D01*
X57618Y-48287D01*
X57618Y-48353D01*
X57604Y-48405D01*
X57591Y-48431D01*
X57578Y-48444D01*
X57552Y-48458D01*
X57526Y-48458D01*
X57500Y-48444D01*
X57486Y-48431D01*
X57473Y-48405D01*
X57460Y-48353D01*
X57460Y-48287D01*
X57473Y-48234D01*
X57486Y-48208D01*
X57500Y-48195D01*
X57526Y-48182D01*
X57867Y-48182D02*
X57736Y-48182D01*
X57723Y-48313D01*
X57736Y-48300D01*
X57762Y-48287D01*
X57828Y-48287D01*
X57854Y-48300D01*
X57867Y-48313D01*
X57880Y-48339D01*
X57880Y-48405D01*
X57867Y-48431D01*
X57854Y-48444D01*
X57828Y-48458D01*
X57762Y-48458D01*
X57736Y-48444D01*
X57723Y-48431D01*
G54D27*
X60616Y-52866D02*
X60583Y-52900D01*
X60483Y-52933D01*
X60416Y-52933D01*
X60316Y-52900D01*
X60250Y-52833D01*
X60216Y-52766D01*
X60183Y-52633D01*
X60183Y-52533D01*
X60216Y-52400D01*
X60250Y-52333D01*
X60316Y-52266D01*
X60416Y-52233D01*
X60483Y-52233D01*
X60583Y-52266D01*
X60616Y-52300D01*
X61050Y-52233D02*
X61183Y-52233D01*
X61250Y-52266D01*
X61316Y-52333D01*
X61350Y-52466D01*
X61350Y-52700D01*
X61316Y-52833D01*
X61250Y-52900D01*
X61183Y-52933D01*
X61050Y-52933D01*
X60983Y-52900D01*
X60916Y-52833D01*
X60883Y-52700D01*
X60883Y-52466D01*
X60916Y-52333D01*
X60983Y-52266D01*
X61050Y-52233D01*
X61650Y-52933D02*
X61650Y-52233D01*
X62050Y-52933D01*
X62050Y-52233D01*
X62383Y-52933D02*
X62383Y-52233D01*
X62783Y-52933D01*
X62783Y-52233D01*
X62950Y-53000D02*
X63483Y-53000D01*
X63950Y-52466D02*
X63950Y-52933D01*
X63783Y-52200D02*
X63616Y-52700D01*
X64050Y-52700D01*
G54D25*
X68707Y-48497D02*
X68707Y-48221D01*
X68812Y-48221D01*
X68838Y-48234D01*
X68851Y-48248D01*
X68864Y-48274D01*
X68864Y-48313D01*
X68851Y-48339D01*
X68838Y-48353D01*
X68812Y-48366D01*
X68707Y-48366D01*
X69127Y-48497D02*
X68969Y-48497D01*
X69048Y-48497D02*
X69048Y-48221D01*
X69022Y-48261D01*
X68996Y-48287D01*
X68969Y-48300D01*
X69297Y-48221D02*
X69324Y-48221D01*
X69350Y-48234D01*
X69363Y-48248D01*
X69376Y-48274D01*
X69389Y-48326D01*
X69389Y-48392D01*
X69376Y-48444D01*
X69363Y-48471D01*
X69350Y-48484D01*
X69324Y-48497D01*
X69297Y-48497D01*
X69271Y-48484D01*
X69258Y-48471D01*
X69245Y-48444D01*
X69232Y-48392D01*
X69232Y-48326D01*
X69245Y-48274D01*
X69258Y-48248D01*
X69271Y-48234D01*
X69297Y-48221D01*
X69481Y-48221D02*
X69652Y-48221D01*
X69560Y-48326D01*
X69599Y-48326D01*
X69625Y-48339D01*
X69639Y-48353D01*
X69652Y-48379D01*
X69652Y-48444D01*
X69639Y-48471D01*
X69625Y-48484D01*
X69599Y-48497D01*
X69520Y-48497D01*
X69494Y-48484D01*
X69481Y-48471D01*
G54D27*
X72216Y-52866D02*
X72183Y-52900D01*
X72083Y-52933D01*
X72016Y-52933D01*
X71916Y-52900D01*
X71850Y-52833D01*
X71816Y-52766D01*
X71783Y-52633D01*
X71783Y-52533D01*
X71816Y-52400D01*
X71850Y-52333D01*
X71916Y-52266D01*
X72016Y-52233D01*
X72083Y-52233D01*
X72183Y-52266D01*
X72216Y-52300D01*
X72650Y-52233D02*
X72783Y-52233D01*
X72850Y-52266D01*
X72916Y-52333D01*
X72950Y-52466D01*
X72950Y-52700D01*
X72916Y-52833D01*
X72850Y-52900D01*
X72783Y-52933D01*
X72650Y-52933D01*
X72583Y-52900D01*
X72516Y-52833D01*
X72483Y-52700D01*
X72483Y-52466D01*
X72516Y-52333D01*
X72583Y-52266D01*
X72650Y-52233D01*
X73250Y-52933D02*
X73250Y-52233D01*
X73650Y-52933D01*
X73650Y-52233D01*
X73983Y-52933D02*
X73983Y-52233D01*
X74383Y-52933D01*
X74383Y-52233D01*
X74550Y-53000D02*
X75083Y-53000D01*
X75550Y-52466D02*
X75550Y-52933D01*
X75383Y-52200D02*
X75216Y-52700D01*
X75650Y-52700D01*
G54D25*
X55006Y-36489D02*
X55006Y-36213D01*
X55111Y-36213D01*
X55137Y-36227D01*
X55150Y-36240D01*
X55164Y-36266D01*
X55164Y-36305D01*
X55150Y-36332D01*
X55137Y-36345D01*
X55111Y-36358D01*
X55006Y-36358D01*
X55426Y-36489D02*
X55269Y-36489D01*
X55347Y-36489D02*
X55347Y-36213D01*
X55321Y-36253D01*
X55295Y-36279D01*
X55269Y-36292D01*
X55597Y-36213D02*
X55623Y-36213D01*
X55649Y-36227D01*
X55662Y-36240D01*
X55675Y-36266D01*
X55688Y-36318D01*
X55688Y-36384D01*
X55675Y-36437D01*
X55662Y-36463D01*
X55649Y-36476D01*
X55623Y-36489D01*
X55597Y-36489D01*
X55570Y-36476D01*
X55557Y-36463D01*
X55544Y-36437D01*
X55531Y-36384D01*
X55531Y-36318D01*
X55544Y-36266D01*
X55557Y-36240D01*
X55570Y-36227D01*
X55597Y-36213D01*
X55925Y-36305D02*
X55925Y-36489D01*
X55859Y-36200D02*
X55793Y-36397D01*
X55964Y-36397D01*
G54D13*
X54243Y-36541D02*
X54224Y-36560D01*
X54167Y-36580D01*
X54129Y-36580D01*
X54072Y-36560D01*
X54034Y-36522D01*
X54015Y-36484D01*
X53996Y-36408D01*
X53996Y-36351D01*
X54015Y-36275D01*
X54034Y-36237D01*
X54072Y-36199D01*
X54129Y-36180D01*
X54167Y-36180D01*
X54224Y-36199D01*
X54243Y-36218D01*
X54491Y-36180D02*
X54567Y-36180D01*
X54605Y-36199D01*
X54643Y-36237D01*
X54662Y-36313D01*
X54662Y-36446D01*
X54643Y-36522D01*
X54605Y-36560D01*
X54567Y-36580D01*
X54491Y-36580D01*
X54453Y-36560D01*
X54415Y-36522D01*
X54396Y-36446D01*
X54396Y-36313D01*
X54415Y-36237D01*
X54453Y-36199D01*
X54491Y-36180D01*
X54834Y-36580D02*
X54834Y-36180D01*
X55062Y-36580D01*
X55062Y-36180D01*
X55253Y-36580D02*
X55253Y-36180D01*
X55481Y-36580D01*
X55481Y-36180D01*
X55577Y-36618D02*
X55881Y-36618D01*
X56034Y-36351D02*
X55996Y-36332D01*
X55977Y-36313D01*
X55958Y-36275D01*
X55958Y-36256D01*
X55977Y-36218D01*
X55996Y-36199D01*
X56034Y-36180D01*
X56110Y-36180D01*
X56148Y-36199D01*
X56167Y-36218D01*
X56186Y-36256D01*
X56186Y-36275D01*
X56167Y-36313D01*
X56148Y-36332D01*
X56110Y-36351D01*
X56034Y-36351D01*
X55996Y-36370D01*
X55977Y-36389D01*
X55958Y-36427D01*
X55958Y-36503D01*
X55977Y-36541D01*
X55996Y-36560D01*
X56034Y-36580D01*
X56110Y-36580D01*
X56148Y-36560D01*
X56167Y-36541D01*
X56186Y-36503D01*
X56186Y-36427D01*
X56167Y-36389D01*
X56148Y-36370D01*
X56110Y-36351D01*
X56320Y-36180D02*
X56586Y-36580D01*
X56586Y-36180D02*
X56320Y-36580D01*
X56720Y-36218D02*
X56739Y-36199D01*
X56777Y-36180D01*
X56872Y-36180D01*
X56910Y-36199D01*
X56929Y-36218D01*
X56948Y-36256D01*
X56948Y-36294D01*
X56929Y-36351D01*
X56701Y-36580D01*
X56948Y-36580D01*
G54D25*
X42233Y-35733D02*
X41958Y-35733D01*
X41958Y-35629D01*
X41971Y-35602D01*
X41984Y-35589D01*
X42010Y-35576D01*
X42050Y-35576D01*
X42076Y-35589D01*
X42089Y-35602D01*
X42102Y-35629D01*
X42102Y-35733D01*
X41984Y-35471D02*
X41971Y-35458D01*
X41958Y-35432D01*
X41958Y-35366D01*
X41971Y-35340D01*
X41984Y-35327D01*
X42010Y-35314D01*
X42037Y-35314D01*
X42076Y-35327D01*
X42233Y-35484D01*
X42233Y-35314D01*
X41958Y-35143D02*
X41958Y-35117D01*
X41971Y-35090D01*
X41984Y-35077D01*
X42010Y-35064D01*
X42063Y-35051D01*
X42129Y-35051D01*
X42181Y-35064D01*
X42207Y-35077D01*
X42220Y-35090D01*
X42233Y-35117D01*
X42233Y-35143D01*
X42220Y-35169D01*
X42207Y-35182D01*
X42181Y-35195D01*
X42129Y-35209D01*
X42063Y-35209D01*
X42010Y-35195D01*
X41984Y-35182D01*
X41971Y-35169D01*
X41958Y-35143D01*
X42233Y-34789D02*
X42233Y-34946D01*
X42233Y-34867D02*
X41958Y-34867D01*
X41997Y-34894D01*
X42024Y-34920D01*
X42037Y-34946D01*
X46817Y-41489D02*
X46817Y-41213D01*
X46922Y-41213D01*
X46948Y-41227D01*
X46961Y-41240D01*
X46975Y-41266D01*
X46975Y-41305D01*
X46961Y-41332D01*
X46948Y-41345D01*
X46922Y-41358D01*
X46817Y-41358D01*
X47237Y-41489D02*
X47080Y-41489D01*
X47158Y-41489D02*
X47158Y-41213D01*
X47132Y-41253D01*
X47106Y-41279D01*
X47080Y-41292D01*
X47408Y-41213D02*
X47434Y-41213D01*
X47460Y-41227D01*
X47473Y-41240D01*
X47486Y-41266D01*
X47500Y-41318D01*
X47500Y-41384D01*
X47486Y-41437D01*
X47473Y-41463D01*
X47460Y-41476D01*
X47434Y-41489D01*
X47408Y-41489D01*
X47381Y-41476D01*
X47368Y-41463D01*
X47355Y-41437D01*
X47342Y-41384D01*
X47342Y-41318D01*
X47355Y-41266D01*
X47368Y-41240D01*
X47381Y-41227D01*
X47408Y-41213D01*
X47762Y-41489D02*
X47604Y-41489D01*
X47683Y-41489D02*
X47683Y-41213D01*
X47657Y-41253D01*
X47631Y-41279D01*
X47604Y-41292D01*
X67552Y-46568D02*
X67276Y-46568D01*
X67276Y-46463D01*
X67290Y-46437D01*
X67303Y-46423D01*
X67329Y-46410D01*
X67368Y-46410D01*
X67395Y-46423D01*
X67408Y-46437D01*
X67421Y-46463D01*
X67421Y-46568D01*
X67552Y-46148D02*
X67552Y-46305D01*
X67552Y-46227D02*
X67276Y-46227D01*
X67316Y-46253D01*
X67342Y-46279D01*
X67355Y-46305D01*
X67276Y-45977D02*
X67276Y-45951D01*
X67290Y-45925D01*
X67303Y-45912D01*
X67329Y-45898D01*
X67381Y-45885D01*
X67447Y-45885D01*
X67500Y-45898D01*
X67526Y-45912D01*
X67539Y-45925D01*
X67552Y-45951D01*
X67552Y-45977D01*
X67539Y-46003D01*
X67526Y-46017D01*
X67500Y-46030D01*
X67447Y-46043D01*
X67381Y-46043D01*
X67329Y-46030D01*
X67303Y-46017D01*
X67290Y-46003D01*
X67276Y-45977D01*
X67303Y-45780D02*
X67290Y-45767D01*
X67276Y-45741D01*
X67276Y-45675D01*
X67290Y-45649D01*
X67303Y-45636D01*
X67329Y-45623D01*
X67355Y-45623D01*
X67395Y-45636D01*
X67552Y-45793D01*
X67552Y-45623D01*
X53510Y-42828D02*
X53510Y-42552D01*
X53615Y-42552D01*
X53641Y-42565D01*
X53654Y-42578D01*
X53667Y-42604D01*
X53667Y-42644D01*
X53654Y-42670D01*
X53641Y-42683D01*
X53615Y-42696D01*
X53510Y-42696D01*
X53930Y-42828D02*
X53772Y-42828D01*
X53851Y-42828D02*
X53851Y-42552D01*
X53825Y-42591D01*
X53799Y-42618D01*
X53772Y-42631D01*
X54101Y-42552D02*
X54127Y-42552D01*
X54153Y-42565D01*
X54166Y-42578D01*
X54179Y-42604D01*
X54192Y-42657D01*
X54192Y-42723D01*
X54179Y-42775D01*
X54166Y-42801D01*
X54153Y-42814D01*
X54127Y-42828D01*
X54101Y-42828D01*
X54074Y-42814D01*
X54061Y-42801D01*
X54048Y-42775D01*
X54035Y-42723D01*
X54035Y-42657D01*
X54048Y-42604D01*
X54061Y-42578D01*
X54074Y-42565D01*
X54101Y-42552D01*
X54429Y-42552D02*
X54376Y-42552D01*
X54350Y-42565D01*
X54337Y-42578D01*
X54311Y-42618D01*
X54297Y-42670D01*
X54297Y-42775D01*
X54311Y-42801D01*
X54324Y-42814D01*
X54350Y-42828D01*
X54402Y-42828D01*
X54429Y-42814D01*
X54442Y-42801D01*
X54455Y-42775D01*
X54455Y-42709D01*
X54442Y-42683D01*
X54429Y-42670D01*
X54402Y-42657D01*
X54350Y-42657D01*
X54324Y-42670D01*
X54311Y-42683D01*
X54297Y-42709D01*
G54D13*
X55243Y-45741D02*
X55224Y-45760D01*
X55167Y-45780D01*
X55129Y-45780D01*
X55072Y-45760D01*
X55034Y-45722D01*
X55015Y-45684D01*
X54996Y-45608D01*
X54996Y-45551D01*
X55015Y-45475D01*
X55034Y-45437D01*
X55072Y-45399D01*
X55129Y-45380D01*
X55167Y-45380D01*
X55224Y-45399D01*
X55243Y-45418D01*
X55491Y-45380D02*
X55567Y-45380D01*
X55605Y-45399D01*
X55643Y-45437D01*
X55662Y-45513D01*
X55662Y-45646D01*
X55643Y-45722D01*
X55605Y-45760D01*
X55567Y-45780D01*
X55491Y-45780D01*
X55453Y-45760D01*
X55415Y-45722D01*
X55396Y-45646D01*
X55396Y-45513D01*
X55415Y-45437D01*
X55453Y-45399D01*
X55491Y-45380D01*
X55834Y-45780D02*
X55834Y-45380D01*
X56062Y-45780D01*
X56062Y-45380D01*
X56253Y-45780D02*
X56253Y-45380D01*
X56481Y-45780D01*
X56481Y-45380D01*
X56577Y-45818D02*
X56881Y-45818D01*
X57148Y-45380D02*
X57072Y-45380D01*
X57034Y-45399D01*
X57015Y-45418D01*
X56977Y-45475D01*
X56958Y-45551D01*
X56958Y-45703D01*
X56977Y-45741D01*
X56996Y-45760D01*
X57034Y-45780D01*
X57110Y-45780D01*
X57148Y-45760D01*
X57167Y-45741D01*
X57186Y-45703D01*
X57186Y-45608D01*
X57167Y-45570D01*
X57148Y-45551D01*
X57110Y-45532D01*
X57034Y-45532D01*
X56996Y-45551D01*
X56977Y-45570D01*
X56958Y-45608D01*
X57320Y-45380D02*
X57586Y-45780D01*
X57586Y-45380D02*
X57320Y-45780D01*
X57720Y-45418D02*
X57739Y-45399D01*
X57777Y-45380D01*
X57872Y-45380D01*
X57910Y-45399D01*
X57929Y-45418D01*
X57948Y-45456D01*
X57948Y-45494D01*
X57929Y-45551D01*
X57701Y-45780D01*
X57948Y-45780D01*
G54D25*
X69022Y-40859D02*
X69022Y-40583D01*
X69127Y-40583D01*
X69153Y-40597D01*
X69166Y-40610D01*
X69179Y-40636D01*
X69179Y-40675D01*
X69166Y-40702D01*
X69153Y-40715D01*
X69127Y-40728D01*
X69022Y-40728D01*
X69442Y-40859D02*
X69284Y-40859D01*
X69363Y-40859D02*
X69363Y-40583D01*
X69337Y-40623D01*
X69311Y-40649D01*
X69284Y-40662D01*
X69612Y-40583D02*
X69639Y-40583D01*
X69665Y-40597D01*
X69678Y-40610D01*
X69691Y-40636D01*
X69704Y-40688D01*
X69704Y-40754D01*
X69691Y-40807D01*
X69678Y-40833D01*
X69665Y-40846D01*
X69639Y-40859D01*
X69612Y-40859D01*
X69586Y-40846D01*
X69573Y-40833D01*
X69560Y-40807D01*
X69547Y-40754D01*
X69547Y-40688D01*
X69560Y-40636D01*
X69573Y-40610D01*
X69586Y-40597D01*
X69612Y-40583D01*
X69862Y-40702D02*
X69835Y-40688D01*
X69822Y-40675D01*
X69809Y-40649D01*
X69809Y-40636D01*
X69822Y-40610D01*
X69835Y-40597D01*
X69862Y-40583D01*
X69914Y-40583D01*
X69940Y-40597D01*
X69954Y-40610D01*
X69967Y-40636D01*
X69967Y-40649D01*
X69954Y-40675D01*
X69940Y-40688D01*
X69914Y-40702D01*
X69862Y-40702D01*
X69835Y-40715D01*
X69822Y-40728D01*
X69809Y-40754D01*
X69809Y-40807D01*
X69822Y-40833D01*
X69835Y-40846D01*
X69862Y-40859D01*
X69914Y-40859D01*
X69940Y-40846D01*
X69954Y-40833D01*
X69967Y-40807D01*
X69967Y-40754D01*
X69954Y-40728D01*
X69940Y-40715D01*
X69914Y-40702D01*
M02*
