M48
;DRILL file {Pcbnew (2013-07-07 BZR 4022)-stable} date 01/02/2015 03:27:30
;FORMAT={3:3/ absolute / metric / suppress leading zeros}
FMAT,2
METRIC,TZ
T1C0.300
T2C1.016
T3C1.321
%
G90
G05
M71
T1
X114000Y-88000
X115000Y-95000
X115000Y-101000
X115000Y-102500
X115000Y-110000
X115000Y-117500
X116000Y-94000
X116000Y-96000
X116000Y-101000
X116840Y-124968
X117000Y-96000
X117000Y-104000
X117500Y-110000
X117500Y-117500
X118364Y-124968
X119888Y-124968
X120000Y-104000
X120000Y-112500
X120000Y-117500
X120000Y-120000
X120600Y-100750
X120777Y-99314
X121000Y-89700
X121031Y-96520
X121920Y-124968
X122000Y-93000
X122000Y-101000
X122500Y-112500
X122500Y-120000
X123000Y-93000
X123000Y-94000
X123000Y-100000
X123400Y-89700
X123444Y-124968
X124000Y-94800
X124600Y-105500
X124800Y-94800
X124968Y-124968
X125700Y-94800
X125730Y-111760
X125730Y-112776
X125730Y-113792
X125900Y-108500
X126300Y-117900
X126400Y-92400
X126600Y-94800
X127000Y-111760
X127000Y-112776
X127000Y-113792
X127000Y-121400
X127000Y-124968
X127200Y-96500
X127300Y-89000
X127700Y-118000
X128000Y-94000
X128100Y-88300
X128200Y-121400
X128270Y-111760
X128270Y-112776
X128270Y-113792
X128524Y-124968
X128800Y-118000
X128900Y-97300
X129100Y-96500
X129300Y-95500
X129500Y-121400
X129540Y-111760
X129540Y-112776
X129540Y-113792
X129550Y-105950
X129600Y-93100
X129700Y-91500
X129800Y-99000
X129800Y-99800
X129900Y-108600
X130048Y-124968
X130200Y-89100
X130200Y-117900
X130810Y-111760
X130810Y-112776
X130810Y-113792
X131900Y-117000
X132080Y-124968
X132800Y-94300
X133200Y-109400
X133604Y-124968
X135000Y-120000
X135128Y-124968
X137000Y-118000
X137160Y-124968
X137500Y-120000
X138684Y-124968
X139000Y-118000
X140000Y-101000
X140000Y-120000
X140208Y-124968
X141000Y-104000
X141000Y-118000
X141700Y-105000
X142500Y-100000
X142500Y-120000
X143000Y-118000
X143600Y-104300
X144000Y-98000
X144526Y-93853
X145000Y-100000
X145000Y-102500
X145000Y-118000
X145000Y-120000
X146304Y-124968
X147000Y-118000
X147250Y-94500
X147500Y-100000
X147500Y-107500
X147500Y-120000
X147828Y-124968
X148000Y-106000
X149000Y-99000
X149000Y-118000
X149352Y-124968
X149800Y-97800
X150000Y-107500
X150000Y-120000
X150750Y-93500
X150750Y-105000
X151384Y-124968
X151800Y-90900
X152350Y-109500
X152908Y-124968
X153100Y-89750
X153289Y-92583
X153350Y-88800
X153400Y-98700
X153500Y-99750
X154000Y-102500
X154432Y-124968
X155000Y-88600
X155194Y-111760
X155194Y-112776
X155194Y-113792
X155400Y-108500
X155500Y-106500
X155700Y-117900
X155800Y-95500
X156200Y-104100
X156250Y-91000
X156464Y-111760
X156464Y-112776
X156464Y-113792
X156464Y-124968
X156500Y-102500
X156500Y-121400
X156600Y-94800
X156750Y-108250
X157200Y-118000
X157700Y-121400
X157734Y-111760
X157734Y-112776
X157734Y-113792
X158300Y-118000
X158496Y-124968
X158700Y-94400
X159000Y-121400
X159004Y-111760
X159004Y-112776
X159004Y-113792
X159250Y-88200
X159400Y-108500
X159750Y-91000
X159800Y-117900
X160250Y-87950
X160274Y-111760
X160274Y-112776
X160274Y-113792
X161000Y-94000
X161036Y-124968
X161100Y-88100
X161250Y-106500
X161400Y-117000
X162560Y-124968
X162700Y-108900
X163000Y-103000
X163100Y-88000
X163200Y-94400
X163900Y-88000
X164084Y-124968
X164250Y-108500
X164550Y-100400
X164700Y-88000
X165000Y-110000
X165000Y-117500
X165000Y-120000
X165150Y-101200
X165750Y-91750
X165750Y-92750
X165750Y-102100
X166000Y-95400
X166116Y-124968
X166350Y-103050
X167000Y-90500
X167500Y-104500
X168148Y-124968
X168800Y-98600
X169000Y-91250
X169000Y-93250
X170000Y-87500
X170180Y-124968
X171000Y-95000
X172500Y-87500
X172500Y-112500
X172500Y-115000
X172500Y-117500
X172500Y-120000
X172750Y-90750
X173000Y-95000
X175000Y-117500
X175000Y-120000
X176784Y-124968
X177500Y-92500
X177500Y-117500
X177500Y-120000
X178100Y-98600
X178308Y-124968
X179500Y-99750
X180000Y-87500
X180000Y-92500
X180000Y-112500
X180000Y-120000
X180340Y-124968
X181864Y-124968
X182000Y-91000
X182000Y-92000
X182000Y-99750
X182500Y-97500
X182500Y-105000
X182500Y-107500
X183000Y-91000
X183000Y-92000
X183388Y-124968
X184000Y-91000
X184000Y-92000
X184658Y-111760
X184658Y-112776
X184658Y-113792
X185000Y-97500
X185000Y-100000
X185000Y-108600
X185200Y-117900
X185420Y-124968
X185928Y-111760
X185928Y-112776
X185928Y-113792
X186000Y-121400
X186700Y-118000
X186944Y-124968
X187198Y-111760
X187198Y-112776
X187198Y-113792
X187200Y-121400
X187500Y-87500
X187500Y-97500
X187750Y-99000
X187800Y-118000
X188468Y-111760
X188468Y-112776
X188468Y-113792
X188468Y-124968
X188500Y-121400
X188900Y-108600
X189300Y-117900
X189738Y-111760
X189738Y-112776
X189738Y-113792
X190000Y-87500
X190800Y-116900
X191008Y-124968
X191600Y-98000
X191600Y-99000
X191600Y-100000
X192100Y-109300
X192500Y-87500
X192500Y-107500
X192532Y-124968
X192850Y-98000
X192850Y-99000
X192850Y-100000
X193500Y-95000
X194056Y-124968
X194100Y-98000
X194100Y-99000
X194100Y-100000
X195000Y-87500
X195000Y-90000
X195000Y-107500
X195000Y-112500
X195000Y-117500
X195000Y-120000
X195580Y-124968
X197000Y-104000
X197104Y-124968
X197500Y-87500
X197500Y-90000
X197500Y-92500
X200000Y-87500
X200000Y-90000
X200000Y-92500
X200000Y-95000
X200000Y-97500
X200000Y-100000
X200000Y-102500
X200000Y-105000
X200000Y-107500
X200000Y-110000
X200000Y-112500
X200000Y-115000
X200000Y-117500
X200000Y-120000
X202500Y-87500
X202500Y-90000
X202500Y-92500
X202500Y-95000
X202500Y-97500
X202500Y-100000
X202500Y-102500
X202500Y-105000
X202500Y-107500
X202500Y-110000
X202500Y-112500
X202500Y-115000
X202500Y-117500
X202500Y-120000
T2
X107550Y-107200
X109150Y-87930
X109150Y-90470
X110090Y-107200
X111690Y-87930
X111690Y-90470
X112630Y-107200
X115170Y-107200
X117710Y-107200
X120250Y-107200
X132010Y-87930
X132010Y-90470
X134550Y-87930
X134550Y-90470
X137090Y-87930
X137090Y-90470
X137090Y-110790
X137090Y-113330
X139630Y-87930
X139630Y-90470
X139630Y-110790
X139630Y-113330
X142170Y-87930
X142170Y-90470
X142170Y-110790
X142170Y-113330
X144710Y-87930
X144710Y-90470
X144710Y-110790
X144710Y-113330
X147250Y-87930
X147250Y-90470
X147250Y-110790
X147250Y-113330
X149790Y-87930
X149790Y-90470
X149790Y-110790
X149790Y-113330
X168950Y-106500
X168950Y-109040
X168950Y-111580
X168950Y-114120
X168950Y-116660
X168950Y-119200
X172650Y-105710
X172650Y-108250
X175190Y-105710
X175190Y-108250
X177730Y-105710
X177730Y-108250
X180270Y-105710
X180270Y-108250
T3
X109500Y-119185
X109500Y-124189
X120675Y-128016
X125679Y-128016
X130810Y-128016
X135890Y-128016
X150139Y-128016
X155143Y-128016
X160274Y-128016
X165354Y-128016
X179603Y-128016
X184607Y-128016
X189738Y-128016
X194818Y-128016
T0
M30
