G04 (created by PCBNEW (2013-07-07 BZR 4022)-stable) date 01/02/2015 03:27:21*
%MOIN*%
G04 Gerber Fmt 3.4, Leading zero omitted, Abs format*
%FSLAX34Y34*%
G01*
G70*
G90*
G04 APERTURE LIST*
%ADD10C,0.00590551*%
%ADD11R,0.01X0.04*%
%ADD12R,0.04X0.01*%
%ADD13R,0.06X0.0098*%
%ADD14O,0.06X0.0098*%
%ADD15O,0.0098X0.06*%
%ADD16R,0.0118X0.063*%
%ADD17R,0.2039X0.122*%
%ADD18R,0.035X0.055*%
%ADD19R,0.0886X0.0197*%
%ADD20R,0.1378X0.0807*%
%ADD21R,0.1575X0.0807*%
%ADD22R,0.0472X0.0472*%
%ADD23R,0.025X0.045*%
%ADD24R,0.08X0.06*%
%ADD25R,0.0669291X0.0866142*%
%ADD26R,0.045X0.025*%
%ADD27R,0.11X0.07*%
%ADD28R,0.055X0.035*%
%ADD29R,0.03X0.02*%
%ADD30R,0.1X0.05*%
%ADD31R,0.0787402X0.0472441*%
%ADD32R,0.0236X0.0551*%
%ADD33R,0.1575X0.1102*%
G04 APERTURE END LIST*
G54D10*
G54D11*
X65253Y-41435D03*
X60533Y-41435D03*
X60733Y-41435D03*
X60923Y-41435D03*
X61123Y-41435D03*
X61323Y-41435D03*
X61513Y-41435D03*
X61713Y-41435D03*
X61913Y-41435D03*
X62103Y-41435D03*
X62303Y-41435D03*
X62503Y-41435D03*
X62703Y-41435D03*
X62893Y-41435D03*
X63093Y-41435D03*
X63293Y-41435D03*
X63483Y-41435D03*
X63683Y-41435D03*
X63883Y-41435D03*
X64073Y-41435D03*
X64273Y-41435D03*
X64473Y-41435D03*
X64663Y-41435D03*
X64863Y-41435D03*
X65063Y-41435D03*
G54D12*
X59843Y-40745D03*
X59843Y-36025D03*
X59843Y-36225D03*
X59843Y-36415D03*
X59843Y-36615D03*
X59843Y-36815D03*
X59843Y-37005D03*
X59843Y-37205D03*
X59843Y-37405D03*
X59843Y-37595D03*
X59843Y-37795D03*
X59843Y-37995D03*
X59843Y-38195D03*
X59843Y-38385D03*
X59843Y-38585D03*
X59843Y-38785D03*
X59843Y-38975D03*
X59843Y-39175D03*
X59843Y-39375D03*
X59843Y-39565D03*
X59843Y-39765D03*
X59843Y-39965D03*
X59843Y-40155D03*
X59843Y-40355D03*
X59843Y-40555D03*
X65943Y-40745D03*
X65943Y-40545D03*
X65943Y-40355D03*
X65943Y-40155D03*
X65943Y-39955D03*
X65943Y-39765D03*
X65943Y-39565D03*
X65943Y-39365D03*
X65943Y-39175D03*
X65943Y-38975D03*
X65943Y-38775D03*
X65943Y-38575D03*
X65943Y-38385D03*
X65943Y-38185D03*
X65943Y-37985D03*
X65943Y-37795D03*
X65943Y-37595D03*
X65943Y-37395D03*
X65943Y-37205D03*
X65943Y-37005D03*
X65943Y-36805D03*
X65943Y-36615D03*
X65943Y-36415D03*
X65943Y-36215D03*
X65943Y-36025D03*
G54D11*
X65253Y-35335D03*
X65053Y-35335D03*
X64863Y-35335D03*
X64663Y-35335D03*
X64463Y-35335D03*
X64273Y-35335D03*
X64073Y-35335D03*
X63873Y-35335D03*
X63683Y-35335D03*
X63483Y-35335D03*
X63283Y-35335D03*
X63083Y-35335D03*
X62893Y-35335D03*
X62693Y-35335D03*
X62493Y-35335D03*
X62303Y-35335D03*
X62103Y-35335D03*
X61903Y-35335D03*
X61713Y-35335D03*
X61513Y-35335D03*
X61313Y-35335D03*
X61123Y-35335D03*
X60923Y-35335D03*
X60723Y-35335D03*
X60533Y-35335D03*
G54D13*
X51622Y-39664D03*
G54D14*
X51622Y-39467D03*
X51622Y-39270D03*
X51622Y-39073D03*
X51622Y-38876D03*
X51622Y-38680D03*
X51622Y-38483D03*
X51622Y-38286D03*
X51622Y-38089D03*
X51622Y-37892D03*
X51622Y-37695D03*
X51622Y-37499D03*
X51622Y-37302D03*
X51622Y-37105D03*
X51622Y-36908D03*
X51622Y-36711D03*
G54D15*
X50787Y-35813D03*
X50590Y-35813D03*
X50393Y-35813D03*
X50196Y-35813D03*
X49999Y-35813D03*
X49803Y-35813D03*
X49606Y-35813D03*
X49409Y-35813D03*
X49212Y-35813D03*
X49015Y-35813D03*
X48818Y-35813D03*
X48622Y-35813D03*
X48425Y-35813D03*
X48228Y-35813D03*
X48031Y-35813D03*
X47834Y-35813D03*
G54D14*
X46936Y-36711D03*
X46936Y-36908D03*
X46936Y-37105D03*
X46936Y-37302D03*
X46936Y-37499D03*
X46936Y-37695D03*
X46936Y-37892D03*
X46936Y-38089D03*
X46936Y-38286D03*
X46936Y-38483D03*
X46936Y-38680D03*
X46936Y-38876D03*
X46936Y-39073D03*
X46936Y-39270D03*
X46936Y-39467D03*
X46936Y-39664D03*
G54D15*
X47834Y-40499D03*
X48031Y-40499D03*
X48425Y-40499D03*
X48228Y-40506D03*
X48622Y-40499D03*
X48818Y-40499D03*
X49015Y-40499D03*
X49212Y-40499D03*
X49409Y-40499D03*
X49606Y-40499D03*
X49800Y-40499D03*
X49997Y-40499D03*
X50194Y-40499D03*
X50391Y-40499D03*
X50587Y-40499D03*
X50784Y-40499D03*
G54D16*
X52155Y-43287D03*
X51899Y-43287D03*
X51644Y-43287D03*
X51388Y-43287D03*
X51132Y-43287D03*
X50876Y-43287D03*
X50620Y-43287D03*
X50364Y-43287D03*
X50108Y-43287D03*
X49852Y-43287D03*
X49596Y-43287D03*
X49340Y-43287D03*
X49085Y-43287D03*
X48829Y-43287D03*
G54D17*
X50492Y-44389D03*
G54D16*
X48829Y-45491D03*
X49085Y-45491D03*
X49340Y-45491D03*
X49596Y-45491D03*
X49852Y-45491D03*
X50108Y-45491D03*
X50364Y-45491D03*
X50620Y-45491D03*
X50876Y-45491D03*
X51132Y-45491D03*
X51388Y-45491D03*
X51644Y-45491D03*
X51899Y-45491D03*
X52155Y-45491D03*
X63769Y-43287D03*
X63513Y-43287D03*
X63258Y-43287D03*
X63002Y-43287D03*
X62746Y-43287D03*
X62490Y-43287D03*
X62234Y-43287D03*
X61978Y-43287D03*
X61722Y-43287D03*
X61466Y-43287D03*
X61210Y-43287D03*
X60954Y-43287D03*
X60699Y-43287D03*
X60443Y-43287D03*
G54D17*
X62106Y-44389D03*
G54D16*
X60443Y-45491D03*
X60699Y-45491D03*
X60954Y-45491D03*
X61210Y-45491D03*
X61466Y-45491D03*
X61722Y-45491D03*
X61978Y-45491D03*
X62234Y-45491D03*
X62490Y-45491D03*
X62746Y-45491D03*
X63002Y-45491D03*
X63258Y-45491D03*
X63513Y-45491D03*
X63769Y-45491D03*
X75383Y-43287D03*
X75127Y-43287D03*
X74872Y-43287D03*
X74616Y-43287D03*
X74360Y-43287D03*
X74104Y-43287D03*
X73848Y-43287D03*
X73592Y-43287D03*
X73336Y-43287D03*
X73080Y-43287D03*
X72824Y-43287D03*
X72568Y-43287D03*
X72313Y-43287D03*
X72057Y-43287D03*
G54D17*
X73720Y-44389D03*
G54D16*
X72057Y-45491D03*
X72313Y-45491D03*
X72568Y-45491D03*
X72824Y-45491D03*
X73080Y-45491D03*
X73336Y-45491D03*
X73592Y-45491D03*
X73848Y-45491D03*
X74104Y-45491D03*
X74360Y-45491D03*
X74616Y-45491D03*
X74872Y-45491D03*
X75127Y-45491D03*
X75383Y-45491D03*
G54D18*
X63483Y-47559D03*
X64233Y-47559D03*
X51869Y-46811D03*
X52619Y-46811D03*
X51869Y-47559D03*
X52619Y-47559D03*
X49115Y-48346D03*
X48365Y-48346D03*
X75136Y-46811D03*
X75886Y-46811D03*
X75136Y-47559D03*
X75886Y-47559D03*
X72343Y-48385D03*
X71593Y-48385D03*
X63483Y-46811D03*
X64233Y-46811D03*
X60729Y-48385D03*
X59979Y-48385D03*
G54D19*
X44094Y-38346D03*
X44094Y-38661D03*
X44094Y-38976D03*
X44094Y-39291D03*
X44094Y-39606D03*
G54D20*
X44094Y-37037D03*
X44094Y-40915D03*
G54D21*
X42440Y-37037D03*
X42440Y-40915D03*
G54D22*
X42972Y-44606D03*
X42146Y-44606D03*
X42972Y-43622D03*
X42146Y-43622D03*
G54D23*
X45772Y-38582D03*
X45172Y-38582D03*
X45172Y-39173D03*
X45772Y-39173D03*
G54D24*
X50984Y-47027D03*
X50984Y-48327D03*
X50000Y-47027D03*
X50000Y-48327D03*
X62598Y-47027D03*
X62598Y-48327D03*
X61614Y-47027D03*
X61614Y-48327D03*
X74212Y-47027D03*
X74212Y-48327D03*
X73228Y-47027D03*
X73228Y-48327D03*
G54D23*
X43637Y-44606D03*
X44237Y-44606D03*
X43637Y-43622D03*
X44237Y-43622D03*
G54D25*
X75610Y-35925D03*
X73208Y-35925D03*
G54D26*
X74555Y-40603D03*
X74555Y-40003D03*
X73964Y-40012D03*
X73964Y-39412D03*
G54D23*
X47849Y-46181D03*
X48449Y-46181D03*
X59463Y-46181D03*
X60063Y-46181D03*
X71077Y-46181D03*
X71677Y-46181D03*
G54D27*
X68641Y-39499D03*
X68641Y-38099D03*
G54D28*
X71338Y-39548D03*
X71338Y-38798D03*
G54D18*
X69585Y-37401D03*
X70335Y-37401D03*
G54D28*
X67559Y-38286D03*
X67559Y-39036D03*
G54D23*
X69522Y-38090D03*
X70122Y-38090D03*
X70507Y-38090D03*
X71107Y-38090D03*
G54D29*
X69677Y-38817D03*
X69677Y-39567D03*
X70677Y-38817D03*
X69677Y-39192D03*
X70677Y-39567D03*
G54D30*
X77637Y-48316D03*
X77637Y-47116D03*
X77677Y-41525D03*
X77677Y-42725D03*
G54D26*
X75696Y-40633D03*
X75696Y-41233D03*
G54D23*
X75170Y-41248D03*
X74570Y-41248D03*
G54D28*
X72342Y-36731D03*
X72342Y-37481D03*
X72322Y-35335D03*
X72322Y-34585D03*
X71614Y-36711D03*
X71614Y-37461D03*
G54D23*
X76262Y-41366D03*
X76862Y-41366D03*
X76862Y-40775D03*
X76262Y-40775D03*
X77129Y-40027D03*
X77729Y-40027D03*
G54D26*
X76692Y-37347D03*
X76692Y-36747D03*
G54D23*
X49197Y-47125D03*
X48597Y-47125D03*
X48597Y-47716D03*
X49197Y-47716D03*
G54D26*
X52874Y-43282D03*
X52874Y-43882D03*
G54D23*
X60811Y-47125D03*
X60211Y-47125D03*
X60211Y-47716D03*
X60811Y-47716D03*
X71825Y-47716D03*
X72425Y-47716D03*
G54D26*
X64488Y-43322D03*
X64488Y-43922D03*
G54D23*
X75959Y-43267D03*
X76559Y-43267D03*
X72425Y-47125D03*
X71825Y-47125D03*
G54D31*
X52716Y-39114D03*
X54173Y-39114D03*
X54173Y-38248D03*
X52716Y-38248D03*
G54D23*
X52810Y-39763D03*
X53410Y-39763D03*
X54896Y-38228D03*
X55496Y-38228D03*
G54D32*
X76683Y-40014D03*
X76683Y-37914D03*
X76183Y-40014D03*
X75683Y-40014D03*
X75183Y-40014D03*
X76183Y-37914D03*
X75683Y-37914D03*
X75183Y-37914D03*
G54D33*
X75933Y-38964D03*
G54D26*
X50157Y-41865D03*
X50157Y-42465D03*
X49566Y-42347D03*
X49566Y-41747D03*
X46800Y-40100D03*
X46800Y-40700D03*
G54D23*
X47850Y-34800D03*
X48450Y-34800D03*
X49591Y-34803D03*
X48991Y-34803D03*
X52800Y-37300D03*
X53400Y-37300D03*
X65800Y-34600D03*
X66400Y-34600D03*
X50850Y-41200D03*
X51450Y-41200D03*
X64463Y-42244D03*
X65063Y-42244D03*
X65802Y-35236D03*
X66402Y-35236D03*
X58961Y-36811D03*
X58361Y-36811D03*
X67022Y-36712D03*
X67622Y-36712D03*
G54D26*
X68897Y-37209D03*
X68897Y-36609D03*
M02*
