G04 (created by PCBNEW (2013-07-07 BZR 4022)-stable) date 01/02/2015 03:27:21*
%MOIN*%
G04 Gerber Fmt 3.4, Leading zero omitted, Abs format*
%FSLAX34Y34*%
G01*
G70*
G90*
G04 APERTURE LIST*
%ADD10C,0.00590551*%
%ADD11R,0.0289685X0.0669685*%
%ADD12R,0.0369685X0.0569685*%
%ADD13R,0.0569685X0.0369685*%
%ADD14O,0.167968X0.0899685*%
%ADD15R,0.111969X0.0619685*%
%ADD16R,0.0669685X0.0469685*%
%ADD17O,0.0899685X0.167968*%
%ADD18C,0.19685*%
%ADD19R,0.0719685X0.0719685*%
%ADD20C,0.0719685*%
G04 APERTURE END LIST*
G54D10*
G54D11*
X63760Y-40100D03*
X63510Y-40100D03*
X63250Y-40100D03*
X63000Y-40100D03*
X62740Y-40100D03*
X62485Y-40100D03*
X62230Y-40100D03*
X62230Y-37900D03*
X62485Y-37900D03*
X62740Y-37900D03*
X63000Y-37900D03*
X63255Y-37900D03*
X63510Y-37900D03*
X63765Y-37900D03*
G54D12*
X64266Y-37598D03*
X64866Y-37598D03*
G54D13*
X61614Y-40063D03*
X61614Y-39463D03*
G54D12*
X64266Y-38188D03*
X64866Y-38188D03*
G54D14*
X43110Y-46923D03*
X43110Y-48893D03*
G54D12*
X73755Y-42244D03*
X74355Y-42244D03*
X74355Y-41653D03*
X73755Y-41653D03*
X49975Y-43228D03*
X50575Y-43228D03*
X50575Y-42637D03*
X49975Y-42637D03*
X62701Y-42125D03*
X62101Y-42125D03*
X62101Y-41535D03*
X62701Y-41535D03*
G54D13*
X71240Y-39414D03*
X71240Y-38814D03*
G54D15*
X46062Y-48513D03*
X46062Y-47313D03*
X44803Y-48513D03*
X44803Y-47313D03*
G54D16*
X71968Y-36711D03*
X71968Y-37461D03*
X71771Y-35335D03*
X71771Y-34585D03*
G54D13*
X48050Y-38400D03*
X48050Y-39000D03*
G54D12*
X48951Y-34921D03*
X49551Y-34921D03*
X47967Y-34921D03*
X48567Y-34921D03*
X60100Y-37000D03*
X60700Y-37000D03*
X66845Y-38385D03*
X67445Y-38385D03*
X66845Y-39173D03*
X67445Y-39173D03*
G54D13*
X59842Y-39759D03*
X59842Y-40359D03*
X59251Y-39759D03*
X59251Y-40359D03*
G54D12*
X60772Y-42047D03*
X60172Y-42047D03*
X61323Y-36318D03*
X60723Y-36318D03*
G54D13*
X63484Y-42318D03*
X63484Y-42918D03*
G54D12*
X67622Y-35728D03*
X67022Y-35728D03*
X64168Y-36712D03*
X64768Y-36712D03*
X64168Y-36122D03*
X64768Y-36122D03*
X67022Y-36417D03*
X67622Y-36417D03*
G54D13*
X60905Y-39109D03*
X60905Y-39709D03*
G54D12*
X61284Y-41377D03*
X60684Y-41377D03*
X62987Y-36220D03*
X63587Y-36220D03*
G54D17*
X47510Y-50400D03*
X49480Y-50400D03*
X51500Y-50400D03*
X53500Y-50400D03*
X59110Y-50400D03*
X61080Y-50400D03*
X63100Y-50400D03*
X65100Y-50400D03*
X70710Y-50400D03*
X72680Y-50400D03*
X74700Y-50400D03*
X76700Y-50400D03*
G54D13*
X53350Y-46100D03*
X53350Y-45500D03*
G54D12*
X64350Y-45350D03*
X64950Y-45350D03*
X76150Y-45150D03*
X76750Y-45150D03*
G54D18*
X46150Y-35150D03*
X69783Y-35157D03*
X69773Y-45000D03*
X46161Y-45000D03*
G54D19*
X51972Y-35618D03*
G54D20*
X51972Y-34618D03*
X52972Y-35618D03*
X52972Y-34618D03*
X53972Y-35618D03*
X53972Y-34618D03*
X54972Y-35618D03*
X54972Y-34618D03*
X55972Y-35618D03*
X55972Y-34618D03*
X56972Y-35618D03*
X56972Y-34618D03*
X57972Y-35618D03*
X57972Y-34618D03*
X58972Y-35618D03*
X58972Y-34618D03*
G54D19*
X43972Y-35618D03*
G54D20*
X42972Y-35618D03*
X43972Y-34618D03*
X42972Y-34618D03*
G54D19*
X47342Y-42204D03*
G54D20*
X46342Y-42204D03*
X45342Y-42204D03*
X44342Y-42204D03*
X43342Y-42204D03*
X42342Y-42204D03*
G54D19*
X66515Y-41929D03*
G54D20*
X66515Y-42929D03*
X66515Y-43929D03*
X66515Y-44929D03*
X66515Y-45929D03*
X66515Y-46929D03*
G54D19*
X53972Y-44618D03*
G54D20*
X53972Y-43618D03*
X54972Y-44618D03*
X54972Y-43618D03*
X55972Y-44618D03*
X55972Y-43618D03*
X56972Y-44618D03*
X56972Y-43618D03*
X57972Y-44618D03*
X57972Y-43618D03*
X58972Y-44618D03*
X58972Y-43618D03*
G54D19*
X67972Y-42618D03*
G54D20*
X67972Y-41618D03*
X68972Y-42618D03*
X68972Y-41618D03*
X69972Y-42618D03*
X69972Y-41618D03*
X70972Y-42618D03*
X70972Y-41618D03*
M02*
