G04 (created by PCBNEW (2013-07-07 BZR 4022)-stable) date 31/01/2015 20:05:26*
%MOIN*%
G04 Gerber Fmt 3.4, Leading zero omitted, Abs format*
%FSLAX34Y34*%
G01*
G70*
G90*
G04 APERTURE LIST*
%ADD10C,0.005*%
%ADD11C,0.00393701*%
%ADD12C,0.00787402*%
%ADD13C,0.011811*%
G04 APERTURE END LIST*
G54D10*
G54D11*
X80413Y-33996D02*
X80413Y-33976D01*
X80413Y-52106D02*
X80413Y-33996D01*
X41437Y-52106D02*
X80413Y-52106D01*
X41437Y-33976D02*
X41437Y-52106D01*
X41433Y-46968D02*
X41433Y-48543D01*
X41433Y-33976D02*
X80405Y-33976D01*
G54D12*
X44822Y-34586D02*
X44940Y-34704D01*
X44940Y-34586D02*
X44822Y-34704D01*
X45216Y-37342D02*
X45334Y-37460D01*
X45334Y-37342D02*
X45216Y-37460D01*
X45216Y-39704D02*
X45334Y-39822D01*
X45334Y-39704D02*
X45216Y-39822D01*
X45216Y-40295D02*
X45334Y-40413D01*
X45334Y-40295D02*
X45216Y-40413D01*
X45216Y-43248D02*
X45334Y-43366D01*
X45334Y-43248D02*
X45216Y-43366D01*
X45216Y-46200D02*
X45334Y-46318D01*
X45334Y-46200D02*
X45216Y-46318D01*
X45610Y-36948D02*
X45728Y-37066D01*
X45728Y-36948D02*
X45610Y-37066D01*
X45610Y-37736D02*
X45728Y-37854D01*
X45728Y-37736D02*
X45610Y-37854D01*
X45610Y-39704D02*
X45728Y-39822D01*
X45728Y-39704D02*
X45610Y-39822D01*
X45940Y-49140D02*
X46059Y-49259D01*
X46059Y-49140D02*
X45940Y-49259D01*
X46003Y-37736D02*
X46122Y-37854D01*
X46122Y-37736D02*
X46003Y-37854D01*
X46003Y-40885D02*
X46122Y-41003D01*
X46122Y-40885D02*
X46003Y-41003D01*
X46200Y-43248D02*
X46318Y-43366D01*
X46318Y-43248D02*
X46200Y-43366D01*
X46200Y-46200D02*
X46318Y-46318D01*
X46318Y-46200D02*
X46200Y-46318D01*
X46540Y-49140D02*
X46659Y-49259D01*
X46659Y-49140D02*
X46540Y-49259D01*
X47140Y-49140D02*
X47259Y-49259D01*
X47259Y-49140D02*
X47140Y-49259D01*
X47185Y-40885D02*
X47303Y-41003D01*
X47303Y-40885D02*
X47185Y-41003D01*
X47185Y-44232D02*
X47303Y-44350D01*
X47303Y-44232D02*
X47185Y-44350D01*
X47185Y-46200D02*
X47303Y-46318D01*
X47303Y-46200D02*
X47185Y-46318D01*
X47185Y-47185D02*
X47303Y-47303D01*
X47303Y-47185D02*
X47185Y-47303D01*
X47421Y-39606D02*
X47539Y-39724D01*
X47539Y-39606D02*
X47421Y-39724D01*
X47490Y-39040D02*
X47609Y-39159D01*
X47609Y-39040D02*
X47490Y-39159D01*
X47578Y-35255D02*
X47696Y-35374D01*
X47696Y-35255D02*
X47578Y-35374D01*
X47590Y-37940D02*
X47709Y-38059D01*
X47709Y-37940D02*
X47590Y-38059D01*
X47940Y-49140D02*
X48059Y-49259D01*
X48059Y-49140D02*
X47940Y-49259D01*
X47972Y-36555D02*
X48090Y-36673D01*
X48090Y-36555D02*
X47972Y-36673D01*
X47972Y-39704D02*
X48090Y-39822D01*
X48090Y-39704D02*
X47972Y-39822D01*
X48169Y-44232D02*
X48287Y-44350D01*
X48287Y-44232D02*
X48169Y-44350D01*
X48169Y-47185D02*
X48287Y-47303D01*
X48287Y-47185D02*
X48169Y-47303D01*
X48366Y-36555D02*
X48484Y-36673D01*
X48484Y-36555D02*
X48366Y-36673D01*
X48366Y-36948D02*
X48484Y-37066D01*
X48484Y-36948D02*
X48366Y-37066D01*
X48366Y-39311D02*
X48484Y-39429D01*
X48484Y-39311D02*
X48366Y-39429D01*
X48523Y-35255D02*
X48641Y-35374D01*
X48641Y-35255D02*
X48523Y-35374D01*
X48540Y-49140D02*
X48659Y-49259D01*
X48659Y-49140D02*
X48540Y-49259D01*
X48759Y-37263D02*
X48877Y-37381D01*
X48877Y-37263D02*
X48759Y-37381D01*
X48996Y-41476D02*
X49114Y-41594D01*
X49114Y-41476D02*
X48996Y-41594D01*
X49074Y-37263D02*
X49192Y-37381D01*
X49192Y-37263D02*
X49074Y-37381D01*
X49140Y-49140D02*
X49259Y-49259D01*
X49259Y-49140D02*
X49140Y-49259D01*
X49429Y-37263D02*
X49547Y-37381D01*
X49547Y-37263D02*
X49429Y-37381D01*
X49440Y-43940D02*
X49559Y-44059D01*
X49559Y-43940D02*
X49440Y-44059D01*
X49440Y-44340D02*
X49559Y-44459D01*
X49559Y-44340D02*
X49440Y-44459D01*
X49440Y-44740D02*
X49559Y-44859D01*
X49559Y-44740D02*
X49440Y-44859D01*
X49507Y-42657D02*
X49625Y-42775D01*
X49625Y-42657D02*
X49507Y-42775D01*
X49665Y-46358D02*
X49783Y-46476D01*
X49783Y-46358D02*
X49665Y-46476D01*
X49704Y-36318D02*
X49822Y-36437D01*
X49822Y-36318D02*
X49704Y-36437D01*
X49783Y-37263D02*
X49901Y-37381D01*
X49901Y-37263D02*
X49783Y-37381D01*
X49940Y-43940D02*
X50059Y-44059D01*
X50059Y-43940D02*
X49940Y-44059D01*
X49940Y-44340D02*
X50059Y-44459D01*
X50059Y-44340D02*
X49940Y-44459D01*
X49940Y-44740D02*
X50059Y-44859D01*
X50059Y-44740D02*
X49940Y-44859D01*
X49940Y-47736D02*
X50059Y-47854D01*
X50059Y-47736D02*
X49940Y-47854D01*
X49940Y-49140D02*
X50059Y-49259D01*
X50059Y-49140D02*
X49940Y-49259D01*
X50019Y-37933D02*
X50137Y-38051D01*
X50137Y-37933D02*
X50019Y-38051D01*
X50059Y-34980D02*
X50177Y-35098D01*
X50177Y-34980D02*
X50059Y-35098D01*
X50216Y-46397D02*
X50334Y-46515D01*
X50334Y-46397D02*
X50216Y-46515D01*
X50334Y-36948D02*
X50452Y-37066D01*
X50452Y-36948D02*
X50334Y-37066D01*
X50374Y-34704D02*
X50492Y-34822D01*
X50492Y-34704D02*
X50374Y-34822D01*
X50413Y-47736D02*
X50531Y-47854D01*
X50531Y-47736D02*
X50413Y-47854D01*
X50440Y-43940D02*
X50559Y-44059D01*
X50559Y-43940D02*
X50440Y-44059D01*
X50440Y-44340D02*
X50559Y-44459D01*
X50559Y-44340D02*
X50440Y-44459D01*
X50440Y-44740D02*
X50559Y-44859D01*
X50559Y-44740D02*
X50440Y-44859D01*
X50540Y-49140D02*
X50659Y-49259D01*
X50659Y-49140D02*
X50540Y-49259D01*
X50649Y-46397D02*
X50767Y-46515D01*
X50767Y-46397D02*
X50649Y-46515D01*
X50688Y-38248D02*
X50807Y-38366D01*
X50807Y-38248D02*
X50688Y-38366D01*
X50767Y-37933D02*
X50885Y-38051D01*
X50885Y-37933D02*
X50767Y-38051D01*
X50846Y-37539D02*
X50964Y-37657D01*
X50964Y-37539D02*
X50846Y-37657D01*
X50925Y-47736D02*
X51043Y-47854D01*
X51043Y-47736D02*
X50925Y-47854D01*
X50940Y-43940D02*
X51059Y-44059D01*
X51059Y-43940D02*
X50940Y-44059D01*
X50940Y-44340D02*
X51059Y-44459D01*
X51059Y-44340D02*
X50940Y-44459D01*
X50940Y-44740D02*
X51059Y-44859D01*
X51059Y-44740D02*
X50940Y-44859D01*
X50944Y-41653D02*
X51062Y-41771D01*
X51062Y-41653D02*
X50944Y-41771D01*
X50964Y-36594D02*
X51082Y-36712D01*
X51082Y-36594D02*
X50964Y-36712D01*
X51003Y-35964D02*
X51122Y-36082D01*
X51122Y-35964D02*
X51003Y-36082D01*
X51043Y-38917D02*
X51161Y-39035D01*
X51161Y-38917D02*
X51043Y-39035D01*
X51043Y-39232D02*
X51161Y-39350D01*
X51161Y-39232D02*
X51043Y-39350D01*
X51082Y-42696D02*
X51200Y-42814D01*
X51200Y-42696D02*
X51082Y-42814D01*
X51140Y-49140D02*
X51259Y-49259D01*
X51259Y-49140D02*
X51140Y-49259D01*
X51200Y-35019D02*
X51318Y-35137D01*
X51318Y-35019D02*
X51200Y-35137D01*
X51200Y-46358D02*
X51318Y-46476D01*
X51318Y-46358D02*
X51200Y-46476D01*
X51440Y-43940D02*
X51559Y-44059D01*
X51559Y-43940D02*
X51440Y-44059D01*
X51440Y-44340D02*
X51559Y-44459D01*
X51559Y-44340D02*
X51440Y-44459D01*
X51440Y-44740D02*
X51559Y-44859D01*
X51559Y-44740D02*
X51440Y-44859D01*
X51870Y-46003D02*
X51988Y-46122D01*
X51988Y-46003D02*
X51870Y-46122D01*
X51940Y-49140D02*
X52059Y-49259D01*
X52059Y-49140D02*
X51940Y-49259D01*
X52224Y-37066D02*
X52342Y-37185D01*
X52342Y-37066D02*
X52224Y-37185D01*
X52381Y-43011D02*
X52500Y-43129D01*
X52500Y-43011D02*
X52381Y-43129D01*
X52540Y-49140D02*
X52659Y-49259D01*
X52659Y-49140D02*
X52540Y-49259D01*
X53090Y-47185D02*
X53208Y-47303D01*
X53208Y-47185D02*
X53090Y-47303D01*
X53140Y-49140D02*
X53259Y-49259D01*
X53259Y-49140D02*
X53140Y-49259D01*
X53877Y-46397D02*
X53996Y-46515D01*
X53996Y-46397D02*
X53877Y-46515D01*
X53940Y-49140D02*
X54059Y-49259D01*
X54059Y-49140D02*
X53940Y-49259D01*
X54074Y-47185D02*
X54192Y-47303D01*
X54192Y-47185D02*
X54074Y-47303D01*
X54540Y-49140D02*
X54659Y-49259D01*
X54659Y-49140D02*
X54540Y-49259D01*
X54665Y-46397D02*
X54783Y-46515D01*
X54783Y-46397D02*
X54665Y-46515D01*
X55059Y-39704D02*
X55177Y-39822D01*
X55177Y-39704D02*
X55059Y-39822D01*
X55059Y-47185D02*
X55177Y-47303D01*
X55177Y-47185D02*
X55059Y-47303D01*
X55140Y-49140D02*
X55259Y-49259D01*
X55259Y-49140D02*
X55140Y-49259D01*
X55452Y-40885D02*
X55570Y-41003D01*
X55570Y-40885D02*
X55452Y-41003D01*
X55452Y-46397D02*
X55570Y-46515D01*
X55570Y-46397D02*
X55452Y-46515D01*
X55728Y-41279D02*
X55846Y-41397D01*
X55846Y-41279D02*
X55728Y-41397D01*
X56043Y-39311D02*
X56161Y-39429D01*
X56161Y-39311D02*
X56043Y-39429D01*
X56043Y-47185D02*
X56161Y-47303D01*
X56161Y-47185D02*
X56043Y-47303D01*
X56240Y-46397D02*
X56358Y-46515D01*
X56358Y-46397D02*
X56240Y-46515D01*
X56476Y-41003D02*
X56594Y-41122D01*
X56594Y-41003D02*
X56476Y-41122D01*
X56633Y-38523D02*
X56751Y-38641D01*
X56751Y-38523D02*
X56633Y-38641D01*
X56840Y-36890D02*
X56959Y-37009D01*
X56959Y-36890D02*
X56840Y-37009D01*
X57027Y-39311D02*
X57145Y-39429D01*
X57145Y-39311D02*
X57027Y-39429D01*
X57027Y-40295D02*
X57145Y-40413D01*
X57145Y-40295D02*
X57027Y-40413D01*
X57027Y-46397D02*
X57145Y-46515D01*
X57145Y-46397D02*
X57027Y-46515D01*
X57027Y-47185D02*
X57145Y-47303D01*
X57145Y-47185D02*
X57027Y-47303D01*
X57540Y-49140D02*
X57659Y-49259D01*
X57659Y-49140D02*
X57540Y-49259D01*
X57814Y-46397D02*
X57933Y-46515D01*
X57933Y-46397D02*
X57814Y-46515D01*
X57913Y-37145D02*
X58031Y-37263D01*
X58031Y-37145D02*
X57913Y-37263D01*
X58011Y-39311D02*
X58129Y-39429D01*
X58129Y-39311D02*
X58011Y-39429D01*
X58011Y-42263D02*
X58129Y-42381D01*
X58129Y-42263D02*
X58011Y-42381D01*
X58011Y-47185D02*
X58129Y-47303D01*
X58129Y-47185D02*
X58011Y-47303D01*
X58140Y-49140D02*
X58259Y-49259D01*
X58259Y-49140D02*
X58140Y-49259D01*
X58208Y-41673D02*
X58326Y-41791D01*
X58326Y-41673D02*
X58208Y-41791D01*
X58602Y-38917D02*
X58720Y-39035D01*
X58720Y-38917D02*
X58602Y-39035D01*
X58602Y-46397D02*
X58720Y-46515D01*
X58720Y-46397D02*
X58602Y-46515D01*
X58740Y-49140D02*
X58859Y-49259D01*
X58859Y-49140D02*
X58740Y-49259D01*
X58917Y-38444D02*
X59035Y-38562D01*
X59035Y-38444D02*
X58917Y-38562D01*
X58996Y-42263D02*
X59114Y-42381D01*
X59114Y-42263D02*
X58996Y-42381D01*
X58996Y-47185D02*
X59114Y-47303D01*
X59114Y-47185D02*
X58996Y-47303D01*
X59291Y-36751D02*
X59409Y-36870D01*
X59409Y-36751D02*
X59291Y-36870D01*
X59291Y-41279D02*
X59409Y-41397D01*
X59409Y-41279D02*
X59291Y-41397D01*
X59540Y-49140D02*
X59659Y-49259D01*
X59659Y-49140D02*
X59540Y-49259D01*
X59704Y-35728D02*
X59822Y-35846D01*
X59822Y-35728D02*
X59704Y-35846D01*
X59921Y-43051D02*
X60039Y-43169D01*
X60039Y-43051D02*
X59921Y-43169D01*
X60140Y-49140D02*
X60259Y-49259D01*
X60259Y-49140D02*
X60140Y-49259D01*
X60216Y-35275D02*
X60334Y-35393D01*
X60334Y-35275D02*
X60216Y-35393D01*
X60290Y-36390D02*
X60409Y-36509D01*
X60409Y-36390D02*
X60290Y-36509D01*
X60314Y-34901D02*
X60433Y-35019D01*
X60433Y-34901D02*
X60314Y-35019D01*
X60334Y-38799D02*
X60452Y-38917D01*
X60452Y-38799D02*
X60334Y-38917D01*
X60374Y-39212D02*
X60492Y-39330D01*
X60492Y-39212D02*
X60374Y-39330D01*
X60570Y-40295D02*
X60688Y-40413D01*
X60688Y-40295D02*
X60570Y-40413D01*
X60740Y-49140D02*
X60859Y-49259D01*
X60859Y-49140D02*
X60740Y-49259D01*
X60964Y-34822D02*
X61082Y-34940D01*
X61082Y-34822D02*
X60964Y-34940D01*
X61040Y-43940D02*
X61159Y-44059D01*
X61159Y-43940D02*
X61040Y-44059D01*
X61040Y-44340D02*
X61159Y-44459D01*
X61159Y-44340D02*
X61040Y-44459D01*
X61040Y-44740D02*
X61159Y-44859D01*
X61159Y-44740D02*
X61040Y-44859D01*
X61122Y-42657D02*
X61240Y-42775D01*
X61240Y-42657D02*
X61122Y-42775D01*
X61161Y-41870D02*
X61279Y-41988D01*
X61279Y-41870D02*
X61161Y-41988D01*
X61240Y-46358D02*
X61358Y-46476D01*
X61358Y-46358D02*
X61240Y-46476D01*
X61279Y-37539D02*
X61397Y-37657D01*
X61397Y-37539D02*
X61279Y-37657D01*
X61437Y-40925D02*
X61555Y-41043D01*
X61555Y-40925D02*
X61437Y-41043D01*
X61456Y-35767D02*
X61574Y-35885D01*
X61574Y-35767D02*
X61456Y-35885D01*
X61540Y-43940D02*
X61659Y-44059D01*
X61659Y-43940D02*
X61540Y-44059D01*
X61540Y-44340D02*
X61659Y-44459D01*
X61659Y-44340D02*
X61540Y-44459D01*
X61540Y-44740D02*
X61659Y-44859D01*
X61659Y-44740D02*
X61540Y-44859D01*
X61540Y-49140D02*
X61659Y-49259D01*
X61659Y-49140D02*
X61540Y-49259D01*
X61555Y-40295D02*
X61673Y-40413D01*
X61673Y-40295D02*
X61555Y-40413D01*
X61555Y-47736D02*
X61673Y-47854D01*
X61673Y-47736D02*
X61555Y-47854D01*
X61594Y-37263D02*
X61712Y-37381D01*
X61712Y-37263D02*
X61594Y-37381D01*
X61653Y-42559D02*
X61771Y-42677D01*
X61771Y-42559D02*
X61653Y-42677D01*
X61830Y-46397D02*
X61948Y-46515D01*
X61948Y-46397D02*
X61830Y-46515D01*
X62027Y-47736D02*
X62145Y-47854D01*
X62145Y-47736D02*
X62027Y-47854D01*
X62040Y-43940D02*
X62159Y-44059D01*
X62159Y-43940D02*
X62040Y-44059D01*
X62040Y-44340D02*
X62159Y-44459D01*
X62159Y-44340D02*
X62040Y-44459D01*
X62040Y-44740D02*
X62159Y-44859D01*
X62159Y-44740D02*
X62040Y-44859D01*
X62263Y-46397D02*
X62381Y-46515D01*
X62381Y-46397D02*
X62263Y-46515D01*
X62340Y-49140D02*
X62459Y-49259D01*
X62459Y-49140D02*
X62340Y-49259D01*
X62421Y-37106D02*
X62539Y-37224D01*
X62539Y-37106D02*
X62421Y-37224D01*
X62539Y-47736D02*
X62657Y-47854D01*
X62657Y-47736D02*
X62539Y-47854D01*
X62540Y-43940D02*
X62659Y-44059D01*
X62659Y-43940D02*
X62540Y-44059D01*
X62540Y-44340D02*
X62659Y-44459D01*
X62659Y-44340D02*
X62540Y-44459D01*
X62540Y-44740D02*
X62659Y-44859D01*
X62659Y-44740D02*
X62540Y-44859D01*
X62637Y-34665D02*
X62755Y-34783D01*
X62755Y-34665D02*
X62637Y-34783D01*
X62696Y-42657D02*
X62814Y-42775D01*
X62814Y-42657D02*
X62696Y-42775D01*
X62834Y-35767D02*
X62952Y-35885D01*
X62952Y-35767D02*
X62834Y-35885D01*
X62854Y-46358D02*
X62972Y-46476D01*
X62972Y-46358D02*
X62854Y-46476D01*
X63031Y-34566D02*
X63149Y-34685D01*
X63149Y-34566D02*
X63031Y-34685D01*
X63040Y-43940D02*
X63159Y-44059D01*
X63159Y-43940D02*
X63040Y-44059D01*
X63040Y-44340D02*
X63159Y-44459D01*
X63159Y-44340D02*
X63040Y-44459D01*
X63040Y-44740D02*
X63159Y-44859D01*
X63159Y-44740D02*
X63040Y-44859D01*
X63326Y-36948D02*
X63444Y-37066D01*
X63444Y-36948D02*
X63326Y-37066D01*
X63340Y-49140D02*
X63459Y-49259D01*
X63459Y-49140D02*
X63340Y-49259D01*
X63366Y-34625D02*
X63484Y-34744D01*
X63484Y-34625D02*
X63366Y-34744D01*
X63425Y-41870D02*
X63543Y-41988D01*
X63543Y-41870D02*
X63425Y-41988D01*
X63484Y-46003D02*
X63602Y-46122D01*
X63602Y-46003D02*
X63484Y-46122D01*
X63940Y-49140D02*
X64059Y-49259D01*
X64059Y-49140D02*
X63940Y-49259D01*
X63996Y-42814D02*
X64114Y-42933D01*
X64114Y-42814D02*
X63996Y-42933D01*
X64114Y-40492D02*
X64232Y-40610D01*
X64232Y-40492D02*
X64114Y-40610D01*
X64153Y-34586D02*
X64271Y-34704D01*
X64271Y-34586D02*
X64153Y-34704D01*
X64192Y-37106D02*
X64311Y-37224D01*
X64311Y-37106D02*
X64192Y-37224D01*
X64468Y-34586D02*
X64586Y-34704D01*
X64586Y-34586D02*
X64468Y-34704D01*
X64540Y-49140D02*
X64659Y-49259D01*
X64659Y-49140D02*
X64540Y-49259D01*
X64606Y-42657D02*
X64724Y-42775D01*
X64724Y-42657D02*
X64606Y-42775D01*
X64724Y-39468D02*
X64842Y-39586D01*
X64842Y-39468D02*
X64724Y-39586D01*
X64783Y-34586D02*
X64901Y-34704D01*
X64901Y-34586D02*
X64783Y-34704D01*
X64901Y-43248D02*
X65019Y-43366D01*
X65019Y-43248D02*
X64901Y-43366D01*
X64901Y-46200D02*
X65019Y-46318D01*
X65019Y-46200D02*
X64901Y-46318D01*
X64901Y-47185D02*
X65019Y-47303D01*
X65019Y-47185D02*
X64901Y-47303D01*
X64960Y-39783D02*
X65078Y-39901D01*
X65078Y-39783D02*
X64960Y-39901D01*
X65196Y-36062D02*
X65314Y-36181D01*
X65314Y-36062D02*
X65196Y-36181D01*
X65196Y-36456D02*
X65314Y-36574D01*
X65314Y-36456D02*
X65196Y-36574D01*
X65196Y-40137D02*
X65314Y-40255D01*
X65314Y-40137D02*
X65196Y-40255D01*
X65295Y-37500D02*
X65413Y-37618D01*
X65413Y-37500D02*
X65295Y-37618D01*
X65340Y-49140D02*
X65459Y-49259D01*
X65459Y-49140D02*
X65340Y-49259D01*
X65433Y-40511D02*
X65551Y-40629D01*
X65551Y-40511D02*
X65433Y-40629D01*
X65688Y-35570D02*
X65807Y-35688D01*
X65807Y-35570D02*
X65688Y-35688D01*
X65885Y-41082D02*
X66003Y-41200D01*
X66003Y-41082D02*
X65885Y-41200D01*
X66140Y-49140D02*
X66259Y-49259D01*
X66259Y-49140D02*
X66140Y-49259D01*
X66397Y-38759D02*
X66515Y-38877D01*
X66515Y-38759D02*
X66397Y-38877D01*
X66476Y-35866D02*
X66594Y-35984D01*
X66594Y-35866D02*
X66476Y-35984D01*
X66476Y-36653D02*
X66594Y-36771D01*
X66594Y-36653D02*
X66476Y-36771D01*
X66870Y-34389D02*
X66988Y-34507D01*
X66988Y-34389D02*
X66870Y-34507D01*
X66940Y-49140D02*
X67059Y-49259D01*
X67059Y-49140D02*
X66940Y-49259D01*
X67263Y-37342D02*
X67381Y-37460D01*
X67381Y-37342D02*
X67263Y-37460D01*
X67854Y-34389D02*
X67972Y-34507D01*
X67972Y-34389D02*
X67854Y-34507D01*
X67854Y-44232D02*
X67972Y-44350D01*
X67972Y-44232D02*
X67854Y-44350D01*
X67854Y-45216D02*
X67972Y-45334D01*
X67972Y-45216D02*
X67854Y-45334D01*
X67854Y-46200D02*
X67972Y-46318D01*
X67972Y-46200D02*
X67854Y-46318D01*
X67854Y-47185D02*
X67972Y-47303D01*
X67972Y-47185D02*
X67854Y-47303D01*
X67952Y-35669D02*
X68070Y-35787D01*
X68070Y-35669D02*
X67952Y-35787D01*
X68051Y-37342D02*
X68169Y-37460D01*
X68169Y-37342D02*
X68051Y-37460D01*
X68838Y-46200D02*
X68956Y-46318D01*
X68956Y-46200D02*
X68838Y-46318D01*
X68838Y-47185D02*
X68956Y-47303D01*
X68956Y-47185D02*
X68838Y-47303D01*
X69540Y-49140D02*
X69659Y-49259D01*
X69659Y-49140D02*
X69540Y-49259D01*
X69822Y-36358D02*
X69940Y-36476D01*
X69940Y-36358D02*
X69822Y-36476D01*
X69822Y-46200D02*
X69940Y-46318D01*
X69940Y-46200D02*
X69822Y-46318D01*
X69822Y-47185D02*
X69940Y-47303D01*
X69940Y-47185D02*
X69822Y-47303D01*
X70059Y-38759D02*
X70177Y-38877D01*
X70177Y-38759D02*
X70059Y-38877D01*
X70140Y-49140D02*
X70259Y-49259D01*
X70259Y-49140D02*
X70140Y-49259D01*
X70610Y-39212D02*
X70728Y-39330D01*
X70728Y-39212D02*
X70610Y-39330D01*
X70807Y-34389D02*
X70925Y-34507D01*
X70925Y-34389D02*
X70807Y-34507D01*
X70807Y-36358D02*
X70925Y-36476D01*
X70925Y-36358D02*
X70807Y-36476D01*
X70807Y-44232D02*
X70925Y-44350D01*
X70925Y-44232D02*
X70807Y-44350D01*
X70807Y-47185D02*
X70925Y-47303D01*
X70925Y-47185D02*
X70807Y-47303D01*
X70940Y-49140D02*
X71059Y-49259D01*
X71059Y-49140D02*
X70940Y-49259D01*
X71540Y-49140D02*
X71659Y-49259D01*
X71659Y-49140D02*
X71540Y-49259D01*
X71594Y-35767D02*
X71712Y-35885D01*
X71712Y-35767D02*
X71594Y-35885D01*
X71594Y-36161D02*
X71712Y-36279D01*
X71712Y-36161D02*
X71594Y-36279D01*
X71594Y-39212D02*
X71712Y-39330D01*
X71712Y-39212D02*
X71594Y-39330D01*
X71791Y-38326D02*
X71909Y-38444D01*
X71909Y-38326D02*
X71791Y-38444D01*
X71791Y-41279D02*
X71909Y-41397D01*
X71909Y-41279D02*
X71791Y-41397D01*
X71791Y-42263D02*
X71909Y-42381D01*
X71909Y-42263D02*
X71791Y-42381D01*
X71988Y-35767D02*
X72106Y-35885D01*
X72106Y-35767D02*
X71988Y-35885D01*
X71988Y-36161D02*
X72106Y-36279D01*
X72106Y-36161D02*
X71988Y-36279D01*
X72140Y-49140D02*
X72259Y-49259D01*
X72259Y-49140D02*
X72140Y-49259D01*
X72381Y-35767D02*
X72500Y-35885D01*
X72500Y-35767D02*
X72381Y-35885D01*
X72381Y-36161D02*
X72500Y-36279D01*
X72500Y-36161D02*
X72381Y-36279D01*
X72640Y-43940D02*
X72759Y-44059D01*
X72759Y-43940D02*
X72640Y-44059D01*
X72640Y-44340D02*
X72759Y-44459D01*
X72759Y-44340D02*
X72640Y-44459D01*
X72640Y-44740D02*
X72759Y-44859D01*
X72759Y-44740D02*
X72640Y-44859D01*
X72775Y-38326D02*
X72893Y-38444D01*
X72893Y-38326D02*
X72775Y-38444D01*
X72775Y-39311D02*
X72893Y-39429D01*
X72893Y-39311D02*
X72775Y-39429D01*
X72775Y-42696D02*
X72893Y-42814D01*
X72893Y-42696D02*
X72775Y-42814D01*
X72854Y-46358D02*
X72972Y-46476D01*
X72972Y-46358D02*
X72854Y-46476D01*
X72940Y-49140D02*
X73059Y-49259D01*
X73059Y-49140D02*
X72940Y-49259D01*
X73140Y-43940D02*
X73259Y-44059D01*
X73259Y-43940D02*
X73140Y-44059D01*
X73140Y-44340D02*
X73259Y-44459D01*
X73259Y-44340D02*
X73140Y-44459D01*
X73140Y-44740D02*
X73259Y-44859D01*
X73259Y-44740D02*
X73140Y-44859D01*
X73169Y-47736D02*
X73287Y-47854D01*
X73287Y-47736D02*
X73169Y-47854D01*
X73444Y-46397D02*
X73562Y-46515D01*
X73562Y-46397D02*
X73444Y-46515D01*
X73540Y-49140D02*
X73659Y-49259D01*
X73659Y-49140D02*
X73540Y-49259D01*
X73640Y-43940D02*
X73759Y-44059D01*
X73759Y-43940D02*
X73640Y-44059D01*
X73640Y-44340D02*
X73759Y-44459D01*
X73759Y-44340D02*
X73640Y-44459D01*
X73640Y-44740D02*
X73759Y-44859D01*
X73759Y-44740D02*
X73640Y-44859D01*
X73641Y-47736D02*
X73759Y-47854D01*
X73759Y-47736D02*
X73641Y-47854D01*
X73759Y-34389D02*
X73877Y-34507D01*
X73877Y-34389D02*
X73759Y-34507D01*
X73759Y-38326D02*
X73877Y-38444D01*
X73877Y-38326D02*
X73759Y-38444D01*
X73858Y-38917D02*
X73976Y-39035D01*
X73976Y-38917D02*
X73858Y-39035D01*
X73877Y-46397D02*
X73996Y-46515D01*
X73996Y-46397D02*
X73877Y-46515D01*
X74140Y-43940D02*
X74259Y-44059D01*
X74259Y-43940D02*
X74140Y-44059D01*
X74140Y-44340D02*
X74259Y-44459D01*
X74259Y-44340D02*
X74140Y-44459D01*
X74140Y-44740D02*
X74259Y-44859D01*
X74259Y-44740D02*
X74140Y-44859D01*
X74140Y-49140D02*
X74259Y-49259D01*
X74259Y-49140D02*
X74140Y-49259D01*
X74153Y-47736D02*
X74271Y-47854D01*
X74271Y-47736D02*
X74153Y-47854D01*
X74311Y-42696D02*
X74429Y-42814D01*
X74429Y-42696D02*
X74311Y-42814D01*
X74468Y-46358D02*
X74586Y-46476D01*
X74586Y-46358D02*
X74468Y-46476D01*
X74640Y-43940D02*
X74759Y-44059D01*
X74759Y-43940D02*
X74640Y-44059D01*
X74640Y-44340D02*
X74759Y-44459D01*
X74759Y-44340D02*
X74640Y-44459D01*
X74640Y-44740D02*
X74759Y-44859D01*
X74759Y-44740D02*
X74640Y-44859D01*
X74744Y-34389D02*
X74862Y-34507D01*
X74862Y-34389D02*
X74744Y-34507D01*
X75059Y-45964D02*
X75177Y-46082D01*
X75177Y-45964D02*
X75059Y-46082D01*
X75140Y-49140D02*
X75259Y-49259D01*
X75259Y-49140D02*
X75140Y-49259D01*
X75374Y-38523D02*
X75492Y-38641D01*
X75492Y-38523D02*
X75374Y-38641D01*
X75374Y-38917D02*
X75492Y-39035D01*
X75492Y-38917D02*
X75374Y-39035D01*
X75374Y-39311D02*
X75492Y-39429D01*
X75492Y-39311D02*
X75374Y-39429D01*
X75570Y-42972D02*
X75688Y-43090D01*
X75688Y-42972D02*
X75570Y-43090D01*
X75728Y-34389D02*
X75846Y-34507D01*
X75846Y-34389D02*
X75728Y-34507D01*
X75728Y-42263D02*
X75846Y-42381D01*
X75846Y-42263D02*
X75728Y-42381D01*
X75740Y-49140D02*
X75859Y-49259D01*
X75859Y-49140D02*
X75740Y-49259D01*
X75866Y-38523D02*
X75984Y-38641D01*
X75984Y-38523D02*
X75866Y-38641D01*
X75866Y-38917D02*
X75984Y-39035D01*
X75984Y-38917D02*
X75866Y-39035D01*
X75866Y-39311D02*
X75984Y-39429D01*
X75984Y-39311D02*
X75866Y-39429D01*
X76122Y-37342D02*
X76240Y-37460D01*
X76240Y-37342D02*
X76122Y-37460D01*
X76340Y-49140D02*
X76459Y-49259D01*
X76459Y-49140D02*
X76340Y-49259D01*
X76358Y-38523D02*
X76476Y-38641D01*
X76476Y-38523D02*
X76358Y-38641D01*
X76358Y-38917D02*
X76476Y-39035D01*
X76476Y-38917D02*
X76358Y-39035D01*
X76358Y-39311D02*
X76476Y-39429D01*
X76476Y-39311D02*
X76358Y-39429D01*
X76712Y-34389D02*
X76830Y-34507D01*
X76830Y-34389D02*
X76712Y-34507D01*
X76712Y-35374D02*
X76830Y-35492D01*
X76830Y-35374D02*
X76712Y-35492D01*
X76712Y-42263D02*
X76830Y-42381D01*
X76830Y-42263D02*
X76712Y-42381D01*
X76712Y-44232D02*
X76830Y-44350D01*
X76830Y-44232D02*
X76712Y-44350D01*
X76712Y-46200D02*
X76830Y-46318D01*
X76830Y-46200D02*
X76712Y-46318D01*
X76712Y-47185D02*
X76830Y-47303D01*
X76830Y-47185D02*
X76712Y-47303D01*
X76940Y-49140D02*
X77059Y-49259D01*
X77059Y-49140D02*
X76940Y-49259D01*
X77500Y-40885D02*
X77618Y-41003D01*
X77618Y-40885D02*
X77500Y-41003D01*
X77540Y-49140D02*
X77659Y-49259D01*
X77659Y-49140D02*
X77540Y-49259D01*
X77696Y-34389D02*
X77814Y-34507D01*
X77814Y-34389D02*
X77696Y-34507D01*
X77696Y-35374D02*
X77814Y-35492D01*
X77814Y-35374D02*
X77696Y-35492D01*
X77696Y-36358D02*
X77814Y-36476D01*
X77814Y-36358D02*
X77696Y-36476D01*
X78681Y-34389D02*
X78799Y-34507D01*
X78799Y-34389D02*
X78681Y-34507D01*
X78681Y-35374D02*
X78799Y-35492D01*
X78799Y-35374D02*
X78681Y-35492D01*
X78681Y-36358D02*
X78799Y-36476D01*
X78799Y-36358D02*
X78681Y-36476D01*
X78681Y-37342D02*
X78799Y-37460D01*
X78799Y-37342D02*
X78681Y-37460D01*
X78681Y-38326D02*
X78799Y-38444D01*
X78799Y-38326D02*
X78681Y-38444D01*
X78681Y-39311D02*
X78799Y-39429D01*
X78799Y-39311D02*
X78681Y-39429D01*
X78681Y-40295D02*
X78799Y-40413D01*
X78799Y-40295D02*
X78681Y-40413D01*
X78681Y-41279D02*
X78799Y-41397D01*
X78799Y-41279D02*
X78681Y-41397D01*
X78681Y-42263D02*
X78799Y-42381D01*
X78799Y-42263D02*
X78681Y-42381D01*
X78681Y-43248D02*
X78799Y-43366D01*
X78799Y-43248D02*
X78681Y-43366D01*
X78681Y-44232D02*
X78799Y-44350D01*
X78799Y-44232D02*
X78681Y-44350D01*
X78681Y-45216D02*
X78799Y-45334D01*
X78799Y-45216D02*
X78681Y-45334D01*
X78681Y-46200D02*
X78799Y-46318D01*
X78799Y-46200D02*
X78681Y-46318D01*
X78681Y-47185D02*
X78799Y-47303D01*
X78799Y-47185D02*
X78681Y-47303D01*
X79665Y-34389D02*
X79783Y-34507D01*
X79783Y-34389D02*
X79665Y-34507D01*
X79665Y-35374D02*
X79783Y-35492D01*
X79783Y-35374D02*
X79665Y-35492D01*
X79665Y-36358D02*
X79783Y-36476D01*
X79783Y-36358D02*
X79665Y-36476D01*
X79665Y-37342D02*
X79783Y-37460D01*
X79783Y-37342D02*
X79665Y-37460D01*
X79665Y-38326D02*
X79783Y-38444D01*
X79783Y-38326D02*
X79665Y-38444D01*
X79665Y-39311D02*
X79783Y-39429D01*
X79783Y-39311D02*
X79665Y-39429D01*
X79665Y-40295D02*
X79783Y-40413D01*
X79783Y-40295D02*
X79665Y-40413D01*
X79665Y-41279D02*
X79783Y-41397D01*
X79783Y-41279D02*
X79665Y-41397D01*
X79665Y-42263D02*
X79783Y-42381D01*
X79783Y-42263D02*
X79665Y-42381D01*
X79665Y-43248D02*
X79783Y-43366D01*
X79783Y-43248D02*
X79665Y-43366D01*
X79665Y-44232D02*
X79783Y-44350D01*
X79783Y-44232D02*
X79665Y-44350D01*
X79665Y-45216D02*
X79783Y-45334D01*
X79783Y-45216D02*
X79665Y-45334D01*
X79665Y-46200D02*
X79783Y-46318D01*
X79783Y-46200D02*
X79665Y-46318D01*
X79665Y-47185D02*
X79783Y-47303D01*
X79783Y-47185D02*
X79665Y-47303D01*
X42542Y-42204D02*
G75*
G03X42542Y-42204I-200J0D01*
G74*
G01*
X43172Y-34618D02*
G75*
G03X43172Y-34618I-200J0D01*
G74*
G01*
X43172Y-35618D02*
G75*
G03X43172Y-35618I-200J0D01*
G74*
G01*
X43542Y-42204D02*
G75*
G03X43542Y-42204I-200J0D01*
G74*
G01*
X44172Y-34618D02*
G75*
G03X44172Y-34618I-200J0D01*
G74*
G01*
X44172Y-35618D02*
G75*
G03X44172Y-35618I-200J0D01*
G74*
G01*
X44542Y-42204D02*
G75*
G03X44542Y-42204I-200J0D01*
G74*
G01*
X45542Y-42204D02*
G75*
G03X45542Y-42204I-200J0D01*
G74*
G01*
X46542Y-42204D02*
G75*
G03X46542Y-42204I-200J0D01*
G74*
G01*
X47542Y-42204D02*
G75*
G03X47542Y-42204I-200J0D01*
G74*
G01*
X52172Y-34618D02*
G75*
G03X52172Y-34618I-200J0D01*
G74*
G01*
X52172Y-35618D02*
G75*
G03X52172Y-35618I-200J0D01*
G74*
G01*
X53172Y-34618D02*
G75*
G03X53172Y-34618I-200J0D01*
G74*
G01*
X53172Y-35618D02*
G75*
G03X53172Y-35618I-200J0D01*
G74*
G01*
X54172Y-34618D02*
G75*
G03X54172Y-34618I-200J0D01*
G74*
G01*
X54172Y-35618D02*
G75*
G03X54172Y-35618I-200J0D01*
G74*
G01*
X54172Y-43618D02*
G75*
G03X54172Y-43618I-200J0D01*
G74*
G01*
X54172Y-44618D02*
G75*
G03X54172Y-44618I-200J0D01*
G74*
G01*
X55172Y-34618D02*
G75*
G03X55172Y-34618I-200J0D01*
G74*
G01*
X55172Y-35618D02*
G75*
G03X55172Y-35618I-200J0D01*
G74*
G01*
X55172Y-43618D02*
G75*
G03X55172Y-43618I-200J0D01*
G74*
G01*
X55172Y-44618D02*
G75*
G03X55172Y-44618I-200J0D01*
G74*
G01*
X56172Y-34618D02*
G75*
G03X56172Y-34618I-200J0D01*
G74*
G01*
X56172Y-35618D02*
G75*
G03X56172Y-35618I-200J0D01*
G74*
G01*
X56172Y-43618D02*
G75*
G03X56172Y-43618I-200J0D01*
G74*
G01*
X56172Y-44618D02*
G75*
G03X56172Y-44618I-200J0D01*
G74*
G01*
X57172Y-34618D02*
G75*
G03X57172Y-34618I-200J0D01*
G74*
G01*
X57172Y-35618D02*
G75*
G03X57172Y-35618I-200J0D01*
G74*
G01*
X57172Y-43618D02*
G75*
G03X57172Y-43618I-200J0D01*
G74*
G01*
X57172Y-44618D02*
G75*
G03X57172Y-44618I-200J0D01*
G74*
G01*
X58172Y-34618D02*
G75*
G03X58172Y-34618I-200J0D01*
G74*
G01*
X58172Y-35618D02*
G75*
G03X58172Y-35618I-200J0D01*
G74*
G01*
X58172Y-43618D02*
G75*
G03X58172Y-43618I-200J0D01*
G74*
G01*
X58172Y-44618D02*
G75*
G03X58172Y-44618I-200J0D01*
G74*
G01*
X59172Y-34618D02*
G75*
G03X59172Y-34618I-200J0D01*
G74*
G01*
X59172Y-35618D02*
G75*
G03X59172Y-35618I-200J0D01*
G74*
G01*
X59172Y-43618D02*
G75*
G03X59172Y-43618I-200J0D01*
G74*
G01*
X59172Y-44618D02*
G75*
G03X59172Y-44618I-200J0D01*
G74*
G01*
X66715Y-41929D02*
G75*
G03X66715Y-41929I-200J0D01*
G74*
G01*
X66715Y-42929D02*
G75*
G03X66715Y-42929I-200J0D01*
G74*
G01*
X66715Y-43929D02*
G75*
G03X66715Y-43929I-200J0D01*
G74*
G01*
X66715Y-44929D02*
G75*
G03X66715Y-44929I-200J0D01*
G74*
G01*
X66715Y-45929D02*
G75*
G03X66715Y-45929I-200J0D01*
G74*
G01*
X66715Y-46929D02*
G75*
G03X66715Y-46929I-200J0D01*
G74*
G01*
X68172Y-41618D02*
G75*
G03X68172Y-41618I-200J0D01*
G74*
G01*
X68172Y-42618D02*
G75*
G03X68172Y-42618I-200J0D01*
G74*
G01*
X69172Y-41618D02*
G75*
G03X69172Y-41618I-200J0D01*
G74*
G01*
X69172Y-42618D02*
G75*
G03X69172Y-42618I-200J0D01*
G74*
G01*
X70172Y-41618D02*
G75*
G03X70172Y-41618I-200J0D01*
G74*
G01*
X70172Y-42618D02*
G75*
G03X70172Y-42618I-200J0D01*
G74*
G01*
X71172Y-41618D02*
G75*
G03X71172Y-41618I-200J0D01*
G74*
G01*
X71172Y-42618D02*
G75*
G03X71172Y-42618I-200J0D01*
G74*
G01*
X43110Y-46663D02*
X43110Y-47183D01*
X42850Y-46923D02*
X43370Y-46923D01*
X43110Y-48633D02*
X43110Y-49153D01*
X42850Y-48893D02*
X43370Y-48893D01*
X47510Y-50140D02*
X47510Y-50660D01*
X47250Y-50400D02*
X47770Y-50400D01*
X49480Y-50140D02*
X49480Y-50660D01*
X49220Y-50400D02*
X49740Y-50400D01*
X51500Y-50140D02*
X51500Y-50660D01*
X51240Y-50400D02*
X51760Y-50400D01*
X53500Y-50140D02*
X53500Y-50660D01*
X53240Y-50400D02*
X53760Y-50400D01*
X59110Y-50140D02*
X59110Y-50660D01*
X58850Y-50400D02*
X59370Y-50400D01*
X61080Y-50140D02*
X61080Y-50660D01*
X60820Y-50400D02*
X61340Y-50400D01*
X63100Y-50140D02*
X63100Y-50660D01*
X62840Y-50400D02*
X63360Y-50400D01*
X65100Y-50140D02*
X65100Y-50660D01*
X64840Y-50400D02*
X65360Y-50400D01*
X70710Y-50140D02*
X70710Y-50660D01*
X70450Y-50400D02*
X70970Y-50400D01*
X72680Y-50140D02*
X72680Y-50660D01*
X72420Y-50400D02*
X72940Y-50400D01*
X74700Y-50140D02*
X74700Y-50660D01*
X74440Y-50400D02*
X74960Y-50400D01*
X76700Y-50140D02*
X76700Y-50660D01*
X76440Y-50400D02*
X76960Y-50400D01*
G54D13*
X42482Y-53903D02*
X42482Y-52722D01*
X42763Y-52722D01*
X42931Y-52778D01*
X43044Y-52890D01*
X43100Y-53003D01*
X43156Y-53228D01*
X43156Y-53397D01*
X43100Y-53622D01*
X43044Y-53734D01*
X42931Y-53847D01*
X42763Y-53903D01*
X42482Y-53903D01*
X43663Y-53903D02*
X43663Y-53115D01*
X43663Y-53340D02*
X43719Y-53228D01*
X43775Y-53172D01*
X43888Y-53115D01*
X44000Y-53115D01*
X44394Y-53903D02*
X44394Y-53115D01*
X44394Y-52722D02*
X44338Y-52778D01*
X44394Y-52834D01*
X44450Y-52778D01*
X44394Y-52722D01*
X44394Y-52834D01*
X45125Y-53903D02*
X45012Y-53847D01*
X44956Y-53734D01*
X44956Y-52722D01*
X45744Y-53903D02*
X45631Y-53847D01*
X45575Y-53734D01*
X45575Y-52722D01*
X47093Y-53903D02*
X47093Y-52722D01*
X47487Y-53565D01*
X47881Y-52722D01*
X47881Y-53903D01*
X48949Y-53903D02*
X48949Y-53284D01*
X48893Y-53172D01*
X48781Y-53115D01*
X48556Y-53115D01*
X48443Y-53172D01*
X48949Y-53847D02*
X48837Y-53903D01*
X48556Y-53903D01*
X48443Y-53847D01*
X48387Y-53734D01*
X48387Y-53622D01*
X48443Y-53509D01*
X48556Y-53453D01*
X48837Y-53453D01*
X48949Y-53397D01*
X49512Y-53115D02*
X49512Y-54296D01*
X49512Y-53172D02*
X49624Y-53115D01*
X49849Y-53115D01*
X49962Y-53172D01*
X50018Y-53228D01*
X50074Y-53340D01*
X50074Y-53678D01*
X50018Y-53790D01*
X49962Y-53847D01*
X49849Y-53903D01*
X49624Y-53903D01*
X49512Y-53847D01*
X50580Y-53790D02*
X50637Y-53847D01*
X50580Y-53903D01*
X50524Y-53847D01*
X50580Y-53790D01*
X50580Y-53903D01*
X50580Y-53172D02*
X50637Y-53228D01*
X50580Y-53284D01*
X50524Y-53228D01*
X50580Y-53172D01*
X50580Y-53284D01*
X41295Y-55846D02*
X41413Y-55964D01*
X41413Y-55846D02*
X41295Y-55964D01*
X42706Y-55202D02*
X42819Y-55202D01*
X42931Y-55258D01*
X42988Y-55314D01*
X43044Y-55427D01*
X43100Y-55652D01*
X43100Y-55933D01*
X43044Y-56158D01*
X42988Y-56271D01*
X42931Y-56327D01*
X42819Y-56383D01*
X42706Y-56383D01*
X42594Y-56327D01*
X42538Y-56271D01*
X42482Y-56158D01*
X42425Y-55933D01*
X42425Y-55652D01*
X42482Y-55427D01*
X42538Y-55314D01*
X42594Y-55258D01*
X42706Y-55202D01*
X43606Y-56271D02*
X43663Y-56327D01*
X43606Y-56383D01*
X43550Y-56327D01*
X43606Y-56271D01*
X43606Y-56383D01*
X44056Y-55202D02*
X44787Y-55202D01*
X44394Y-55652D01*
X44562Y-55652D01*
X44675Y-55708D01*
X44731Y-55764D01*
X44787Y-55877D01*
X44787Y-56158D01*
X44731Y-56271D01*
X44675Y-56327D01*
X44562Y-56383D01*
X44225Y-56383D01*
X44113Y-56327D01*
X44056Y-56271D01*
X45519Y-55202D02*
X45631Y-55202D01*
X45744Y-55258D01*
X45800Y-55314D01*
X45856Y-55427D01*
X45912Y-55652D01*
X45912Y-55933D01*
X45856Y-56158D01*
X45800Y-56271D01*
X45744Y-56327D01*
X45631Y-56383D01*
X45519Y-56383D01*
X45406Y-56327D01*
X45350Y-56271D01*
X45294Y-56158D01*
X45237Y-55933D01*
X45237Y-55652D01*
X45294Y-55427D01*
X45350Y-55314D01*
X45406Y-55258D01*
X45519Y-55202D01*
X46419Y-56383D02*
X46419Y-55596D01*
X46419Y-55708D02*
X46475Y-55652D01*
X46587Y-55596D01*
X46756Y-55596D01*
X46868Y-55652D01*
X46925Y-55764D01*
X46925Y-56383D01*
X46925Y-55764D02*
X46981Y-55652D01*
X47093Y-55596D01*
X47262Y-55596D01*
X47375Y-55652D01*
X47431Y-55764D01*
X47431Y-56383D01*
X47993Y-56383D02*
X47993Y-55596D01*
X47993Y-55708D02*
X48050Y-55652D01*
X48162Y-55596D01*
X48331Y-55596D01*
X48443Y-55652D01*
X48499Y-55764D01*
X48499Y-56383D01*
X48499Y-55764D02*
X48556Y-55652D01*
X48668Y-55596D01*
X48837Y-55596D01*
X48949Y-55652D01*
X49006Y-55764D01*
X49006Y-56383D01*
X51312Y-55146D02*
X50299Y-56664D01*
X52830Y-55202D02*
X52943Y-55202D01*
X53055Y-55258D01*
X53111Y-55314D01*
X53168Y-55427D01*
X53224Y-55652D01*
X53224Y-55933D01*
X53168Y-56158D01*
X53111Y-56271D01*
X53055Y-56327D01*
X52943Y-56383D01*
X52830Y-56383D01*
X52718Y-56327D01*
X52661Y-56271D01*
X52605Y-56158D01*
X52549Y-55933D01*
X52549Y-55652D01*
X52605Y-55427D01*
X52661Y-55314D01*
X52718Y-55258D01*
X52830Y-55202D01*
X53730Y-56271D02*
X53786Y-56327D01*
X53730Y-56383D01*
X53674Y-56327D01*
X53730Y-56271D01*
X53730Y-56383D01*
X54517Y-55202D02*
X54630Y-55202D01*
X54742Y-55258D01*
X54799Y-55314D01*
X54855Y-55427D01*
X54911Y-55652D01*
X54911Y-55933D01*
X54855Y-56158D01*
X54799Y-56271D01*
X54742Y-56327D01*
X54630Y-56383D01*
X54517Y-56383D01*
X54405Y-56327D01*
X54349Y-56271D01*
X54293Y-56158D01*
X54236Y-55933D01*
X54236Y-55652D01*
X54293Y-55427D01*
X54349Y-55314D01*
X54405Y-55258D01*
X54517Y-55202D01*
X56036Y-56383D02*
X55361Y-56383D01*
X55699Y-56383D02*
X55699Y-55202D01*
X55586Y-55371D01*
X55474Y-55483D01*
X55361Y-55539D01*
X56486Y-55314D02*
X56542Y-55258D01*
X56655Y-55202D01*
X56936Y-55202D01*
X57048Y-55258D01*
X57105Y-55314D01*
X57161Y-55427D01*
X57161Y-55539D01*
X57105Y-55708D01*
X56430Y-56383D01*
X57161Y-56383D01*
X57611Y-55202D02*
X57611Y-55427D01*
X58061Y-55202D02*
X58061Y-55427D01*
X59804Y-56833D02*
X59748Y-56777D01*
X59636Y-56608D01*
X59579Y-56496D01*
X59523Y-56327D01*
X59467Y-56046D01*
X59467Y-55821D01*
X59523Y-55539D01*
X59579Y-55371D01*
X59636Y-55258D01*
X59748Y-55089D01*
X59804Y-55033D01*
X60142Y-55202D02*
X60873Y-55202D01*
X60479Y-55652D01*
X60648Y-55652D01*
X60760Y-55708D01*
X60817Y-55764D01*
X60873Y-55877D01*
X60873Y-56158D01*
X60817Y-56271D01*
X60760Y-56327D01*
X60648Y-56383D01*
X60311Y-56383D01*
X60198Y-56327D01*
X60142Y-56271D01*
X61267Y-55202D02*
X61998Y-55202D01*
X61604Y-55652D01*
X61773Y-55652D01*
X61885Y-55708D01*
X61942Y-55764D01*
X61998Y-55877D01*
X61998Y-56158D01*
X61942Y-56271D01*
X61885Y-56327D01*
X61773Y-56383D01*
X61435Y-56383D01*
X61323Y-56327D01*
X61267Y-56271D01*
X63123Y-56383D02*
X62448Y-56383D01*
X62785Y-56383D02*
X62785Y-55202D01*
X62673Y-55371D01*
X62560Y-55483D01*
X62448Y-55539D01*
X64529Y-56383D02*
X64529Y-55202D01*
X65035Y-56383D02*
X65035Y-55764D01*
X64979Y-55652D01*
X64866Y-55596D01*
X64697Y-55596D01*
X64585Y-55652D01*
X64529Y-55708D01*
X65766Y-56383D02*
X65654Y-56327D01*
X65597Y-56271D01*
X65541Y-56158D01*
X65541Y-55821D01*
X65597Y-55708D01*
X65654Y-55652D01*
X65766Y-55596D01*
X65935Y-55596D01*
X66047Y-55652D01*
X66104Y-55708D01*
X66160Y-55821D01*
X66160Y-56158D01*
X66104Y-56271D01*
X66047Y-56327D01*
X65935Y-56383D01*
X65766Y-56383D01*
X66835Y-56383D02*
X66722Y-56327D01*
X66666Y-56214D01*
X66666Y-55202D01*
X67735Y-56327D02*
X67622Y-56383D01*
X67397Y-56383D01*
X67285Y-56327D01*
X67228Y-56214D01*
X67228Y-55764D01*
X67285Y-55652D01*
X67397Y-55596D01*
X67622Y-55596D01*
X67735Y-55652D01*
X67791Y-55764D01*
X67791Y-55877D01*
X67228Y-55989D01*
X68241Y-56327D02*
X68353Y-56383D01*
X68578Y-56383D01*
X68691Y-56327D01*
X68747Y-56214D01*
X68747Y-56158D01*
X68691Y-56046D01*
X68578Y-55989D01*
X68410Y-55989D01*
X68297Y-55933D01*
X68241Y-55821D01*
X68241Y-55764D01*
X68297Y-55652D01*
X68410Y-55596D01*
X68578Y-55596D01*
X68691Y-55652D01*
X69141Y-56833D02*
X69197Y-56777D01*
X69309Y-56608D01*
X69366Y-56496D01*
X69422Y-56327D01*
X69478Y-56046D01*
X69478Y-55821D01*
X69422Y-55539D01*
X69366Y-55371D01*
X69309Y-55258D01*
X69197Y-55089D01*
X69141Y-55033D01*
G54D12*
X41413Y-57464D02*
G75*
G03X41413Y-57464I-200J0D01*
G74*
G01*
G54D13*
X43100Y-57942D02*
X42425Y-57942D01*
X42763Y-57942D02*
X42763Y-56761D01*
X42650Y-56930D01*
X42538Y-57042D01*
X42425Y-57098D01*
X43606Y-57830D02*
X43663Y-57886D01*
X43606Y-57942D01*
X43550Y-57886D01*
X43606Y-57830D01*
X43606Y-57942D01*
X44394Y-56761D02*
X44506Y-56761D01*
X44619Y-56817D01*
X44675Y-56874D01*
X44731Y-56986D01*
X44787Y-57211D01*
X44787Y-57492D01*
X44731Y-57717D01*
X44675Y-57830D01*
X44619Y-57886D01*
X44506Y-57942D01*
X44394Y-57942D01*
X44281Y-57886D01*
X44225Y-57830D01*
X44169Y-57717D01*
X44113Y-57492D01*
X44113Y-57211D01*
X44169Y-56986D01*
X44225Y-56874D01*
X44281Y-56817D01*
X44394Y-56761D01*
X45237Y-56874D02*
X45294Y-56817D01*
X45406Y-56761D01*
X45687Y-56761D01*
X45800Y-56817D01*
X45856Y-56874D01*
X45912Y-56986D01*
X45912Y-57098D01*
X45856Y-57267D01*
X45181Y-57942D01*
X45912Y-57942D01*
X46419Y-57942D02*
X46419Y-57155D01*
X46419Y-57267D02*
X46475Y-57211D01*
X46587Y-57155D01*
X46756Y-57155D01*
X46868Y-57211D01*
X46925Y-57323D01*
X46925Y-57942D01*
X46925Y-57323D02*
X46981Y-57211D01*
X47093Y-57155D01*
X47262Y-57155D01*
X47375Y-57211D01*
X47431Y-57323D01*
X47431Y-57942D01*
X47993Y-57942D02*
X47993Y-57155D01*
X47993Y-57267D02*
X48050Y-57211D01*
X48162Y-57155D01*
X48331Y-57155D01*
X48443Y-57211D01*
X48499Y-57323D01*
X48499Y-57942D01*
X48499Y-57323D02*
X48556Y-57211D01*
X48668Y-57155D01*
X48837Y-57155D01*
X48949Y-57211D01*
X49006Y-57323D01*
X49006Y-57942D01*
X51312Y-56705D02*
X50299Y-58223D01*
X52830Y-56761D02*
X52943Y-56761D01*
X53055Y-56817D01*
X53111Y-56874D01*
X53168Y-56986D01*
X53224Y-57211D01*
X53224Y-57492D01*
X53168Y-57717D01*
X53111Y-57830D01*
X53055Y-57886D01*
X52943Y-57942D01*
X52830Y-57942D01*
X52718Y-57886D01*
X52661Y-57830D01*
X52605Y-57717D01*
X52549Y-57492D01*
X52549Y-57211D01*
X52605Y-56986D01*
X52661Y-56874D01*
X52718Y-56817D01*
X52830Y-56761D01*
X53730Y-57830D02*
X53786Y-57886D01*
X53730Y-57942D01*
X53674Y-57886D01*
X53730Y-57830D01*
X53730Y-57942D01*
X54517Y-56761D02*
X54630Y-56761D01*
X54742Y-56817D01*
X54799Y-56874D01*
X54855Y-56986D01*
X54911Y-57211D01*
X54911Y-57492D01*
X54855Y-57717D01*
X54799Y-57830D01*
X54742Y-57886D01*
X54630Y-57942D01*
X54517Y-57942D01*
X54405Y-57886D01*
X54349Y-57830D01*
X54293Y-57717D01*
X54236Y-57492D01*
X54236Y-57211D01*
X54293Y-56986D01*
X54349Y-56874D01*
X54405Y-56817D01*
X54517Y-56761D01*
X55924Y-57155D02*
X55924Y-57942D01*
X55642Y-56705D02*
X55361Y-57548D01*
X56092Y-57548D01*
X56767Y-56761D02*
X56880Y-56761D01*
X56992Y-56817D01*
X57048Y-56874D01*
X57105Y-56986D01*
X57161Y-57211D01*
X57161Y-57492D01*
X57105Y-57717D01*
X57048Y-57830D01*
X56992Y-57886D01*
X56880Y-57942D01*
X56767Y-57942D01*
X56655Y-57886D01*
X56598Y-57830D01*
X56542Y-57717D01*
X56486Y-57492D01*
X56486Y-57211D01*
X56542Y-56986D01*
X56598Y-56874D01*
X56655Y-56817D01*
X56767Y-56761D01*
X57611Y-56761D02*
X57611Y-56986D01*
X58061Y-56761D02*
X58061Y-56986D01*
X59804Y-58392D02*
X59748Y-58336D01*
X59636Y-58167D01*
X59579Y-58055D01*
X59523Y-57886D01*
X59467Y-57605D01*
X59467Y-57380D01*
X59523Y-57098D01*
X59579Y-56930D01*
X59636Y-56817D01*
X59748Y-56649D01*
X59804Y-56592D01*
X60817Y-56761D02*
X60254Y-56761D01*
X60198Y-57323D01*
X60254Y-57267D01*
X60367Y-57211D01*
X60648Y-57211D01*
X60760Y-57267D01*
X60817Y-57323D01*
X60873Y-57436D01*
X60873Y-57717D01*
X60817Y-57830D01*
X60760Y-57886D01*
X60648Y-57942D01*
X60367Y-57942D01*
X60254Y-57886D01*
X60198Y-57830D01*
X61323Y-56874D02*
X61379Y-56817D01*
X61492Y-56761D01*
X61773Y-56761D01*
X61885Y-56817D01*
X61942Y-56874D01*
X61998Y-56986D01*
X61998Y-57098D01*
X61942Y-57267D01*
X61267Y-57942D01*
X61998Y-57942D01*
X63404Y-57942D02*
X63404Y-56761D01*
X63910Y-57942D02*
X63910Y-57323D01*
X63854Y-57211D01*
X63741Y-57155D01*
X63573Y-57155D01*
X63460Y-57211D01*
X63404Y-57267D01*
X64641Y-57942D02*
X64529Y-57886D01*
X64473Y-57830D01*
X64416Y-57717D01*
X64416Y-57380D01*
X64473Y-57267D01*
X64529Y-57211D01*
X64641Y-57155D01*
X64810Y-57155D01*
X64922Y-57211D01*
X64979Y-57267D01*
X65035Y-57380D01*
X65035Y-57717D01*
X64979Y-57830D01*
X64922Y-57886D01*
X64810Y-57942D01*
X64641Y-57942D01*
X65710Y-57942D02*
X65597Y-57886D01*
X65541Y-57773D01*
X65541Y-56761D01*
X66610Y-57886D02*
X66497Y-57942D01*
X66272Y-57942D01*
X66160Y-57886D01*
X66104Y-57773D01*
X66104Y-57323D01*
X66160Y-57211D01*
X66272Y-57155D01*
X66497Y-57155D01*
X66610Y-57211D01*
X66666Y-57323D01*
X66666Y-57436D01*
X66104Y-57548D01*
X67116Y-57886D02*
X67228Y-57942D01*
X67453Y-57942D01*
X67566Y-57886D01*
X67622Y-57773D01*
X67622Y-57717D01*
X67566Y-57605D01*
X67453Y-57548D01*
X67285Y-57548D01*
X67172Y-57492D01*
X67116Y-57380D01*
X67116Y-57323D01*
X67172Y-57211D01*
X67285Y-57155D01*
X67453Y-57155D01*
X67566Y-57211D01*
X68016Y-58392D02*
X68072Y-58336D01*
X68185Y-58167D01*
X68241Y-58055D01*
X68297Y-57886D01*
X68353Y-57605D01*
X68353Y-57380D01*
X68297Y-57098D01*
X68241Y-56930D01*
X68185Y-56817D01*
X68072Y-56649D01*
X68016Y-56592D01*
X41153Y-58763D02*
X41153Y-59283D01*
X40893Y-59023D02*
X41413Y-59023D01*
X43100Y-59501D02*
X42425Y-59501D01*
X42763Y-59501D02*
X42763Y-58320D01*
X42650Y-58489D01*
X42538Y-58601D01*
X42425Y-58658D01*
X43606Y-59389D02*
X43663Y-59445D01*
X43606Y-59501D01*
X43550Y-59445D01*
X43606Y-59389D01*
X43606Y-59501D01*
X44056Y-58320D02*
X44787Y-58320D01*
X44394Y-58770D01*
X44562Y-58770D01*
X44675Y-58826D01*
X44731Y-58883D01*
X44787Y-58995D01*
X44787Y-59276D01*
X44731Y-59389D01*
X44675Y-59445D01*
X44562Y-59501D01*
X44225Y-59501D01*
X44113Y-59445D01*
X44056Y-59389D01*
X45237Y-58433D02*
X45294Y-58376D01*
X45406Y-58320D01*
X45687Y-58320D01*
X45800Y-58376D01*
X45856Y-58433D01*
X45912Y-58545D01*
X45912Y-58658D01*
X45856Y-58826D01*
X45181Y-59501D01*
X45912Y-59501D01*
X46419Y-59501D02*
X46419Y-58714D01*
X46419Y-58826D02*
X46475Y-58770D01*
X46587Y-58714D01*
X46756Y-58714D01*
X46868Y-58770D01*
X46925Y-58883D01*
X46925Y-59501D01*
X46925Y-58883D02*
X46981Y-58770D01*
X47093Y-58714D01*
X47262Y-58714D01*
X47375Y-58770D01*
X47431Y-58883D01*
X47431Y-59501D01*
X47993Y-59501D02*
X47993Y-58714D01*
X47993Y-58826D02*
X48050Y-58770D01*
X48162Y-58714D01*
X48331Y-58714D01*
X48443Y-58770D01*
X48499Y-58883D01*
X48499Y-59501D01*
X48499Y-58883D02*
X48556Y-58770D01*
X48668Y-58714D01*
X48837Y-58714D01*
X48949Y-58770D01*
X49006Y-58883D01*
X49006Y-59501D01*
X51312Y-58264D02*
X50299Y-59782D01*
X52830Y-58320D02*
X52943Y-58320D01*
X53055Y-58376D01*
X53111Y-58433D01*
X53168Y-58545D01*
X53224Y-58770D01*
X53224Y-59051D01*
X53168Y-59276D01*
X53111Y-59389D01*
X53055Y-59445D01*
X52943Y-59501D01*
X52830Y-59501D01*
X52718Y-59445D01*
X52661Y-59389D01*
X52605Y-59276D01*
X52549Y-59051D01*
X52549Y-58770D01*
X52605Y-58545D01*
X52661Y-58433D01*
X52718Y-58376D01*
X52830Y-58320D01*
X53730Y-59389D02*
X53786Y-59445D01*
X53730Y-59501D01*
X53674Y-59445D01*
X53730Y-59389D01*
X53730Y-59501D01*
X54517Y-58320D02*
X54630Y-58320D01*
X54742Y-58376D01*
X54799Y-58433D01*
X54855Y-58545D01*
X54911Y-58770D01*
X54911Y-59051D01*
X54855Y-59276D01*
X54799Y-59389D01*
X54742Y-59445D01*
X54630Y-59501D01*
X54517Y-59501D01*
X54405Y-59445D01*
X54349Y-59389D01*
X54293Y-59276D01*
X54236Y-59051D01*
X54236Y-58770D01*
X54293Y-58545D01*
X54349Y-58433D01*
X54405Y-58376D01*
X54517Y-58320D01*
X55980Y-58320D02*
X55417Y-58320D01*
X55361Y-58883D01*
X55417Y-58826D01*
X55530Y-58770D01*
X55811Y-58770D01*
X55924Y-58826D01*
X55980Y-58883D01*
X56036Y-58995D01*
X56036Y-59276D01*
X55980Y-59389D01*
X55924Y-59445D01*
X55811Y-59501D01*
X55530Y-59501D01*
X55417Y-59445D01*
X55361Y-59389D01*
X56486Y-58433D02*
X56542Y-58376D01*
X56655Y-58320D01*
X56936Y-58320D01*
X57048Y-58376D01*
X57105Y-58433D01*
X57161Y-58545D01*
X57161Y-58658D01*
X57105Y-58826D01*
X56430Y-59501D01*
X57161Y-59501D01*
X57611Y-58320D02*
X57611Y-58545D01*
X58061Y-58320D02*
X58061Y-58545D01*
X59804Y-59951D02*
X59748Y-59895D01*
X59636Y-59726D01*
X59579Y-59614D01*
X59523Y-59445D01*
X59467Y-59164D01*
X59467Y-58939D01*
X59523Y-58658D01*
X59579Y-58489D01*
X59636Y-58376D01*
X59748Y-58208D01*
X59804Y-58151D01*
X60873Y-59501D02*
X60198Y-59501D01*
X60535Y-59501D02*
X60535Y-58320D01*
X60423Y-58489D01*
X60311Y-58601D01*
X60198Y-58658D01*
X61885Y-58714D02*
X61885Y-59501D01*
X61604Y-58264D02*
X61323Y-59107D01*
X62054Y-59107D01*
X63404Y-59501D02*
X63404Y-58320D01*
X63910Y-59501D02*
X63910Y-58883D01*
X63854Y-58770D01*
X63741Y-58714D01*
X63573Y-58714D01*
X63460Y-58770D01*
X63404Y-58826D01*
X64641Y-59501D02*
X64529Y-59445D01*
X64473Y-59389D01*
X64416Y-59276D01*
X64416Y-58939D01*
X64473Y-58826D01*
X64529Y-58770D01*
X64641Y-58714D01*
X64810Y-58714D01*
X64922Y-58770D01*
X64979Y-58826D01*
X65035Y-58939D01*
X65035Y-59276D01*
X64979Y-59389D01*
X64922Y-59445D01*
X64810Y-59501D01*
X64641Y-59501D01*
X65710Y-59501D02*
X65597Y-59445D01*
X65541Y-59332D01*
X65541Y-58320D01*
X66610Y-59445D02*
X66497Y-59501D01*
X66272Y-59501D01*
X66160Y-59445D01*
X66104Y-59332D01*
X66104Y-58883D01*
X66160Y-58770D01*
X66272Y-58714D01*
X66497Y-58714D01*
X66610Y-58770D01*
X66666Y-58883D01*
X66666Y-58995D01*
X66104Y-59107D01*
X67116Y-59445D02*
X67228Y-59501D01*
X67453Y-59501D01*
X67566Y-59445D01*
X67622Y-59332D01*
X67622Y-59276D01*
X67566Y-59164D01*
X67453Y-59107D01*
X67285Y-59107D01*
X67172Y-59051D01*
X67116Y-58939D01*
X67116Y-58883D01*
X67172Y-58770D01*
X67285Y-58714D01*
X67453Y-58714D01*
X67566Y-58770D01*
X68016Y-59951D02*
X68072Y-59895D01*
X68185Y-59726D01*
X68241Y-59614D01*
X68297Y-59445D01*
X68353Y-59164D01*
X68353Y-58939D01*
X68297Y-58658D01*
X68241Y-58489D01*
X68185Y-58376D01*
X68072Y-58208D01*
X68016Y-58151D01*
M02*
