G04 (created by PCBNEW (2013-07-07 BZR 4022)-stable) date 01/02/2015 03:27:20*
%MOIN*%
G04 Gerber Fmt 3.4, Leading zero omitted, Abs format*
%FSLAX34Y34*%
G01*
G70*
G90*
G04 APERTURE LIST*
%ADD10C,0.00590551*%
%ADD11R,0.01X0.04*%
%ADD12R,0.04X0.01*%
%ADD13R,0.06X0.0098*%
%ADD14O,0.06X0.0098*%
%ADD15O,0.0098X0.06*%
%ADD16R,0.0118X0.063*%
%ADD17R,0.2039X0.122*%
%ADD18R,0.035X0.055*%
%ADD19R,0.0886X0.0197*%
%ADD20R,0.1378X0.0807*%
%ADD21R,0.1575X0.0807*%
%ADD22O,0.156X0.078*%
%ADD23R,0.0472X0.0472*%
%ADD24R,0.025X0.045*%
%ADD25R,0.08X0.06*%
%ADD26R,0.0669291X0.0866142*%
%ADD27R,0.045X0.025*%
%ADD28R,0.11X0.07*%
%ADD29R,0.055X0.035*%
%ADD30R,0.03X0.02*%
%ADD31R,0.1X0.05*%
%ADD32R,0.0787402X0.0472441*%
%ADD33R,0.0236X0.0551*%
%ADD34R,0.1575X0.1102*%
%ADD35O,0.078X0.156*%
%ADD36R,0.06X0.06*%
%ADD37C,0.06*%
%ADD38C,0.024*%
%ADD39C,0.02*%
%ADD40C,0.00787402*%
%ADD41C,0.006*%
%ADD42C,0.011811*%
G04 APERTURE END LIST*
G54D10*
G54D11*
X65253Y-41435D03*
X60533Y-41435D03*
X60733Y-41435D03*
X60923Y-41435D03*
X61123Y-41435D03*
X61323Y-41435D03*
X61513Y-41435D03*
X61713Y-41435D03*
X61913Y-41435D03*
X62103Y-41435D03*
X62303Y-41435D03*
X62503Y-41435D03*
X62703Y-41435D03*
X62893Y-41435D03*
X63093Y-41435D03*
X63293Y-41435D03*
X63483Y-41435D03*
X63683Y-41435D03*
X63883Y-41435D03*
X64073Y-41435D03*
X64273Y-41435D03*
X64473Y-41435D03*
X64663Y-41435D03*
X64863Y-41435D03*
X65063Y-41435D03*
G54D12*
X59843Y-40745D03*
X59843Y-36025D03*
X59843Y-36225D03*
X59843Y-36415D03*
X59843Y-36615D03*
X59843Y-36815D03*
X59843Y-37005D03*
X59843Y-37205D03*
X59843Y-37405D03*
X59843Y-37595D03*
X59843Y-37795D03*
X59843Y-37995D03*
X59843Y-38195D03*
X59843Y-38385D03*
X59843Y-38585D03*
X59843Y-38785D03*
X59843Y-38975D03*
X59843Y-39175D03*
X59843Y-39375D03*
X59843Y-39565D03*
X59843Y-39765D03*
X59843Y-39965D03*
X59843Y-40155D03*
X59843Y-40355D03*
X59843Y-40555D03*
X65943Y-40745D03*
X65943Y-40545D03*
X65943Y-40355D03*
X65943Y-40155D03*
X65943Y-39955D03*
X65943Y-39765D03*
X65943Y-39565D03*
X65943Y-39365D03*
X65943Y-39175D03*
X65943Y-38975D03*
X65943Y-38775D03*
X65943Y-38575D03*
X65943Y-38385D03*
X65943Y-38185D03*
X65943Y-37985D03*
X65943Y-37795D03*
X65943Y-37595D03*
X65943Y-37395D03*
X65943Y-37205D03*
X65943Y-37005D03*
X65943Y-36805D03*
X65943Y-36615D03*
X65943Y-36415D03*
X65943Y-36215D03*
X65943Y-36025D03*
G54D11*
X65253Y-35335D03*
X65053Y-35335D03*
X64863Y-35335D03*
X64663Y-35335D03*
X64463Y-35335D03*
X64273Y-35335D03*
X64073Y-35335D03*
X63873Y-35335D03*
X63683Y-35335D03*
X63483Y-35335D03*
X63283Y-35335D03*
X63083Y-35335D03*
X62893Y-35335D03*
X62693Y-35335D03*
X62493Y-35335D03*
X62303Y-35335D03*
X62103Y-35335D03*
X61903Y-35335D03*
X61713Y-35335D03*
X61513Y-35335D03*
X61313Y-35335D03*
X61123Y-35335D03*
X60923Y-35335D03*
X60723Y-35335D03*
X60533Y-35335D03*
G54D13*
X51622Y-39664D03*
G54D14*
X51622Y-39467D03*
X51622Y-39270D03*
X51622Y-39073D03*
X51622Y-38876D03*
X51622Y-38680D03*
X51622Y-38483D03*
X51622Y-38286D03*
X51622Y-38089D03*
X51622Y-37892D03*
X51622Y-37695D03*
X51622Y-37499D03*
X51622Y-37302D03*
X51622Y-37105D03*
X51622Y-36908D03*
X51622Y-36711D03*
G54D15*
X50787Y-35813D03*
X50590Y-35813D03*
X50393Y-35813D03*
X50196Y-35813D03*
X49999Y-35813D03*
X49803Y-35813D03*
X49606Y-35813D03*
X49409Y-35813D03*
X49212Y-35813D03*
X49015Y-35813D03*
X48818Y-35813D03*
X48622Y-35813D03*
X48425Y-35813D03*
X48228Y-35813D03*
X48031Y-35813D03*
X47834Y-35813D03*
G54D14*
X46936Y-36711D03*
X46936Y-36908D03*
X46936Y-37105D03*
X46936Y-37302D03*
X46936Y-37499D03*
X46936Y-37695D03*
X46936Y-37892D03*
X46936Y-38089D03*
X46936Y-38286D03*
X46936Y-38483D03*
X46936Y-38680D03*
X46936Y-38876D03*
X46936Y-39073D03*
X46936Y-39270D03*
X46936Y-39467D03*
X46936Y-39664D03*
G54D15*
X47834Y-40499D03*
X48031Y-40499D03*
X48425Y-40499D03*
X48228Y-40506D03*
X48622Y-40499D03*
X48818Y-40499D03*
X49015Y-40499D03*
X49212Y-40499D03*
X49409Y-40499D03*
X49606Y-40499D03*
X49800Y-40499D03*
X49997Y-40499D03*
X50194Y-40499D03*
X50391Y-40499D03*
X50587Y-40499D03*
X50784Y-40499D03*
G54D16*
X52155Y-43287D03*
X51899Y-43287D03*
X51644Y-43287D03*
X51388Y-43287D03*
X51132Y-43287D03*
X50876Y-43287D03*
X50620Y-43287D03*
X50364Y-43287D03*
X50108Y-43287D03*
X49852Y-43287D03*
X49596Y-43287D03*
X49340Y-43287D03*
X49085Y-43287D03*
X48829Y-43287D03*
G54D17*
X50492Y-44389D03*
G54D16*
X48829Y-45491D03*
X49085Y-45491D03*
X49340Y-45491D03*
X49596Y-45491D03*
X49852Y-45491D03*
X50108Y-45491D03*
X50364Y-45491D03*
X50620Y-45491D03*
X50876Y-45491D03*
X51132Y-45491D03*
X51388Y-45491D03*
X51644Y-45491D03*
X51899Y-45491D03*
X52155Y-45491D03*
X63769Y-43287D03*
X63513Y-43287D03*
X63258Y-43287D03*
X63002Y-43287D03*
X62746Y-43287D03*
X62490Y-43287D03*
X62234Y-43287D03*
X61978Y-43287D03*
X61722Y-43287D03*
X61466Y-43287D03*
X61210Y-43287D03*
X60954Y-43287D03*
X60699Y-43287D03*
X60443Y-43287D03*
G54D17*
X62106Y-44389D03*
G54D16*
X60443Y-45491D03*
X60699Y-45491D03*
X60954Y-45491D03*
X61210Y-45491D03*
X61466Y-45491D03*
X61722Y-45491D03*
X61978Y-45491D03*
X62234Y-45491D03*
X62490Y-45491D03*
X62746Y-45491D03*
X63002Y-45491D03*
X63258Y-45491D03*
X63513Y-45491D03*
X63769Y-45491D03*
X75383Y-43287D03*
X75127Y-43287D03*
X74872Y-43287D03*
X74616Y-43287D03*
X74360Y-43287D03*
X74104Y-43287D03*
X73848Y-43287D03*
X73592Y-43287D03*
X73336Y-43287D03*
X73080Y-43287D03*
X72824Y-43287D03*
X72568Y-43287D03*
X72313Y-43287D03*
X72057Y-43287D03*
G54D17*
X73720Y-44389D03*
G54D16*
X72057Y-45491D03*
X72313Y-45491D03*
X72568Y-45491D03*
X72824Y-45491D03*
X73080Y-45491D03*
X73336Y-45491D03*
X73592Y-45491D03*
X73848Y-45491D03*
X74104Y-45491D03*
X74360Y-45491D03*
X74616Y-45491D03*
X74872Y-45491D03*
X75127Y-45491D03*
X75383Y-45491D03*
G54D18*
X63483Y-47559D03*
X64233Y-47559D03*
X51869Y-46811D03*
X52619Y-46811D03*
X51869Y-47559D03*
X52619Y-47559D03*
X49115Y-48346D03*
X48365Y-48346D03*
X75136Y-46811D03*
X75886Y-46811D03*
X75136Y-47559D03*
X75886Y-47559D03*
X72343Y-48385D03*
X71593Y-48385D03*
X63483Y-46811D03*
X64233Y-46811D03*
X60729Y-48385D03*
X59979Y-48385D03*
G54D19*
X44094Y-38346D03*
X44094Y-38661D03*
X44094Y-38976D03*
X44094Y-39291D03*
X44094Y-39606D03*
G54D20*
X44094Y-37037D03*
X44094Y-40915D03*
G54D21*
X42440Y-37037D03*
X42440Y-40915D03*
G54D22*
X43110Y-46923D03*
X43110Y-48893D03*
G54D23*
X42972Y-44606D03*
X42146Y-44606D03*
X42972Y-43622D03*
X42146Y-43622D03*
G54D24*
X45772Y-38582D03*
X45172Y-38582D03*
X45172Y-39173D03*
X45772Y-39173D03*
G54D25*
X50984Y-47027D03*
X50984Y-48327D03*
X50000Y-47027D03*
X50000Y-48327D03*
X62598Y-47027D03*
X62598Y-48327D03*
X61614Y-47027D03*
X61614Y-48327D03*
X74212Y-47027D03*
X74212Y-48327D03*
X73228Y-47027D03*
X73228Y-48327D03*
G54D24*
X43637Y-44606D03*
X44237Y-44606D03*
X43637Y-43622D03*
X44237Y-43622D03*
G54D26*
X75610Y-35925D03*
X73208Y-35925D03*
G54D27*
X74555Y-40603D03*
X74555Y-40003D03*
X73964Y-40012D03*
X73964Y-39412D03*
G54D24*
X47849Y-46181D03*
X48449Y-46181D03*
X59463Y-46181D03*
X60063Y-46181D03*
X71077Y-46181D03*
X71677Y-46181D03*
G54D28*
X68641Y-39499D03*
X68641Y-38099D03*
G54D29*
X71338Y-39548D03*
X71338Y-38798D03*
G54D18*
X69585Y-37401D03*
X70335Y-37401D03*
G54D29*
X67559Y-38286D03*
X67559Y-39036D03*
G54D24*
X69522Y-38090D03*
X70122Y-38090D03*
X70507Y-38090D03*
X71107Y-38090D03*
G54D30*
X69677Y-38817D03*
X69677Y-39567D03*
X70677Y-38817D03*
X69677Y-39192D03*
X70677Y-39567D03*
G54D31*
X77637Y-48316D03*
X77637Y-47116D03*
X77677Y-41525D03*
X77677Y-42725D03*
G54D27*
X75696Y-40633D03*
X75696Y-41233D03*
G54D24*
X75170Y-41248D03*
X74570Y-41248D03*
G54D29*
X72342Y-36731D03*
X72342Y-37481D03*
X72322Y-35335D03*
X72322Y-34585D03*
X71614Y-36711D03*
X71614Y-37461D03*
G54D24*
X76262Y-41366D03*
X76862Y-41366D03*
X76862Y-40775D03*
X76262Y-40775D03*
X77129Y-40027D03*
X77729Y-40027D03*
G54D27*
X76692Y-37347D03*
X76692Y-36747D03*
G54D24*
X49197Y-47125D03*
X48597Y-47125D03*
X48597Y-47716D03*
X49197Y-47716D03*
G54D27*
X52874Y-43282D03*
X52874Y-43882D03*
G54D24*
X60811Y-47125D03*
X60211Y-47125D03*
X60211Y-47716D03*
X60811Y-47716D03*
X71825Y-47716D03*
X72425Y-47716D03*
G54D27*
X64488Y-43322D03*
X64488Y-43922D03*
G54D24*
X75959Y-43267D03*
X76559Y-43267D03*
X72425Y-47125D03*
X71825Y-47125D03*
G54D32*
X52716Y-39114D03*
X54173Y-39114D03*
X54173Y-38248D03*
X52716Y-38248D03*
G54D24*
X52810Y-39763D03*
X53410Y-39763D03*
X54896Y-38228D03*
X55496Y-38228D03*
G54D33*
X76683Y-40014D03*
X76683Y-37914D03*
X76183Y-40014D03*
X75683Y-40014D03*
X75183Y-40014D03*
X76183Y-37914D03*
X75683Y-37914D03*
X75183Y-37914D03*
G54D34*
X75933Y-38964D03*
G54D27*
X50157Y-41865D03*
X50157Y-42465D03*
X49566Y-42347D03*
X49566Y-41747D03*
X46800Y-40100D03*
X46800Y-40700D03*
G54D24*
X47850Y-34800D03*
X48450Y-34800D03*
X49591Y-34803D03*
X48991Y-34803D03*
X52800Y-37300D03*
X53400Y-37300D03*
X65800Y-34600D03*
X66400Y-34600D03*
X50850Y-41200D03*
X51450Y-41200D03*
X64463Y-42244D03*
X65063Y-42244D03*
X65802Y-35236D03*
X66402Y-35236D03*
X58961Y-36811D03*
X58361Y-36811D03*
X67022Y-36712D03*
X67622Y-36712D03*
G54D27*
X68897Y-37209D03*
X68897Y-36609D03*
G54D35*
X47510Y-50400D03*
X49480Y-50400D03*
X51500Y-50400D03*
X53500Y-50400D03*
X59110Y-50400D03*
X61080Y-50400D03*
X63100Y-50400D03*
X65100Y-50400D03*
X70710Y-50400D03*
X72680Y-50400D03*
X74700Y-50400D03*
X76700Y-50400D03*
G54D36*
X51972Y-35618D03*
G54D37*
X51972Y-34618D03*
X52972Y-35618D03*
X52972Y-34618D03*
X53972Y-35618D03*
X53972Y-34618D03*
X54972Y-35618D03*
X54972Y-34618D03*
X55972Y-35618D03*
X55972Y-34618D03*
X56972Y-35618D03*
X56972Y-34618D03*
X57972Y-35618D03*
X57972Y-34618D03*
X58972Y-35618D03*
X58972Y-34618D03*
G54D36*
X43972Y-35618D03*
G54D37*
X42972Y-35618D03*
X43972Y-34618D03*
X42972Y-34618D03*
G54D36*
X47342Y-42204D03*
G54D37*
X46342Y-42204D03*
X45342Y-42204D03*
X44342Y-42204D03*
X43342Y-42204D03*
X42342Y-42204D03*
G54D36*
X66515Y-41929D03*
G54D37*
X66515Y-42929D03*
X66515Y-43929D03*
X66515Y-44929D03*
X66515Y-45929D03*
X66515Y-46929D03*
G54D36*
X53972Y-44618D03*
G54D37*
X53972Y-43618D03*
X54972Y-44618D03*
X54972Y-43618D03*
X55972Y-44618D03*
X55972Y-43618D03*
X56972Y-44618D03*
X56972Y-43618D03*
X57972Y-44618D03*
X57972Y-43618D03*
X58972Y-44618D03*
X58972Y-43618D03*
G54D36*
X67972Y-42618D03*
G54D37*
X67972Y-41618D03*
X68972Y-42618D03*
X68972Y-41618D03*
X69972Y-42618D03*
X69972Y-41618D03*
X70972Y-42618D03*
X70972Y-41618D03*
G54D38*
X62100Y-44400D03*
X62600Y-44400D03*
X63100Y-44400D03*
X62600Y-44000D03*
X62100Y-44000D03*
X62100Y-44800D03*
X62600Y-44800D03*
X63100Y-44800D03*
X63100Y-44000D03*
X61600Y-44000D03*
X61600Y-44400D03*
X61600Y-44800D03*
X61100Y-44000D03*
X61100Y-44400D03*
X61100Y-44800D03*
X50500Y-44400D03*
X51000Y-44400D03*
X51500Y-44400D03*
X51500Y-44000D03*
X51000Y-44000D03*
X50500Y-44000D03*
X50000Y-44000D03*
X49500Y-44000D03*
X49500Y-44400D03*
X50000Y-44400D03*
X50500Y-44800D03*
X50000Y-44800D03*
X49500Y-44800D03*
X51000Y-44800D03*
X51500Y-44800D03*
X73700Y-44400D03*
X74200Y-44400D03*
X74700Y-44400D03*
X74700Y-44800D03*
X74200Y-44800D03*
X73700Y-44800D03*
X73200Y-44800D03*
X72700Y-44800D03*
X72700Y-44400D03*
X73200Y-44400D03*
X73700Y-44000D03*
X74200Y-44000D03*
X74700Y-44000D03*
X73200Y-44000D03*
X72700Y-44000D03*
X75925Y-38976D03*
X76417Y-38976D03*
X76417Y-38582D03*
X75925Y-38582D03*
X76417Y-39370D03*
X75925Y-39370D03*
X75433Y-39370D03*
X75433Y-38976D03*
X75433Y-38582D03*
X79724Y-47244D03*
X79724Y-46259D03*
X79724Y-45275D03*
X79724Y-44291D03*
X79724Y-43307D03*
X79724Y-42322D03*
X79724Y-41338D03*
X79724Y-40354D03*
X79724Y-39370D03*
X79724Y-38385D03*
X79724Y-37401D03*
X79724Y-36417D03*
X79724Y-35433D03*
X79724Y-34448D03*
X78740Y-34448D03*
X77755Y-34448D03*
X76771Y-34448D03*
X75787Y-34448D03*
X74803Y-34448D03*
X73818Y-34448D03*
X70866Y-34448D03*
X67913Y-34448D03*
X66929Y-34448D03*
X69881Y-36417D03*
X70866Y-36417D03*
X67913Y-47244D03*
X67913Y-46259D03*
X67913Y-45275D03*
X67913Y-44291D03*
X68897Y-47244D03*
X68897Y-46259D03*
X69881Y-46259D03*
X69881Y-47244D03*
X70866Y-47244D03*
X71850Y-42322D03*
X71850Y-41338D03*
X75787Y-42322D03*
X76771Y-42322D03*
X64960Y-46259D03*
X64960Y-47244D03*
X59055Y-47244D03*
X58070Y-47244D03*
X57086Y-47244D03*
X56102Y-47244D03*
X55118Y-47244D03*
X54133Y-47244D03*
X53149Y-47244D03*
X58070Y-42322D03*
X59055Y-42322D03*
X46259Y-46259D03*
X45275Y-46259D03*
X47244Y-46259D03*
X47244Y-47244D03*
X48228Y-47244D03*
X47244Y-44291D03*
X48228Y-44291D03*
X46259Y-43307D03*
X45275Y-43307D03*
X56102Y-39370D03*
X57086Y-39370D03*
X58070Y-39370D03*
X57086Y-40354D03*
X45275Y-37401D03*
X45275Y-40354D03*
X72834Y-38385D03*
X71850Y-38385D03*
X73818Y-38385D03*
X72834Y-39370D03*
X77755Y-35433D03*
X76771Y-35433D03*
X78740Y-35433D03*
X78740Y-36417D03*
X77755Y-36417D03*
X78740Y-37401D03*
X78740Y-38385D03*
X78740Y-39370D03*
X78740Y-40354D03*
X78740Y-41338D03*
X78740Y-42322D03*
X78740Y-43307D03*
X78740Y-44291D03*
X78740Y-45275D03*
X78740Y-47244D03*
X78740Y-46259D03*
X76771Y-46259D03*
X76771Y-47244D03*
X76771Y-44291D03*
X70866Y-44291D03*
X48031Y-39763D03*
X48425Y-39370D03*
X46062Y-40944D03*
X47244Y-40944D03*
X50393Y-37007D03*
X48031Y-36614D03*
X48425Y-36614D03*
X48425Y-37007D03*
X45669Y-37007D03*
X45669Y-37795D03*
X46062Y-37795D03*
X45669Y-39763D03*
X45275Y-39763D03*
X44881Y-34645D03*
X56692Y-38582D03*
X55118Y-39763D03*
X55511Y-40944D03*
X58661Y-38976D03*
X58267Y-41732D03*
X64173Y-40551D03*
X63385Y-37007D03*
X67322Y-37401D03*
X68110Y-37401D03*
X53937Y-46456D03*
X54724Y-46456D03*
X55511Y-46456D03*
X56299Y-46456D03*
X57086Y-46456D03*
X57874Y-46456D03*
X58661Y-46456D03*
X50433Y-34763D03*
X61496Y-40984D03*
X60393Y-38858D03*
X65354Y-37559D03*
X62893Y-35826D03*
X61600Y-49200D03*
X62400Y-49200D03*
X63400Y-49200D03*
X64000Y-49200D03*
X64600Y-49200D03*
X57600Y-49200D03*
X58200Y-49200D03*
X58800Y-49200D03*
X52000Y-49200D03*
X52600Y-49200D03*
X53200Y-49200D03*
X46000Y-49200D03*
X46600Y-49200D03*
X47200Y-49200D03*
X48000Y-49200D03*
X48600Y-49200D03*
X49200Y-49200D03*
X51200Y-49200D03*
X50600Y-49200D03*
X50000Y-49200D03*
X55200Y-49200D03*
X54600Y-49200D03*
X54000Y-49200D03*
X60800Y-49200D03*
X60200Y-49200D03*
X59600Y-49200D03*
X67000Y-49200D03*
X66200Y-49200D03*
X65400Y-49200D03*
X72200Y-49200D03*
X71600Y-49200D03*
X71000Y-49200D03*
X77600Y-49200D03*
X77000Y-49200D03*
X76400Y-49200D03*
X75800Y-49200D03*
X75200Y-49200D03*
X73000Y-49200D03*
X73600Y-49200D03*
X74200Y-49200D03*
X69600Y-49200D03*
X70200Y-49200D03*
X76181Y-37401D03*
X77559Y-40944D03*
X75629Y-43031D03*
X52440Y-43070D03*
X50118Y-35039D03*
X49566Y-42716D03*
X66456Y-38818D03*
X72834Y-42755D03*
X47480Y-39665D03*
X51003Y-41712D03*
X64960Y-43307D03*
X47637Y-35314D03*
X61181Y-42716D03*
X52283Y-37125D03*
X59350Y-36811D03*
X64251Y-37165D03*
X61515Y-35826D03*
X64665Y-42716D03*
X63484Y-41929D03*
X61712Y-42618D03*
X61220Y-41929D03*
X61614Y-40354D03*
X60433Y-39271D03*
X65748Y-35629D03*
X68011Y-35728D03*
X66535Y-36712D03*
X73917Y-38976D03*
X71653Y-39271D03*
X70669Y-39271D03*
X72440Y-36220D03*
X72440Y-35826D03*
X72047Y-35826D03*
X72047Y-36220D03*
X71653Y-36220D03*
X71653Y-35826D03*
X51141Y-42755D03*
X62755Y-42716D03*
X74370Y-42755D03*
X50826Y-37992D03*
X61653Y-37322D03*
X50905Y-37598D03*
X61338Y-37598D03*
X57972Y-37204D03*
X50078Y-37992D03*
X50748Y-38307D03*
X62480Y-37165D03*
X59763Y-35787D03*
X49763Y-36377D03*
X60350Y-36450D03*
X56900Y-36950D03*
X65255Y-40196D03*
X65492Y-40570D03*
X64783Y-39527D03*
X65019Y-39842D03*
X64527Y-34645D03*
X64842Y-34645D03*
X64212Y-34645D03*
X63425Y-34685D03*
X62696Y-34724D03*
X63090Y-34625D03*
X60374Y-34960D03*
X60275Y-35334D03*
X49724Y-46417D03*
X61299Y-46417D03*
X72913Y-46417D03*
X50275Y-46456D03*
X61889Y-46456D03*
X73503Y-46456D03*
X51259Y-46417D03*
X62913Y-46417D03*
X74527Y-46417D03*
X50708Y-46456D03*
X62322Y-46456D03*
X73937Y-46456D03*
X58976Y-38503D03*
X48582Y-35314D03*
X59350Y-41338D03*
X55787Y-41338D03*
X61023Y-34881D03*
X51062Y-36023D03*
X60629Y-40354D03*
X56535Y-41062D03*
X49133Y-37322D03*
X48818Y-37322D03*
X51102Y-39291D03*
X51102Y-38976D03*
X49842Y-37322D03*
X49488Y-37322D03*
X47650Y-38000D03*
X51929Y-46062D03*
X63543Y-46062D03*
X75118Y-46023D03*
X47550Y-39100D03*
X49055Y-41535D03*
X64055Y-42874D03*
X59980Y-43110D03*
X65944Y-41141D03*
X73228Y-47795D03*
X73700Y-47795D03*
X74212Y-47795D03*
X62598Y-47795D03*
X62086Y-47795D03*
X61614Y-47795D03*
X50000Y-47795D03*
X50472Y-47795D03*
X50984Y-47795D03*
X51023Y-36653D03*
X51259Y-35078D03*
X70118Y-38818D03*
X65255Y-36515D03*
X65255Y-36122D03*
X66535Y-35925D03*
G54D39*
X74616Y-45491D02*
X74616Y-46073D01*
X75136Y-46593D02*
X75136Y-46811D01*
X74616Y-46073D02*
X75136Y-46593D01*
X75136Y-47559D02*
X75136Y-47663D01*
X74400Y-49200D02*
X74200Y-49200D01*
X75000Y-48600D02*
X74400Y-49200D01*
X75000Y-47800D02*
X75000Y-48600D01*
X75136Y-47663D02*
X75000Y-47800D01*
X77637Y-48316D02*
X77637Y-49162D01*
X77637Y-49162D02*
X77600Y-49200D01*
X77600Y-49200D02*
X75200Y-49200D01*
X77559Y-40944D02*
X77559Y-41407D01*
X77559Y-41407D02*
X77677Y-41525D01*
X64600Y-49200D02*
X65400Y-49200D01*
X62400Y-49200D02*
X63400Y-49200D01*
X64000Y-49200D02*
X64600Y-49200D01*
X58800Y-49200D02*
X59600Y-49200D01*
X58200Y-49200D02*
X58800Y-49200D01*
X53200Y-49200D02*
X54000Y-49200D01*
X52600Y-49200D02*
X53200Y-49200D01*
X49200Y-49200D02*
X50000Y-49200D01*
X46000Y-49200D02*
X46600Y-49200D01*
X47200Y-49200D02*
X48000Y-49200D01*
X48600Y-49200D02*
X49200Y-49200D01*
X50600Y-49200D02*
X51200Y-49200D01*
X51200Y-49200D02*
X52000Y-49200D01*
X54600Y-49200D02*
X55200Y-49200D01*
X55200Y-49200D02*
X57600Y-49200D01*
X60200Y-49200D02*
X60800Y-49200D01*
X60800Y-49200D02*
X61600Y-49200D01*
X66200Y-49200D02*
X67000Y-49200D01*
X71000Y-49200D02*
X70200Y-49200D01*
X71600Y-49200D02*
X71000Y-49200D01*
X75200Y-49200D02*
X74200Y-49200D01*
X77637Y-49162D02*
X77600Y-49200D01*
X77000Y-49200D02*
X76400Y-49200D01*
X75800Y-49200D02*
X75200Y-49200D01*
X73600Y-49200D02*
X73000Y-49200D01*
X73000Y-49200D02*
X72200Y-49200D01*
X77559Y-41407D02*
X77677Y-41525D01*
X76183Y-37403D02*
X76183Y-37914D01*
X76181Y-37401D02*
X76183Y-37403D01*
X77389Y-40775D02*
X77559Y-40944D01*
X76862Y-40775D02*
X77389Y-40775D01*
G54D40*
X75629Y-43287D02*
X75629Y-43031D01*
X52440Y-43282D02*
X52440Y-43070D01*
X50177Y-34980D02*
X50118Y-35039D01*
X49591Y-34803D02*
X50000Y-34803D01*
X50393Y-35196D02*
X50393Y-35813D01*
X50000Y-34803D02*
X50177Y-34980D01*
X50177Y-34980D02*
X50393Y-35196D01*
X66413Y-38775D02*
X66456Y-38818D01*
X66413Y-38775D02*
X65943Y-38775D01*
X46936Y-39664D02*
X47479Y-39664D01*
X47479Y-39664D02*
X47480Y-39665D01*
X50850Y-41200D02*
X50850Y-41558D01*
X50850Y-41558D02*
X51003Y-41712D01*
X64945Y-43322D02*
X64960Y-43307D01*
X64488Y-43322D02*
X64945Y-43322D01*
X49566Y-42716D02*
X49566Y-42347D01*
X47677Y-35275D02*
X47637Y-35314D01*
X47834Y-35275D02*
X47677Y-35275D01*
X49852Y-43287D02*
X49852Y-42844D01*
X49724Y-42716D02*
X49566Y-42716D01*
X49852Y-42844D02*
X49724Y-42716D01*
X49340Y-43287D02*
X49340Y-42785D01*
X49596Y-42745D02*
X49566Y-42716D01*
X49596Y-42745D02*
X49596Y-43287D01*
X49409Y-42716D02*
X49566Y-42716D01*
X49340Y-42785D02*
X49409Y-42716D01*
X61466Y-43287D02*
X61466Y-42844D01*
X61338Y-42716D02*
X61181Y-42716D01*
X61466Y-42844D02*
X61338Y-42716D01*
X60954Y-43287D02*
X60954Y-42825D01*
X61210Y-42745D02*
X61181Y-42716D01*
X61210Y-42745D02*
X61210Y-43287D01*
X61062Y-42716D02*
X61181Y-42716D01*
X60954Y-42825D02*
X61062Y-42716D01*
X72568Y-43287D02*
X72568Y-42825D01*
X72637Y-42755D02*
X72834Y-42755D01*
X72568Y-42825D02*
X72637Y-42755D01*
X73080Y-43287D02*
X73080Y-42844D01*
X72824Y-42766D02*
X72834Y-42755D01*
X72824Y-42766D02*
X72824Y-43287D01*
X72992Y-42755D02*
X72834Y-42755D01*
X73080Y-42844D02*
X72992Y-42755D01*
X52263Y-37302D02*
X52263Y-37145D01*
X52263Y-37145D02*
X52283Y-37125D01*
X51622Y-37302D02*
X52263Y-37302D01*
X52263Y-37302D02*
X52797Y-37302D01*
X52797Y-37302D02*
X52800Y-37300D01*
X47834Y-35813D02*
X47834Y-35275D01*
X47834Y-35275D02*
X47834Y-34815D01*
X47834Y-34815D02*
X47850Y-34800D01*
X50850Y-41200D02*
X50850Y-40565D01*
X50850Y-40565D02*
X50784Y-40499D01*
X46800Y-40100D02*
X46800Y-39801D01*
X46800Y-39801D02*
X46936Y-39664D01*
X47820Y-35800D02*
X47834Y-35813D01*
X65800Y-34600D02*
X65800Y-35233D01*
X65800Y-35233D02*
X65802Y-35236D01*
X58961Y-36811D02*
X59350Y-36811D01*
X59355Y-36815D02*
X59350Y-36811D01*
X59355Y-36815D02*
X59843Y-36815D01*
X61513Y-35824D02*
X61513Y-35335D01*
X61515Y-35826D02*
X61513Y-35824D01*
X64463Y-42244D02*
X64463Y-42514D01*
X64463Y-42514D02*
X64665Y-42716D01*
X63683Y-41435D02*
X63683Y-41729D01*
X63683Y-41729D02*
X63484Y-41929D01*
X64463Y-42244D02*
X64463Y-41445D01*
X64463Y-41445D02*
X64473Y-41435D01*
X61123Y-41435D02*
X61123Y-41832D01*
X61123Y-41832D02*
X61220Y-41929D01*
X60337Y-39175D02*
X59843Y-39175D01*
X60433Y-39271D02*
X60337Y-39175D01*
X65802Y-35236D02*
X65802Y-35575D01*
X65802Y-35575D02*
X65748Y-35629D01*
X65802Y-35236D02*
X65353Y-35236D01*
X65353Y-35236D02*
X65253Y-35335D01*
X67022Y-36712D02*
X66535Y-36712D01*
X66438Y-36615D02*
X66535Y-36712D01*
X66438Y-36615D02*
X65943Y-36615D01*
X73964Y-39412D02*
X73964Y-39023D01*
X73964Y-39023D02*
X73917Y-38976D01*
X71338Y-39548D02*
X71376Y-39548D01*
X71376Y-39548D02*
X71653Y-39271D01*
X72440Y-35826D02*
X72440Y-36220D01*
X72047Y-36220D02*
X72047Y-35826D01*
X71653Y-35826D02*
X71653Y-36220D01*
X75383Y-43287D02*
X75629Y-43287D01*
X75629Y-43287D02*
X75939Y-43287D01*
X75939Y-43287D02*
X75959Y-43267D01*
X63769Y-43287D02*
X64453Y-43287D01*
X64453Y-43287D02*
X64488Y-43322D01*
X52874Y-43282D02*
X52440Y-43282D01*
X52440Y-43282D02*
X52160Y-43282D01*
X52160Y-43282D02*
X52155Y-43287D01*
G54D41*
X51132Y-42765D02*
X51132Y-43287D01*
X51141Y-42755D02*
X51132Y-42765D01*
X62755Y-42716D02*
X62746Y-42726D01*
X62746Y-42726D02*
X62746Y-43287D01*
X74360Y-42765D02*
X74360Y-43287D01*
X74370Y-42755D02*
X74360Y-42765D01*
X59843Y-36415D02*
X50211Y-36415D01*
X49999Y-36199D02*
X49999Y-35813D01*
X50100Y-36300D02*
X49999Y-36199D01*
X50095Y-36300D02*
X50100Y-36300D01*
X50211Y-36415D02*
X50095Y-36300D01*
X46936Y-36908D02*
X47460Y-36908D01*
X47460Y-36908D02*
X48307Y-37755D01*
X48307Y-37755D02*
X50590Y-37755D01*
X50590Y-37755D02*
X50826Y-37992D01*
X59843Y-37595D02*
X60986Y-37595D01*
X61259Y-37322D02*
X61653Y-37322D01*
X60986Y-37595D02*
X61259Y-37322D01*
X46936Y-36711D02*
X47460Y-36711D01*
X48346Y-37598D02*
X50905Y-37598D01*
X47460Y-36711D02*
X48346Y-37598D01*
X59843Y-37795D02*
X61141Y-37795D01*
X61141Y-37795D02*
X61338Y-37598D01*
X57972Y-37204D02*
X57973Y-37205D01*
X57973Y-37205D02*
X59843Y-37205D01*
X47381Y-37105D02*
X46936Y-37105D01*
X48267Y-37992D02*
X47381Y-37105D01*
X48385Y-37992D02*
X48267Y-37992D01*
X49055Y-37992D02*
X48385Y-37992D01*
X50078Y-37992D02*
X49055Y-37992D01*
X46936Y-37302D02*
X47381Y-37302D01*
X50000Y-38307D02*
X50748Y-38307D01*
X49805Y-38112D02*
X50000Y-38307D01*
X48190Y-38112D02*
X49805Y-38112D01*
X47381Y-37302D02*
X48190Y-38112D01*
X59843Y-37005D02*
X62320Y-37005D01*
X62320Y-37005D02*
X62480Y-37165D01*
X49606Y-35813D02*
X49606Y-36220D01*
X59843Y-35867D02*
X59843Y-36025D01*
X59763Y-35787D02*
X59843Y-35867D01*
X49606Y-36220D02*
X49763Y-36377D01*
X51622Y-36908D02*
X56858Y-36908D01*
X60184Y-36615D02*
X59843Y-36615D01*
X60350Y-36450D02*
X60184Y-36615D01*
X56858Y-36908D02*
X56900Y-36950D01*
X65943Y-40155D02*
X66336Y-40155D01*
X67799Y-41618D02*
X67972Y-41618D01*
X66336Y-40155D02*
X67799Y-41618D01*
X65943Y-40355D02*
X66300Y-40355D01*
X67500Y-42145D02*
X67972Y-42618D01*
X67500Y-41555D02*
X67500Y-42145D01*
X66300Y-40355D02*
X67500Y-41555D01*
X65943Y-39955D02*
X66353Y-39955D01*
X68476Y-41122D02*
X68972Y-41618D01*
X67519Y-41122D02*
X68476Y-41122D01*
X66353Y-39955D02*
X67519Y-41122D01*
X65943Y-37795D02*
X65511Y-37795D01*
X65255Y-38051D02*
X65255Y-40196D01*
X65511Y-37795D02*
X65255Y-38051D01*
X65943Y-37985D02*
X65537Y-37985D01*
X65492Y-38031D02*
X65492Y-40570D01*
X65537Y-37985D02*
X65492Y-38031D01*
X65943Y-37005D02*
X65002Y-37005D01*
X64783Y-37224D02*
X64783Y-39527D01*
X65002Y-37005D02*
X64783Y-37224D01*
X65943Y-37205D02*
X65097Y-37205D01*
X65019Y-37283D02*
X65019Y-39842D01*
X65097Y-37205D02*
X65019Y-37283D01*
X56972Y-34618D02*
X57232Y-34618D01*
X65053Y-34541D02*
X65053Y-35335D01*
X64645Y-34133D02*
X65053Y-34541D01*
X57716Y-34133D02*
X64645Y-34133D01*
X57232Y-34618D02*
X57716Y-34133D01*
X64663Y-35335D02*
X64663Y-35018D01*
X64663Y-34781D02*
X64663Y-35018D01*
X64527Y-34645D02*
X64663Y-34781D01*
X64863Y-34903D02*
X64863Y-34666D01*
X64863Y-35335D02*
X64863Y-34903D01*
X64863Y-34666D02*
X64842Y-34645D01*
X52972Y-34618D02*
X53003Y-34618D01*
X64273Y-35021D02*
X64273Y-35335D01*
X63543Y-34291D02*
X64273Y-35021D01*
X59881Y-34291D02*
X63543Y-34291D01*
X59153Y-35019D02*
X59881Y-34291D01*
X53405Y-35019D02*
X59153Y-35019D01*
X53003Y-34618D02*
X53405Y-35019D01*
X64463Y-34896D02*
X64463Y-35335D01*
X64212Y-34645D02*
X64463Y-34896D01*
X64463Y-35132D02*
X64463Y-35335D01*
X63425Y-34685D02*
X63483Y-34743D01*
X63483Y-35335D02*
X63483Y-34743D01*
X51972Y-34618D02*
X51972Y-34629D01*
X63683Y-34628D02*
X63683Y-35335D01*
X63466Y-34411D02*
X63683Y-34628D01*
X59940Y-34411D02*
X63466Y-34411D01*
X59212Y-35139D02*
X59940Y-34411D01*
X52482Y-35139D02*
X59212Y-35139D01*
X51972Y-34629D02*
X52482Y-35139D01*
X63083Y-35111D02*
X63083Y-35335D01*
X62696Y-34724D02*
X63083Y-35111D01*
X63283Y-35335D02*
X63283Y-34917D01*
X63090Y-34724D02*
X63090Y-34625D01*
X63283Y-34917D02*
X63090Y-34724D01*
X60723Y-34995D02*
X60723Y-35335D01*
X60688Y-34960D02*
X60723Y-34995D01*
X60374Y-34960D02*
X60688Y-34960D01*
X59843Y-36225D02*
X57580Y-36225D01*
X57580Y-36225D02*
X56972Y-35618D01*
X60276Y-35335D02*
X60533Y-35335D01*
X60275Y-35334D02*
X60276Y-35335D01*
X51102Y-42480D02*
X50876Y-42706D01*
X50876Y-43287D02*
X50876Y-42706D01*
X56141Y-42480D02*
X51377Y-42480D01*
X51377Y-42480D02*
X51377Y-42480D01*
X51377Y-42480D02*
X51102Y-42480D01*
X58656Y-39965D02*
X59843Y-39965D01*
X56259Y-42362D02*
X58656Y-39965D01*
X56259Y-42362D02*
X56141Y-42480D01*
X50620Y-43287D02*
X50620Y-42765D01*
X51771Y-42322D02*
X56062Y-42322D01*
X56062Y-42322D02*
X56181Y-42204D01*
X58620Y-39765D02*
X59843Y-39765D01*
X56181Y-42204D02*
X58620Y-39765D01*
X51496Y-42322D02*
X51771Y-42322D01*
X51496Y-42322D02*
X51496Y-42322D01*
X51062Y-42322D02*
X51496Y-42322D01*
X50748Y-42637D02*
X51062Y-42322D01*
X50748Y-42637D02*
X50748Y-42637D01*
X50620Y-42765D02*
X50748Y-42637D01*
X51388Y-43287D02*
X51388Y-42903D01*
X58702Y-40155D02*
X59843Y-40155D01*
X56220Y-42637D02*
X58702Y-40155D01*
X51653Y-42637D02*
X56220Y-42637D01*
X51388Y-42903D02*
X51653Y-42637D01*
X51644Y-43287D02*
X51644Y-42922D01*
X51741Y-42825D02*
X51899Y-42825D01*
X51644Y-42922D02*
X51741Y-42825D01*
X51899Y-43287D02*
X51899Y-42825D01*
X58738Y-40355D02*
X59843Y-40355D01*
X56299Y-42795D02*
X58738Y-40355D01*
X51929Y-42795D02*
X56299Y-42795D01*
X51899Y-42825D02*
X51929Y-42795D01*
X50364Y-43287D02*
X50364Y-42824D01*
X56338Y-41811D02*
X59363Y-38785D01*
X59363Y-38785D02*
X59843Y-38785D01*
X55984Y-42165D02*
X56338Y-41811D01*
X51535Y-42165D02*
X55984Y-42165D01*
X51535Y-42165D02*
X51535Y-42165D01*
X51023Y-42165D02*
X51535Y-42165D01*
X50590Y-42598D02*
X51023Y-42165D01*
X50590Y-42598D02*
X50590Y-42598D01*
X50364Y-42824D02*
X50590Y-42598D01*
X62893Y-41435D02*
X62893Y-42263D01*
X62490Y-42667D02*
X62490Y-43287D01*
X62893Y-42263D02*
X62490Y-42667D01*
X62503Y-41435D02*
X62503Y-42338D01*
X62234Y-42608D02*
X62234Y-43287D01*
X62503Y-42338D02*
X62234Y-42608D01*
X63002Y-43287D02*
X63002Y-42706D01*
X63093Y-42614D02*
X63093Y-41435D01*
X63002Y-42706D02*
X63093Y-42614D01*
X63258Y-43287D02*
X63258Y-42686D01*
X63316Y-42628D02*
X63513Y-42628D01*
X63258Y-42686D02*
X63316Y-42628D01*
X63883Y-41435D02*
X63883Y-42258D01*
X63513Y-42628D02*
X63513Y-43287D01*
X63883Y-42258D02*
X63513Y-42628D01*
X62103Y-41435D02*
X62103Y-42423D01*
X61978Y-42549D02*
X61978Y-43287D01*
X62103Y-42423D02*
X61978Y-42549D01*
X65943Y-38975D02*
X66239Y-38975D01*
X74104Y-42372D02*
X74104Y-43287D01*
X72381Y-40649D02*
X74104Y-42372D01*
X67696Y-40649D02*
X72381Y-40649D01*
X66614Y-39566D02*
X67696Y-40649D01*
X66614Y-39350D02*
X66614Y-39566D01*
X66239Y-38975D02*
X66614Y-39350D01*
X67637Y-40787D02*
X72283Y-40787D01*
X72716Y-41220D02*
X73848Y-42352D01*
X73848Y-42352D02*
X73848Y-43287D01*
X72283Y-40787D02*
X72716Y-41220D01*
X65943Y-39175D02*
X66242Y-39175D01*
X66242Y-39175D02*
X66456Y-39389D01*
X66456Y-39389D02*
X66456Y-39606D01*
X66456Y-39606D02*
X67637Y-40787D01*
X65943Y-38575D02*
X66627Y-38575D01*
X74616Y-42411D02*
X74616Y-43287D01*
X72677Y-40472D02*
X74616Y-42411D01*
X67716Y-40472D02*
X72677Y-40472D01*
X66771Y-39527D02*
X67716Y-40472D01*
X66771Y-38720D02*
X66771Y-39527D01*
X66627Y-38575D02*
X66771Y-38720D01*
X75127Y-43287D02*
X75127Y-42804D01*
X75039Y-42716D02*
X74872Y-42716D01*
X75127Y-42804D02*
X75039Y-42716D01*
X65943Y-38385D02*
X66732Y-38385D01*
X74872Y-42470D02*
X74872Y-42716D01*
X74872Y-42716D02*
X74872Y-43287D01*
X72716Y-40314D02*
X74872Y-42470D01*
X67755Y-40314D02*
X72716Y-40314D01*
X66929Y-39488D02*
X67755Y-40314D01*
X66929Y-38582D02*
X66929Y-39488D01*
X66732Y-38385D02*
X66929Y-38582D01*
X65943Y-39765D02*
X66380Y-39765D01*
X73592Y-42411D02*
X73592Y-43287D01*
X72165Y-40984D02*
X73592Y-42411D01*
X67598Y-40984D02*
X72165Y-40984D01*
X66380Y-39765D02*
X67598Y-40984D01*
G54D42*
X49852Y-45491D02*
X49852Y-46132D01*
X49724Y-46259D02*
X49724Y-46417D01*
X49852Y-46132D02*
X49724Y-46259D01*
X61466Y-45491D02*
X61466Y-46171D01*
X61466Y-46171D02*
X61299Y-46338D01*
X61299Y-46338D02*
X61299Y-46417D01*
X73080Y-46171D02*
X72913Y-46338D01*
X72913Y-46338D02*
X72913Y-46417D01*
X73080Y-45491D02*
X73080Y-46171D01*
X50364Y-46368D02*
X50275Y-46456D01*
X50364Y-45491D02*
X50364Y-46368D01*
X61978Y-45491D02*
X61978Y-46368D01*
X61978Y-46368D02*
X61889Y-46456D01*
X73592Y-46368D02*
X73503Y-46456D01*
X73592Y-45491D02*
X73592Y-46368D01*
X51132Y-45491D02*
X51132Y-46171D01*
X51259Y-46299D02*
X51259Y-46417D01*
X51132Y-46171D02*
X51259Y-46299D01*
X62746Y-45491D02*
X62746Y-46171D01*
X62913Y-46338D02*
X62913Y-46417D01*
X62746Y-46171D02*
X62913Y-46338D01*
X74360Y-46171D02*
X74527Y-46338D01*
X74527Y-46338D02*
X74527Y-46417D01*
X74360Y-45491D02*
X74360Y-46171D01*
X50620Y-45491D02*
X50620Y-46368D01*
X50620Y-46368D02*
X50708Y-46456D01*
X62234Y-45491D02*
X62234Y-46368D01*
X62234Y-46368D02*
X62322Y-46456D01*
X73848Y-46368D02*
X73937Y-46456D01*
X73848Y-45491D02*
X73848Y-46368D01*
X70677Y-38817D02*
X70677Y-38708D01*
X70507Y-38538D02*
X70507Y-38090D01*
X70677Y-38708D02*
X70507Y-38538D01*
X70122Y-38090D02*
X70507Y-38090D01*
G54D41*
X75183Y-40014D02*
X74566Y-40014D01*
X74566Y-40014D02*
X74555Y-40003D01*
X73964Y-40012D02*
X74545Y-40012D01*
X74545Y-40012D02*
X74555Y-40003D01*
X76692Y-36747D02*
X76692Y-36338D01*
X76279Y-35925D02*
X75610Y-35925D01*
X76692Y-36338D02*
X76279Y-35925D01*
G54D42*
X50000Y-47027D02*
X50000Y-46259D01*
X50108Y-46151D02*
X50108Y-45491D01*
X50000Y-46259D02*
X50108Y-46151D01*
X61722Y-45491D02*
X61722Y-46171D01*
X61614Y-46279D02*
X61614Y-47027D01*
X61722Y-46171D02*
X61614Y-46279D01*
X73336Y-46171D02*
X73228Y-46279D01*
X73228Y-46279D02*
X73228Y-47027D01*
X73336Y-45491D02*
X73336Y-46171D01*
X50984Y-47027D02*
X50984Y-46299D01*
X50876Y-46191D02*
X50876Y-45491D01*
X50984Y-46299D02*
X50876Y-46191D01*
X62490Y-45491D02*
X62490Y-46171D01*
X62598Y-46279D02*
X62598Y-47027D01*
X62490Y-46171D02*
X62598Y-46279D01*
X74104Y-46171D02*
X74212Y-46279D01*
X74212Y-46279D02*
X74212Y-47027D01*
X74104Y-45491D02*
X74104Y-46171D01*
G54D41*
X51622Y-39467D02*
X52066Y-39467D01*
X58503Y-38503D02*
X58976Y-38503D01*
X56653Y-40354D02*
X58503Y-38503D01*
X52559Y-40354D02*
X56653Y-40354D01*
X52362Y-40157D02*
X52559Y-40354D01*
X52362Y-39763D02*
X52362Y-40157D01*
X52066Y-39467D02*
X52362Y-39763D01*
X50157Y-41865D02*
X49936Y-41865D01*
X49818Y-41747D02*
X49566Y-41747D01*
X49936Y-41865D02*
X49818Y-41747D01*
X49997Y-40499D02*
X49997Y-41317D01*
X49997Y-41317D02*
X49566Y-41747D01*
X48622Y-35354D02*
X48622Y-35813D01*
X48582Y-35314D02*
X48622Y-35354D01*
X55511Y-41338D02*
X55787Y-41338D01*
X59350Y-41338D02*
X60039Y-41338D01*
X60039Y-41338D02*
X60629Y-40748D01*
X60629Y-40748D02*
X62106Y-40748D01*
X62106Y-40748D02*
X62303Y-40945D01*
X62303Y-41435D02*
X62303Y-40945D01*
X49409Y-38286D02*
X46936Y-38286D01*
X52460Y-41338D02*
X55511Y-41338D01*
X49409Y-38286D02*
X52460Y-41338D01*
X50196Y-35813D02*
X50196Y-36160D01*
X60923Y-34981D02*
X61023Y-34881D01*
X60923Y-34981D02*
X60923Y-35335D01*
X51062Y-36023D02*
X51062Y-36023D01*
X50846Y-36240D02*
X51062Y-36023D01*
X50275Y-36240D02*
X50846Y-36240D01*
X50196Y-36160D02*
X50275Y-36240D01*
X50590Y-41732D02*
X50807Y-41948D01*
X60629Y-40354D02*
X60984Y-40000D01*
X60984Y-40000D02*
X64291Y-40000D01*
X64291Y-40000D02*
X65253Y-40962D01*
X65253Y-41435D02*
X65253Y-40962D01*
X55866Y-41732D02*
X56535Y-41062D01*
X50391Y-41532D02*
X50391Y-41020D01*
X50391Y-41532D02*
X50590Y-41732D01*
X55649Y-41948D02*
X55866Y-41732D01*
X50807Y-41948D02*
X55649Y-41948D01*
X50391Y-40499D02*
X50391Y-41020D01*
X50391Y-41020D02*
X50393Y-41023D01*
X49015Y-35813D02*
X49015Y-37204D01*
X49015Y-37204D02*
X49133Y-37322D01*
X48818Y-35813D02*
X48818Y-37321D01*
X48818Y-37321D02*
X48818Y-37322D01*
X51122Y-39270D02*
X51102Y-39291D01*
X51122Y-39270D02*
X51622Y-39270D01*
X51622Y-39073D02*
X51199Y-39073D01*
X51199Y-39073D02*
X51102Y-38976D01*
X49409Y-35813D02*
X49409Y-36889D01*
X49409Y-36889D02*
X49842Y-37322D01*
X49212Y-35813D02*
X49212Y-37046D01*
X49212Y-37046D02*
X49488Y-37322D01*
X46936Y-38089D02*
X47560Y-38089D01*
X47560Y-38089D02*
X47650Y-38000D01*
X51771Y-45491D02*
X51771Y-45905D01*
X51771Y-45905D02*
X51929Y-46062D01*
X51644Y-45491D02*
X51771Y-45491D01*
X51771Y-45491D02*
X51899Y-45491D01*
X63543Y-46062D02*
X63385Y-45905D01*
X63513Y-45491D02*
X63513Y-46032D01*
X63513Y-46032D02*
X63543Y-46062D01*
X63258Y-45491D02*
X63513Y-45491D01*
X63385Y-45491D02*
X63385Y-45905D01*
X63385Y-45905D02*
X63543Y-46062D01*
X63258Y-45491D02*
X63385Y-45491D01*
X63385Y-45491D02*
X63513Y-45491D01*
X75000Y-45905D02*
X75118Y-46023D01*
X75000Y-45905D02*
X75000Y-45491D01*
X74872Y-45491D02*
X75000Y-45491D01*
X75000Y-45491D02*
X75127Y-45491D01*
X47523Y-39073D02*
X46936Y-39073D01*
X47550Y-39100D02*
X47523Y-39073D01*
X45772Y-39173D02*
X46062Y-39173D01*
X46162Y-39073D02*
X46936Y-39073D01*
X46062Y-39173D02*
X46162Y-39073D01*
X45772Y-38582D02*
X45964Y-38582D01*
X46258Y-38876D02*
X46936Y-38876D01*
X45964Y-38582D02*
X46258Y-38876D01*
X44342Y-42204D02*
X44685Y-42204D01*
X47834Y-41142D02*
X47834Y-40499D01*
X47598Y-41377D02*
X47834Y-41142D01*
X45511Y-41377D02*
X47598Y-41377D01*
X44685Y-42204D02*
X45511Y-41377D01*
X45342Y-42204D02*
X45748Y-42204D01*
X48031Y-41260D02*
X48031Y-40499D01*
X47755Y-41535D02*
X48031Y-41260D01*
X46417Y-41535D02*
X47755Y-41535D01*
X45748Y-42204D02*
X46417Y-41535D01*
X49015Y-41495D02*
X49015Y-40499D01*
X49055Y-41535D02*
X49015Y-41495D01*
X43342Y-42204D02*
X43622Y-42204D01*
X46437Y-39270D02*
X46936Y-39270D01*
X46259Y-39448D02*
X46437Y-39270D01*
X46259Y-40236D02*
X46259Y-39448D01*
X44960Y-41535D02*
X46259Y-40236D01*
X44291Y-41535D02*
X44960Y-41535D01*
X43622Y-42204D02*
X44291Y-41535D01*
X60533Y-41435D02*
X60217Y-41435D01*
X65688Y-44102D02*
X66515Y-44929D01*
X65688Y-43602D02*
X65688Y-44102D01*
X65078Y-42992D02*
X65688Y-43602D01*
X64173Y-42992D02*
X65078Y-42992D01*
X64055Y-42874D02*
X64173Y-42992D01*
X59665Y-42795D02*
X59980Y-43110D01*
X59665Y-41791D02*
X59665Y-42795D01*
X59842Y-41614D02*
X59665Y-41791D01*
X60039Y-41614D02*
X59842Y-41614D01*
X60217Y-41435D02*
X60039Y-41614D01*
X65943Y-40545D02*
X66234Y-40545D01*
X67153Y-43929D02*
X66515Y-43929D01*
X67224Y-43858D02*
X67153Y-43929D01*
X67224Y-41535D02*
X67224Y-43858D01*
X66234Y-40545D02*
X67224Y-41535D01*
X66515Y-42929D02*
X66137Y-42929D01*
X60199Y-40745D02*
X59843Y-40745D01*
X60314Y-40629D02*
X60199Y-40745D01*
X60314Y-40236D02*
X60314Y-40629D01*
X61259Y-39291D02*
X60314Y-40236D01*
X63838Y-39291D02*
X61259Y-39291D01*
X65511Y-40964D02*
X63838Y-39291D01*
X65511Y-42303D02*
X65511Y-40964D01*
X66137Y-42929D02*
X65511Y-42303D01*
X65943Y-40745D02*
X65943Y-41140D01*
X65943Y-41140D02*
X65944Y-41141D01*
X52716Y-38248D02*
X52736Y-38248D01*
X53400Y-37584D02*
X53400Y-37300D01*
X52736Y-38248D02*
X53400Y-37584D01*
X54173Y-39114D02*
X55334Y-39114D01*
X55496Y-38951D02*
X55496Y-38228D01*
X55334Y-39114D02*
X55496Y-38951D01*
X73818Y-44389D02*
X73720Y-44389D01*
X73818Y-44389D02*
X73720Y-44389D01*
X73700Y-47795D02*
X74212Y-47795D01*
X73228Y-48327D02*
X73228Y-47795D01*
X61614Y-48327D02*
X61614Y-47795D01*
X62086Y-47795D02*
X62598Y-47795D01*
X50000Y-47795D02*
X50000Y-48327D01*
X50984Y-48327D02*
X50984Y-47795D01*
X43637Y-43622D02*
X42972Y-43622D01*
X43637Y-44606D02*
X42972Y-44606D01*
X44237Y-43622D02*
X46929Y-43622D01*
X48425Y-42126D02*
X48425Y-40499D01*
X46929Y-43622D02*
X48425Y-42126D01*
X44237Y-44606D02*
X44566Y-44606D01*
X48622Y-42126D02*
X48622Y-40499D01*
X46968Y-43779D02*
X48622Y-42126D01*
X45393Y-43779D02*
X46968Y-43779D01*
X44566Y-44606D02*
X45393Y-43779D01*
X54896Y-38228D02*
X54192Y-38228D01*
X54192Y-38228D02*
X54173Y-38248D01*
X51622Y-38680D02*
X53740Y-38680D01*
X53740Y-38680D02*
X54173Y-38248D01*
X51082Y-36711D02*
X51622Y-36711D01*
X51023Y-36653D02*
X51082Y-36711D01*
X50787Y-34684D02*
X50787Y-35813D01*
X50472Y-34370D02*
X50787Y-34684D01*
X47519Y-34370D02*
X50472Y-34370D01*
X47401Y-34488D02*
X47519Y-34370D01*
X47401Y-35787D02*
X47401Y-34488D01*
X46850Y-36338D02*
X47401Y-35787D01*
X45275Y-36338D02*
X46850Y-36338D01*
X44555Y-35618D02*
X45275Y-36338D01*
X43972Y-35618D02*
X44555Y-35618D01*
X52810Y-39763D02*
X52810Y-39207D01*
X52810Y-39207D02*
X52716Y-39114D01*
X51622Y-38876D02*
X52479Y-38876D01*
X52479Y-38876D02*
X52716Y-39114D01*
X44094Y-38976D02*
X44975Y-38976D01*
X44975Y-38976D02*
X45172Y-39173D01*
X44094Y-38661D02*
X45093Y-38661D01*
X45093Y-38661D02*
X45172Y-38582D01*
G54D42*
X60211Y-47716D02*
X60211Y-47125D01*
X60954Y-45491D02*
X60954Y-45974D01*
X60211Y-46717D02*
X60211Y-47125D01*
X60954Y-45974D02*
X60211Y-46717D01*
G54D41*
X69677Y-38817D02*
X70117Y-38817D01*
X70117Y-38817D02*
X70118Y-38818D01*
X75170Y-41248D02*
X75681Y-41248D01*
X75681Y-41248D02*
X75696Y-41233D01*
X75696Y-40633D02*
X75696Y-40028D01*
X75696Y-40028D02*
X75683Y-40014D01*
X77129Y-40027D02*
X76696Y-40027D01*
X76696Y-40027D02*
X76683Y-40014D01*
X76692Y-37347D02*
X76692Y-37904D01*
X76692Y-37904D02*
X76683Y-37914D01*
X76183Y-40014D02*
X76183Y-40695D01*
X76183Y-40695D02*
X76262Y-40775D01*
X76262Y-41366D02*
X76262Y-40775D01*
X65355Y-36415D02*
X65943Y-36415D01*
X65255Y-36515D02*
X65355Y-36415D01*
X65349Y-36215D02*
X65943Y-36215D01*
X65255Y-36122D02*
X65349Y-36215D01*
X66434Y-36025D02*
X65943Y-36025D01*
X66535Y-35925D02*
X66434Y-36025D01*
G54D42*
X72568Y-45974D02*
X71825Y-46717D01*
X71825Y-46717D02*
X71825Y-47125D01*
X72568Y-45491D02*
X72568Y-45974D01*
X71825Y-47716D02*
X71825Y-47125D01*
G54D41*
X71077Y-45772D02*
X71077Y-46181D01*
X71358Y-45491D02*
X71077Y-45772D01*
X72057Y-45491D02*
X71358Y-45491D01*
X72086Y-46181D02*
X71677Y-46181D01*
X72313Y-45954D02*
X72086Y-46181D01*
X72313Y-45491D02*
X72313Y-45954D01*
G54D42*
X48597Y-47716D02*
X48597Y-47125D01*
X49340Y-45491D02*
X49340Y-45974D01*
X48597Y-46717D02*
X48597Y-47125D01*
X49340Y-45974D02*
X48597Y-46717D01*
G54D41*
X48829Y-45491D02*
X48209Y-45491D01*
X47849Y-45851D02*
X47849Y-46181D01*
X48209Y-45491D02*
X47849Y-45851D01*
X48449Y-46181D02*
X48818Y-46181D01*
X49085Y-45914D02*
X49085Y-45491D01*
X48818Y-46181D02*
X49085Y-45914D01*
X60443Y-45491D02*
X59744Y-45491D01*
X59463Y-45772D02*
X59463Y-46181D01*
X59744Y-45491D02*
X59463Y-45772D01*
X60699Y-45491D02*
X60699Y-45954D01*
X60472Y-46181D02*
X60063Y-46181D01*
X60699Y-45954D02*
X60472Y-46181D01*
M02*
