G04 (created by PCBNEW (2013-07-07 BZR 4022)-stable) date 01/02/2015 03:27:20*
%MOIN*%
G04 Gerber Fmt 3.4, Leading zero omitted, Abs format*
%FSLAX34Y34*%
G01*
G70*
G90*
G04 APERTURE LIST*
%ADD10C,0.00590551*%
%ADD11O,0.156X0.078*%
%ADD12O,0.078X0.156*%
%ADD13R,0.06X0.06*%
%ADD14C,0.06*%
%ADD15C,0.024*%
%ADD16C,0.02*%
%ADD17C,0.00787402*%
%ADD18C,0.006*%
G04 APERTURE END LIST*
G54D10*
G54D11*
X43110Y-46923D03*
X43110Y-48893D03*
G54D12*
X47510Y-50400D03*
X49480Y-50400D03*
X51500Y-50400D03*
X53500Y-50400D03*
X59110Y-50400D03*
X61080Y-50400D03*
X63100Y-50400D03*
X65100Y-50400D03*
X70710Y-50400D03*
X72680Y-50400D03*
X74700Y-50400D03*
X76700Y-50400D03*
G54D13*
X51972Y-35618D03*
G54D14*
X51972Y-34618D03*
X52972Y-35618D03*
X52972Y-34618D03*
X53972Y-35618D03*
X53972Y-34618D03*
X54972Y-35618D03*
X54972Y-34618D03*
X55972Y-35618D03*
X55972Y-34618D03*
X56972Y-35618D03*
X56972Y-34618D03*
X57972Y-35618D03*
X57972Y-34618D03*
X58972Y-35618D03*
X58972Y-34618D03*
G54D13*
X43972Y-35618D03*
G54D14*
X42972Y-35618D03*
X43972Y-34618D03*
X42972Y-34618D03*
G54D13*
X47342Y-42204D03*
G54D14*
X46342Y-42204D03*
X45342Y-42204D03*
X44342Y-42204D03*
X43342Y-42204D03*
X42342Y-42204D03*
G54D13*
X66515Y-41929D03*
G54D14*
X66515Y-42929D03*
X66515Y-43929D03*
X66515Y-44929D03*
X66515Y-45929D03*
X66515Y-46929D03*
G54D13*
X53972Y-44618D03*
G54D14*
X53972Y-43618D03*
X54972Y-44618D03*
X54972Y-43618D03*
X55972Y-44618D03*
X55972Y-43618D03*
X56972Y-44618D03*
X56972Y-43618D03*
X57972Y-44618D03*
X57972Y-43618D03*
X58972Y-44618D03*
X58972Y-43618D03*
G54D13*
X67972Y-42618D03*
G54D14*
X67972Y-41618D03*
X68972Y-42618D03*
X68972Y-41618D03*
X69972Y-42618D03*
X69972Y-41618D03*
X70972Y-42618D03*
X70972Y-41618D03*
G54D15*
X62100Y-44400D03*
X62600Y-44400D03*
X63100Y-44400D03*
X62600Y-44000D03*
X62100Y-44000D03*
X62100Y-44800D03*
X62600Y-44800D03*
X63100Y-44800D03*
X63100Y-44000D03*
X61600Y-44000D03*
X61600Y-44400D03*
X61600Y-44800D03*
X61100Y-44000D03*
X61100Y-44400D03*
X61100Y-44800D03*
X50500Y-44400D03*
X51000Y-44400D03*
X51500Y-44400D03*
X51500Y-44000D03*
X51000Y-44000D03*
X50500Y-44000D03*
X50000Y-44000D03*
X49500Y-44000D03*
X49500Y-44400D03*
X50000Y-44400D03*
X50500Y-44800D03*
X50000Y-44800D03*
X49500Y-44800D03*
X51000Y-44800D03*
X51500Y-44800D03*
X73700Y-44400D03*
X74200Y-44400D03*
X74700Y-44400D03*
X74700Y-44800D03*
X74200Y-44800D03*
X73700Y-44800D03*
X73200Y-44800D03*
X72700Y-44800D03*
X72700Y-44400D03*
X73200Y-44400D03*
X73700Y-44000D03*
X74200Y-44000D03*
X74700Y-44000D03*
X73200Y-44000D03*
X72700Y-44000D03*
X75925Y-38976D03*
X76417Y-38976D03*
X76417Y-38582D03*
X75925Y-38582D03*
X76417Y-39370D03*
X75925Y-39370D03*
X75433Y-39370D03*
X75433Y-38976D03*
X75433Y-38582D03*
X79724Y-47244D03*
X79724Y-46259D03*
X79724Y-45275D03*
X79724Y-44291D03*
X79724Y-43307D03*
X79724Y-42322D03*
X79724Y-41338D03*
X79724Y-40354D03*
X79724Y-39370D03*
X79724Y-38385D03*
X79724Y-37401D03*
X79724Y-36417D03*
X79724Y-35433D03*
X79724Y-34448D03*
X78740Y-34448D03*
X77755Y-34448D03*
X76771Y-34448D03*
X75787Y-34448D03*
X74803Y-34448D03*
X73818Y-34448D03*
X70866Y-34448D03*
X67913Y-34448D03*
X66929Y-34448D03*
X69881Y-36417D03*
X70866Y-36417D03*
X67913Y-47244D03*
X67913Y-46259D03*
X67913Y-45275D03*
X67913Y-44291D03*
X68897Y-47244D03*
X68897Y-46259D03*
X69881Y-46259D03*
X69881Y-47244D03*
X70866Y-47244D03*
X71850Y-42322D03*
X71850Y-41338D03*
X75787Y-42322D03*
X76771Y-42322D03*
X64960Y-46259D03*
X64960Y-47244D03*
X59055Y-47244D03*
X58070Y-47244D03*
X57086Y-47244D03*
X56102Y-47244D03*
X55118Y-47244D03*
X54133Y-47244D03*
X53149Y-47244D03*
X58070Y-42322D03*
X59055Y-42322D03*
X46259Y-46259D03*
X45275Y-46259D03*
X47244Y-46259D03*
X47244Y-47244D03*
X48228Y-47244D03*
X47244Y-44291D03*
X48228Y-44291D03*
X46259Y-43307D03*
X45275Y-43307D03*
X56102Y-39370D03*
X57086Y-39370D03*
X58070Y-39370D03*
X57086Y-40354D03*
X45275Y-37401D03*
X45275Y-40354D03*
X72834Y-38385D03*
X71850Y-38385D03*
X73818Y-38385D03*
X72834Y-39370D03*
X77755Y-35433D03*
X76771Y-35433D03*
X78740Y-35433D03*
X78740Y-36417D03*
X77755Y-36417D03*
X78740Y-37401D03*
X78740Y-38385D03*
X78740Y-39370D03*
X78740Y-40354D03*
X78740Y-41338D03*
X78740Y-42322D03*
X78740Y-43307D03*
X78740Y-44291D03*
X78740Y-45275D03*
X78740Y-47244D03*
X78740Y-46259D03*
X76771Y-46259D03*
X76771Y-47244D03*
X76771Y-44291D03*
X70866Y-44291D03*
X48031Y-39763D03*
X48425Y-39370D03*
X46062Y-40944D03*
X47244Y-40944D03*
X50393Y-37007D03*
X48031Y-36614D03*
X48425Y-36614D03*
X48425Y-37007D03*
X45669Y-37007D03*
X45669Y-37795D03*
X46062Y-37795D03*
X45669Y-39763D03*
X45275Y-39763D03*
X44881Y-34645D03*
X56692Y-38582D03*
X55118Y-39763D03*
X55511Y-40944D03*
X58661Y-38976D03*
X58267Y-41732D03*
X64173Y-40551D03*
X63385Y-37007D03*
X67322Y-37401D03*
X68110Y-37401D03*
X53937Y-46456D03*
X54724Y-46456D03*
X55511Y-46456D03*
X56299Y-46456D03*
X57086Y-46456D03*
X57874Y-46456D03*
X58661Y-46456D03*
X50433Y-34763D03*
X61496Y-40984D03*
X60393Y-38858D03*
X65354Y-37559D03*
X62893Y-35826D03*
X61600Y-49200D03*
X62400Y-49200D03*
X63400Y-49200D03*
X64000Y-49200D03*
X64600Y-49200D03*
X57600Y-49200D03*
X58200Y-49200D03*
X58800Y-49200D03*
X52000Y-49200D03*
X52600Y-49200D03*
X53200Y-49200D03*
X46000Y-49200D03*
X46600Y-49200D03*
X47200Y-49200D03*
X48000Y-49200D03*
X48600Y-49200D03*
X49200Y-49200D03*
X51200Y-49200D03*
X50600Y-49200D03*
X50000Y-49200D03*
X55200Y-49200D03*
X54600Y-49200D03*
X54000Y-49200D03*
X60800Y-49200D03*
X60200Y-49200D03*
X59600Y-49200D03*
X67000Y-49200D03*
X66200Y-49200D03*
X65400Y-49200D03*
X72200Y-49200D03*
X71600Y-49200D03*
X71000Y-49200D03*
X77600Y-49200D03*
X77000Y-49200D03*
X76400Y-49200D03*
X75800Y-49200D03*
X75200Y-49200D03*
X73000Y-49200D03*
X73600Y-49200D03*
X74200Y-49200D03*
X69600Y-49200D03*
X70200Y-49200D03*
X76181Y-37401D03*
X77559Y-40944D03*
X75629Y-43031D03*
X52440Y-43070D03*
X50118Y-35039D03*
X49566Y-42716D03*
X66456Y-38818D03*
X72834Y-42755D03*
X47480Y-39665D03*
X51003Y-41712D03*
X64960Y-43307D03*
X47637Y-35314D03*
X61181Y-42716D03*
X52283Y-37125D03*
X59350Y-36811D03*
X64251Y-37165D03*
X61515Y-35826D03*
X64665Y-42716D03*
X63484Y-41929D03*
X61712Y-42618D03*
X61220Y-41929D03*
X61614Y-40354D03*
X60433Y-39271D03*
X65748Y-35629D03*
X68011Y-35728D03*
X66535Y-36712D03*
X73917Y-38976D03*
X71653Y-39271D03*
X70669Y-39271D03*
X72440Y-36220D03*
X72440Y-35826D03*
X72047Y-35826D03*
X72047Y-36220D03*
X71653Y-36220D03*
X71653Y-35826D03*
X51141Y-42755D03*
X62755Y-42716D03*
X74370Y-42755D03*
X50826Y-37992D03*
X61653Y-37322D03*
X50905Y-37598D03*
X61338Y-37598D03*
X57972Y-37204D03*
X50078Y-37992D03*
X50748Y-38307D03*
X62480Y-37165D03*
X59763Y-35787D03*
X49763Y-36377D03*
X60350Y-36450D03*
X56900Y-36950D03*
X65255Y-40196D03*
X65492Y-40570D03*
X64783Y-39527D03*
X65019Y-39842D03*
X64527Y-34645D03*
X64842Y-34645D03*
X64212Y-34645D03*
X63425Y-34685D03*
X62696Y-34724D03*
X63090Y-34625D03*
X60374Y-34960D03*
X60275Y-35334D03*
X49724Y-46417D03*
X61299Y-46417D03*
X72913Y-46417D03*
X50275Y-46456D03*
X61889Y-46456D03*
X73503Y-46456D03*
X51259Y-46417D03*
X62913Y-46417D03*
X74527Y-46417D03*
X50708Y-46456D03*
X62322Y-46456D03*
X73937Y-46456D03*
X58976Y-38503D03*
X48582Y-35314D03*
X59350Y-41338D03*
X55787Y-41338D03*
X61023Y-34881D03*
X51062Y-36023D03*
X60629Y-40354D03*
X56535Y-41062D03*
X49133Y-37322D03*
X48818Y-37322D03*
X51102Y-39291D03*
X51102Y-38976D03*
X49842Y-37322D03*
X49488Y-37322D03*
X47650Y-38000D03*
X51929Y-46062D03*
X63543Y-46062D03*
X75118Y-46023D03*
X47550Y-39100D03*
X49055Y-41535D03*
X64055Y-42874D03*
X59980Y-43110D03*
X65944Y-41141D03*
X73228Y-47795D03*
X73700Y-47795D03*
X74212Y-47795D03*
X62598Y-47795D03*
X62086Y-47795D03*
X61614Y-47795D03*
X50000Y-47795D03*
X50472Y-47795D03*
X50984Y-47795D03*
X51023Y-36653D03*
X51259Y-35078D03*
X70118Y-38818D03*
X65255Y-36515D03*
X65255Y-36122D03*
X66535Y-35925D03*
G54D16*
X60629Y-38858D02*
X61102Y-39330D01*
X61102Y-39330D02*
X61102Y-40590D01*
X61102Y-40590D02*
X61496Y-40984D01*
X60393Y-38858D02*
X60629Y-38858D01*
X62362Y-35826D02*
X60393Y-37795D01*
X60393Y-37795D02*
X60393Y-38858D01*
X62362Y-35826D02*
X62893Y-35826D01*
X62893Y-35826D02*
X63267Y-35826D01*
X65354Y-37480D02*
X65354Y-37559D01*
X64448Y-36574D02*
X65354Y-37480D01*
X64015Y-36574D02*
X64448Y-36574D01*
X63267Y-35826D02*
X64015Y-36574D01*
X77600Y-49200D02*
X77600Y-40985D01*
X77600Y-40985D02*
X77559Y-40944D01*
G54D17*
X64960Y-43307D02*
X64960Y-44094D01*
X66082Y-46929D02*
X66515Y-46929D01*
X65728Y-46574D02*
X66082Y-46929D01*
X65728Y-44862D02*
X65728Y-46574D01*
X64960Y-44094D02*
X65728Y-44862D01*
G54D18*
X63779Y-34133D02*
X64015Y-34133D01*
X54972Y-34555D02*
X55393Y-34133D01*
X55393Y-34133D02*
X63779Y-34133D01*
X54972Y-34555D02*
X54972Y-34618D01*
X64015Y-34133D02*
X64527Y-34645D01*
X63425Y-34685D02*
X63425Y-34774D01*
X58535Y-36181D02*
X57972Y-35618D01*
X60039Y-36181D02*
X58535Y-36181D01*
X60433Y-35787D02*
X60039Y-36181D01*
X61141Y-35787D02*
X60433Y-35787D01*
X61968Y-34960D02*
X61141Y-35787D01*
X63239Y-34960D02*
X61968Y-34960D01*
X63425Y-34774D02*
X63239Y-34960D01*
X61909Y-34744D02*
X62677Y-34744D01*
X53972Y-35259D02*
X54015Y-35216D01*
X54015Y-35216D02*
X59625Y-35216D01*
X59625Y-35216D02*
X60000Y-35590D01*
X60000Y-35590D02*
X61062Y-35590D01*
X61062Y-35590D02*
X61909Y-34744D01*
X53972Y-35618D02*
X53972Y-35259D01*
X62677Y-34744D02*
X62696Y-34724D01*
X60452Y-34488D02*
X62952Y-34488D01*
X52972Y-35610D02*
X52972Y-35618D01*
X59921Y-35019D02*
X60452Y-34488D01*
X53562Y-35019D02*
X59921Y-35019D01*
X52972Y-35610D02*
X53562Y-35019D01*
X62952Y-34488D02*
X63090Y-34625D01*
X51377Y-36299D02*
X51023Y-36653D01*
X51377Y-35866D02*
X51377Y-36299D01*
X51259Y-35748D02*
X51377Y-35866D01*
X51259Y-35078D02*
X51259Y-35748D01*
M02*
